<svg xmlns="http://www.w3.org/2000/svg" viewBox="0 0 241.75 171.54"><defs><linearGradient id="a" x1="-548.12" y1="279.4" x2="-308.03" y2="365.34" gradientTransform="matrix(1 0 0 -1 564 409.52)" gradientUnits="userSpaceOnUse"><stop offset="0" stop-color="#f8cb39"/><stop offset="1" stop-color="#ff4045"/></linearGradient></defs><g data-name="Layer 2"><g data-name="Layer 1"><path d="M60.11 0h181.64v171.42H60.11c-82.56 3.09-77.7-57.28 0-57.28s76.82-55.53 0-55.53S-22 0 60.11 0z" fill="url(#a)"/><path d="M148.79 171.09l-36.46.14q-3-26.37-3.38-53.94c-.06-4.94-.27-9.86-.54-14.79 14-10.26 12.72-25-3.74-34.53-.4-2.86-.79-5.72-1.19-8.58l.11-.46c-1.38-8.9-.38-17.21 1.25-25.37V33c.28-1.88.55-3.75.83-5.62.61-4.2 1.23-8.41 1.86-12.6A120.44 120.44 0 00108.88 0H130l1.11 5 1 4.46v.89l1.32 5.82.26 1.17c.09.41.18.81.26 1.21.22 1.09.43 2.17.65 3.25v-.12l.63 2.91v-.09l.52 2.62v.36l.13.23-.06.35 1 5 .63 4.22c2.14 11.09 1.81 22.46.52 33.73-.65 5.63-1.46 11.16-2.27 16.7-.36 2.49-.73 5-1.08 7.47v.49c-1.16 13-1.44 26 .58 38.77v-.1.19l.36 1.85.19.93v-.08.12c.2.91.41 1.83.61 2.75l.69 2.7v-.12l.68 2.77 1.81 5.59 3.23 8.1.8 1.72.45 1zM87.66 60.89l-.12.59a113.27 113.27 0 00-21.07-2.74l1.23-5.15v.14l.68-2.73.52-1.72-.08.1.79-2.66v.05l3.78-12.43.58-1.63-.07.16.74-2.79.38-1.4L76 25v-.06L77.7 19l1.85-7 .06-.23.06-.25L82.46 0h20.94c-.18 1.08-.35 2.17-.53 3.25-.33 2-.67 4.09-1 6.13l-.27 1.43-.26 1.43-1.23 5.76v-.1c-.42 1.76-.85 3.51-1.28 5.27v.22-.06l-.21.76-1 3.55-2 6.66v.08L95.09 36v-.09l-.09.29c-.16.44-.32.88-.49 1.31h.06l-.25.77c-.35 1.07-.71 2.14-1.06 3.21l-.2.58c-.55 1.68-1.11 3.36-1.66 5l-.13.47v.14q-1.82 6.61-3.61 13.22zm1.69 56.52c-.47-2.06-.93-4.13-1.4-6.19a121.42 121.42 0 01-27.84 2.92H57.5a51.33 51.33 0 01-3.69 8.51c-2.14 3.88-4.46 7.28-6.77 10.68-1 1.51-2.07 3-3.09 4.59v.08l-4.68 6v-.08l-5.65 7-.17.21-2.16 2.87-2.58 3.89-.62.84-.62.84c-.23 0-.4.28-.5.74l-.62 1.08-.62 1.08-.69 1.28v-.08l-.7 1.4v-.11c-.23.44-.47.88-.71 1.31v-.1l-.52.95-.18.32c9.39 3 21.72 4.64 37.06 4.06l43.44-.16-.72-3.67v-.1l-.25.13.14-.11.1-.08-.75-3.32-.11-.5-.61-2.56-.69-2.88-.24-.94-.22-.83-1.44-5.17-.9-2.25-.74-2.34-2.8-9.49-2.84-9.61-.2-1.46-.37-2.81-1.21-4.63zM25.05 4.72c-27.63 9-31.47 28.62-13.9 41.56C16.78 34.1 21 19.52 25.05 4.72zm5.62 50.4a111.08 111.08 0 0026.24 3.46q7.31-18 7.32-43.66V8.19.05h-4.12A140.24 140.24 0 0039.9 1.36v.57c-1.7 19.12-4.06 37.73-9.23 53.19zM161.38 171l-1-2.41v-.09l-.62-1.44v-.4l-.06.38-1.65-4.59-3.66-11.27-3.8-16.61v.09l-.71-4.21v.13c-2.93-14.14-2.63-29-2.11-44 .08-2.34.16-4.69.25-7 .41-11.18.82-22.39.69-33.54a117.67 117.67 0 00-1.55-15.64c-.33-2.34-.67-4.69-.94-7L141.23 0h26.66q4 8.16 7.94 16.31v.11l.08.15.09.18.11.24.13.26.2.51c.14.32.27.64.4 1l.44 1 .17.38c.18.51.36 1 .53 1.54l.46 1.43.14.41c.5 1.55 1 3.1 1.51 4.65.14.58.28 1.16.43 1.73l.46 2.43.09.44c.16 2.66.37 5.33.58 8 .47 5.92.93 11.84.88 17.73-.17 17.16-.34 34.2 1.65 51v.51l.43 2.31a1.22 1.22 0 01.14.9l2.46 10.08 6.25 12.84.54 1.1.81 1v-.1l2.64 3.1.16-.08.09.31 15.5 15.33 2.13 4.83q1.09 2.46 2.18 4.93c.14 1.43.31 2.85.48 4.27zm-136-46.91c.58-1.81 1.15-3.62 1.74-5.42-29.35 9.36-35.38 31-15.58 43.46 5.3-11.37 9.57-24.7 13.83-38zM190.52 0h39.77c.44 4.92.66 10 .75 15.15.18 10.88 1.71 20.16 5 28.14 1.65 4 3.27 8 4.87 12V123q-1.55-3.14-3.1-6.29a81.73 81.73 0 01-11.72-26.2l-.39-1.32-.15-.5-.7-2.69v.06l-.74-2.81c-.12-.5-.24-1-.37-1.51l-.15-.61-.59-2.25a1.35 1.35 0 01-.33-1c-.17-.7-.35-1.39-.52-2.08-.39-1.51-.77-3-1.09-4.59q-1.49-7.48-3-15c-1.67-8.53-3.34-17.06-5.07-25.54a68.46 68.46 0 00-1.88-6.85c-.32-1-.64-2-.93-3.07l-.94.76c-1.9 13-1.27 26.22-.64 39.48l.06 1.29c.1 1.54.19 3.08.29 4.61.07.39.15.78.22 1.16s.15.78.23 1.16a1.25 1.25 0 01.11.92c.09.57.19 1.14.28 1.72s.17 1 .26 1.55l.14.24-.05.39c.25 1.12.49 2.24.73 3.37q2.93 8.56 5.84 17.12l2.11 6.2v.18c.11.26.23.52.35.77s.22.46.32.69l-.06-.13c.23.49.46 1 .7 1.47v-.06q1.44 2.92 2.9 5.86l.69 1.35v-.11l.68 1.49v-.13l.74 1.38-.06-.15.15.31.55 1.14-.05-.14 1.06 1.89q1.29 2.64 2.59 5.28c.23.47.45 1 .68 1.43l-.05-.11c.23.47.46.93.7 1.4v-.08l.65 1.47v-.06l1.26 2.71.66 1.47V130l1.21 2.83.21.51.42 1v-.09c.21.5.43 1 .64 1.52v-.09l.61 1.54v-.06.09c.19.48.38 1 .56 1.44l.57 1.48 1.85 5.53v.05l1.75 6.83v18.17h-12.68c-.34-2.12-.72-4.22-1.11-6.33-.43-2.36-.86-4.72-1.22-7.09l.22-.38-.24.35-.73-2.5-.48-1.63.13-.31-.15.25-1.28-3.78-.09-.3-2.5-7.46-3.41-6.44-3-6-.67-1.46v.1l-.72-1.38.06.13-.26-.48-.39-.76-.08-.15.06.16-.18-.32-.35-.62-.07-.12-.21-.38-.25-.44v-.08l-4.45-8.17-.57-1-.38-.76-.45-.9-1-1.69-.29-.57-.33-.66-.65-1.32-.65-1.4-.67-1.35v.1c-.1-.22-.21-.44-.31-.67v-.06l-.19-.41-.1-.21c-.2-.47-.41-.93-.62-1.39s-.45-.92-.68-1.38v.08l-2.4-5.72-1.42-3.85v-.06l-.12-.34L195 88v-.21l-.51-1.76v.07l-.58-3.64-.06-.38v-.16Q193 76.49 192.1 71V50.55l.1-2.24q.12-4.17.25-8.34c.2-6.21.39-12.42.46-18.63A79.8 79.8 0 00190.52 0z" fill="#383838" fill-rule="evenodd"/></g></g></svg>