<svg width="721" height="540" viewBox="0 0 721 540" fill="none" xmlns="http://www.w3.org/2000/svg">
<g opacity="0.88">
<g opacity="0.64">
<path opacity="0.64" d="M452.257 444.213L473.794 456.628L516.868 431.799V387.022L509.596 391.218V427.603L473.794 448.245L442.25 430.057L434.978 434.244L452.257 444.213Z" fill="url(#paint0_linear)"/>
<path opacity="0.64" d="M452.257 369.708L430.72 382.123L430.728 406.961L430.72 426.892L438 422.696L437.991 386.319L473.794 365.677L505.346 383.865L512.618 379.67L473.794 357.286L452.257 369.708Z" fill="url(#paint1_linear)"/>
</g>
<path opacity="0.88" d="M499.401 362.675L520.938 375.09L564.003 350.252V305.484L556.731 309.679V346.065L520.938 366.707L489.385 348.51L482.114 352.706L499.401 362.675Z" fill="url(#paint2_linear)"/>
<path opacity="0.88" d="M516.679 304.772L516.687 296.389L493.636 309.679V341.158L516.679 354.448V346.065L500.907 336.962V313.875L516.679 304.772Z" fill="url(#paint3_linear)"/>
<path opacity="0.88" d="M525.188 304.772L540.96 313.875V336.962L525.188 346.065V354.448L548.231 341.158V309.679L525.188 296.389V304.772Z" fill="url(#paint4_linear)"/>
<path opacity="0.88" d="M499.401 288.162L477.864 300.585V325.414V345.353L485.135 341.158V304.772L520.938 284.13L552.481 302.327L559.753 298.131L520.938 275.747L499.401 288.162Z" fill="url(#paint5_linear)"/>
<path opacity="0.88" d="M593.901 362.405L615.438 374.82L658.512 349.982V305.214L651.24 309.409V345.787L615.438 366.429L583.886 348.24L576.614 352.436L593.901 362.405Z" fill="url(#paint6_linear)"/>
<path opacity="0.88" d="M593.901 287.892L572.364 300.307V325.145V345.075L579.636 340.888V304.502L615.438 283.86L646.99 302.049L654.262 297.862L615.438 275.477L593.901 287.892Z" fill="url(#paint7_linear)"/>
<g opacity="0.64">
<path opacity="0.64" d="M546.888 280.523L568.425 292.946L611.491 268.109V223.34L604.227 227.536V263.913L568.425 284.555L536.873 266.367L529.601 270.562L546.888 280.523Z" fill="url(#paint8_linear)"/>
<path opacity="0.64" d="M564.175 222.629V214.246L541.123 227.536V259.014L564.175 272.304V263.913L548.395 254.819V231.723L564.175 222.629Z" fill="url(#paint9_linear)"/>
<path opacity="0.64" d="M572.675 222.629L588.447 231.723V254.819L572.675 263.913V272.304L595.719 259.014V227.536L572.675 214.246V222.629Z" fill="url(#paint10_linear)"/>
<path opacity="0.64" d="M546.888 206.018L525.351 218.433V243.271V263.21L532.623 259.014V222.629L568.425 201.987L599.969 220.175L607.241 215.988L568.425 193.604L546.888 206.018Z" fill="url(#paint11_linear)"/>
</g>
<path opacity="0.88" d="M641.389 280.254L662.926 292.676L706 267.839V223.07L698.728 227.258V263.643L662.926 284.285L631.374 266.097L624.11 270.292L641.389 280.254Z" fill="url(#paint12_linear)"/>
<path opacity="0.88" d="M641.389 205.749L619.852 218.163V243.001V262.932L627.124 258.744V222.359L662.926 201.717L694.478 219.905L701.75 215.71L662.926 193.326L641.389 205.749Z" fill="url(#paint13_linear)"/>
<path opacity="0.88" d="M594.024 198.985L615.561 211.408L658.635 186.57V141.794L651.363 145.989V182.375L615.561 203.017L584.009 184.828L576.737 189.024L594.024 198.985Z" fill="url(#paint14_linear)"/>
<path opacity="0.88" d="M611.311 141.09V132.699L588.267 145.989L588.259 177.476L611.311 190.758V182.375L595.539 173.28V150.185L611.311 141.09Z" fill="url(#paint15_linear)"/>
<path opacity="0.88" d="M619.811 141.09L635.591 150.185V173.28L619.811 182.375V190.758L642.855 177.476V145.989L619.811 132.699V141.09Z" fill="url(#paint16_linear)"/>
<path opacity="0.88" d="M594.024 124.48L572.487 136.895V161.733V181.663L579.759 177.476V141.09L615.561 120.448L647.113 138.637L654.385 134.441L615.561 112.057L594.024 124.48Z" fill="url(#paint17_linear)"/>
<path opacity="0.88" d="M546.413 444.549L567.95 456.963L611.024 432.126V387.357L603.753 391.553V427.938L567.95 448.581L536.398 430.384L529.126 434.579L546.413 444.549Z" fill="url(#paint18_linear)"/>
<path opacity="0.88" d="M546.413 370.036L524.876 382.459V407.288V427.227L532.148 423.031V386.646L567.95 366.004L599.502 384.192L606.774 380.005L567.95 357.621L546.413 370.036Z" fill="url(#paint19_linear)"/>
<g opacity="0.64">
<path opacity="0.64" d="M498.434 198.92L519.963 211.343L563.037 186.505V141.737L555.765 145.932V182.309L519.971 202.952L488.419 184.763L481.147 188.958L498.434 198.92Z" fill="url(#paint20_linear)"/>
<path opacity="0.64" d="M515.713 141.025L515.721 132.642L492.669 145.932V177.411L515.713 190.7V182.309L499.941 173.215V150.119L515.713 141.025Z" fill="url(#paint21_linear)"/>
<path opacity="0.64" d="M524.221 141.025L539.993 150.119V173.215L524.221 182.309V190.7L547.265 177.411V145.932L524.221 132.642V141.025Z" fill="url(#paint22_linear)"/>
<path opacity="0.64" d="M519.971 112L498.434 124.415L476.897 136.838V161.667V181.606L484.169 177.411V141.025L519.971 120.383L551.515 138.572L558.787 134.384" fill="url(#paint23_linear)"/>
</g>
<path opacity="0.88" d="M618.1 159.974L618.108 151.15L625.421 155.362V163.802L618.1 159.974Z" fill="#9F21FA"/>
<path opacity="0.88" d="M615.078 172.667L607.765 168.447L615.061 164.62L622.391 168.447L615.078 172.667Z" fill="#9F21FA"/>
<path opacity="0.88" d="M612.932 159.843L612.916 151.019L605.603 155.231V163.671L612.932 159.843Z" fill="#9F21FA"/>
<path opacity="0.88" d="M358.182 440.247L379.719 452.67L422.793 427.832V383.056L415.521 387.251V423.637L379.719 444.279L348.167 426.09L340.895 430.286L358.182 440.247Z" fill="url(#paint24_linear)"/>
<path opacity="0.88" d="M375.469 382.352V373.961L352.425 387.251L352.417 418.738L375.469 432.019V423.637L359.697 414.542V391.447L375.469 382.352Z" fill="url(#paint25_linear)"/>
<path opacity="0.88" d="M383.969 382.352L399.749 391.447V414.542L383.969 423.637V432.019L407.013 418.738V387.251L383.969 373.961V382.352Z" fill="url(#paint26_linear)"/>
<path opacity="0.88" d="M358.182 365.742L336.645 378.157V402.994V422.925L343.917 418.738V382.352L379.719 361.71L411.271 379.899L418.543 375.703L379.719 353.319L358.182 365.742Z" fill="url(#paint27_linear)"/>
<path opacity="0.88" d="M382.257 401.236L382.266 392.412L389.578 396.623V405.064L382.257 401.236Z" fill="#9F21FA"/>
<path opacity="0.88" d="M379.236 413.929L371.923 409.709L379.219 405.881L386.548 409.709L379.236 413.929Z" fill="#9F21FA"/>
<path opacity="0.88" d="M377.09 401.105L377.074 392.281L369.761 396.493V404.933L377.09 401.105Z" fill="#9F21FA"/>
<path opacity="0.88" d="M265.646 437.793L287.183 450.216L330.257 425.379V380.602L322.986 384.798V421.183L287.183 441.825L255.631 423.637L248.36 427.832L265.646 437.793Z" fill="url(#paint28_linear)"/>
<path opacity="0.88" d="M282.933 379.899V371.508L259.89 384.798L259.881 416.284L282.933 429.566V421.183L267.161 412.089V388.993L282.933 379.899Z" fill="url(#paint29_linear)"/>
<path opacity="0.88" d="M291.434 379.899L307.214 388.993V412.089L291.434 421.183V429.566L314.477 416.284V384.798L291.434 371.508V379.899Z" fill="url(#paint30_linear)"/>
<path opacity="0.88" d="M265.646 363.288L244.109 375.703V400.541V420.472L251.381 416.284V379.899L287.183 359.256L318.736 377.445L326.007 373.25L287.183 350.865L265.646 363.288Z" fill="url(#paint31_linear)"/>
<path opacity="0.88" d="M289.722 398.783L289.73 389.958L297.043 394.17V402.61L289.722 398.783Z" fill="#9F21FA"/>
<path opacity="0.88" d="M286.7 411.475L279.387 407.255L286.684 403.428L294.013 407.255L286.7 411.475Z" fill="#9F21FA"/>
<path opacity="0.88" d="M284.555 398.652L284.538 389.827L277.226 394.039V402.479L284.555 398.652Z" fill="#9F21FA"/>
<path opacity="0.88" d="M309.867 519.577L331.404 532L374.478 507.162V462.386L367.206 466.581V502.967L331.404 523.609L299.852 505.42L292.58 509.616L309.867 519.577Z" fill="url(#paint32_linear)"/>
<path opacity="0.88" d="M327.154 461.682V453.291L304.11 466.581L304.102 498.068L327.154 511.35V502.967L311.382 493.872V470.777L327.154 461.682Z" fill="url(#paint33_linear)"/>
<path opacity="0.88" d="M335.654 461.682L351.434 470.777V493.872L335.654 502.967V511.35L358.698 498.068V466.581L335.654 453.291V461.682Z" fill="url(#paint34_linear)"/>
<path opacity="0.88" d="M309.867 445.072L288.33 457.487V482.325V502.255L295.602 498.068V461.682L331.404 441.04L362.956 459.229L370.228 455.033L331.404 432.649L309.867 445.072Z" fill="url(#paint35_linear)"/>
<path opacity="0.88" d="M333.942 480.566L333.951 471.742L341.263 475.954V484.394L333.942 480.566Z" fill="#9F21FA"/>
<path opacity="0.88" d="M330.921 493.259L323.608 489.039L330.904 485.211L338.233 489.039L330.921 493.259Z" fill="#9F21FA"/>
<path opacity="0.88" d="M328.775 480.435L328.759 471.611L321.446 475.823V484.263L328.775 480.435Z" fill="#9F21FA"/>
<path opacity="0.88" d="M523.124 323.877L523.132 315.052L530.445 319.264V327.696L523.124 323.877Z" fill="#6286F9"/>
<path opacity="0.88" d="M520.102 336.562L512.789 332.35L520.086 328.522L527.415 332.35L520.102 336.562Z" fill="#6286F9"/>
<path opacity="0.88" d="M517.957 323.746L517.94 314.922L510.628 319.133V327.565L517.957 323.746Z" fill="#6286F9"/>
<path opacity="0.88" d="M522.665 160.686L522.69 145.351L535.391 152.679V167.327L522.665 160.686Z" fill="#6286F9"/>
<path opacity="0.88" d="M519.84 179.095L507.139 171.767L519.824 165.127L532.541 171.767L519.84 179.095Z" fill="#6286F9"/>
<path opacity="0.88" d="M517.662 160.457L517.646 145.131L504.936 152.45V167.098L517.662 160.457Z" fill="#6286F9"/>
<path opacity="0.88" d="M570.882 242.134L570.898 226.808L583.599 234.128V248.775L570.882 242.134Z" fill="url(#paint36_linear)"/>
<path opacity="0.88" d="M568.049 260.544L555.348 253.216L568.032 246.575L580.758 253.216L568.049 260.544Z" fill="url(#paint37_linear)"/>
<path opacity="0.88" d="M565.87 241.905L565.854 226.579L553.153 233.899V248.554L565.87 241.905Z" fill="url(#paint38_linear)"/>
<path opacity="0.88" d="M563.889 409.872L563.856 432.502L545.103 421.69V400.066L563.889 409.872Z" fill="url(#paint39_linear)"/>
<path opacity="0.88" d="M568.761 381.927L587.514 392.739L568.786 402.553L550.008 392.739L568.761 381.927Z" fill="url(#paint40_linear)"/>
<path opacity="0.88" d="M572.675 410.216L572.708 432.845L591.461 422.025V400.402L572.675 410.216Z" fill="url(#paint41_linear)"/>
<g opacity="0.73">
<path opacity="0.73" d="M666.955 241.873L666.98 219.244L685.732 230.055V251.679L666.955 241.873Z" fill="#6286F9"/>
<path opacity="0.73" d="M662.083 269.818L643.33 259.006L662.058 249.192L680.835 259.006L662.083 269.818Z" fill="url(#paint42_linear)"/>
<path opacity="0.73" d="M658.168 241.537L658.136 218.908L639.383 229.719V251.343L658.168 241.537Z" fill="#6286F9"/>
</g>
<path opacity="0.88" d="M489.738 385.247L499.122 390.293L488.894 395.65L478.641 390.293L489.738 385.247Z" fill="url(#paint43_linear)"/>
<path opacity="0.88" d="M471.583 423.048L471.566 435.405L461.322 429.5V417.691L471.583 423.048Z" fill="url(#paint44_linear)"/>
<path opacity="0.88" d="M457.276 415.597L457.26 427.955L447.024 422.05V410.24L457.276 415.597Z" fill="#4714F6"/>
<path opacity="0.88" d="M475.62 422.639L475.636 434.996L485.872 429.092V417.282L475.62 422.639Z" fill="url(#paint45_linear)"/>
<path opacity="0.88" d="M474.097 407.746L484.333 413.651L474.113 419.008L463.852 413.651L474.097 407.746Z" fill="#4714F6"/>
<path opacity="0.88" d="M486.503 398.21L486.487 410.568L476.242 404.663V392.853L486.503 398.21Z" fill="#4A84FA"/>
<path opacity="0.88" d="M490.466 398.423L490.483 410.78L500.719 404.875V393.066L490.466 398.423Z" fill="#4A84FA"/>
<path opacity="0.88" d="M490.466 414.567L490.483 426.924L500.719 421.019V409.21L490.466 414.567Z" fill="#4714F6"/>
<path opacity="0.88" d="M457.276 398.832L457.26 411.189L447.024 405.284V393.475L457.276 398.832Z" fill="#4A84FA"/>
<path opacity="0.88" d="M461.396 398.423L461.412 410.78L471.648 404.875V393.066L461.396 398.423Z" fill="#4A84FA"/>
<path opacity="0.88" d="M459.094 385.247L469.339 390.293L459.111 395.65L448.858 390.293L459.094 385.247Z" fill="url(#paint46_linear)"/>
<path opacity="0.88" d="M475.12 376.815L485.356 382.72L475.128 388.077L464.876 382.72L475.12 376.815Z" fill="#4714F6"/>
<path opacity="0.88" d="M599.748 346.482L590.372 341.436L600.6 336.079L610.852 341.436L599.748 346.482Z" fill="url(#paint47_linear)"/>
<path opacity="0.88" d="M617.911 308.682L617.928 296.324L628.172 302.229V314.038L617.911 308.682Z" fill="#6286F9"/>
<path opacity="0.88" d="M632.209 316.132L632.226 303.774L642.47 309.679V321.489L632.209 316.132Z" fill="#5E18ED"/>
<path opacity="0.88" d="M613.874 309.09L613.858 296.733L603.622 302.638V314.447L613.874 309.09Z" fill="#6286F9"/>
<path opacity="0.88" d="M615.397 323.975L605.161 318.078L615.381 312.722L625.642 318.078L615.397 323.975Z" fill="#5E18ED"/>
<path opacity="0.88" d="M602.991 333.519L603.007 321.162L613.244 327.066V338.876L602.991 333.519Z" fill="#6286F9"/>
<path opacity="0.88" d="M599.028 333.307L599.011 320.949L588.775 326.854V338.663L599.028 333.307Z" fill="#6286F9"/>
<path opacity="0.88" d="M599.028 317.162L599.011 304.805L588.775 310.71V322.519L599.028 317.162Z" fill="#5E18ED"/>
<path opacity="0.88" d="M632.209 332.898L632.226 320.54L642.47 326.445V338.254L632.209 332.898Z" fill="#6286F9"/>
<path opacity="0.88" d="M628.098 333.307L628.082 320.949L617.838 326.854V338.663L628.098 333.307Z" fill="#6286F9"/>
<path opacity="0.88" d="M630.399 346.482L620.155 341.436L630.383 336.079L640.636 341.436L630.399 346.482Z" fill="url(#paint48_linear)"/>
<path opacity="0.88" d="M614.374 354.906L604.137 349.001L614.357 343.644L624.618 349.001L614.374 354.906Z" fill="#5E18ED"/>
</g>
<g opacity="0.88">
<g opacity="0.64">
<path opacity="0.64" d="M213.475 358.152L191.053 345.231L146.21 371.082V417.699L153.777 413.332V375.45L191.053 353.957L223.899 372.898L231.466 368.531L213.475 358.152Z" fill="url(#paint49_linear)"/>
<path opacity="0.64" d="M195.475 418.435V427.161L219.469 413.324V380.553L195.475 366.723V375.45L211.902 384.92V408.965L195.475 418.435Z" fill="url(#paint50_linear)"/>
<path opacity="0.64" d="M186.623 418.435L170.204 408.965V384.92L186.623 375.45V366.723L162.629 380.553V413.332L186.623 427.161V418.435Z" fill="url(#paint51_linear)"/>
<path opacity="0.64" d="M213.475 435.724L235.896 422.802V396.942V376.186L228.321 380.553V418.435L191.053 439.928L158.207 420.987L150.632 425.354L191.053 448.654L213.475 435.724Z" fill="url(#paint52_linear)"/>
</g>
<path opacity="0.88" d="M115.264 353.908L92.8428 340.978L48 366.838V413.446L55.5666 409.079V371.197L92.8428 349.712L125.689 368.645L133.255 364.286L115.264 353.908Z" fill="url(#paint53_linear)"/>
<path opacity="0.88" d="M97.2649 414.182V422.917L121.259 409.079V376.3L97.2649 362.471V371.197L113.692 380.667V404.712L97.2649 414.182Z" fill="url(#paint54_linear)"/>
<path opacity="0.88" d="M88.4126 414.182L71.9937 404.712V380.667L88.4126 371.197V362.471L64.4189 376.308V409.079L88.4126 422.917V414.182Z" fill="url(#paint55_linear)"/>
<path opacity="0.88" d="M115.264 431.48L137.686 418.55V392.69V371.941L130.111 376.308V414.182L92.8428 435.675L59.9969 416.734L52.4221 421.101L92.8428 444.41L115.264 431.48Z" fill="url(#paint56_linear)"/>
<path opacity="0.88" d="M90.1978 394.522L90.1896 403.706L82.5739 399.322V390.539L90.1978 394.522Z" fill="#9F21FA"/>
<path opacity="0.88" d="M93.3505 381.305L100.958 385.697L93.3587 389.68L85.7348 385.697L93.3505 381.305Z" fill="#9F21FA"/>
<path opacity="0.88" d="M95.5779 394.661L95.5943 403.845L103.202 399.453V390.678L95.5779 394.661Z" fill="#9F21FA"/>
<path opacity="0.88" d="M188.49 398.128L188.474 414.084L175.248 406.462V391.209L188.49 398.128Z" fill="url(#paint57_linear)"/>
<path opacity="0.88" d="M191.438 378.958L204.663 386.589L191.454 393.508L178.213 386.589L191.438 378.958Z" fill="url(#paint58_linear)"/>
<path opacity="0.88" d="M193.706 398.365L193.723 414.321L206.948 406.699V391.447L193.706 398.365Z" fill="url(#paint59_linear)"/>
</g>
<path d="M129.677 236.147C129.851 236.148 130.023 236.18 130.185 236.241C130.371 236.313 130.539 236.425 130.677 236.569L133.536 239.576C132.318 241.192 130.704 242.467 128.849 243.278C126.732 244.157 124.454 244.583 122.163 244.528C119.988 244.561 117.83 244.152 115.819 243.325C114.014 242.569 112.392 241.434 111.062 239.998C109.731 238.539 108.71 236.825 108.062 234.96C107.35 232.93 106.996 230.792 107.016 228.641C106.99 226.453 107.397 224.282 108.211 222.252C108.963 220.352 110.103 218.63 111.558 217.197C113.014 215.763 114.752 214.649 116.663 213.926C118.766 213.118 121.004 212.717 123.256 212.746C124.363 212.743 125.467 212.848 126.553 213.059C127.541 213.252 128.508 213.537 129.443 213.91C130.308 214.26 131.135 214.697 131.912 215.214C132.641 215.695 133.314 216.256 133.919 216.886L131.49 220.174C131.327 220.375 131.141 220.556 130.935 220.713C130.671 220.892 130.356 220.98 130.037 220.963C129.784 220.965 129.535 220.906 129.31 220.791C129.084 220.674 128.842 220.541 128.584 220.377L127.748 219.838C127.399 219.631 127.033 219.453 126.654 219.307C126.177 219.128 125.686 218.99 125.186 218.893C124.534 218.769 123.872 218.712 123.209 218.721C121.982 218.707 120.764 218.944 119.632 219.417C118.568 219.866 117.616 220.543 116.843 221.4C116.039 222.313 115.423 223.374 115.03 224.525C114.582 225.85 114.363 227.242 114.382 228.641C114.359 230.081 114.579 231.515 115.03 232.882C115.415 234.028 116.017 235.089 116.804 236.006C117.522 236.833 118.412 237.491 119.413 237.936C120.421 238.382 121.513 238.608 122.616 238.6C123.213 238.603 123.811 238.571 124.405 238.506C124.917 238.443 125.422 238.331 125.912 238.17C126.372 238.014 126.815 237.809 127.232 237.561C127.684 237.293 128.111 236.985 128.506 236.639C128.668 236.493 128.853 236.375 129.053 236.288C129.248 236.195 129.461 236.147 129.677 236.147V236.147Z" fill="#252F3E"/>
<path d="M168.557 228.641C168.576 230.779 168.181 232.901 167.393 234.89C166.65 236.795 165.521 238.527 164.078 239.976C162.634 241.425 160.906 242.56 159.003 243.309C154.749 244.934 150.046 244.934 145.793 243.309C143.879 242.55 142.14 241.407 140.684 239.951C139.256 238.51 138.137 236.793 137.395 234.905C135.844 230.87 135.844 226.404 137.395 222.369C138.135 220.484 139.254 218.772 140.684 217.339C142.143 215.888 143.881 214.748 145.793 213.988C150.045 212.358 154.75 212.358 159.003 213.988C160.907 214.754 162.636 215.896 164.088 217.347C165.508 218.788 166.622 220.502 167.361 222.385C168.162 224.373 168.568 226.498 168.557 228.641V228.641ZM161.174 228.641C161.195 227.236 160.995 225.836 160.581 224.493C160.23 223.344 159.645 222.281 158.862 221.369C158.113 220.509 157.175 219.835 156.12 219.401C154.949 218.93 153.695 218.699 152.433 218.721C151.161 218.699 149.897 218.93 148.715 219.401C147.656 219.835 146.712 220.509 145.957 221.369C145.177 222.283 144.592 223.346 144.239 224.493C143.828 225.837 143.628 227.236 143.645 228.641C143.628 230.053 143.828 231.46 144.239 232.812C144.596 233.958 145.18 235.021 145.957 235.936C146.711 236.792 147.655 237.458 148.715 237.881C149.897 238.349 151.161 238.578 152.433 238.553C153.695 238.578 154.948 238.349 156.12 237.881C157.175 237.458 158.114 236.792 158.862 235.936C159.642 235.022 160.226 233.959 160.581 232.812C160.995 231.461 161.195 230.054 161.174 228.641V228.641Z" fill="#252F3E"/>
<path d="M189.789 231.664C190.054 232.249 190.304 232.843 190.57 233.46C190.812 232.835 191.07 232.226 191.351 231.632C191.632 231.039 191.898 230.469 192.187 229.914L200.163 214.199C200.277 213.971 200.425 213.76 200.6 213.574C200.744 213.432 200.914 213.318 201.1 213.238C201.303 213.167 201.518 213.132 201.733 213.137H208.053V244.184H201.702V226.313C201.702 225.446 201.741 224.509 201.827 223.502L193.593 239.474C193.364 239.94 193.006 240.33 192.562 240.599C192.112 240.862 191.599 240.997 191.078 240.99H190.093C189.575 240.998 189.064 240.863 188.617 240.599C188.169 240.333 187.808 239.942 187.578 239.474L179.305 223.478C179.36 223.978 179.399 224.47 179.43 224.962C179.462 225.454 179.477 225.899 179.477 226.313V244.184H173.064V213.145H179.384C179.599 213.14 179.813 213.174 180.016 213.246C180.203 213.325 180.373 213.439 180.516 213.582C180.692 213.768 180.839 213.978 180.954 214.207L188.953 229.984C189.245 230.526 189.523 231.086 189.789 231.664Z" fill="#252F3E"/>
<path d="M230.91 231.664C231.175 232.249 231.425 232.843 231.691 233.46C231.936 232.835 232.196 232.226 232.472 231.632C232.738 231.047 233.019 230.469 233.3 229.914L241.276 214.199C241.391 213.971 241.538 213.76 241.713 213.574C241.857 213.432 242.027 213.318 242.213 213.238C242.417 213.167 242.631 213.132 242.846 213.137H249.166V244.184H242.815V226.313C242.815 225.446 242.854 224.509 242.94 223.502L234.706 239.474C234.477 239.94 234.119 240.33 233.675 240.599C233.225 240.862 232.712 240.997 232.191 240.99H231.207C230.688 240.998 230.177 240.863 229.73 240.599C229.282 240.333 228.922 239.942 228.691 239.474L220.419 223.478C220.473 223.978 220.52 224.47 220.544 224.962C220.567 225.454 220.59 225.899 220.59 226.313V244.184H214.232V213.145H220.559C220.772 213.139 220.984 213.174 221.184 213.246C221.371 213.325 221.541 213.439 221.684 213.582C221.86 213.768 222.007 213.978 222.122 214.207L230.09 229.977C230.381 230.523 230.655 231.086 230.91 231.664Z" fill="#252F3E"/>
<path d="M268.25 238.49C269.138 238.506 270.019 238.344 270.843 238.014C271.581 237.705 272.241 237.236 272.773 236.639C273.317 235.998 273.726 235.255 273.976 234.452C274.264 233.5 274.404 232.51 274.39 231.515V213.145H281.6V231.547C281.619 233.339 281.304 235.119 280.671 236.795C280.087 238.34 279.182 239.743 278.015 240.912C276.826 242.093 275.402 243.011 273.835 243.606C270.227 244.887 266.288 244.887 262.68 243.606C261.109 243.014 259.68 242.099 258.485 240.919C257.318 239.753 256.415 238.349 255.837 236.803C255.213 235.124 254.903 233.345 254.923 231.554V213.145H262.118V231.5C262.102 232.492 262.245 233.481 262.54 234.429C262.786 235.235 263.195 235.982 263.743 236.623C264.268 237.231 264.929 237.707 265.672 238.014C266.491 238.343 267.367 238.505 268.25 238.49V238.49Z" fill="#252F3E"/>
<path d="M291.943 213.145C292.143 213.171 292.337 213.226 292.521 213.309C292.701 213.392 292.867 213.503 293.013 213.637C293.205 213.815 293.382 214.009 293.544 214.215L308.301 232.874C308.246 232.281 308.207 231.695 308.176 231.14C308.144 230.586 308.137 230.047 308.137 229.578V213.145H314.456V244.215H310.707C310.225 244.229 309.746 244.141 309.301 243.958C308.855 243.748 308.473 243.424 308.191 243.02L293.536 224.509C293.536 225.056 293.615 225.579 293.638 226.071C293.661 226.563 293.685 227.079 293.685 227.532V244.184H287.326V213.145H291.123C291.396 213.129 291.67 213.129 291.943 213.145V213.145Z" fill="#252F3E"/>
<path d="M328.564 244.184H321.315V213.145H328.564V244.184Z" fill="#252F3E"/>
<path d="M357.96 213.145V218.862H349.211V244.215H342.001V218.831H333.259V213.145H357.96Z" fill="#252F3E"/>
<path d="M377.497 232.374V244.184H370.287V232.374L359.022 213.145H365.381C365.914 213.116 366.44 213.271 366.873 213.582C367.252 213.883 367.558 214.265 367.771 214.699L372.162 223.744C372.521 224.47 372.849 225.134 373.146 225.751C373.443 226.368 373.708 226.962 373.927 227.563C374.149 226.936 374.41 226.323 374.708 225.728L375.669 223.744L380.012 214.707C380.109 214.509 380.227 214.323 380.364 214.152C380.516 213.966 380.689 213.798 380.88 213.652C381.078 213.499 381.3 213.378 381.536 213.293C381.786 213.202 382.05 213.154 382.317 213.152H388.715L377.497 232.374Z" fill="#252F3E"/>
<path d="M429.453 228.641C429.478 230.78 429.082 232.903 428.289 234.889C427.548 236.737 426.434 238.412 425.016 239.81C423.562 241.23 421.831 242.333 419.93 243.052C417.823 243.852 415.584 244.247 413.33 244.215H401.253V213.145H413.33C415.584 213.116 417.824 213.513 419.93 214.316C421.827 215.043 423.556 216.146 425.016 217.558C426.434 218.955 427.548 220.631 428.289 222.478C429.073 224.438 429.469 226.531 429.453 228.641V228.641ZM422.071 228.641C422.091 227.231 421.89 225.826 421.477 224.478C421.123 223.33 420.538 222.267 419.759 221.354C419.01 220.49 418.071 219.811 417.017 219.37C415.847 218.89 414.593 218.654 413.33 218.674H408.51V238.654H413.33C414.592 238.677 415.847 238.443 417.017 237.967C418.068 237.52 419.005 236.842 419.759 235.983C420.537 235.069 421.122 234.006 421.477 232.859C421.895 231.493 422.096 230.069 422.071 228.641Z" fill="#252F3E"/>
<path d="M461.614 244.184H456.028C455.474 244.212 454.926 244.059 454.466 243.747C454.073 243.474 453.777 243.083 453.622 242.63L451.787 237.209H439.991L438.155 242.63C437.987 243.063 437.697 243.437 437.319 243.708C436.887 244.036 436.354 244.205 435.812 244.184H430.179L442.209 213.145H449.599L461.614 244.184ZM441.655 232.304H450.138L447.256 223.798C447.076 223.259 446.857 222.619 446.608 221.893C446.358 221.166 446.115 220.33 445.873 219.51C445.649 220.38 445.415 221.184 445.17 221.924C444.928 222.658 444.701 223.298 444.491 223.837L441.655 232.304Z" fill="#252F3E"/>
<path d="M476.417 232.374V244.184H469.207V232.374L457.95 213.145H464.301C464.836 213.118 465.364 213.272 465.801 213.582C466.177 213.883 466.481 214.265 466.692 214.699L471.09 223.744L472.066 225.751C472.363 226.36 472.628 226.962 472.847 227.563C473.069 226.936 473.33 226.323 473.628 225.728C473.925 225.118 474.245 224.454 474.581 223.744L478.933 214.707C479.029 214.509 479.147 214.323 479.284 214.152C479.438 213.968 479.611 213.801 479.8 213.652C480.002 213.501 480.226 213.379 480.464 213.293C480.714 213.201 480.978 213.153 481.245 213.152H487.643L476.417 232.374Z" fill="#252F3E"/>
<path d="M219.684 277.528V260.954H225.778C226.761 260.937 227.743 261.044 228.699 261.274C229.409 261.439 230.078 261.745 230.668 262.172C231.159 262.534 231.543 263.023 231.777 263.586C232.018 264.173 232.138 264.803 232.128 265.437C232.129 265.8 232.074 266.161 231.964 266.507C231.858 266.86 231.689 267.191 231.464 267.484C231.222 267.805 230.926 268.082 230.59 268.304C230.193 268.575 229.762 268.793 229.308 268.952C230.228 269.125 231.073 269.575 231.73 270.241C232.268 270.879 232.546 271.696 232.511 272.529C232.52 273.207 232.381 273.879 232.105 274.498C231.825 275.101 231.414 275.635 230.902 276.06C230.327 276.536 229.663 276.894 228.949 277.114C228.093 277.383 227.198 277.512 226.301 277.497L219.684 277.528ZM223.528 267.929H225.528C225.912 267.933 226.297 267.901 226.676 267.835C226.986 267.788 227.284 267.679 227.551 267.515C227.787 267.363 227.974 267.146 228.09 266.89C228.227 266.575 228.294 266.234 228.285 265.89C228.291 265.556 228.241 265.223 228.137 264.906C228.044 264.657 227.884 264.438 227.676 264.273C227.445 264.102 227.178 263.987 226.895 263.938C226.524 263.863 226.147 263.829 225.77 263.836H223.528V267.929ZM223.528 270.498V274.623H226.231C226.655 274.636 227.079 274.573 227.48 274.435C227.775 274.329 228.042 274.158 228.262 273.935C228.437 273.735 228.565 273.497 228.637 273.24C228.705 272.985 228.739 272.723 228.738 272.459C228.741 272.181 228.701 271.905 228.621 271.639C228.541 271.402 228.398 271.191 228.207 271.03C227.977 270.846 227.711 270.712 227.426 270.639C227.032 270.543 226.628 270.498 226.223 270.506L223.528 270.498Z" fill="#FF9900"/>
<path d="M250.603 277.528H247.619C247.325 277.54 247.035 277.458 246.791 277.294C246.586 277.146 246.43 276.939 246.346 276.7L245.369 273.81H239.065L238.089 276.7C237.997 276.928 237.842 277.126 237.644 277.27C237.419 277.44 237.144 277.531 236.862 277.528H233.855L240.245 260.954H244.151L250.603 277.528ZM239.956 271.194H244.479L242.955 266.656C242.854 266.367 242.745 266.023 242.612 265.632C242.479 265.242 242.346 264.851 242.213 264.367C242.099 264.831 241.974 265.26 241.838 265.656C241.713 266.046 241.588 266.39 241.479 266.679L239.956 271.194Z" fill="#FF9900"/>
<path d="M254.954 260.977C255.062 260.992 255.167 261.021 255.267 261.063C255.36 261.109 255.446 261.167 255.525 261.235C255.628 261.332 255.725 261.437 255.814 261.547L263.68 271.498C263.68 271.178 263.625 270.873 263.61 270.569C263.594 270.264 263.61 269.991 263.61 269.725V260.954H267V277.528H264.992C264.725 277.541 264.458 277.492 264.211 277.387C263.976 277.271 263.772 277.1 263.618 276.888L255.806 267.015C255.806 267.304 255.845 267.585 255.86 267.866C255.876 268.147 255.86 268.397 255.86 268.647V277.528H252.509V260.954H254.532C254.673 260.952 254.814 260.96 254.954 260.977V260.977Z" fill="#FF9900"/>
<path d="M278.085 274.747C278.557 274.756 279.029 274.711 279.491 274.615C279.889 274.528 280.279 274.405 280.655 274.248V271.725H279.014C278.807 271.734 278.603 271.664 278.444 271.529C278.379 271.466 278.327 271.389 278.292 271.304C278.257 271.22 278.24 271.129 278.241 271.037V268.921H284.131V275.95C283.715 276.25 283.274 276.511 282.811 276.731C282.338 276.956 281.847 277.139 281.342 277.278C280.797 277.429 280.241 277.536 279.678 277.598C279.051 277.67 278.42 277.703 277.788 277.7C276.634 277.712 275.49 277.495 274.421 277.059C273.42 276.65 272.51 276.048 271.742 275.286C270.978 274.518 270.375 273.604 269.968 272.6C269.531 271.529 269.31 270.382 269.32 269.225C269.31 268.061 269.519 266.906 269.937 265.82C270.329 264.814 270.928 263.901 271.695 263.141C272.486 262.373 273.428 261.778 274.46 261.391C275.62 260.962 276.849 260.75 278.085 260.766C278.737 260.762 279.389 260.819 280.03 260.938C280.603 261.041 281.165 261.195 281.71 261.399C282.198 261.59 282.666 261.828 283.108 262.11C283.516 262.366 283.898 262.662 284.248 262.992L283.131 264.695C283.037 264.848 282.909 264.976 282.756 265.07C282.612 265.162 282.444 265.211 282.272 265.211C282.019 265.202 281.773 265.124 281.561 264.984C281.256 264.797 280.975 264.64 280.702 264.508C280.452 264.377 280.19 264.27 279.921 264.187C279.63 264.099 279.332 264.037 279.03 264C278.682 263.964 278.333 263.946 277.983 263.945C277.315 263.933 276.652 264.063 276.038 264.328C275.473 264.571 274.97 264.939 274.57 265.406C274.149 265.892 273.83 266.458 273.632 267.07C273.399 267.767 273.285 268.498 273.296 269.233C273.284 270.029 273.408 270.822 273.663 271.576C273.866 272.203 274.19 272.784 274.616 273.287C275.05 273.757 275.584 274.122 276.179 274.357C276.781 274.614 277.43 274.747 278.085 274.747Z" fill="#FF9900"/>
<path d="M290.888 274.458H297.036V277.528H287.045V260.954H290.888V274.458Z" fill="#FF9900"/>
<path d="M314.847 277.528H311.871C311.577 277.54 311.287 277.458 311.043 277.294C310.833 277.151 310.676 276.942 310.597 276.7L309.613 273.81H303.317L302.333 276.7C302.246 276.929 302.094 277.128 301.895 277.27C301.67 277.439 301.395 277.529 301.114 277.528H298.052L304.465 260.954H308.371L314.847 277.528ZM304.2 271.194H308.73L307.207 266.656L306.856 265.632C306.723 265.242 306.59 264.851 306.465 264.367C306.34 264.831 306.215 265.26 306.09 265.656C305.957 266.046 305.84 266.39 305.723 266.679L304.2 271.194Z" fill="#FF9900"/>
<path d="M331.798 269.233C331.808 270.369 331.598 271.496 331.181 272.553C330.781 273.548 330.178 274.449 329.41 275.198C328.642 275.947 327.726 276.528 326.721 276.903C325.596 277.33 324.401 277.542 323.198 277.528H316.8V260.954H323.237C324.44 260.94 325.635 261.152 326.76 261.579C327.771 261.968 328.693 262.558 329.47 263.313C330.227 264.056 330.822 264.946 331.22 265.929C331.623 266.983 331.819 268.105 331.798 269.233V269.233ZM327.893 269.233C327.901 268.482 327.793 267.733 327.572 267.015C327.384 266.399 327.073 265.828 326.658 265.336C326.256 264.879 325.757 264.519 325.197 264.281C324.573 264.025 323.903 263.9 323.229 263.914H320.628V274.568H323.198C323.872 274.578 324.541 274.453 325.166 274.201C325.728 273.963 326.228 273.599 326.627 273.138C327.043 272.65 327.354 272.081 327.541 271.467C327.762 270.743 327.87 269.99 327.861 269.233H327.893Z" fill="#FF9900"/>
<path d="M344.875 260.954V263.914H338.079V267.819H343.289V270.662H338.079V274.607H344.875V277.567H334.212V260.954H344.875Z" fill="#FF9900"/>
<path d="M356.866 264.32C356.773 264.479 356.652 264.62 356.507 264.734C356.367 264.829 356.199 264.875 356.03 264.867C355.83 264.861 355.634 264.804 355.46 264.703L354.781 264.336C354.503 264.185 354.213 264.06 353.913 263.961C353.552 263.847 353.175 263.791 352.796 263.797C352.222 263.754 351.651 263.917 351.187 264.258C351.01 264.413 350.871 264.605 350.779 264.822C350.687 265.038 350.645 265.273 350.656 265.507C350.652 265.66 350.678 265.811 350.733 265.953C350.788 266.095 350.871 266.225 350.976 266.335C351.219 266.574 351.502 266.767 351.812 266.906C352.195 267.077 352.589 267.223 352.992 267.343C353.437 267.476 353.89 267.624 354.359 267.788C354.822 267.947 355.273 268.138 355.71 268.358C356.15 268.572 356.551 268.857 356.898 269.202C357.252 269.559 357.536 269.981 357.733 270.444C357.96 271.007 358.068 271.61 358.054 272.217C358.06 272.952 357.924 273.681 357.655 274.365C357.396 275.022 357.002 275.618 356.499 276.114C355.964 276.627 355.328 277.023 354.632 277.278C353.828 277.578 352.975 277.723 352.117 277.708C351.592 277.704 351.069 277.652 350.554 277.552C350.021 277.446 349.499 277.294 348.992 277.098C348.504 276.911 348.034 276.681 347.586 276.411C347.166 276.165 346.78 275.866 346.438 275.521L347.57 273.724C347.66 273.588 347.78 273.476 347.922 273.396C348.074 273.317 348.242 273.274 348.414 273.271C348.659 273.276 348.898 273.352 349.101 273.49L349.883 273.966C350.205 274.153 350.542 274.312 350.89 274.443C351.321 274.598 351.776 274.672 352.234 274.662C352.812 274.696 353.385 274.534 353.859 274.201C354.064 274.02 354.224 273.794 354.326 273.54C354.428 273.287 354.469 273.012 354.445 272.74C354.459 272.396 354.345 272.059 354.124 271.795C353.892 271.537 353.607 271.332 353.289 271.194C352.909 271.018 352.514 270.876 352.109 270.772C351.671 270.647 351.218 270.514 350.757 270.366C350.294 270.218 349.842 270.035 349.406 269.819C348.965 269.608 348.566 269.319 348.226 268.968C347.862 268.588 347.577 268.139 347.391 267.648C347.161 267.023 347.053 266.36 347.07 265.695C347.073 265.069 347.2 264.451 347.445 263.875C347.702 263.285 348.077 262.753 348.547 262.313C349.066 261.831 349.673 261.454 350.336 261.204C351.103 260.92 351.916 260.779 352.734 260.79C353.231 260.789 353.727 260.828 354.218 260.907C354.686 260.982 355.146 261.099 355.593 261.258C356.013 261.409 356.418 261.598 356.804 261.821C357.165 262.026 357.503 262.269 357.812 262.547L356.866 264.32Z" fill="#FF9900"/>
<path d="M375.005 277.528H371.099V270.498H364.366V277.528H360.546V260.954H364.412V267.882H371.146V260.954H375.052L375.005 277.528Z" fill="#FF9900"/>
<path d="M284.928 172.388C284.913 172.956 284.984 173.522 285.139 174.068C285.306 174.539 285.509 174.996 285.748 175.435C285.831 175.562 285.874 175.712 285.873 175.864C285.864 175.981 285.826 176.094 285.764 176.193C285.701 176.293 285.615 176.375 285.514 176.434L284.326 177.215C284.181 177.317 284.011 177.376 283.834 177.387C283.618 177.372 283.415 177.277 283.264 177.122C283.01 176.847 282.782 176.549 282.584 176.231C282.397 175.911 282.209 175.552 281.999 175.114C281.332 175.944 280.484 176.611 279.52 177.063C278.556 177.515 277.501 177.741 276.437 177.723C275.748 177.76 275.058 177.658 274.409 177.425C273.76 177.192 273.164 176.831 272.656 176.364C271.703 175.321 271.202 173.944 271.262 172.533C271.322 171.122 271.938 169.792 272.976 168.834C274.289 167.795 275.936 167.27 277.608 167.358C278.28 167.362 278.951 167.414 279.616 167.514C280.319 167.608 281.038 167.757 281.788 167.928V166.546C281.788 165.109 281.491 164.109 280.905 163.523C280.024 162.852 278.921 162.539 277.819 162.648C277.129 162.649 276.442 162.733 275.773 162.898C275.078 163.061 274.396 163.275 273.734 163.539C273.518 163.635 273.296 163.719 273.07 163.789C272.97 163.818 272.868 163.836 272.765 163.843C272.499 163.843 272.367 163.656 272.367 163.258V162.375C272.347 162.146 272.393 161.915 272.499 161.711C272.644 161.54 272.826 161.404 273.031 161.313C274.697 160.517 276.52 160.104 278.366 160.102C280.616 160.102 282.272 160.618 283.327 161.664C284.381 162.711 284.889 164.234 284.889 166.312V172.443L284.928 172.388ZM277.249 175.263C277.914 175.254 278.574 175.138 279.202 174.919C279.896 174.678 280.515 174.261 280.999 173.708C281.302 173.37 281.524 172.966 281.647 172.529C281.778 171.992 281.841 171.441 281.835 170.889V170.108C281.26 169.969 280.679 169.862 280.093 169.787C279.505 169.71 278.912 169.671 278.319 169.67C277.318 169.6 276.322 169.876 275.499 170.451C275.186 170.717 274.938 171.053 274.777 171.431C274.616 171.809 274.545 172.22 274.57 172.63C274.529 172.994 274.57 173.362 274.691 173.707C274.811 174.052 275.008 174.366 275.266 174.625C275.523 174.885 275.836 175.083 276.181 175.205C276.525 175.328 276.893 175.371 277.257 175.333L277.249 175.263ZM292.443 177.309C292.187 177.335 291.931 177.265 291.724 177.114C291.522 176.914 291.383 176.658 291.326 176.38L286.881 161.758C286.79 161.506 286.733 161.244 286.709 160.977C286.699 160.914 286.703 160.85 286.722 160.79C286.741 160.73 286.774 160.674 286.818 160.629C286.862 160.583 286.916 160.549 286.976 160.528C287.035 160.507 287.099 160.5 287.162 160.508H289.013C289.288 160.466 289.569 160.533 289.795 160.696C289.986 160.901 290.116 161.155 290.17 161.43L293.349 173.927L296.302 161.43C296.341 161.154 296.467 160.897 296.661 160.696C296.894 160.55 297.168 160.484 297.442 160.508H298.958C299.232 160.471 299.511 160.538 299.739 160.696C299.941 160.891 300.069 161.151 300.098 161.43L303.09 174.107L306.363 161.43C306.423 161.157 306.553 160.904 306.738 160.696C306.97 160.547 307.245 160.481 307.519 160.508H309.277C309.341 160.499 309.406 160.505 309.468 160.526C309.529 160.546 309.585 160.58 309.631 160.625C309.677 160.671 309.712 160.726 309.733 160.787C309.754 160.848 309.761 160.913 309.754 160.977C309.76 161.078 309.76 161.18 309.754 161.282C309.719 161.44 309.675 161.597 309.621 161.75L304.887 176.434C304.834 176.717 304.694 176.976 304.489 177.176C304.274 177.311 304.023 177.377 303.77 177.364H302.145C301.871 177.397 301.593 177.331 301.364 177.176C301.165 176.96 301.039 176.687 301.005 176.395L298.075 164.195L295.161 176.372C295.122 176.662 294.997 176.934 294.802 177.153C294.573 177.309 294.296 177.379 294.021 177.348L292.443 177.309ZM316.753 177.817C315.772 177.817 314.794 177.701 313.839 177.473C313.08 177.314 312.347 177.051 311.66 176.692C311.417 176.579 311.213 176.397 311.074 176.169C311 176.001 310.963 175.82 310.964 175.638V174.669C310.964 174.271 311.113 174.083 311.394 174.083C311.511 174.085 311.628 174.106 311.738 174.146C311.847 174.146 312.019 174.255 312.207 174.333C312.878 174.624 313.576 174.847 314.292 174.997C315.033 175.146 315.787 175.222 316.542 175.224C317.502 175.279 318.458 175.062 319.3 174.599C319.608 174.413 319.861 174.149 320.034 173.833C320.207 173.518 320.293 173.162 320.284 172.802C320.292 172.558 320.251 172.315 320.164 172.087C320.077 171.859 319.945 171.651 319.776 171.474C319.221 171.006 318.567 170.669 317.862 170.49L315.12 169.639C313.933 169.335 312.873 168.659 312.097 167.71C311.488 166.926 311.155 165.961 311.152 164.968C311.138 164.236 311.313 163.512 311.66 162.867C311.998 162.257 312.461 161.724 313.019 161.305C313.609 160.858 314.276 160.524 314.988 160.321C315.762 160.099 316.565 159.991 317.37 160.001C317.796 159.997 318.221 160.02 318.643 160.071C319.073 160.133 319.471 160.204 319.87 160.282C320.268 160.36 320.651 160.469 320.948 160.586C321.219 160.671 321.481 160.783 321.729 160.922C321.951 161.035 322.143 161.199 322.292 161.399C322.417 161.582 322.478 161.802 322.463 162.024V162.914C322.463 163.305 322.315 163.515 322.034 163.515C321.782 163.486 321.538 163.409 321.315 163.289C320.172 162.785 318.932 162.534 317.683 162.555C316.812 162.501 315.944 162.682 315.167 163.078C314.877 163.249 314.64 163.498 314.483 163.796C314.326 164.093 314.254 164.429 314.277 164.765C314.271 165.016 314.318 165.265 314.415 165.497C314.512 165.728 314.656 165.937 314.839 166.109C315.455 166.596 316.165 166.95 316.925 167.147L319.612 167.999C320.75 168.291 321.772 168.923 322.541 169.811C323.116 170.573 323.421 171.504 323.409 172.459C323.422 173.219 323.254 173.972 322.916 174.653C322.586 175.302 322.116 175.87 321.542 176.317C320.918 176.807 320.204 177.168 319.44 177.379C318.572 177.661 317.666 177.808 316.753 177.817Z" fill="#252F3E"/>
<path d="M320.323 187.01C314.074 191.603 305.059 194.04 297.286 194.04C286.904 194.091 276.875 190.267 269.164 183.316C268.578 182.784 269.109 182.066 269.804 182.48C277.275 186.791 285.643 189.313 294.252 189.848C302.861 190.383 311.477 188.917 319.425 185.565C320.456 185.096 321.346 186.252 320.323 187.01ZM322.916 184.058C322.135 183.034 317.659 183.565 315.636 183.815C315.027 183.886 314.933 183.355 315.48 182.964C319.042 180.465 324.854 181.183 325.565 182.011C326.276 182.839 325.377 188.713 322.049 191.509C321.534 191.946 321.042 191.72 321.268 191.15C322.026 189.275 323.713 185.026 322.916 184.058V184.058Z" fill="#FF9900"/>
<path d="M487.682 268.296H389.379V270.194H487.682V268.296Z" fill="#FF9900"/>
<path d="M205.303 268.296H107V270.194H205.303V268.296Z" fill="#FF9900"/>
<defs>
<linearGradient id="paint0_linear" x1="434.97" y1="421.829" x2="516.868" y2="421.829" gradientUnits="userSpaceOnUse">
<stop stop-color="#ED1818"/>
<stop offset="1" stop-color="#4165FF"/>
</linearGradient>
<linearGradient id="paint1_linear" x1="430.72" y1="392.093" x2="512.618" y2="392.093" gradientUnits="userSpaceOnUse">
<stop stop-color="#FF334C"/>
<stop offset="0.702528" stop-color="#5E18ED"/>
</linearGradient>
<linearGradient id="paint2_linear" x1="482.114" y1="340.283" x2="564.003" y2="340.283" gradientUnits="userSpaceOnUse">
<stop stop-color="#F9D238"/>
<stop offset="0.04" stop-color="#F7BD3B"/>
<stop offset="0.1" stop-color="#F4A040"/>
<stop offset="0.17" stop-color="#F28A44"/>
<stop offset="0.25" stop-color="#F07A46"/>
<stop offset="0.33" stop-color="#EF7148"/>
<stop offset="0.45" stop-color="#EF6E48"/>
<stop offset="1" stop-color="#E8416B"/>
</linearGradient>
<linearGradient id="paint3_linear" x1="505.157" y1="296.389" x2="505.157" y2="354.448" gradientUnits="userSpaceOnUse">
<stop stop-color="#CE41FF"/>
<stop offset="1" stop-color="#E8416B"/>
</linearGradient>
<linearGradient id="paint4_linear" x1="536.709" y1="296.389" x2="536.709" y2="354.448" gradientUnits="userSpaceOnUse">
<stop stop-color="#FF41CA"/>
<stop offset="1" stop-color="#FF9900"/>
</linearGradient>
<linearGradient id="paint5_linear" x1="518.808" y1="275.747" x2="518.808" y2="345.353" gradientUnits="userSpaceOnUse">
<stop stop-color="#5E18ED"/>
<stop offset="1" stop-color="#F15A24"/>
</linearGradient>
<linearGradient id="paint6_linear" x1="-52002.6" y1="40029.4" x2="-60193.2" y2="40029.4" gradientUnits="userSpaceOnUse">
<stop stop-color="#5E18ED"/>
<stop offset="1" stop-color="#4165FF"/>
</linearGradient>
<linearGradient id="paint7_linear" x1="-51581.8" y1="42525.6" x2="-59772.4" y2="42525.6" gradientUnits="userSpaceOnUse">
<stop stop-color="#5E18ED"/>
<stop offset="1" stop-color="#FF334C"/>
</linearGradient>
<linearGradient id="paint8_linear" x1="-47343.1" y1="46915.8" x2="-55532.1" y2="46915.8" gradientUnits="userSpaceOnUse">
<stop stop-color="#ED1818"/>
<stop offset="1" stop-color="#FF334C"/>
</linearGradient>
<linearGradient id="paint9_linear" x1="-13259.4" y1="40215.8" x2="-13908.1" y2="40215.8" gradientUnits="userSpaceOnUse">
<stop stop-color="#5E18ED"/>
<stop offset="1" stop-color="#4165FF"/>
</linearGradient>
<linearGradient id="paint10_linear" x1="-14110.8" y1="40215.8" x2="-14759.3" y2="40215.8" gradientUnits="userSpaceOnUse">
<stop stop-color="#5E18ED"/>
<stop offset="1" stop-color="#4165FF"/>
</linearGradient>
<linearGradient id="paint11_linear" x1="525.343" y1="228.403" x2="607.241" y2="228.403" gradientUnits="userSpaceOnUse">
<stop stop-color="#ED1818"/>
<stop offset="1" stop-color="#F9D238"/>
</linearGradient>
<linearGradient id="paint12_linear" x1="-56698.7" y1="46938.5" x2="-64888.5" y2="46938.5" gradientUnits="userSpaceOnUse">
<stop stop-color="#5E18ED"/>
<stop offset="1" stop-color="#4165FF"/>
</linearGradient>
<linearGradient id="paint13_linear" x1="619.852" y1="228.133" x2="701.75" y2="228.133" gradientUnits="userSpaceOnUse">
<stop stop-color="#5E18ED"/>
<stop offset="0.17" stop-color="#6749BE"/>
<stop offset="0.37" stop-color="#5553D1"/>
<stop offset="0.56" stop-color="#CF6994"/>
<stop offset="0.73" stop-color="#E64E69"/>
<stop offset="0.89" stop-color="#F4CC3E"/>
<stop offset="1" stop-color="#F9D238"/>
</linearGradient>
<linearGradient id="paint14_linear" x1="-56109.7" y1="56743.1" x2="-56109.7" y2="50818.2" gradientUnits="userSpaceOnUse">
<stop stop-color="#F9D238"/>
<stop offset="0.04" stop-color="#F7BD3B"/>
<stop offset="0.1" stop-color="#F4A040"/>
<stop offset="0.17" stop-color="#F28A44"/>
<stop offset="0.25" stop-color="#F07A46"/>
<stop offset="0.33" stop-color="#EF7148"/>
<stop offset="0.45" stop-color="#EF6E48"/>
<stop offset="1" stop-color="#E8416B"/>
</linearGradient>
<linearGradient id="paint15_linear" x1="599.781" y1="132.699" x2="599.781" y2="190.758" gradientUnits="userSpaceOnUse">
<stop stop-color="#4165FF"/>
<stop offset="1" stop-color="#9FB5FB"/>
</linearGradient>
<linearGradient id="paint16_linear" x1="-15714.3" y1="47983.7" x2="-15714.3" y2="43862.1" gradientUnits="userSpaceOnUse">
<stop stop-color="#4165FF"/>
<stop offset="1" stop-color="#9FB5FB"/>
</linearGradient>
<linearGradient id="paint17_linear" x1="613.432" y1="112.057" x2="613.432" y2="181.663" gradientUnits="userSpaceOnUse">
<stop stop-color="#5E18ED"/>
<stop offset="1" stop-color="#FF334C"/>
</linearGradient>
<linearGradient id="paint18_linear" x1="-51395.8" y1="30157.9" x2="-51395.8" y2="36082" gradientUnits="userSpaceOnUse">
<stop stop-color="#7E41FF"/>
<stop offset="0.984375" stop-color="#FA00FF"/>
</linearGradient>
<linearGradient id="paint19_linear" x1="565.821" y1="427.227" x2="565.821" y2="357.621" gradientUnits="userSpaceOnUse">
<stop stop-color="#4165FF"/>
<stop offset="1" stop-color="#EF4884"/>
</linearGradient>
<linearGradient id="paint20_linear" x1="-42546.1" y1="53779.5" x2="-50735.1" y2="53779.5" gradientUnits="userSpaceOnUse">
<stop stop-color="#ED1818"/>
<stop offset="1" stop-color="#5E18ED"/>
</linearGradient>
<linearGradient id="paint21_linear" x1="-11977.8" y1="47130.2" x2="-13628.1" y2="46474.9" gradientUnits="userSpaceOnUse">
<stop stop-color="#4165FF"/>
<stop offset="1" stop-color="#9FB5FB"/>
</linearGradient>
<linearGradient id="paint22_linear" x1="-12455.2" y1="47130.2" x2="-14105.1" y2="46475.3" gradientUnits="userSpaceOnUse">
<stop stop-color="#4165FF"/>
<stop offset="1" stop-color="#9FB5FB"/>
</linearGradient>
<linearGradient id="paint23_linear" x1="-42124.6" y1="56280.6" x2="-50314.3" y2="56280.6" gradientUnits="userSpaceOnUse">
<stop stop-color="#ED1818"/>
<stop offset="1" stop-color="#4165FF"/>
</linearGradient>
<linearGradient id="paint24_linear" x1="-32759" y1="36448.1" x2="-32759" y2="30523.2" gradientUnits="userSpaceOnUse">
<stop stop-color="#F9D238"/>
<stop offset="0.04" stop-color="#F7BD3B"/>
<stop offset="0.1" stop-color="#F4A040"/>
<stop offset="0.17" stop-color="#F28A44"/>
<stop offset="0.25" stop-color="#F07A46"/>
<stop offset="0.33" stop-color="#EF7148"/>
<stop offset="0.45" stop-color="#EF6E48"/>
<stop offset="1" stop-color="#E8416B"/>
</linearGradient>
<linearGradient id="paint25_linear" x1="-8460.34" y1="31097.8" x2="-8460.34" y2="26976.2" gradientUnits="userSpaceOnUse">
<stop stop-color="#4165FF"/>
<stop offset="1" stop-color="#9FB5FB"/>
</linearGradient>
<linearGradient id="paint26_linear" x1="-9313.54" y1="31097.8" x2="-9313.54" y2="26976.2" gradientUnits="userSpaceOnUse">
<stop stop-color="#4165FF"/>
<stop offset="1" stop-color="#9FB5FB"/>
</linearGradient>
<linearGradient id="paint27_linear" x1="-32338.1" y1="38945" x2="-32338.1" y2="33020.8" gradientUnits="userSpaceOnUse">
<stop stop-color="#5E18ED"/>
<stop offset="1" stop-color="#FF334C"/>
</linearGradient>
<linearGradient id="paint28_linear" x1="-23597" y1="36654.5" x2="-23597" y2="30729.6" gradientUnits="userSpaceOnUse">
<stop stop-color="#F9D238"/>
<stop offset="0.04" stop-color="#F7BD3B"/>
<stop offset="0.1" stop-color="#F4A040"/>
<stop offset="0.17" stop-color="#F28A44"/>
<stop offset="0.25" stop-color="#F07A46"/>
<stop offset="0.33" stop-color="#EF7148"/>
<stop offset="0.45" stop-color="#EF6E48"/>
<stop offset="1" stop-color="#E8416B"/>
</linearGradient>
<linearGradient id="paint29_linear" x1="-5948.02" y1="31269.5" x2="-5948.02" y2="27147.9" gradientUnits="userSpaceOnUse">
<stop stop-color="#4165FF"/>
<stop offset="1" stop-color="#9FB5FB"/>
</linearGradient>
<linearGradient id="paint30_linear" x1="-6802.13" y1="31269.5" x2="-6802.13" y2="27147.9" gradientUnits="userSpaceOnUse">
<stop stop-color="#4165FF"/>
<stop offset="1" stop-color="#9FB5FB"/>
</linearGradient>
<linearGradient id="paint31_linear" x1="-23176.2" y1="39151.4" x2="-23176.2" y2="33227.2" gradientUnits="userSpaceOnUse">
<stop stop-color="#5E18ED"/>
<stop offset="1" stop-color="#FF334C"/>
</linearGradient>
<linearGradient id="paint32_linear" x1="-27975.3" y1="29774.9" x2="-27975.3" y2="23850" gradientUnits="userSpaceOnUse">
<stop stop-color="#F9D238"/>
<stop offset="0.04" stop-color="#F7BD3B"/>
<stop offset="0.1" stop-color="#F4A040"/>
<stop offset="0.17" stop-color="#F28A44"/>
<stop offset="0.25" stop-color="#F07A46"/>
<stop offset="0.33" stop-color="#EF7148"/>
<stop offset="0.45" stop-color="#EF6E48"/>
<stop offset="1" stop-color="#E8416B"/>
</linearGradient>
<linearGradient id="paint33_linear" x1="-7148.59" y1="25545.5" x2="-7148.59" y2="21423.9" gradientUnits="userSpaceOnUse">
<stop stop-color="#4165FF"/>
<stop offset="1" stop-color="#9FB5FB"/>
</linearGradient>
<linearGradient id="paint34_linear" x1="-8002.27" y1="25545.5" x2="-8002.27" y2="21423.9" gradientUnits="userSpaceOnUse">
<stop stop-color="#4165FF"/>
<stop offset="1" stop-color="#9FB5FB"/>
</linearGradient>
<linearGradient id="paint35_linear" x1="-27554.5" y1="32272.6" x2="-27554.5" y2="26348.4" gradientUnits="userSpaceOnUse">
<stop stop-color="#5E18ED"/>
<stop offset="1" stop-color="#FF334C"/>
</linearGradient>
<linearGradient id="paint36_linear" x1="-7603.52" y1="15804.1" x2="-7603.52" y2="15214.1" gradientUnits="userSpaceOnUse">
<stop stop-color="#5E18ED"/>
<stop offset="1" stop-color="#4165FF"/>
</linearGradient>
<linearGradient id="paint37_linear" x1="-15492.6" y1="9814.4" x2="-15492.6" y2="9575.82" gradientUnits="userSpaceOnUse">
<stop stop-color="#5E18ED"/>
<stop offset="1" stop-color="#4165FF"/>
</linearGradient>
<linearGradient id="paint38_linear" x1="-7345.93" y1="15815.8" x2="-7345.93" y2="15225.6" gradientUnits="userSpaceOnUse">
<stop stop-color="#5E18ED"/>
<stop offset="1" stop-color="#4165FF"/>
</linearGradient>
<linearGradient id="paint39_linear" x1="-13648.3" y1="10423.5" x2="-14528.4" y2="9913.79" gradientUnits="userSpaceOnUse">
<stop stop-color="#5E18ED"/>
<stop offset="1" stop-color="#4165FF"/>
</linearGradient>
<linearGradient id="paint40_linear" x1="568.753" y1="381.935" x2="568.753" y2="402.553" gradientUnits="userSpaceOnUse">
<stop stop-color="#4165FF"/>
<stop offset="0.04" stop-color="#496CFF"/>
<stop offset="0.2" stop-color="#6886FD"/>
<stop offset="0.38" stop-color="#809BFC"/>
<stop offset="0.56" stop-color="#92AAFC"/>
<stop offset="0.76" stop-color="#9CB2FB"/>
<stop offset="1" stop-color="#9FB5FB"/>
</linearGradient>
<linearGradient id="paint41_linear" x1="-13117.7" y1="10235.5" x2="-13643.7" y2="9931.09" gradientUnits="userSpaceOnUse">
<stop stop-color="#5E18ED"/>
<stop offset="1" stop-color="#4165FF"/>
</linearGradient>
<linearGradient id="paint42_linear" x1="27247.2" y1="-13277.4" x2="28964.9" y2="-13277.4" gradientUnits="userSpaceOnUse">
<stop stop-color="#7E41FF"/>
<stop offset="1" stop-color="#CD9FFB"/>
</linearGradient>
<linearGradient id="paint43_linear" x1="499.122" y1="390.441" x2="478.641" y2="390.441" gradientUnits="userSpaceOnUse">
<stop stop-color="#4165FF"/>
<stop offset="1" stop-color="#5E18ED"/>
</linearGradient>
<linearGradient id="paint44_linear" x1="-5954.37" y1="6534.37" x2="-5954.37" y2="6150.67" gradientUnits="userSpaceOnUse">
<stop stop-color="#4165FF"/>
<stop offset="1" stop-color="#9FB5FB"/>
</linearGradient>
<linearGradient id="paint45_linear" x1="-5755.71" y1="6525.08" x2="-5755.71" y2="6141.38" gradientUnits="userSpaceOnUse">
<stop stop-color="#4165FF"/>
<stop offset="1" stop-color="#9FB5FB"/>
</linearGradient>
<linearGradient id="paint46_linear" x1="-12877.7" y1="3290.67" x2="-13389.9" y2="3290.67" gradientUnits="userSpaceOnUse">
<stop stop-color="#4165FF"/>
<stop offset="1" stop-color="#5E18ED"/>
</linearGradient>
<linearGradient id="paint47_linear" x1="13658.5" y1="-5483.56" x2="14170.7" y2="-5483.56" gradientUnits="userSpaceOnUse">
<stop stop-color="#4165FF"/>
<stop offset="0.04" stop-color="#496CFF"/>
<stop offset="0.2" stop-color="#6886FD"/>
<stop offset="0.38" stop-color="#809BFC"/>
<stop offset="0.56" stop-color="#92AAFC"/>
<stop offset="0.76" stop-color="#9CB2FB"/>
<stop offset="1" stop-color="#9FB5FB"/>
</linearGradient>
<linearGradient id="paint48_linear" x1="14373.6" y1="-5483.56" x2="14885.8" y2="-5483.56" gradientUnits="userSpaceOnUse">
<stop stop-color="#4165FF"/>
<stop offset="0.04" stop-color="#496CFF"/>
<stop offset="0.2" stop-color="#6886FD"/>
<stop offset="0.38" stop-color="#809BFC"/>
<stop offset="0.56" stop-color="#92AAFC"/>
<stop offset="0.76" stop-color="#9CB2FB"/>
<stop offset="1" stop-color="#9FB5FB"/>
</linearGradient>
<linearGradient id="paint49_linear" x1="-49172.3" y1="37108.5" x2="-58048.3" y2="37108.5" gradientUnits="userSpaceOnUse">
<stop stop-color="#5E18ED"/>
<stop offset="1" stop-color="#FF334C"/>
</linearGradient>
<linearGradient id="paint50_linear" x1="-14035.9" y1="32171.1" x2="-14738.9" y2="32171.1" gradientUnits="userSpaceOnUse">
<stop stop-color="#5E18ED"/>
<stop offset="1" stop-color="#4165FF"/>
</linearGradient>
<linearGradient id="paint51_linear" x1="-15031.1" y1="32171.1" x2="-15734.1" y2="32171.1" gradientUnits="userSpaceOnUse">
<stop stop-color="#5E18ED"/>
<stop offset="1" stop-color="#4165FF"/>
</linearGradient>
<linearGradient id="paint52_linear" x1="-48711.3" y1="39883.1" x2="-57589" y2="39883.1" gradientUnits="userSpaceOnUse">
<stop stop-color="#2918ED"/>
<stop offset="1" stop-color="#F9D238"/>
</linearGradient>
<linearGradient id="paint53_linear" x1="-63933.6" y1="39938.5" x2="-63933.6" y2="33517.1" gradientUnits="userSpaceOnUse">
<stop stop-color="#F9D238"/>
<stop offset="0.04" stop-color="#F7BD3B"/>
<stop offset="0.1" stop-color="#F4A040"/>
<stop offset="0.17" stop-color="#F28A44"/>
<stop offset="0.25" stop-color="#F07A46"/>
<stop offset="0.33" stop-color="#EF7148"/>
<stop offset="0.45" stop-color="#EF6E48"/>
<stop offset="1" stop-color="#E8416B"/>
</linearGradient>
<linearGradient id="paint54_linear" x1="-17363.2" y1="34090.9" x2="-17363.2" y2="29623.3" gradientUnits="userSpaceOnUse">
<stop stop-color="#4165FF"/>
<stop offset="1" stop-color="#9FB5FB"/>
</linearGradient>
<linearGradient id="paint55_linear" x1="-18358.4" y1="34090.9" x2="-18358.4" y2="29623.3" gradientUnits="userSpaceOnUse">
<stop stop-color="#4165FF"/>
<stop offset="1" stop-color="#9FB5FB"/>
</linearGradient>
<linearGradient id="paint56_linear" x1="-63474" y1="42713.1" x2="-63474" y2="36291.7" gradientUnits="userSpaceOnUse">
<stop stop-color="#5E18ED"/>
<stop offset="1" stop-color="#FF334C"/>
</linearGradient>
<linearGradient id="paint57_linear" x1="-8286.63" y1="12908.1" x2="-8286.63" y2="12268.3" gradientUnits="userSpaceOnUse">
<stop stop-color="#5E18ED"/>
<stop offset="1" stop-color="#4165FF"/>
</linearGradient>
<linearGradient id="paint58_linear" x1="-16415.7" y1="7974.16" x2="-16415.7" y2="7715.32" gradientUnits="userSpaceOnUse">
<stop stop-color="#5E18ED"/>
<stop offset="1" stop-color="#4165FF"/>
</linearGradient>
<linearGradient id="paint59_linear" x1="-7969.74" y1="12915" x2="-7969.74" y2="12275.2" gradientUnits="userSpaceOnUse">
<stop stop-color="#5E18ED"/>
<stop offset="1" stop-color="#4165FF"/>
</linearGradient>
</defs>
</svg>
