<svg xmlns="http://www.w3.org/2000/svg" viewBox="0 0 803.15 248.3"><defs><style>.cls-1{fill:#252f3e;}.cls-2{fill:#f90;}</style></defs><g id="Layer_2" data-name="Layer 2"><g id="Layer_1-2" data-name="Layer 1"><path class="cls-1" d="M47.83,160.6a3,3,0,0,1,1.09.2,3,3,0,0,1,1,.7l6,6.34a25.11,25.11,0,0,1-9.92,7.81A34.84,34.84,0,0,1,32,178.28a33.72,33.72,0,0,1-13.39-2.54,29.09,29.09,0,0,1-10-7A30.77,30.77,0,0,1,2.21,158.1,39,39,0,0,1,0,144.76a35.17,35.17,0,0,1,2.52-13.48,31.46,31.46,0,0,1,7-10.6,31.8,31.8,0,0,1,10.82-6.93,37.75,37.75,0,0,1,13.91-2.47,35,35,0,0,1,7,.65,33.09,33.09,0,0,1,6.1,1.8,28.67,28.67,0,0,1,5.22,2.74A25.44,25.44,0,0,1,56.79,120l-5.13,6.88A6.72,6.72,0,0,1,50.49,128a3.08,3.08,0,0,1-1.89.52,3.38,3.38,0,0,1-1.53-.36c-.48-.24-1-.54-1.53-.88l-1.78-1.13a13.58,13.58,0,0,0-2.29-1.12,18.54,18.54,0,0,0-3.11-.88,21.12,21.12,0,0,0-4.16-.36,19.12,19.12,0,0,0-7.56,1.46,16.53,16.53,0,0,0-5.87,4.19,19.36,19.36,0,0,0-3.83,6.59,26,26,0,0,0-1.37,8.69,27.1,27.1,0,0,0,1.37,9,19.61,19.61,0,0,0,3.74,6.59,15.75,15.75,0,0,0,5.51,4.08,16.48,16.48,0,0,0,6.75,1.39,33.47,33.47,0,0,0,3.78-.2,15.84,15.84,0,0,0,3.17-.7,14.69,14.69,0,0,0,2.79-1.28,18.77,18.77,0,0,0,2.68-2,5.13,5.13,0,0,1,1.17-.74A3,3,0,0,1,47.83,160.6Z"/><path class="cls-1" d="M129.87,144.76A35.33,35.33,0,0,1,127.42,158a31.31,31.31,0,0,1-17.64,17.73,36.53,36.53,0,0,1-13.93,2.56,36.67,36.67,0,0,1-13.95-2.56A31.31,31.31,0,0,1,64.19,158a36.95,36.95,0,0,1,0-26.46,31.62,31.62,0,0,1,6.93-10.62,32.11,32.11,0,0,1,10.78-7.07,39.09,39.09,0,0,1,27.88,0A32.24,32.24,0,0,1,120.51,121a31.72,31.72,0,0,1,6.91,10.62A35.24,35.24,0,0,1,129.87,144.76Zm-15.57,0A28.42,28.42,0,0,0,113,136a18.64,18.64,0,0,0-3.62-6.59,15.69,15.69,0,0,0-5.79-4.14,19.88,19.88,0,0,0-7.78-1.44A20.16,20.16,0,0,0,88,125.27a15.6,15.6,0,0,0-5.81,4.14A18.64,18.64,0,0,0,78.57,136a31.19,31.19,0,0,0,0,17.55,18.6,18.6,0,0,0,3.62,6.6A15.31,15.31,0,0,0,88,164.26a20.35,20.35,0,0,0,7.85,1.42,20.06,20.06,0,0,0,7.78-1.42,15.39,15.39,0,0,0,5.79-4.11,18.6,18.6,0,0,0,3.62-6.6A28.44,28.44,0,0,0,114.3,144.76Z"/><path class="cls-1" d="M174.67,151.14c.55,1.23,1.08,2.5,1.59,3.79.51-1.32,1.05-2.61,1.62-3.86s1.16-2.45,1.76-3.62l16.83-33.16a5.48,5.48,0,0,1,.92-1.32,3,3,0,0,1,1.06-.7,3.67,3.67,0,0,1,1.33-.23h13.34v65.52H199.71V139.85q0-2.74.27-5.94l-17.37,33.71a5.74,5.74,0,0,1-2.18,2.38,6.06,6.06,0,0,1-3.13.81h-2.07a6.06,6.06,0,0,1-3.13-.81,5.74,5.74,0,0,1-2.18-2.38l-17.46-33.75q.18,1.57.27,3.12c.06,1,.09,2,.09,2.86v37.71H139.41V112h13.34a3.67,3.67,0,0,1,1.33.23,3,3,0,0,1,1.06.7,5.48,5.48,0,0,1,.92,1.32l16.87,33.29C173.53,148.73,174.11,149.91,174.67,151.14Z"/><path class="cls-1" d="M261.43,151.14c.55,1.23,1.08,2.5,1.59,3.79.51-1.32,1.05-2.61,1.62-3.86s1.16-2.45,1.76-3.62l16.83-33.16a5.48,5.48,0,0,1,.92-1.32,3,3,0,0,1,1.06-.7,3.67,3.67,0,0,1,1.33-.23h13.34v65.52H286.47V139.85q0-2.74.27-5.94l-17.37,33.71a5.74,5.74,0,0,1-2.18,2.38,6.06,6.06,0,0,1-3.13.81H262a6.06,6.06,0,0,1-3.13-.81,5.74,5.74,0,0,1-2.18-2.38l-17.46-33.75q.18,1.57.27,3.12c.06,1,.09,2,.09,2.86v37.71H226.17V112h13.34a3.67,3.67,0,0,1,1.33.23,3,3,0,0,1,1.06.7,5.48,5.48,0,0,1,.92,1.32l16.87,33.29C260.29,148.73,260.87,149.91,261.43,151.14Z"/><path class="cls-1" d="M340.2,165.55a13.93,13.93,0,0,0,5.47-1,11,11,0,0,0,4.07-2.9,12.78,12.78,0,0,0,2.54-4.61,20,20,0,0,0,.88-6.19V112h15.21v38.83a30.43,30.43,0,0,1-2,11.07,24.92,24.92,0,0,1-5.6,8.69,25.3,25.3,0,0,1-8.87,5.67,35.27,35.27,0,0,1-23.53,0,25.3,25.3,0,0,1-8.87-5.67A24.59,24.59,0,0,1,314,161.9,30.64,30.64,0,0,1,312,150.83V112h15.21v38.79a19.92,19.92,0,0,0,.88,6.18,13,13,0,0,0,2.54,4.64,10.88,10.88,0,0,0,4.07,2.92A13.89,13.89,0,0,0,340.2,165.55Z"/><path class="cls-1" d="M390.19,112.09a4.45,4.45,0,0,1,1.22.33,4.18,4.18,0,0,1,1,.7,11.92,11.92,0,0,1,1.13,1.22l31.14,39.37c-.12-1.26-.21-2.48-.27-3.67s-.09-2.3-.09-3.35V112h13.41v65.56h-7.92a7.3,7.3,0,0,1-3-.54,6.35,6.35,0,0,1-2.34-2L393.61,136c.09,1.14.17,2.26.23,3.35s.09,2.13.09,3.09v35.14H380.52V112h8A12.83,12.83,0,0,1,390.19,112.09Z"/><path class="cls-1" d="M467.46,177.56h-15.3V112h15.3Z"/><path class="cls-1" d="M529.47,112v12.06H511v53.5H495.81v-53.5H477.36V112Z"/><path class="cls-1" d="M570.69,152.63v24.93H555.48V152.63L531.72,112h13.41a4.92,4.92,0,0,1,3.15.92,6.81,6.81,0,0,1,1.89,2.36l9.27,19.08,2.07,4.23c.63,1.29,1.18,2.57,1.66,3.83a35.36,35.36,0,0,1,1.62-3.87q.94-1.94,2-4.19L576,115.28a5.41,5.41,0,0,1,.74-1.17,6.38,6.38,0,0,1,1.08-1.06,5.16,5.16,0,0,1,1.39-.76A4.89,4.89,0,0,1,581,112h13.5Z"/><path class="cls-1" d="M680.3,144.76a34.23,34.23,0,0,1-2.45,13.11,30.62,30.62,0,0,1-6.9,10.4,31.56,31.56,0,0,1-10.74,6.84,38.06,38.06,0,0,1-13.92,2.45H620.82V112h25.47a37.65,37.65,0,0,1,13.92,2.47A31.86,31.86,0,0,1,671,121.31a30.4,30.4,0,0,1,6.9,10.37A34.22,34.22,0,0,1,680.3,144.76Zm-15.56,0a28.59,28.59,0,0,0-1.27-8.78,18.72,18.72,0,0,0-3.62-6.64,15.67,15.67,0,0,0-5.78-4.18,19.55,19.55,0,0,0-7.78-1.46H636.12v42.16h10.17a19.73,19.73,0,0,0,7.78-1.46,15.69,15.69,0,0,0,5.78-4.19,18.59,18.59,0,0,0,3.62-6.63A28.72,28.72,0,0,0,664.74,144.76Z"/><path class="cls-1" d="M748.16,177.56H736.37a5.49,5.49,0,0,1-3.26-.92,4.81,4.81,0,0,1-1.78-2.36l-3.87-11.43H702.53l-3.87,11.43a5.2,5.2,0,0,1-4.95,3.28H681.83L707.21,112h15.57ZM706,152.5H724l-6-18-1.37-4q-.78-2.31-1.55-5-.72,2.75-1.49,5.08t-1.44,4Z"/><path class="cls-1" d="M779.39,152.63v24.93H764.18V152.63L740.42,112h13.41a4.92,4.92,0,0,1,3.15.92,6.81,6.81,0,0,1,1.89,2.36l9.27,19.08,2.07,4.23c.63,1.29,1.19,2.57,1.67,3.83a35.36,35.36,0,0,1,1.62-3.87q.94-1.94,2-4.19l9.18-19.08a5.48,5.48,0,0,1,.75-1.17,6.38,6.38,0,0,1,1.08-1.06,5.16,5.16,0,0,1,1.39-.76,4.83,4.83,0,0,1,1.73-.29h13.5Z"/><path class="cls-2" d="M237.73,247.91v-35h12.86a24.3,24.3,0,0,1,6.17.68,12,12,0,0,1,4.16,1.89,7.14,7.14,0,0,1,2.33,3,10,10,0,0,1,.74,3.91,7.85,7.85,0,0,1-.34,2.27,6.57,6.57,0,0,1-1.06,2.05,7.88,7.88,0,0,1-1.84,1.74,12.32,12.32,0,0,1-2.72,1.36,9.63,9.63,0,0,1,5.12,2.72,7.09,7.09,0,0,1,1.65,4.84,10.11,10.11,0,0,1-.86,4.15,9.56,9.56,0,0,1-2.53,3.35,12.22,12.22,0,0,1-4.12,2.23,17.79,17.79,0,0,1-5.59.8Zm8.11-20.25h4.23a13.69,13.69,0,0,0,2.42-.2,5,5,0,0,0,1.84-.67,3.15,3.15,0,0,0,1.15-1.32,5,5,0,0,0,.39-2.11,6,6,0,0,0-.31-2.08,3,3,0,0,0-1-1.33,4.19,4.19,0,0,0-1.64-.72,11.65,11.65,0,0,0-2.37-.21h-4.75Zm0,5.42v8.71h5.71a7.2,7.2,0,0,0,2.63-.4,4.34,4.34,0,0,0,1.6-1.06,3.51,3.51,0,0,0,.79-1.47,6.56,6.56,0,0,0,.22-1.65,5.47,5.47,0,0,0-.26-1.73,2.84,2.84,0,0,0-.86-1.3,4.25,4.25,0,0,0-1.62-.81,9.49,9.49,0,0,0-2.54-.29Z"/><path class="cls-2" d="M303,247.91h-6.29a2.91,2.91,0,0,1-1.74-.49,2.54,2.54,0,0,1-.94-1.26l-2.07-6.1H278.63l-2.07,6.1a2.7,2.7,0,0,1-.93,1.21,2.73,2.73,0,0,1-1.71.54h-6.33l13.53-35h8.31ZM280.5,234.54h9.55L286.83,225c-.2-.61-.45-1.32-.73-2.15s-.55-1.72-.83-2.68c-.25,1-.52,1.88-.79,2.72s-.53,1.55-.77,2.16Z"/><path class="cls-2" d="M312.15,213a2.47,2.47,0,0,1,.65.18,2.41,2.41,0,0,1,.55.37,5.73,5.73,0,0,1,.6.65l16.61,21c-.06-.67-.11-1.32-.14-1.95s-.05-1.23-.05-1.79V212.94h7.15v35H333.3a3.8,3.8,0,0,1-1.59-.29,3.36,3.36,0,0,1-1.24-1.05L314,225.74c0,.61.09,1.2.12,1.78s0,1.14,0,1.65v18.74H307v-35h4.28A7.1,7.1,0,0,1,312.15,213Z"/><path class="cls-2" d="M361,242.06a13.84,13.84,0,0,0,3-.29,14.3,14.3,0,0,0,2.45-.77v-5.3h-3.46a1.69,1.69,0,0,1-1.2-.41,1.39,1.39,0,0,1-.43-1v-4.47h12.43v14.76a18.25,18.25,0,0,1-2.79,1.7,18.72,18.72,0,0,1-3.1,1.16,22.86,22.86,0,0,1-3.5.67,35.6,35.6,0,0,1-4,.22,18.18,18.18,0,0,1-7.1-1.36,17,17,0,0,1-9.4-9.41,18.45,18.45,0,0,1-1.35-7.11,19.44,19.44,0,0,1,1.29-7.19,16.15,16.15,0,0,1,3.71-5.65,16.75,16.75,0,0,1,5.83-3.7,21.1,21.1,0,0,1,7.65-1.32,22.27,22.27,0,0,1,4.1.36,19.85,19.85,0,0,1,3.54,1,16,16,0,0,1,5.36,3.35l-2.35,3.58a2.51,2.51,0,0,1-.8.79,1.83,1.83,0,0,1-1,.29,2.81,2.81,0,0,1-1.49-.48c-.64-.38-1.25-.72-1.81-1a12.79,12.79,0,0,0-1.74-.68,12.14,12.14,0,0,0-1.87-.38,18.52,18.52,0,0,0-2.21-.12,10,10,0,0,0-4.11.8,8.77,8.77,0,0,0-3.1,2.27,10.17,10.17,0,0,0-2,3.52,14,14,0,0,0-.7,4.57,14.77,14.77,0,0,0,.77,4.94,10.64,10.64,0,0,0,2.12,3.65,9.12,9.12,0,0,0,3.22,2.27A10.4,10.4,0,0,0,361,242.06Z"/><path class="cls-2" d="M388,241.43h13v6.48H379.86v-35H388Z"/><path class="cls-2" d="M438.51,247.91h-6.29a2.86,2.86,0,0,1-1.73-.49,2.51,2.51,0,0,1-.95-1.26l-2.07-6.1H414.18l-2.07,6.1a2.7,2.7,0,0,1-.93,1.21,2.73,2.73,0,0,1-1.71.54h-6.33l13.53-35H425Zm-22.46-13.37h9.55L422.38,225c-.2-.61-.45-1.32-.73-2.15s-.55-1.72-.82-2.68c-.26,1-.53,1.88-.8,2.72s-.53,1.55-.77,2.16Z"/><path class="cls-2" d="M474.27,230.42a18.16,18.16,0,0,1-1.31,7,16.23,16.23,0,0,1-3.68,5.55,16.62,16.62,0,0,1-5.72,3.64,20.09,20.09,0,0,1-7.43,1.31H442.54v-35h13.59a20.3,20.3,0,0,1,7.43,1.32,17,17,0,0,1,5.72,3.65,16.24,16.24,0,0,1,3.68,5.53A18.18,18.18,0,0,1,474.27,230.42Zm-8.3,0a15.16,15.16,0,0,0-.67-4.68,10.06,10.06,0,0,0-1.93-3.54,8.49,8.49,0,0,0-3.09-2.24,10.48,10.48,0,0,0-4.15-.78h-5.42v22.49h5.42a10.48,10.48,0,0,0,4.15-.78,8.35,8.35,0,0,0,3.09-2.23,10.06,10.06,0,0,0,1.93-3.54A15.24,15.24,0,0,0,466,230.42Z"/><path class="cls-2" d="M501.87,212.94v6.24H487.52v8.17h11v6h-11v8.32h14.35v6.24H479.36v-35Z"/><path class="cls-2" d="M527.17,220.05a3,3,0,0,1-.76.86,1.69,1.69,0,0,1-1,.29,2.43,2.43,0,0,1-1.19-.35l-1.44-.78a11.18,11.18,0,0,0-1.83-.78,7.4,7.4,0,0,0-2.35-.35,5.05,5.05,0,0,0-3.4,1,3.3,3.3,0,0,0-1.12,2.62,2.44,2.44,0,0,0,.68,1.76,5.79,5.79,0,0,0,1.76,1.2,19.77,19.77,0,0,0,2.5.92c.93.28,1.89.59,2.86.94a23.25,23.25,0,0,1,2.87,1.21,9.25,9.25,0,0,1,2.5,1.78A8.15,8.15,0,0,1,529,233a9.35,9.35,0,0,1,.67,3.73,12.17,12.17,0,0,1-.84,4.54,10.69,10.69,0,0,1-2.43,3.69,11.5,11.5,0,0,1-3.94,2.47,14.71,14.71,0,0,1-5.31.9,17.42,17.42,0,0,1-3.33-.34,18.91,18.91,0,0,1-3.27-1,19.12,19.12,0,0,1-3-1.45,12.23,12.23,0,0,1-2.42-1.87l2.4-3.79a1.92,1.92,0,0,1,.74-.7,2,2,0,0,1,1-.26,2.73,2.73,0,0,1,1.45.45c.49.31,1,.64,1.66,1a14,14,0,0,0,2.12,1,8.1,8.1,0,0,0,2.84.45,5.38,5.38,0,0,0,3.43-1,3.7,3.7,0,0,0,1.22-3.08,2.89,2.89,0,0,0-.67-2,5.37,5.37,0,0,0-1.76-1.28,16.36,16.36,0,0,0-2.49-.88c-.93-.26-1.88-.54-2.85-.85a21.4,21.4,0,0,1-2.86-1.16,8.62,8.62,0,0,1-2.48-1.8,8.4,8.4,0,0,1-1.77-2.78,11,11,0,0,1-.67-4.12,9.74,9.74,0,0,1,.79-3.84,9.9,9.9,0,0,1,2.33-3.33,11.27,11.27,0,0,1,3.77-2.34,13.79,13.79,0,0,1,5.11-.88,18.89,18.89,0,0,1,3.13.25,16.62,16.62,0,0,1,5.45,1.92,11.69,11.69,0,0,1,2.12,1.55Z"/><path class="cls-2" d="M565.42,247.91h-8.16V233.13h-14.2v14.78H534.9v-35h8.16v14.62h14.2V212.94h8.16Z"/><path class="cls-1" d="M375.39,26.06a12,12,0,0,0,.44,3.55,21.41,21.41,0,0,0,1.28,2.88,1.74,1.74,0,0,1,.28.92,1.58,1.58,0,0,1-.76,1.19l-2.51,1.68a1.92,1.92,0,0,1-1,.36,1.84,1.84,0,0,1-1.2-.56,11.68,11.68,0,0,1-1.43-1.88c-.4-.67-.8-1.43-1.24-2.35a14.76,14.76,0,0,1-11.74,5.51,10.93,10.93,0,0,1-8-2.88,10.26,10.26,0,0,1-2.95-7.66,10.28,10.28,0,0,1,3.63-8.22c2.44-2.08,5.67-3.11,9.78-3.11a33.2,33.2,0,0,1,4.23.31c1.48.2,3,.52,4.59.88V13.77c0-3-.64-5.15-1.88-6.39s-3.43-1.83-6.5-1.83a18.06,18.06,0,0,0-4.31.52,31.27,31.27,0,0,0-4.31,1.35,11.48,11.48,0,0,1-1.4.52,2.45,2.45,0,0,1-.64.12c-.56,0-.84-.4-.84-1.24V4.87a2.53,2.53,0,0,1,.28-1.4,3,3,0,0,1,1.12-.84,23.48,23.48,0,0,1,5-1.79,24.12,24.12,0,0,1,6.23-.76q7.11,0,10.45,3.23t3.31,9.82V26.06Zm-16.2,6.07a12.91,12.91,0,0,0,4.11-.72,8.89,8.89,0,0,0,3.79-2.55,6.35,6.35,0,0,0,1.36-2.56,14.27,14.27,0,0,0,.4-3.47V21.15a33.66,33.66,0,0,0-3.67-.68,30.1,30.1,0,0,0-3.75-.24c-2.68,0-4.63.52-5.95,1.6a5.57,5.57,0,0,0-2,4.59,5.16,5.16,0,0,0,5.67,5.71Zm32.05,4.31a2.23,2.23,0,0,1-1.52-.4,3.26,3.26,0,0,1-.84-1.56L379.51,3.63A7.07,7.07,0,0,1,379.15,2a.87.87,0,0,1,1-1H384a2.2,2.2,0,0,1,1.55.4,3.28,3.28,0,0,1,.8,1.55l6.7,26.42L399.3,3a2.81,2.81,0,0,1,.76-1.55,2.75,2.75,0,0,1,1.6-.4h3.19a2.36,2.36,0,0,1,1.59.4A2.69,2.69,0,0,1,407.2,3l6.31,26.74L420.41,3a3.44,3.44,0,0,1,.8-1.55,2.61,2.61,0,0,1,1.56-.4h3.71a.89.89,0,0,1,1,1,3.88,3.88,0,0,1-.08.63,5.69,5.69,0,0,1-.28,1L417.5,34.52a3.07,3.07,0,0,1-.84,1.56,2.55,2.55,0,0,1-1.51.4h-3.44a2.38,2.38,0,0,1-1.59-.4,2.84,2.84,0,0,1-.76-1.6L403.17,8.74,397,34.44a3.12,3.12,0,0,1-.76,1.6,2.48,2.48,0,0,1-1.6.4Zm51.28,1.08a26.3,26.3,0,0,1-6.14-.72,18.1,18.1,0,0,1-4.59-1.6,2.88,2.88,0,0,1-1.24-1.12,2.78,2.78,0,0,1-.24-1.11v-2c0-.84.32-1.24.92-1.24a2.27,2.27,0,0,1,.72.12c.24.08.6.24,1,.4a21.46,21.46,0,0,0,4.39,1.4,23.85,23.85,0,0,0,4.75.48,10.72,10.72,0,0,0,5.82-1.32A4.29,4.29,0,0,0,450,27a3.86,3.86,0,0,0-1.08-2.79,10.05,10.05,0,0,0-4-2.08l-5.79-1.8a12.07,12.07,0,0,1-6.38-4.07,9.47,9.47,0,0,1-2-5.78A8.84,8.84,0,0,1,431.79,6a10.25,10.25,0,0,1,2.87-3.28A12.92,12.92,0,0,1,438.81.68a17.41,17.41,0,0,1,5-.68,20.08,20.08,0,0,1,2.68.16c.91.12,1.75.28,2.59.44s1.56.4,2.27.64a8.73,8.73,0,0,1,1.68.72,3.34,3.34,0,0,1,1.2,1,2.16,2.16,0,0,1,.36,1.32V6.15c0,.83-.32,1.27-.92,1.27a4.16,4.16,0,0,1-1.52-.48,18.36,18.36,0,0,0-7.66-1.55,10.28,10.28,0,0,0-5.31,1.12,3.83,3.83,0,0,0-1.87,3.55,3.75,3.75,0,0,0,1.19,2.83,12,12,0,0,0,4.39,2.2l5.67,1.79a12.23,12.23,0,0,1,6.19,3.83,9.1,9.1,0,0,1,1.83,5.59,10.37,10.37,0,0,1-1,4.63,10.62,10.62,0,0,1-2.92,3.51,12.84,12.84,0,0,1-4.43,2.24A18.91,18.91,0,0,1,442.52,37.52Z"/><path class="cls-2" d="M450.07,56.91c-13.13,9.7-32.21,14.85-48.61,14.85a87.93,87.93,0,0,1-59.35-22.63c-1.24-1.12-.12-2.63,1.36-1.76a119.64,119.64,0,0,0,59.38,15.77,118.44,118.44,0,0,0,45.3-9.26C450.35,52.88,452.22,55.32,450.07,56.91Zm5.47-6.22c-1.68-2.16-11.1-1-15.37-.52-1.28.16-1.48-1-.32-1.8,7.5-5.27,19.84-3.75,21.27-2s-.4,14.12-7.42,20c-1.08.92-2.12.44-1.64-.76C453.66,61.7,457.21,52.8,455.54,50.69Z"/><rect class="cls-2" x="595.75" y="228.43" width="207.4" height="4"/><rect class="cls-2" y="228.43" width="207.4" height="4"/></g></g></svg>