<svg xmlns="http://www.w3.org/2000/svg" xmlns:xlink="http://www.w3.org/1999/xlink" viewBox="0 0 976.6 717.8"><defs><style>.cls-1{opacity:0.88;}.cls-2{opacity:0.64;}.cls-3{fill:url(#linear-gradient);}.cls-4{fill:url(#linear-gradient-2);}.cls-5{fill:url(#linear-gradient-3);}.cls-6{fill:url(#linear-gradient-4);}.cls-7{fill:url(#linear-gradient-5);}.cls-8{fill:url(#linear-gradient-6);}.cls-9{fill:url(#linear-gradient-7);}.cls-10{fill:url(#linear-gradient-8);}.cls-11{fill:url(#linear-gradient-9);}.cls-12{fill:url(#linear-gradient-10);}.cls-13{fill:url(#linear-gradient-11);}.cls-14{fill:url(#linear-gradient-12);}.cls-15{fill:url(#linear-gradient-13);}.cls-16{fill:url(#linear-gradient-14);}.cls-17{fill:url(#linear-gradient-15);}.cls-18{fill:url(#linear-gradient-16);}.cls-19{fill:url(#linear-gradient-17);}.cls-20{fill:url(#linear-gradient-18);}.cls-21{fill:url(#linear-gradient-19);}.cls-22{fill:url(#linear-gradient-20);}.cls-23{fill:url(#linear-gradient-21);}.cls-24{fill:url(#linear-gradient-22);}.cls-25{fill:url(#linear-gradient-23);}.cls-26{fill:url(#linear-gradient-24);}.cls-27{fill:#9f21fa;}.cls-28{fill:url(#linear-gradient-25);}.cls-29{fill:url(#linear-gradient-26);}.cls-30{fill:url(#linear-gradient-27);}.cls-31{fill:url(#linear-gradient-28);}.cls-32{fill:url(#linear-gradient-29);}.cls-33{fill:url(#linear-gradient-30);}.cls-34{fill:url(#linear-gradient-31);}.cls-35{fill:url(#linear-gradient-32);}.cls-36{fill:url(#linear-gradient-33);}.cls-37{fill:url(#linear-gradient-34);}.cls-38{fill:url(#linear-gradient-35);}.cls-39{fill:url(#linear-gradient-36);}.cls-40{fill:#6286f9;}.cls-41{fill:url(#linear-gradient-37);}.cls-42{fill:url(#linear-gradient-38);}.cls-43{fill:url(#linear-gradient-39);}.cls-44{fill:url(#linear-gradient-40);}.cls-45{fill:url(#linear-gradient-41);}.cls-46{fill:url(#linear-gradient-42);}.cls-47{fill:url(#linear-gradient-43);}.cls-48{fill:url(#linear-gradient-44);}.cls-49{fill:url(#linear-gradient-45);}.cls-50{fill:url(#linear-gradient-46);}.cls-51{fill:url(#linear-gradient-47);}.cls-52{opacity:0.73;}.cls-53{fill:url(#linear-gradient-48);}.cls-54{fill:url(#linear-gradient-49);}.cls-55{fill:url(#linear-gradient-50);}.cls-56{fill:#4714f6;}.cls-57{fill:url(#linear-gradient-51);}.cls-58{fill:#4a84fa;}.cls-59{fill:url(#linear-gradient-52);}.cls-60{fill:url(#linear-gradient-53);}.cls-61{fill:#5e18ed;}.cls-62{fill:url(#linear-gradient-54);}.cls-63{fill:url(#linear-gradient-55);}.cls-64{fill:url(#linear-gradient-56);}.cls-65{fill:url(#linear-gradient-57);}.cls-66{fill:url(#linear-gradient-58);}.cls-67{fill:url(#linear-gradient-59);}.cls-68{fill:url(#linear-gradient-60);}.cls-69{fill:url(#linear-gradient-61);}.cls-70{fill:url(#linear-gradient-62);}.cls-71{fill:url(#linear-gradient-63);}.cls-72{fill:url(#linear-gradient-64);}.cls-73{fill:url(#linear-gradient-65);}.cls-74{fill:url(#linear-gradient-66);}.cls-75{fill:url(#linear-gradient-67);}.cls-76{fill:url(#linear-gradient-68);}.cls-77{fill:url(#linear-gradient-69);}.cls-78{fill:url(#linear-gradient-70);}.cls-79{fill:url(#linear-gradient-71);}.cls-80{fill:url(#linear-gradient-72);}.cls-81{fill:url(#linear-gradient-73);}.cls-82{fill:url(#linear-gradient-74);}.cls-83{fill:url(#linear-gradient-75);}.cls-84{fill:url(#linear-gradient-76);}.cls-85{fill:url(#linear-gradient-77);}.cls-86{fill:url(#linear-gradient-78);}.cls-87{fill:url(#linear-gradient-79);}.cls-88{fill:url(#linear-gradient-80);}.cls-89{fill:url(#linear-gradient-81);}.cls-90{fill:url(#linear-gradient-82);}.cls-91{fill:url(#linear-gradient-83);}.cls-92{fill:url(#linear-gradient-84);}.cls-93{fill:url(#linear-gradient-85);}.cls-94{fill:url(#linear-gradient-86);}.cls-95{fill:url(#linear-gradient-87);}.cls-96{fill:url(#linear-gradient-88);}.cls-97{fill:url(#linear-gradient-89);}.cls-98{fill:url(#linear-gradient-90);}.cls-99{fill:url(#linear-gradient-91);}.cls-100{fill:url(#linear-gradient-92);}.cls-101{fill:url(#linear-gradient-93);}.cls-102{fill:url(#linear-gradient-94);}.cls-103{fill:url(#linear-gradient-95);}.cls-104{fill:url(#linear-gradient-96);}.cls-105{fill:url(#linear-gradient-97);}.cls-106{fill:url(#linear-gradient-98);}.cls-107{fill:url(#linear-gradient-99);}.cls-108{fill:url(#linear-gradient-100);}.cls-109{fill:url(#linear-gradient-101);}.cls-110{fill:url(#linear-gradient-102);}.cls-111{fill:url(#linear-gradient-103);}.cls-112{fill:url(#linear-gradient-104);}.cls-113{fill:url(#linear-gradient-105);}.cls-114{fill:url(#linear-gradient-106);}.cls-115{fill:url(#linear-gradient-107);}.cls-116{fill:url(#linear-gradient-108);}.cls-117{fill:url(#linear-gradient-109);}.cls-118{fill:url(#linear-gradient-110);}.cls-119{fill:url(#linear-gradient-111);}.cls-120{fill:url(#linear-gradient-112);}.cls-121{fill:url(#linear-gradient-113);}.cls-122{fill:url(#linear-gradient-114);}.cls-123{fill:url(#linear-gradient-115);}.cls-124{fill:url(#linear-gradient-116);}.cls-125{fill:url(#linear-gradient-117);}.cls-126{fill:url(#linear-gradient-118);}.cls-127{fill:url(#linear-gradient-119);}.cls-128{fill:url(#linear-gradient-120);}.cls-129{fill:url(#linear-gradient-121);}.cls-130{fill:url(#linear-gradient-122);}.cls-131{fill:url(#linear-gradient-123);}.cls-132{fill:url(#linear-gradient-124);}.cls-133{fill:url(#linear-gradient-125);}.cls-134{fill:url(#linear-gradient-126);}.cls-135{fill:url(#linear-gradient-127);}.cls-136{fill:url(#linear-gradient-128);}.cls-137{fill:url(#linear-gradient-129);}.cls-138{fill:url(#linear-gradient-130);}.cls-139{fill:#252f3e;}.cls-140{fill:#f90;}.cls-141{fill:url(#linear-gradient-131);}.cls-142{fill:url(#linear-gradient-132);}.cls-143{fill:url(#linear-gradient-133);}.cls-144{fill:url(#linear-gradient-134);}.cls-145{fill:#4165ff;}.cls-146{fill:url(#linear-gradient-135);}.cls-147{fill:url(#linear-gradient-136);}.cls-148{fill:url(#linear-gradient-137);}.cls-149{fill:url(#linear-gradient-138);}.cls-150{fill:url(#linear-gradient-139);}.cls-151{stroke:#252f3e;stroke-miterlimit:10;stroke-width:0.75px;fill:url(#linear-gradient-140);}</style><linearGradient id="linear-gradient" x1="554.04" y1="498.85" x2="654.05" y2="498.85" gradientTransform="translate(885.01 1075.69) rotate(180)" gradientUnits="userSpaceOnUse"><stop offset="0" stop-color="#5e18ed"/><stop offset="1" stop-color="#4165ff"/></linearGradient><linearGradient id="linear-gradient-2" x1="548.85" y1="535.21" x2="648.86" y2="535.21" gradientTransform="translate(885.01 1075.69) rotate(180)" gradientUnits="userSpaceOnUse"><stop offset="0" stop-color="#5e18ed"/><stop offset="1" stop-color="#ff334c"/></linearGradient><linearGradient id="linear-gradient-3" x1="611.61" y1="598.55" x2="711.61" y2="598.55" gradientTransform="translate(885.01 1075.69) rotate(180)" gradientUnits="userSpaceOnUse"><stop offset="0" stop-color="#f9d238"/><stop offset="0.04" stop-color="#f7bd3b"/><stop offset="0.1" stop-color="#f4a040"/><stop offset="0.17" stop-color="#f28a44"/><stop offset="0.25" stop-color="#f07a46"/><stop offset="0.33" stop-color="#ef7148"/><stop offset="0.45" stop-color="#ef6e48"/><stop offset="1" stop-color="#e8416b"/></linearGradient><linearGradient id="linear-gradient-4" x1="639.75" y1="652.23" x2="639.75" y2="581.24" gradientTransform="translate(885.01 1075.69) rotate(180)" gradientUnits="userSpaceOnUse"><stop offset="0" stop-color="#4165ff"/><stop offset="1" stop-color="#e8416b"/></linearGradient><linearGradient id="linear-gradient-5" x1="678.28" y1="652.23" x2="678.28" y2="581.24" gradientTransform="translate(885.01 1075.69) rotate(180)" gradientUnits="userSpaceOnUse"><stop offset="0" stop-color="#4165ff"/><stop offset="1" stop-color="#f90"/></linearGradient><linearGradient id="linear-gradient-6" x1="656.42" y1="677.47" x2="656.42" y2="592.36" gradientTransform="translate(885.01 1075.69) rotate(180)" gradientUnits="userSpaceOnUse"><stop offset="0" stop-color="#5e18ed"/><stop offset="1" stop-color="#f15a24"/></linearGradient><linearGradient id="linear-gradient-7" x1="727.01" y1="598.88" x2="827.02" y2="598.88" xlink:href="#linear-gradient"/><linearGradient id="linear-gradient-8" x1="721.82" y1="635.24" x2="821.83" y2="635.24" xlink:href="#linear-gradient-2"/><linearGradient id="linear-gradient-9" x1="669.6" y1="698.99" x2="769.6" y2="698.99" xlink:href="#linear-gradient-2"/><linearGradient id="linear-gradient-10" x1="683.67" y1="717.17" x2="711.81" y2="717.17" xlink:href="#linear-gradient"/><linearGradient id="linear-gradient-11" x1="722.2" y1="717.17" x2="750.34" y2="717.17" xlink:href="#linear-gradient"/><linearGradient id="linear-gradient-12" x1="664.4" y1="735.35" x2="764.41" y2="735.35" gradientTransform="translate(885.01 1075.69) rotate(180)" gradientUnits="userSpaceOnUse"><stop offset="0" stop-color="#5e18ed"/><stop offset="1" stop-color="#f9d238"/></linearGradient><linearGradient id="linear-gradient-13" x1="785" y1="699.32" x2="885.01" y2="699.32" xlink:href="#linear-gradient"/><linearGradient id="linear-gradient-14" x1="779.81" y1="735.69" x2="879.82" y2="735.69" gradientTransform="translate(885.01 1075.69) rotate(180)" gradientUnits="userSpaceOnUse"><stop offset="0" stop-color="#5e18ed"/><stop offset="0.17" stop-color="#8749be"/><stop offset="0.37" stop-color="#af798e"/><stop offset="0.56" stop-color="#cfa069"/><stop offset="0.73" stop-color="#e6bb4e"/><stop offset="0.89" stop-color="#f4cc3e"/><stop offset="1" stop-color="#f9d238"/></linearGradient><linearGradient id="linear-gradient-15" x1="777.16" y1="841.25" x2="777.16" y2="756.14" xlink:href="#linear-gradient-3"/><linearGradient id="linear-gradient-16" x1="755.3" y1="852.37" x2="755.3" y2="781.38" gradientTransform="translate(885.01 1075.69) rotate(180)" gradientUnits="userSpaceOnUse"><stop offset="0" stop-color="#4165ff"/><stop offset="1" stop-color="#9fb5fb"/></linearGradient><linearGradient id="linear-gradient-17" x1="793.83" y1="852.37" x2="793.83" y2="781.38" xlink:href="#linear-gradient-16"/><linearGradient id="linear-gradient-18" x1="771.97" y1="877.61" x2="771.97" y2="792.5" gradientTransform="translate(885.01 1075.69) rotate(180)" gradientUnits="userSpaceOnUse"><stop offset="0" stop-color="#5e18ed"/><stop offset="1" stop-color="#ff334c"/></linearGradient><linearGradient id="linear-gradient-19" x1="719.02" y1="455.89" x2="719.02" y2="540.99" xlink:href="#linear-gradient-5"/><linearGradient id="linear-gradient-20" x1="713.83" y1="492.25" x2="713.83" y2="577.36" gradientTransform="translate(885.01 1075.69) rotate(180)" gradientUnits="userSpaceOnUse"><stop offset="0" stop-color="#4165ff"/><stop offset="1" stop-color="#ef6e48"/></linearGradient><linearGradient id="linear-gradient-21" x1="610.43" y1="798.77" x2="710.43" y2="798.77" xlink:href="#linear-gradient-2"/><linearGradient id="linear-gradient-22" x1="625.97" y1="837.67" x2="667.41" y2="796.23" xlink:href="#linear-gradient-16"/><linearGradient id="linear-gradient-23" x1="648.25" y1="837.67" x2="689.69" y2="796.23" xlink:href="#linear-gradient-16"/><linearGradient id="linear-gradient-24" x1="605.23" y1="835.13" x2="705.24" y2="835.13" xlink:href="#linear-gradient"/><linearGradient id="linear-gradient-25" x1="489.16" y1="546.25" x2="489.16" y2="461.14" xlink:href="#linear-gradient-3"/><linearGradient id="linear-gradient-26" x1="467.3" y1="557.37" x2="467.3" y2="486.38" xlink:href="#linear-gradient-16"/><linearGradient id="linear-gradient-27" x1="505.83" y1="557.37" x2="505.83" y2="486.38" xlink:href="#linear-gradient-16"/><linearGradient id="linear-gradient-28" x1="483.97" y1="582.61" x2="483.97" y2="497.5" xlink:href="#linear-gradient-18"/><linearGradient id="linear-gradient-29" x1="376.16" y1="549.25" x2="376.16" y2="464.14" xlink:href="#linear-gradient-3"/><linearGradient id="linear-gradient-30" x1="354.3" y1="560.37" x2="354.3" y2="489.38" xlink:href="#linear-gradient-16"/><linearGradient id="linear-gradient-31" x1="392.83" y1="560.37" x2="392.83" y2="489.38" xlink:href="#linear-gradient-16"/><linearGradient id="linear-gradient-32" x1="370.97" y1="585.61" x2="370.97" y2="500.5" xlink:href="#linear-gradient-18"/><linearGradient id="linear-gradient-33" x1="430.16" y1="449.25" x2="430.16" y2="364.14" xlink:href="#linear-gradient-3"/><linearGradient id="linear-gradient-34" x1="408.3" y1="460.37" x2="408.3" y2="389.38" xlink:href="#linear-gradient-16"/><linearGradient id="linear-gradient-35" x1="446.83" y1="460.37" x2="446.83" y2="389.38" xlink:href="#linear-gradient-16"/><linearGradient id="linear-gradient-36" x1="424.97" y1="485.61" x2="424.97" y2="400.5" xlink:href="#linear-gradient-18"/><linearGradient id="linear-gradient-37" x1="727.77" y1="737.31" x2="727.77" y2="710.44" xlink:href="#linear-gradient"/><linearGradient id="linear-gradient-38" x1="716.55" y1="713.14" x2="716.55" y2="696.06" xlink:href="#linear-gradient"/><linearGradient id="linear-gradient-39" x1="706.12" y1="737.59" x2="706.12" y2="710.72" xlink:href="#linear-gradient"/><linearGradient id="linear-gradient-40" x1="783.33" y1="322.59" x2="814.61" y2="291.3" gradientTransform="translate(-614.26 262.81)" xlink:href="#linear-gradient"/><linearGradient id="linear-gradient-41" x1="781.86" y1="265.25" x2="781.86" y2="290.47" gradientTransform="translate(-614.26 262.81)" gradientUnits="userSpaceOnUse"><stop offset="0" stop-color="#4165ff"/><stop offset="0.04" stop-color="#496cff"/><stop offset="0.2" stop-color="#6886fd"/><stop offset="0.38" stop-color="#809bfc"/><stop offset="0.56" stop-color="#92aafc"/><stop offset="0.76" stop-color="#9cb2fb"/><stop offset="1" stop-color="#9fb5fb"/></linearGradient><linearGradient id="linear-gradient-42" x1="756.55" y1="316.7" x2="775.25" y2="298.01" gradientTransform="translate(-614.26 262.81)" xlink:href="#linear-gradient"/><linearGradient id="linear-gradient-43" x1="545.02" y1="357.89" x2="545.02" y2="442.99" xlink:href="#linear-gradient-5"/><linearGradient id="linear-gradient-44" x1="539.83" y1="394.25" x2="539.83" y2="479.36" xlink:href="#linear-gradient-20"/><linearGradient id="linear-gradient-45" x1="957.33" y1="420.59" x2="988.61" y2="389.3" gradientTransform="translate(-614.26 262.81)" xlink:href="#linear-gradient"/><linearGradient id="linear-gradient-46" x1="955.86" y1="363.25" x2="955.86" y2="388.47" xlink:href="#linear-gradient-41"/><linearGradient id="linear-gradient-47" x1="930.55" y1="414.7" x2="949.25" y2="396.01" gradientTransform="translate(-614.26 262.81)" xlink:href="#linear-gradient"/><linearGradient id="linear-gradient-48" x1="808.48" y1="697.32" x2="854.28" y2="697.32" gradientTransform="translate(885.01 1075.69) rotate(180)" xlink:href="#linear-gradient-41"/><linearGradient id="linear-gradient-49" x1="615.32" y1="299.48" x2="640.33" y2="299.48" gradientTransform="translate(-362.69 238.99)" gradientUnits="userSpaceOnUse"><stop offset="0" stop-color="#4165ff"/><stop offset="1" stop-color="#5e18ed"/></linearGradient><linearGradient id="linear-gradient-50" x1="655.21" y1="354.45" x2="655.21" y2="332.79" gradientTransform="translate(-362.69 238.99)" xlink:href="#linear-gradient-16"/><linearGradient id="linear-gradient-51" x1="637.75" y1="353.95" x2="637.75" y2="332.29" gradientTransform="translate(-362.69 238.99)" xlink:href="#linear-gradient-16"/><linearGradient id="linear-gradient-52" x1="651.69" y1="299.48" x2="676.7" y2="299.48" xlink:href="#linear-gradient-49"/><linearGradient id="linear-gradient-53" x1="743.81" y1="597.34" x2="768.82" y2="597.34" gradientTransform="translate(885.01 1075.69) rotate(180)" xlink:href="#linear-gradient-41"/><linearGradient id="linear-gradient-54" x1="780.18" y1="597.34" x2="805.19" y2="597.34" gradientTransform="translate(885.01 1075.69) rotate(180)" xlink:href="#linear-gradient-41"/><linearGradient id="linear-gradient-55" x1="579.48" y1="527.49" x2="683.59" y2="527.49" gradientTransform="matrix(1, 0, 0, 1, 0, 0)" xlink:href="#linear-gradient-2"/><linearGradient id="linear-gradient-56" x1="594.13" y1="546.41" x2="623.43" y2="546.41" gradientTransform="matrix(1, 0, 0, 1, 0, 0)" xlink:href="#linear-gradient"/><linearGradient id="linear-gradient-57" x1="634.24" y1="546.41" x2="663.54" y2="546.41" gradientTransform="matrix(1, 0, 0, 1, 0, 0)" xlink:href="#linear-gradient"/><linearGradient id="linear-gradient-58" x1="574.07" y1="565.34" x2="678.19" y2="565.34" gradientTransform="matrix(1, 0, 0, 1, 0, 0)" xlink:href="#linear-gradient-12"/><linearGradient id="linear-gradient-59" x1="640.04" y1="567.38" x2="640.04" y2="539.41" gradientTransform="matrix(1, 0, 0, 1, 0, 0)" xlink:href="#linear-gradient"/><linearGradient id="linear-gradient-60" x1="628.36" y1="542.21" x2="628.36" y2="524.43" gradientTransform="matrix(1, 0, 0, 1, 0, 0)" xlink:href="#linear-gradient"/><linearGradient id="linear-gradient-61" x1="617.5" y1="567.67" x2="617.5" y2="539.7" gradientTransform="matrix(1, 0, 0, 1, 0, 0)" xlink:href="#linear-gradient"/><linearGradient id="linear-gradient-62" x1="570.04" y1="1253.85" x2="670.05" y2="1253.85" gradientTransform="matrix(-1, 0, 0, 1, 899.01, -1116.14)" xlink:href="#linear-gradient"/><linearGradient id="linear-gradient-63" x1="564.85" y1="1290.21" x2="664.86" y2="1290.21" gradientTransform="matrix(-1, 0, 0, 1, 899.01, -1116.14)" xlink:href="#linear-gradient-2"/><linearGradient id="linear-gradient-64" x1="161.61" y1="1170.55" x2="261.61" y2="1170.55" gradientTransform="matrix(-1, 0, 0, 1, 899.01, -1116.14)" xlink:href="#linear-gradient-3"/><linearGradient id="linear-gradient-65" x1="189.75" y1="1224.23" x2="189.75" y2="1153.24" gradientTransform="matrix(-1, 0, 0, 1, 899.01, -1116.14)" xlink:href="#linear-gradient-4"/><linearGradient id="linear-gradient-66" x1="228.28" y1="1224.23" x2="228.28" y2="1153.24" gradientTransform="matrix(-1, 0, 0, 1, 899.01, -1116.14)" xlink:href="#linear-gradient-5"/><linearGradient id="linear-gradient-67" x1="206.42" y1="1249.47" x2="206.42" y2="1164.36" gradientTransform="matrix(-1, 0, 0, 1, 899.01, -1116.14)" xlink:href="#linear-gradient-6"/><linearGradient id="linear-gradient-68" x1="-14.99" y1="1276.88" x2="85.02" y2="1276.88" gradientTransform="matrix(-1, 0, 0, 1, 899.01, -1116.14)" xlink:href="#linear-gradient"/><linearGradient id="linear-gradient-69" x1="-20.18" y1="1313.24" x2="79.83" y2="1313.24" gradientTransform="matrix(-1, 0, 0, 1, 899.01, -1116.14)" xlink:href="#linear-gradient-2"/><linearGradient id="linear-gradient-70" x1="-72.4" y1="1376.99" x2="27.6" y2="1376.99" gradientTransform="matrix(-1, 0, 0, 1, 899.01, -1116.14)" xlink:href="#linear-gradient-2"/><linearGradient id="linear-gradient-71" x1="-58.33" y1="1395.17" x2="-30.19" y2="1395.17" gradientTransform="matrix(-1, 0, 0, 1, 899.01, -1116.14)" xlink:href="#linear-gradient"/><linearGradient id="linear-gradient-72" x1="-19.8" y1="1395.17" x2="8.34" y2="1395.17" gradientTransform="matrix(-1, 0, 0, 1, 899.01, -1116.14)" xlink:href="#linear-gradient"/><linearGradient id="linear-gradient-73" x1="-77.6" y1="1413.35" x2="22.41" y2="1413.35" gradientTransform="matrix(-1, 0, 0, 1, 899.01, -1116.14)" xlink:href="#linear-gradient-12"/><linearGradient id="linear-gradient-74" x1="43" y1="1377.32" x2="143.01" y2="1377.32" gradientTransform="matrix(-1, 0, 0, 1, 899.01, -1116.14)" xlink:href="#linear-gradient"/><linearGradient id="linear-gradient-75" x1="37.81" y1="1413.69" x2="137.82" y2="1413.69" gradientTransform="matrix(-1, 0, 0, 1, 899.01, -1116.14)" xlink:href="#linear-gradient-14"/><linearGradient id="linear-gradient-76" x1="559.16" y1="1201.25" x2="559.16" y2="1116.14" gradientTransform="matrix(-1, 0, 0, 1, 899.01, -1116.14)" xlink:href="#linear-gradient-3"/><linearGradient id="linear-gradient-77" x1="537.3" y1="1212.37" x2="537.3" y2="1141.38" gradientTransform="matrix(-1, 0, 0, 1, 899.01, -1116.14)" xlink:href="#linear-gradient-16"/><linearGradient id="linear-gradient-78" x1="575.83" y1="1212.37" x2="575.83" y2="1141.38" gradientTransform="matrix(-1, 0, 0, 1, 899.01, -1116.14)" xlink:href="#linear-gradient-16"/><linearGradient id="linear-gradient-79" x1="553.97" y1="1237.61" x2="553.97" y2="1152.5" gradientTransform="matrix(-1, 0, 0, 1, 899.01, -1116.14)" xlink:href="#linear-gradient-18"/><linearGradient id="linear-gradient-80" x1="735.02" y1="1210.89" x2="735.02" y2="1295.99" gradientTransform="matrix(-1, 0, 0, 1, 899.01, -1116.14)" xlink:href="#linear-gradient-5"/><linearGradient id="linear-gradient-81" x1="729.83" y1="1247.25" x2="729.83" y2="1332.36" gradientTransform="matrix(-1, 0, 0, 1, 899.01, -1116.14)" xlink:href="#linear-gradient-20"/><linearGradient id="linear-gradient-82" x1="280.43" y1="1163.77" x2="380.43" y2="1163.77" gradientTransform="matrix(-1, 0, 0, 1, 899.01, -1116.14)" xlink:href="#linear-gradient-2"/><linearGradient id="linear-gradient-83" x1="295.97" y1="1202.67" x2="337.41" y2="1161.23" gradientTransform="matrix(-1, 0, 0, 1, 899.01, -1116.14)" xlink:href="#linear-gradient-16"/><linearGradient id="linear-gradient-84" x1="318.25" y1="1202.67" x2="359.69" y2="1161.23" gradientTransform="matrix(-1, 0, 0, 1, 899.01, -1116.14)" xlink:href="#linear-gradient-16"/><linearGradient id="linear-gradient-85" x1="275.23" y1="1200.13" x2="375.24" y2="1200.13" gradientTransform="matrix(-1, 0, 0, 1, 899.01, -1116.14)" xlink:href="#linear-gradient"/><linearGradient id="linear-gradient-86" x1="505.16" y1="1301.25" x2="505.16" y2="1216.14" gradientTransform="matrix(-1, 0, 0, 1, 899.01, -1116.14)" xlink:href="#linear-gradient-3"/><linearGradient id="linear-gradient-87" x1="483.3" y1="1312.37" x2="483.3" y2="1241.38" gradientTransform="matrix(-1, 0, 0, 1, 899.01, -1116.14)" xlink:href="#linear-gradient-16"/><linearGradient id="linear-gradient-88" x1="521.83" y1="1312.37" x2="521.83" y2="1241.38" gradientTransform="matrix(-1, 0, 0, 1, 899.01, -1116.14)" xlink:href="#linear-gradient-16"/><linearGradient id="linear-gradient-89" x1="499.97" y1="1337.61" x2="499.97" y2="1252.5" gradientTransform="matrix(-1, 0, 0, 1, 899.01, -1116.14)" xlink:href="#linear-gradient-18"/><linearGradient id="linear-gradient-90" x1="392.16" y1="1304.25" x2="392.16" y2="1219.14" gradientTransform="matrix(-1, 0, 0, 1, 899.01, -1116.14)" xlink:href="#linear-gradient-3"/><linearGradient id="linear-gradient-91" x1="370.3" y1="1315.37" x2="370.3" y2="1244.38" gradientTransform="matrix(-1, 0, 0, 1, 899.01, -1116.14)" xlink:href="#linear-gradient-16"/><linearGradient id="linear-gradient-92" x1="408.83" y1="1315.37" x2="408.83" y2="1244.38" gradientTransform="matrix(-1, 0, 0, 1, 899.01, -1116.14)" xlink:href="#linear-gradient-16"/><linearGradient id="linear-gradient-93" x1="386.97" y1="1340.61" x2="386.97" y2="1255.5" gradientTransform="matrix(-1, 0, 0, 1, 899.01, -1116.14)" xlink:href="#linear-gradient-18"/><linearGradient id="linear-gradient-94" x1="446.16" y1="1204.25" x2="446.16" y2="1119.14" gradientTransform="matrix(-1, 0, 0, 1, 899.01, -1116.14)" xlink:href="#linear-gradient-3"/><linearGradient id="linear-gradient-95" x1="424.3" y1="1215.37" x2="424.3" y2="1144.38" gradientTransform="matrix(-1, 0, 0, 1, 899.01, -1116.14)" xlink:href="#linear-gradient-16"/><linearGradient id="linear-gradient-96" x1="462.83" y1="1215.37" x2="462.83" y2="1144.38" gradientTransform="matrix(-1, 0, 0, 1, 899.01, -1116.14)" xlink:href="#linear-gradient-16"/><linearGradient id="linear-gradient-97" x1="440.97" y1="1240.61" x2="440.97" y2="1155.5" gradientTransform="matrix(-1, 0, 0, 1, 899.01, -1116.14)" xlink:href="#linear-gradient-18"/><linearGradient id="linear-gradient-98" x1="281.61" y1="1748.55" x2="381.61" y2="1748.55" gradientTransform="matrix(-1, 0, 0, 1, 899.01, -1116.14)" xlink:href="#linear-gradient-3"/><linearGradient id="linear-gradient-99" x1="309.75" y1="1802.23" x2="309.75" y2="1731.24" gradientTransform="matrix(-1, 0, 0, 1, 899.01, -1116.14)" xlink:href="#linear-gradient-4"/><linearGradient id="linear-gradient-100" x1="348.28" y1="1802.23" x2="348.28" y2="1731.24" gradientTransform="matrix(-1, 0, 0, 1, 899.01, -1116.14)" xlink:href="#linear-gradient-5"/><linearGradient id="linear-gradient-101" x1="326.42" y1="1827.47" x2="326.42" y2="1742.36" gradientTransform="matrix(-1, 0, 0, 1, 899.01, -1116.14)" xlink:href="#linear-gradient-6"/><linearGradient id="linear-gradient-102" x1="-14.23" y1="1415.31" x2="-14.23" y2="1388.44" gradientTransform="matrix(-1, 0, 0, 1, 899.01, -1116.14)" xlink:href="#linear-gradient"/><linearGradient id="linear-gradient-103" x1="-25.45" y1="1391.14" x2="-25.45" y2="1374.06" gradientTransform="matrix(-1, 0, 0, 1, 899.01, -1116.14)" xlink:href="#linear-gradient"/><linearGradient id="linear-gradient-104" x1="-35.88" y1="1415.59" x2="-35.88" y2="1388.72" gradientTransform="matrix(-1, 0, 0, 1, 899.01, -1116.14)" xlink:href="#linear-gradient"/><linearGradient id="linear-gradient-105" x1="767.33" y1="-432.41" x2="798.61" y2="-463.7" gradientTransform="matrix(1, 0, 0, -1, -600.26, -303.26)" xlink:href="#linear-gradient"/><linearGradient id="linear-gradient-106" x1="765.86" y1="-489.75" x2="765.86" y2="-464.53" gradientTransform="matrix(1, 0, 0, -1, -600.26, -303.26)" xlink:href="#linear-gradient-41"/><linearGradient id="linear-gradient-107" x1="740.55" y1="-438.3" x2="759.25" y2="-456.99" gradientTransform="matrix(1, 0, 0, -1, -600.26, -303.26)" xlink:href="#linear-gradient"/><linearGradient id="linear-gradient-108" x1="218.02" y1="1709.89" x2="218.02" y2="1794.99" gradientTransform="matrix(-1, 0, 0, 1, 899.01, -1116.14)" xlink:href="#linear-gradient-5"/><linearGradient id="linear-gradient-109" x1="212.83" y1="1746.25" x2="212.83" y2="1831.36" gradientTransform="matrix(-1, 0, 0, 1, 899.01, -1116.14)" xlink:href="#linear-gradient-20"/><linearGradient id="linear-gradient-110" x1="1284.33" y1="-931.41" x2="1315.61" y2="-962.7" gradientTransform="matrix(1, 0, 0, -1, -600.26, -303.26)" xlink:href="#linear-gradient"/><linearGradient id="linear-gradient-111" x1="1282.86" y1="-988.75" x2="1282.86" y2="-963.53" gradientTransform="matrix(1, 0, 0, -1, -600.26, -303.26)" xlink:href="#linear-gradient-41"/><linearGradient id="linear-gradient-112" x1="1257.55" y1="-937.3" x2="1276.25" y2="-955.99" gradientTransform="matrix(1, 0, 0, -1, -600.26, -303.26)" xlink:href="#linear-gradient"/><linearGradient id="linear-gradient-113" x1="66.48" y1="1375.32" x2="112.28" y2="1375.32" gradientTransform="matrix(-1, 0, 0, 1, 899.01, -1116.14)" xlink:href="#linear-gradient-41"/><linearGradient id="linear-gradient-114" x1="599.32" y1="-455.52" x2="624.33" y2="-455.52" gradientTransform="matrix(1, 0, 0, -1, -348.69, -279.45)" xlink:href="#linear-gradient-49"/><linearGradient id="linear-gradient-115" x1="639.21" y1="-400.55" x2="639.21" y2="-422.21" gradientTransform="matrix(1, 0, 0, -1, -348.69, -279.45)" xlink:href="#linear-gradient-16"/><linearGradient id="linear-gradient-116" x1="621.75" y1="-401.05" x2="621.75" y2="-422.71" gradientTransform="matrix(1, 0, 0, -1, -348.69, -279.45)" xlink:href="#linear-gradient-16"/><linearGradient id="linear-gradient-117" x1="635.69" y1="-455.52" x2="660.7" y2="-455.52" gradientTransform="matrix(1, 0, 0, -1, -348.69, -279.45)" xlink:href="#linear-gradient-49"/><linearGradient id="linear-gradient-118" x1="1.81" y1="1275.34" x2="26.82" y2="1275.34" gradientTransform="matrix(-1, 0, 0, 1, 899.01, -1116.14)" xlink:href="#linear-gradient-41"/><linearGradient id="linear-gradient-119" x1="38.18" y1="1275.34" x2="63.19" y2="1275.34" gradientTransform="matrix(-1, 0, 0, 1, 899.01, -1116.14)" xlink:href="#linear-gradient-41"/><linearGradient id="linear-gradient-120" x1="563.48" y1="-229.51" x2="667.59" y2="-229.51" gradientTransform="matrix(1, 0, 0, -1, 14, -40.45)" xlink:href="#linear-gradient-2"/><linearGradient id="linear-gradient-121" x1="578.13" y1="-210.59" x2="607.43" y2="-210.59" gradientTransform="matrix(1, 0, 0, -1, 14, -40.45)" xlink:href="#linear-gradient"/><linearGradient id="linear-gradient-122" x1="618.24" y1="-210.59" x2="647.54" y2="-210.59" gradientTransform="matrix(1, 0, 0, -1, 14, -40.45)" xlink:href="#linear-gradient"/><linearGradient id="linear-gradient-123" x1="558.07" y1="-191.66" x2="662.19" y2="-191.66" gradientTransform="matrix(1, 0, 0, -1, 14, -40.45)" xlink:href="#linear-gradient-12"/><linearGradient id="linear-gradient-124" x1="735.47" y1="-190.41" x2="735.47" y2="-279.02" gradientTransform="matrix(1, 0, 0, -1, 14, -40.45)" xlink:href="#linear-gradient-3"/><linearGradient id="linear-gradient-125" x1="712.71" y1="-178.83" x2="712.71" y2="-252.74" gradientTransform="matrix(1, 0, 0, -1, 14, -40.45)" xlink:href="#linear-gradient-16"/><linearGradient id="linear-gradient-126" x1="752.82" y1="-178.83" x2="752.82" y2="-252.74" gradientTransform="matrix(1, 0, 0, -1, 14, -40.45)" xlink:href="#linear-gradient-16"/><linearGradient id="linear-gradient-127" x1="730.06" y1="-152.55" x2="730.06" y2="-241.16" gradientTransform="matrix(1, 0, 0, -1, 14, -40.45)" xlink:href="#linear-gradient-18"/><linearGradient id="linear-gradient-128" x1="624.04" y1="-189.62" x2="624.04" y2="-217.59" gradientTransform="matrix(1, 0, 0, -1, 14, -40.45)" xlink:href="#linear-gradient"/><linearGradient id="linear-gradient-129" x1="612.36" y1="-214.79" x2="612.36" y2="-232.57" gradientTransform="matrix(1, 0, 0, -1, 14, -40.45)" xlink:href="#linear-gradient"/><linearGradient id="linear-gradient-130" x1="601.5" y1="-189.33" x2="601.5" y2="-217.3" gradientTransform="matrix(1, 0, 0, -1, 14, -40.45)" xlink:href="#linear-gradient"/><linearGradient id="linear-gradient-131" x1="793.88" y1="438.14" x2="944.97" y2="438.14" gradientTransform="matrix(1, 0, 0, 1, 0, 0)" xlink:href="#linear-gradient-6"/><linearGradient id="linear-gradient-132" x1="869.42" y1="430.69" x2="869.42" y2="352.52" gradientUnits="userSpaceOnUse"><stop offset="0.01" stop-color="#5e18ed"/><stop offset="0.1" stop-color="#611ae9"/><stop offset="0.19" stop-color="#6921dc"/><stop offset="0.29" stop-color="#782dc7"/><stop offset="0.39" stop-color="#8c3daa"/><stop offset="0.49" stop-color="#a65184"/><stop offset="0.6" stop-color="#c56b55"/><stop offset="0.7" stop-color="#ea881f"/><stop offset="0.75" stop-color="#f90"/><stop offset="1" stop-color="#f9d238"/></linearGradient><linearGradient id="linear-gradient-133" x1="815.14" y1="429.74" x2="908.02" y2="429.74" gradientTransform="matrix(1, 0, 0, 1, 0, 0)" xlink:href="#linear-gradient-6"/><linearGradient id="linear-gradient-134" x1="786.04" y1="383.2" x2="937.12" y2="383.2" gradientUnits="userSpaceOnUse"><stop offset="0" stop-color="#5e18ed"/><stop offset="0.33" stop-color="#4165ff"/><stop offset="1" stop-color="#f15a24"/></linearGradient><linearGradient id="linear-gradient-135" x1="846.78" y1="390.6" x2="888.89" y2="390.6" gradientTransform="matrix(1, 0, 0, 1, 0, 0)" xlink:href="#linear-gradient-41"/><linearGradient id="linear-gradient-136" x1="45.42" y1="554.76" x2="190.53" y2="554.76" gradientTransform="translate(885.01 1075.69) rotate(180)" gradientUnits="userSpaceOnUse"><stop offset="0" stop-color="#5e18ed"/><stop offset="1" stop-color="#f15a24"/></linearGradient><linearGradient id="linear-gradient-137" x1="117.98" y1="547.6" x2="117.98" y2="472.52" gradientTransform="translate(885.01 1075.69) rotate(180)" xlink:href="#linear-gradient-132"/><linearGradient id="linear-gradient-138" x1="65.84" y1="546.69" x2="155.05" y2="546.69" xlink:href="#linear-gradient-6"/><linearGradient id="linear-gradient-139" x1="37.88" y1="501.99" x2="183" y2="501.99" gradientTransform="translate(885.01 1075.69) rotate(180)" xlink:href="#linear-gradient-134"/><linearGradient id="linear-gradient-140" x1="644.57" y1="703.61" x2="685.01" y2="703.61" gradientTransform="translate(107.62 -167.46)" xlink:href="#linear-gradient-41"/></defs><g id="Layer_2" data-name="Layer 2"><g id="Layer_1-2" data-name="Layer 1"><g class="cls-1"><g class="cls-2"><polygon class="cls-3" points="309.86 604.22 283.56 619.4 230.96 589.03 230.96 534.29 239.84 539.42 239.84 583.9 283.56 609.14 322.08 586.9 330.96 592.03 309.86 604.22"/><polygon class="cls-4" points="309.86 513.11 336.16 528.29 336.15 558.66 336.16 583.04 327.27 577.91 327.28 533.42 283.56 508.18 245.03 530.42 236.15 525.3 283.56 497.93 309.86 513.11"/></g><polygon class="cls-5" points="252.29 504.51 225.99 519.7 173.4 489.33 173.4 434.58 182.28 439.71 182.28 484.2 225.99 509.44 264.52 487.2 273.4 492.32 252.29 504.51"/><polygon class="cls-6" points="231.19 433.72 231.18 423.46 259.33 439.71 259.33 478.2 231.19 494.45 231.19 484.2 250.45 473.08 250.45 444.84 231.19 433.72"/><polygon class="cls-7" points="220.8 433.72 201.54 444.84 201.54 473.08 220.8 484.2 220.8 494.45 192.66 478.2 192.66 439.71 220.8 423.46 220.8 433.72"/><polygon class="cls-8" points="252.29 413.41 278.59 428.59 278.59 458.96 278.59 483.33 269.71 478.2 269.71 433.72 225.99 408.48 187.47 430.72 178.59 425.59 225.99 398.22 252.29 413.41"/><polygon class="cls-9" points="136.89 504.18 110.59 519.36 57.99 489 57.99 434.25 66.87 439.38 66.87 483.87 110.59 509.11 149.12 486.87 158 491.99 136.89 504.18"/><polygon class="cls-10" points="136.89 413.07 163.19 428.26 163.19 458.63 163.19 483 154.31 477.87 154.31 433.39 110.59 408.14 72.06 430.39 63.18 425.26 110.59 397.89 136.89 413.07"/><g class="cls-2"><polygon class="cls-11" points="194.3 404.07 168 419.25 115.41 388.88 115.41 334.14 124.28 339.27 124.28 383.76 168 409 206.53 386.75 215.41 391.88 194.3 404.07"/><polygon class="cls-12" points="173.19 333.27 173.19 323.02 201.34 339.27 201.34 377.76 173.19 394.01 173.19 383.76 192.46 372.64 192.46 344.4 173.19 333.27"/><polygon class="cls-13" points="162.81 333.27 143.55 344.4 143.55 372.64 162.81 383.76 162.81 394.01 134.67 377.76 134.67 339.27 162.81 323.02 162.81 333.27"/><polygon class="cls-14" points="194.3 312.97 220.6 328.15 220.6 358.52 220.6 382.89 211.72 377.76 211.72 333.28 168 308.04 129.48 330.28 120.6 325.15 168 297.78 194.3 312.97"/></g><polygon class="cls-15" points="78.9 403.74 52.6 418.92 0 388.55 0 333.81 8.88 338.94 8.88 383.43 52.6 408.67 91.13 386.42 100 391.55 78.9 403.74"/><polygon class="cls-16" points="78.9 312.63 105.2 327.82 105.2 358.18 105.2 382.56 96.32 377.43 96.32 332.94 52.6 307.7 14.07 329.94 5.19 324.82 52.6 297.45 78.9 312.63"/><polygon class="cls-17" points="136.74 304.37 110.44 319.55 57.84 289.18 57.84 234.44 66.72 239.57 66.72 284.05 110.44 309.3 148.97 287.05 157.85 292.18 136.74 304.37"/><polygon class="cls-18" points="115.63 233.57 115.63 223.32 143.77 239.57 143.78 278.06 115.63 294.31 115.63 284.06 134.89 272.93 134.89 244.69 115.63 233.57"/><polygon class="cls-19" points="105.25 233.57 85.98 244.69 85.98 272.93 105.25 284.06 105.25 294.31 77.11 278.06 77.11 239.57 105.25 223.32 105.25 233.57"/><polygon class="cls-20" points="136.74 213.26 163.04 228.45 163.04 258.81 163.04 283.19 154.16 278.06 154.16 233.57 110.44 208.33 71.91 230.57 63.03 225.45 110.44 198.08 136.74 213.26"/><polygon class="cls-21" points="194.88 604.62 168.58 619.8 115.98 589.44 115.98 534.7 124.86 539.82 124.86 584.31 168.58 609.55 207.11 587.31 215.99 592.43 194.88 604.62"/><polygon class="cls-22" points="194.88 513.52 221.18 528.7 221.18 559.07 221.18 583.44 212.3 578.31 212.3 533.83 168.58 508.59 130.05 530.83 121.17 525.7 168.58 498.33 194.88 513.52"/><g class="cls-2"><polygon class="cls-23" points="253.47 304.29 227.18 319.47 174.58 289.1 174.58 234.36 183.46 239.49 183.46 283.98 227.17 309.22 265.7 286.97 274.58 292.1 253.47 304.29"/><polygon class="cls-24" points="232.37 233.49 232.36 223.24 260.51 239.49 260.51 277.98 232.37 294.23 232.37 283.98 251.63 272.86 251.63 244.62 232.37 233.49"/><polygon class="cls-25" points="221.98 233.49 202.72 244.62 202.72 272.86 221.98 283.98 221.98 294.23 193.84 277.98 193.84 239.49 221.98 223.24 221.98 233.49"/><polyline class="cls-26" points="227.17 198 253.47 213.19 279.77 228.37 279.77 258.74 279.77 283.11 270.89 277.98 270.89 233.5 227.17 208.25 188.65 230.5 179.77 225.37"/></g><polygon class="cls-27" points="107.34 256.66 107.33 245.87 98.4 251.03 98.4 261.34 107.34 256.66"/><polygon class="cls-27" points="111.03 272.18 119.96 267.02 111.05 262.35 102.1 267.02 111.03 272.18"/><polygon class="cls-27" points="113.65 256.5 113.67 245.71 122.6 250.87 122.6 261.18 113.65 256.5"/><polygon class="cls-28" points="424.74 599.37 398.44 614.55 345.84 584.18 345.84 529.44 354.72 534.57 354.72 579.05 398.44 604.29 436.97 582.05 445.85 587.18 424.74 599.37"/><polygon class="cls-29" points="403.63 528.57 403.63 518.32 431.77 534.57 431.78 573.06 403.63 589.31 403.63 579.05 422.89 567.93 422.89 539.7 403.63 528.57"/><polygon class="cls-30" points="393.25 528.57 373.98 539.7 373.98 567.93 393.25 579.05 393.25 589.31 365.11 573.06 365.11 534.57 393.25 518.32 393.25 528.57"/><polygon class="cls-31" points="424.74 508.26 451.04 523.45 451.04 553.81 451.04 578.19 442.16 573.06 442.16 528.57 398.44 503.33 359.91 525.57 351.03 520.45 398.44 493.08 424.74 508.26"/><polygon class="cls-27" points="395.34 551.66 395.33 540.87 386.4 546.03 386.4 556.34 395.34 551.66"/><polygon class="cls-27" points="399.03 567.18 407.96 562.02 399.05 557.35 390.1 562.02 399.03 567.18"/><polygon class="cls-27" points="401.65 551.5 401.67 540.71 410.6 545.87 410.6 556.18 401.65 551.5"/><polygon class="cls-32" points="537.74 596.37 511.44 611.55 458.84 581.18 458.84 526.44 467.72 531.57 467.72 576.05 511.44 601.29 549.97 579.05 558.85 584.18 537.74 596.37"/><polygon class="cls-33" points="516.63 525.57 516.63 515.32 544.77 531.57 544.78 570.06 516.63 586.31 516.63 576.05 535.89 564.93 535.89 536.7 516.63 525.57"/><polygon class="cls-34" points="506.25 525.57 486.98 536.7 486.98 564.93 506.25 576.05 506.25 586.31 478.11 570.06 478.11 531.57 506.25 515.32 506.25 525.57"/><polygon class="cls-35" points="537.74 505.26 564.04 520.45 564.04 550.81 564.04 575.19 555.16 570.06 555.16 525.57 511.44 500.33 472.91 522.57 464.03 517.45 511.44 490.08 537.74 505.26"/><polygon class="cls-27" points="508.34 548.66 508.33 537.87 499.4 543.03 499.4 553.34 508.34 548.66"/><polygon class="cls-27" points="512.03 564.18 520.96 559.02 512.05 554.35 503.1 559.02 512.03 564.18"/><polygon class="cls-27" points="514.65 548.5 514.67 537.71 523.6 542.87 523.6 553.18 514.65 548.5"/><polygon class="cls-36" points="483.74 696.37 457.44 711.55 404.84 681.18 404.84 626.44 413.72 631.57 413.72 676.05 457.44 701.29 495.97 679.05 504.85 684.18 483.74 696.37"/><polygon class="cls-37" points="462.63 625.57 462.63 615.32 490.77 631.57 490.78 670.06 462.63 686.31 462.63 676.05 481.89 664.93 481.89 636.7 462.63 625.57"/><polygon class="cls-38" points="452.25 625.57 432.98 636.7 432.98 664.93 452.25 676.05 452.25 686.31 424.11 670.06 424.11 631.57 452.25 615.32 452.25 625.57"/><polygon class="cls-39" points="483.74 605.26 510.04 620.45 510.04 650.81 510.04 675.19 501.16 670.06 501.16 625.57 457.44 600.33 418.91 622.57 410.03 617.45 457.44 590.08 483.74 605.26"/><polygon class="cls-27" points="454.34 648.66 454.33 637.87 445.4 643.03 445.4 653.34 454.34 648.66"/><polygon class="cls-27" points="458.03 664.18 466.96 659.02 458.05 654.35 449.1 659.02 458.03 664.18"/><polygon class="cls-27" points="460.65 648.5 460.67 637.71 469.6 642.87 469.6 653.18 460.65 648.5"/><polygon class="cls-40" points="223.32 457.07 223.31 446.28 214.38 451.44 214.38 461.75 223.32 457.07"/><polygon class="cls-40" points="227.01 472.59 235.94 467.43 227.03 462.75 218.08 467.43 227.01 472.59"/><polygon class="cls-40" points="229.63 456.91 229.65 446.12 238.58 451.27 238.58 461.59 229.63 456.91"/><polygon class="cls-40" points="223.88 257.53 223.85 238.79 208.34 247.75 208.34 265.66 223.88 257.53"/><polygon class="cls-40" points="227.33 280.04 242.84 271.09 227.35 262.96 211.82 271.09 227.33 280.04"/><polygon class="cls-40" points="229.99 257.25 230.01 238.51 245.53 247.47 245.53 265.38 229.99 257.25"/><polygon class="cls-41" points="165 357.12 164.98 338.38 149.47 347.34 149.47 365.25 165 357.12"/><polygon class="cls-42" points="168.46 379.63 183.97 370.68 168.48 362.55 152.94 370.68 168.46 379.63"/><polygon class="cls-43" points="171.12 356.84 171.14 338.1 186.65 347.06 186.65 364.97 171.12 356.84"/><polygon class="cls-44" points="173.54 562.23 173.58 589.9 196.48 576.68 196.48 550.23 173.54 562.23"/><polygon class="cls-45" points="167.59 528.06 144.69 541.28 167.56 553.27 190.49 541.28 167.59 528.06"/><polygon class="cls-46" points="162.81 562.64 162.77 590.31 139.87 577.09 139.87 550.65 162.81 562.64"/><polygon class="cls-47" points="368.88 702.62 342.58 717.8 289.98 687.44 289.98 632.7 298.86 637.82 298.86 682.31 342.58 707.55 381.11 685.31 389.99 690.43 368.88 702.62"/><polygon class="cls-48" points="368.88 611.52 395.18 626.7 395.18 657.07 395.18 681.44 386.3 676.31 386.3 631.83 342.58 606.59 304.05 628.83 295.17 623.7 342.58 596.33 368.88 611.52"/><polygon class="cls-49" points="347.54 660.23 347.58 687.9 370.48 674.68 370.48 648.23 347.54 660.23"/><polygon class="cls-50" points="341.59 626.06 318.69 639.28 341.56 651.27 364.49 639.28 341.59 626.06"/><polygon class="cls-51" points="336.81 660.64 336.77 688.31 313.87 675.09 313.87 648.65 336.81 660.64"/><g class="cls-52"><polygon class="cls-40" points="47.68 356.8 47.65 329.13 24.75 342.36 24.75 368.8 47.68 356.8"/><polygon class="cls-53" points="53.63 390.98 76.53 377.75 53.66 365.76 30.73 377.75 53.63 390.98"/><polygon class="cls-40" points="58.41 356.39 58.45 328.72 81.35 341.94 81.35 368.39 58.41 356.39"/></g><polygon class="cls-54" points="264.09 532.11 252.63 538.28 265.12 544.83 277.64 538.28 264.09 532.11"/><polygon class="cls-55" points="286.26 578.33 286.28 593.44 298.79 586.22 298.79 571.78 286.26 578.33"/><polygon class="cls-56" points="303.73 569.22 303.75 584.33 316.25 577.11 316.25 562.67 303.73 569.22"/><polygon class="cls-57" points="281.33 577.83 281.31 592.94 268.81 585.72 268.81 571.28 281.33 577.83"/><polygon class="cls-56" points="283.19 559.63 270.69 566.85 283.17 573.39 295.7 566.85 283.19 559.63"/><polygon class="cls-58" points="268.04 547.96 268.06 563.07 280.57 555.85 280.57 541.41 268.04 547.96"/><polygon class="cls-58" points="263.2 548.22 263.18 563.33 250.68 556.11 250.68 541.67 263.2 548.22"/><polygon class="cls-56" points="263.2 567.96 263.18 583.07 250.68 575.85 250.68 561.41 263.2 567.96"/><polygon class="cls-58" points="303.73 548.72 303.75 563.83 316.25 556.61 316.25 542.17 303.73 548.72"/><polygon class="cls-58" points="298.7 548.22 298.68 563.33 286.18 556.11 286.18 541.67 298.7 548.22"/><polygon class="cls-59" points="301.51 532.11 289 538.28 301.49 544.83 314.01 538.28 301.51 532.11"/><polygon class="cls-56" points="281.94 521.81 269.44 529.03 281.93 535.58 294.45 529.03 281.94 521.81"/><polygon class="cls-60" points="129.75 484.71 141.2 478.54 128.71 471.99 116.19 478.54 129.75 484.71"/><polygon class="cls-40" points="107.57 438.49 107.55 423.38 95.04 430.6 95.04 445.04 107.57 438.49"/><polygon class="cls-61" points="90.11 447.6 90.09 432.49 77.58 439.71 77.58 454.15 90.11 447.6"/><polygon class="cls-40" points="112.5 438.99 112.52 423.88 125.02 431.1 125.02 445.54 112.5 438.99"/><polygon class="cls-61" points="110.64 457.2 123.14 449.98 110.66 443.43 98.13 449.98 110.64 457.2"/><polygon class="cls-40" points="125.79 468.86 125.77 453.75 113.27 460.97 113.27 475.41 125.79 468.86"/><polygon class="cls-40" points="130.63 468.6 130.65 453.49 143.15 460.71 143.15 475.15 130.63 468.6"/><polygon class="cls-61" points="130.63 448.86 130.65 433.75 143.15 440.97 143.15 455.41 130.63 448.86"/><polygon class="cls-40" points="90.11 468.1 90.09 452.99 77.58 460.21 77.58 474.65 90.11 468.1"/><polygon class="cls-40" points="95.13 468.6 95.15 453.49 107.66 460.71 107.66 475.15 95.13 468.6"/><polygon class="cls-62" points="92.32 484.71 104.83 478.54 92.34 471.99 79.82 478.54 92.32 484.71"/><polygon class="cls-61" points="111.89 495.02 124.39 487.8 111.91 481.25 99.38 487.8 111.89 495.02"/></g><g class="cls-1"><g class="cls-2"><polygon class="cls-63" points="601.45 498.99 628.83 483.18 683.59 514.8 683.59 571.79 674.35 566.45 674.35 520.13 628.83 493.86 588.72 517.01 579.48 511.68 601.45 498.99"/><polygon class="cls-64" points="623.43 572.69 623.43 583.37 594.13 566.45 594.13 526.38 623.43 509.46 623.43 520.13 603.37 531.71 603.37 561.11 623.43 572.69"/><polygon class="cls-65" points="634.24 572.69 654.29 561.11 654.29 531.71 634.24 520.13 634.24 509.46 663.54 526.38 663.54 566.45 634.24 583.37 634.24 572.69"/><polygon class="cls-66" points="601.45 593.84 574.07 578.03 574.07 546.41 574.07 521.04 583.32 526.38 583.32 572.69 628.83 598.97 668.94 575.81 678.19 581.15 628.83 609.65 601.45 593.84"/></g><polygon class="cls-67" points="631.96 547.86 631.98 567.38 648.13 558.05 648.13 539.4 631.96 547.86"/><polygon class="cls-68" points="628.36 524.43 612.21 533.75 628.34 542.21 644.51 533.75 628.36 524.43"/><polygon class="cls-69" points="625.59 548.15 625.57 567.67 609.42 558.34 609.42 539.7 625.59 548.15"/></g><g class="cls-1"><g class="cls-2"><polygon class="cls-70" points="307.86 110.33 281.56 95.15 228.96 125.52 228.96 180.26 237.84 175.13 237.84 130.65 281.56 105.4 320.08 127.65 328.96 122.52 307.86 110.33"/><polygon class="cls-71" points="307.86 201.44 334.16 186.25 334.15 155.89 334.16 131.51 325.27 136.64 325.28 181.13 281.56 206.37 243.03 184.13 234.15 189.25 281.56 216.62 307.86 201.44"/></g><polygon class="cls-72" points="716.29 27.04 689.99 11.85 637.39 42.22 637.39 96.96 646.27 91.83 646.28 47.35 689.99 22.11 728.52 44.35 737.4 39.22 716.29 27.04"/><polygon class="cls-73" points="695.18 97.83 695.18 108.08 723.33 91.83 723.33 53.34 695.19 37.1 695.19 47.35 714.45 58.47 714.45 86.71 695.18 97.83"/><polygon class="cls-74" points="684.8 97.83 665.54 86.71 665.54 58.47 684.8 47.35 684.8 37.1 656.66 53.34 656.66 91.84 684.8 108.08 684.8 97.83"/><polygon class="cls-75" points="716.29 118.14 742.59 102.96 742.59 72.59 742.59 48.22 733.71 53.34 733.71 97.83 689.99 123.07 651.47 100.83 642.59 105.96 689.99 133.33 716.29 118.14"/><polygon class="cls-76" points="892.89 133.37 866.59 118.19 813.99 148.55 813.99 203.3 822.87 198.17 822.87 153.68 866.59 128.44 905.12 150.68 914 145.56 892.89 133.37"/><polygon class="cls-77" points="892.89 224.47 919.19 209.29 919.19 178.92 919.19 154.55 910.31 159.68 910.31 204.16 866.59 229.4 828.06 207.16 819.18 212.29 866.59 239.66 892.89 224.47"/><g class="cls-2"><polygon class="cls-78" points="950.3 233.48 924 218.3 871.4 248.66 871.4 303.41 880.28 298.28 880.28 253.79 924 228.55 962.53 250.79 971.41 245.67 950.3 233.48"/><polygon class="cls-79" points="929.2 304.27 929.19 314.53 957.34 298.28 957.34 259.79 929.2 243.54 929.2 253.79 948.46 264.91 948.46 293.15 929.2 304.27"/><polygon class="cls-80" points="918.81 304.27 899.55 293.15 899.55 264.91 918.81 253.79 918.81 243.54 890.67 259.79 890.67 298.28 918.81 314.53 918.81 304.27"/><polygon class="cls-81" points="950.3 324.58 976.6 309.4 976.6 279.03 976.6 254.66 967.72 259.79 967.72 304.27 924 329.51 885.48 307.27 876.6 312.4 924 339.77 950.3 324.58"/></g><polygon class="cls-82" points="834.9 233.81 808.6 218.63 756 249 756 303.74 764.88 298.61 764.88 254.12 808.6 228.88 847.13 251.13 856 246 834.9 233.81"/><polygon class="cls-83" points="834.9 324.92 861.2 309.73 861.2 279.37 861.2 254.99 852.32 260.12 852.32 304.61 808.6 329.85 770.07 307.6 761.19 312.73 808.6 340.1 834.9 324.92"/><polygon class="cls-84" points="368.74 15.18 342.44 0 289.84 30.37 289.84 85.11 298.72 79.98 298.72 35.49 342.44 10.25 380.97 32.5 389.85 27.37 368.74 15.18"/><polygon class="cls-85" points="347.63 85.98 347.63 96.23 375.77 79.98 375.78 41.49 347.63 25.24 347.63 35.49 366.89 46.62 366.89 74.85 347.63 85.98"/><polygon class="cls-86" points="337.25 85.98 317.98 74.85 317.98 46.62 337.25 35.49 337.25 25.24 309.11 41.49 309.11 79.98 337.25 96.23 337.25 85.98"/><polygon class="cls-87" points="368.74 106.29 395.04 91.1 395.04 60.74 395.04 36.36 386.16 41.49 386.16 85.98 342.44 111.22 303.91 88.97 295.03 94.1 342.44 121.47 368.74 106.29"/><polygon class="cls-88" points="192.88 109.93 166.58 94.75 113.98 125.11 113.98 179.85 122.86 174.73 122.86 130.24 166.58 105 205.11 127.24 213.99 122.11 192.88 109.93"/><polygon class="cls-89" points="192.88 201.03 219.18 185.85 219.18 155.48 219.18 131.11 210.3 136.23 210.3 180.72 166.58 205.96 128.05 183.72 119.17 188.85 166.58 216.22 192.88 201.03"/><g class="cls-2"><polygon class="cls-90" points="597.47 20.26 571.17 5.08 518.58 35.44 518.58 90.19 527.46 85.06 527.46 40.57 571.17 15.33 609.7 37.57 618.58 32.45 597.47 20.26"/><polygon class="cls-91" points="576.37 91.05 576.36 101.31 604.51 85.06 604.51 46.57 576.37 30.32 576.37 40.57 595.63 51.69 595.63 79.93 576.37 91.05"/><polygon class="cls-92" points="565.98 91.06 546.72 79.93 546.72 51.69 565.98 40.57 565.98 30.32 537.84 46.57 537.84 85.06 565.98 101.31 565.98 91.06"/><polyline class="cls-93" points="571.17 126.55 597.47 111.36 623.77 96.18 623.77 65.81 623.77 41.44 614.89 46.57 614.89 91.05 571.17 116.29 532.65 94.05 523.77 99.18"/></g><polygon class="cls-27" points="338.34 62.89 338.33 73.68 329.4 68.52 329.4 58.21 338.34 62.89"/><polygon class="cls-27" points="342.03 47.37 350.96 52.52 342.05 57.2 333.1 52.52 342.03 47.37"/><polygon class="cls-27" points="344.65 63.05 344.67 73.84 353.6 68.68 353.6 58.37 344.65 63.05"/><polygon class="cls-94" points="422.74 115.18 396.44 100 343.84 130.37 343.84 185.11 352.72 179.98 352.72 135.5 396.44 110.25 434.97 132.5 443.85 127.37 422.74 115.18"/><polygon class="cls-95" points="401.63 185.98 401.63 196.23 429.77 179.98 429.78 141.49 401.63 125.24 401.63 135.49 420.89 146.62 420.89 174.85 401.63 185.98"/><polygon class="cls-96" points="391.25 185.98 371.98 174.85 371.98 146.62 391.25 135.49 391.25 125.24 363.11 141.49 363.11 179.98 391.25 196.23 391.25 185.98"/><polygon class="cls-97" points="422.74 206.29 449.04 191.1 449.04 160.74 449.04 136.36 440.16 141.49 440.16 185.98 396.44 211.22 357.91 188.97 349.03 194.1 396.44 221.47 422.74 206.29"/><polygon class="cls-27" points="393.34 162.89 393.33 173.68 384.4 168.52 384.4 158.21 393.34 162.89"/><polygon class="cls-27" points="397.03 147.37 405.96 152.52 397.05 157.2 388.1 152.52 397.03 147.37"/><polygon class="cls-27" points="399.65 163.05 399.67 173.84 408.6 168.68 408.6 158.37 399.65 163.05"/><polygon class="cls-98" points="535.74 118.18 509.44 103 456.84 133.37 456.84 188.11 465.72 182.98 465.72 138.5 509.44 113.25 547.97 135.5 556.85 130.37 535.74 118.18"/><polygon class="cls-99" points="514.63 188.98 514.63 199.23 542.77 182.98 542.78 144.49 514.63 128.24 514.63 138.49 533.89 149.62 533.89 177.85 514.63 188.98"/><polygon class="cls-100" points="504.25 188.98 484.98 177.85 484.98 149.62 504.25 138.49 504.25 128.24 476.11 144.49 476.11 182.98 504.25 199.23 504.25 188.98"/><polygon class="cls-101" points="535.74 209.29 562.04 194.1 562.04 163.74 562.04 139.36 553.16 144.49 553.16 188.98 509.44 214.22 470.91 191.97 462.03 197.1 509.44 224.47 535.74 209.29"/><polygon class="cls-27" points="506.34 165.89 506.33 176.68 497.4 171.52 497.4 161.21 506.34 165.89"/><polygon class="cls-27" points="510.03 150.37 518.96 155.52 510.05 160.2 501.1 155.52 510.03 150.37"/><polygon class="cls-27" points="512.65 166.05 512.67 176.84 521.6 171.68 521.6 161.37 512.65 166.05"/><polygon class="cls-102" points="481.74 18.18 455.44 3 402.84 33.37 402.84 88.11 411.72 82.98 411.72 38.49 455.44 13.25 493.97 35.5 502.85 30.37 481.74 18.18"/><polygon class="cls-103" points="460.63 88.98 460.63 99.23 488.77 82.98 488.78 44.49 460.63 28.24 460.63 38.49 479.89 49.62 479.89 77.85 460.63 88.98"/><polygon class="cls-104" points="450.25 88.98 430.98 77.85 430.98 49.62 450.25 38.49 450.25 28.24 422.11 44.49 422.11 82.98 450.25 99.23 450.25 88.98"/><polygon class="cls-105" points="481.74 109.29 508.04 94.1 508.04 63.74 508.04 39.36 499.16 44.49 499.16 88.98 455.44 114.22 416.91 91.97 408.03 97.1 455.44 124.47 481.74 109.29"/><polygon class="cls-27" points="452.34 65.89 452.33 76.68 443.4 71.52 443.4 61.21 452.34 65.89"/><polygon class="cls-27" points="456.03 50.37 464.96 55.52 456.05 60.2 447.1 55.52 456.03 50.37"/><polygon class="cls-27" points="458.65 66.05 458.67 76.84 467.6 71.68 467.6 61.37 458.65 66.05"/><polygon class="cls-40" points="687.32 74.48 687.31 85.27 678.38 80.11 678.38 69.8 687.32 74.48"/><polygon class="cls-40" points="691.01 58.96 699.94 64.12 691.03 68.79 682.08 64.12 691.01 58.96"/><polygon class="cls-40" points="693.63 74.64 693.65 85.43 702.58 80.27 702.58 69.96 693.63 74.64"/><polygon class="cls-106" points="596.29 605.04 569.99 589.85 517.39 620.22 517.39 674.96 526.27 669.84 526.28 625.35 569.99 600.11 608.52 622.35 617.4 617.22 596.29 605.04"/><polygon class="cls-107" points="575.18 675.83 575.18 686.09 603.33 669.84 603.33 631.34 575.19 615.1 575.19 625.35 594.45 636.47 594.45 664.71 575.18 675.83"/><polygon class="cls-108" points="564.8 675.83 545.54 664.71 545.54 636.47 564.8 625.35 564.8 615.1 536.66 631.34 536.66 669.84 564.8 686.09 564.8 675.83"/><polygon class="cls-109" points="596.29 696.14 622.59 680.96 622.59 650.59 622.59 626.22 613.71 631.34 613.71 675.83 569.99 701.07 531.47 678.83 522.59 683.96 569.99 711.33 596.29 696.14"/><polygon class="cls-40" points="567.32 652.48 567.31 663.27 558.38 658.11 558.38 647.8 567.32 652.48"/><polygon class="cls-40" points="571.01 636.96 579.94 642.12 571.03 646.79 562.08 642.12 571.01 636.96"/><polygon class="cls-40" points="573.63 652.64 573.65 663.43 582.58 658.27 582.58 647.96 573.63 652.64"/><polygon class="cls-40" points="567.88 67.02 567.85 85.76 552.34 76.8 552.34 58.89 567.88 67.02"/><polygon class="cls-40" points="571.33 44.51 586.84 53.46 571.35 61.59 555.82 53.46 571.33 44.51"/><polygon class="cls-40" points="573.99 67.3 574.01 86.04 589.52 77.08 589.52 59.17 573.99 67.3"/><polygon class="cls-110" points="921 280.43 920.98 299.17 905.47 290.21 905.47 272.3 921 280.43"/><polygon class="cls-111" points="924.46 257.92 939.97 266.87 924.48 275 908.94 266.87 924.46 257.92"/><polygon class="cls-112" points="927.12 280.7 927.14 299.45 942.65 290.49 942.65 272.58 927.12 280.7"/><polygon class="cls-113" points="171.54 152.32 171.58 124.65 194.48 137.87 194.48 164.31 171.54 152.32"/><polygon class="cls-114" points="165.59 186.49 142.69 173.27 165.56 161.28 188.49 173.27 165.59 186.49"/><polygon class="cls-115" points="160.81 151.91 160.77 124.24 137.87 137.46 137.87 163.9 160.81 151.91"/><polygon class="cls-116" points="709.88 608.93 683.58 593.75 630.98 624.11 630.98 678.85 639.86 673.73 639.86 629.24 683.58 604 722.11 626.24 730.99 621.11 709.88 608.93"/><polygon class="cls-117" points="709.88 700.03 736.18 684.85 736.18 654.48 736.18 630.11 727.3 635.23 727.3 679.72 683.58 704.96 645.05 682.72 636.17 687.85 683.58 715.22 709.88 700.03"/><polygon class="cls-118" points="688.54 651.32 688.58 623.65 711.48 636.87 711.48 663.32 688.54 651.32"/><polygon class="cls-119" points="682.59 685.49 659.69 672.27 682.56 660.28 705.49 672.27 682.59 685.49"/><polygon class="cls-120" points="677.81 650.91 677.77 623.24 654.87 636.46 654.87 662.9 677.81 650.91"/><g class="cls-52"><polygon class="cls-40" points="803.68 280.75 803.65 308.42 780.75 295.19 780.75 268.75 803.68 280.75"/><polygon class="cls-121" points="809.63 246.57 832.53 259.79 809.66 271.79 786.73 259.79 809.63 246.57"/><polygon class="cls-40" points="814.41 281.16 814.45 308.83 837.35 295.61 837.35 269.16 814.41 281.16"/></g><polygon class="cls-122" points="262.09 182.44 250.63 176.27 263.12 169.72 275.64 176.27 262.09 182.44"/><polygon class="cls-123" points="284.26 136.22 284.28 121.11 296.79 128.33 296.79 142.77 284.26 136.22"/><polygon class="cls-56" points="301.73 145.33 301.75 130.22 314.25 137.44 314.25 151.88 301.73 145.33"/><polygon class="cls-124" points="279.33 136.72 279.31 121.61 266.81 128.83 266.81 143.27 279.33 136.72"/><polygon class="cls-56" points="281.19 154.92 268.69 147.7 281.17 141.15 293.7 147.7 281.19 154.92"/><polygon class="cls-58" points="266.04 166.59 266.06 151.48 278.57 158.7 278.57 173.14 266.04 166.59"/><polygon class="cls-58" points="261.2 166.33 261.18 151.22 248.68 158.44 248.68 172.88 261.2 166.33"/><polygon class="cls-56" points="261.2 146.59 261.18 131.48 248.68 138.7 248.68 153.14 261.2 146.59"/><polygon class="cls-58" points="301.73 165.83 301.75 150.72 314.25 157.94 314.25 172.38 301.73 165.83"/><polygon class="cls-58" points="296.7 166.33 296.68 151.22 284.18 158.44 284.18 172.88 296.7 166.33"/><polygon class="cls-125" points="299.51 182.44 287 176.27 299.49 169.72 312.01 176.27 299.51 182.44"/><polygon class="cls-56" points="279.94 192.74 267.44 185.52 279.93 178.97 292.45 185.52 279.94 192.74"/><polygon class="cls-126" points="885.75 152.84 897.2 159.01 884.71 165.56 872.19 159.01 885.75 152.84"/><polygon class="cls-40" points="863.57 199.06 863.55 214.17 851.04 206.95 851.04 192.51 863.57 199.06"/><polygon class="cls-61" points="846.11 189.95 846.09 205.06 833.58 197.84 833.58 183.4 846.11 189.95"/><polygon class="cls-40" points="868.5 198.56 868.52 213.67 881.02 206.45 881.02 192.01 868.5 198.56"/><polygon class="cls-61" points="866.64 180.35 879.14 187.57 866.66 194.12 854.13 187.57 866.64 180.35"/><polygon class="cls-40" points="881.79 168.69 881.77 183.8 869.26 176.58 869.26 162.14 881.79 168.69"/><polygon class="cls-40" points="886.63 168.95 886.65 184.06 899.15 176.84 899.15 162.4 886.63 168.95"/><polygon class="cls-61" points="886.63 188.69 886.65 203.8 899.15 196.58 899.15 182.14 886.63 188.69"/><polygon class="cls-40" points="846.11 169.45 846.09 184.56 833.58 177.34 833.58 162.9 846.11 169.45"/><polygon class="cls-40" points="851.13 168.95 851.15 184.06 863.65 176.84 863.65 162.4 851.13 168.95"/><polygon class="cls-127" points="848.32 152.84 860.83 159.01 848.34 165.56 835.82 159.01 848.32 152.84"/><polygon class="cls-61" points="867.89 142.53 880.39 149.75 867.9 156.3 855.38 149.75 867.89 142.53"/></g><g class="cls-1"><g class="cls-2"><polygon class="cls-128" points="599.45 217.56 626.83 233.37 681.59 201.75 681.59 144.76 672.35 150.1 672.35 196.41 626.83 222.69 586.72 199.53 577.48 204.87 599.45 217.56"/><polygon class="cls-129" points="621.43 143.86 621.43 133.18 592.13 150.1 592.13 190.17 621.43 207.09 621.43 196.41 601.37 184.84 601.37 155.44 621.43 143.86"/><polygon class="cls-130" points="632.24 143.85 652.29 155.44 652.29 184.84 632.24 196.41 632.24 207.09 661.54 190.17 661.54 150.1 632.24 133.18 632.24 143.85"/><polygon class="cls-131" points="599.45 122.71 572.07 138.52 572.07 170.13 572.07 195.51 581.32 190.17 581.32 143.86 626.83 117.58 666.94 140.74 676.19 135.4 626.83 106.9 599.45 122.71"/></g><polygon class="cls-132" points="719.38 222.76 746.76 238.56 801.52 206.95 801.52 149.96 792.28 155.29 792.28 201.61 746.76 227.89 706.65 204.73 697.41 210.07 719.38 222.76"/><polygon class="cls-133" points="741.36 149.05 741.36 138.38 712.06 155.3 712.06 195.37 741.36 212.28 741.36 201.61 721.3 190.03 721.3 160.63 741.36 149.05"/><polygon class="cls-134" points="752.17 149.05 772.22 160.63 772.22 190.03 752.17 201.61 752.17 212.28 781.47 195.37 781.47 155.29 752.17 138.38 752.17 149.05"/><polygon class="cls-135" points="719.38 127.91 692 143.72 692 175.33 692 200.71 701.25 195.37 701.25 149.05 746.76 122.78 786.87 145.93 796.12 140.59 746.76 112.1 719.38 127.91"/><polygon class="cls-27" points="749.99 173.09 750 161.86 759.3 167.23 759.3 177.96 749.99 173.09"/><polygon class="cls-27" points="746.14 189.25 736.85 183.88 746.13 179.01 755.44 183.88 746.14 189.25"/><polygon class="cls-27" points="743.42 172.93 743.4 161.69 734.11 167.06 734.11 177.8 743.42 172.93"/><polygon class="cls-136" points="629.96 168.69 629.98 149.17 646.13 158.5 646.13 177.14 629.96 168.69"/><polygon class="cls-137" points="626.36 192.12 610.21 182.8 626.34 174.34 642.51 182.8 626.36 192.12"/><polygon class="cls-138" points="623.59 168.39 623.57 148.88 607.42 158.21 607.42 176.85 623.59 168.39"/></g><path class="cls-139" d="M289.46,360.63a1.68,1.68,0,0,1,.65.13,1.74,1.74,0,0,1,.63.42L294.4,365a15.27,15.27,0,0,1-6,4.74,21.16,21.16,0,0,1-8.56,1.59,20.34,20.34,0,0,1-8.12-1.54,17.51,17.51,0,0,1-6.09-4.26,18.68,18.68,0,0,1-3.84-6.44,23.9,23.9,0,0,1-1.34-8.1,21.35,21.35,0,0,1,1.53-8.18,18.79,18.79,0,0,1,10.84-10.63,22.92,22.92,0,0,1,8.44-1.5,21.84,21.84,0,0,1,4.22.39,20.72,20.72,0,0,1,3.7,1.1,17.51,17.51,0,0,1,3.16,1.66,15.53,15.53,0,0,1,2.57,2.14l-3.11,4.18a3.93,3.93,0,0,1-.71.7,1.87,1.87,0,0,1-1.15.31A2,2,0,0,1,289,341a9.3,9.3,0,0,1-.93-.53l-1.07-.68a8.31,8.31,0,0,0-1.4-.68,11.55,11.55,0,0,0-1.88-.54,13.37,13.37,0,0,0-2.53-.21,11.54,11.54,0,0,0-4.58.88,10.09,10.09,0,0,0-3.57,2.54,11.93,11.93,0,0,0-2.32,4,15.84,15.84,0,0,0-.83,5.27,16.58,16.58,0,0,0,.83,5.44,12.05,12.05,0,0,0,2.27,4,9.69,9.69,0,0,0,3.34,2.47,10.09,10.09,0,0,0,4.1.84,20,20,0,0,0,2.29-.12,9.41,9.41,0,0,0,1.93-.42,8.91,8.91,0,0,0,1.69-.78,11.79,11.79,0,0,0,1.63-1.19,3.22,3.22,0,0,1,.7-.45A1.87,1.87,0,0,1,289.46,360.63Z"/><path class="cls-139" d="M339.23,351a21.24,21.24,0,0,1-1.49,8,19.42,19.42,0,0,1-4.19,6.46,19.21,19.21,0,0,1-6.51,4.3,23.84,23.84,0,0,1-16.91,0,19,19,0,0,1-10.75-10.76,22.38,22.38,0,0,1,0-16.06,19,19,0,0,1,4.21-6.44,19.46,19.46,0,0,1,6.54-4.29,22.32,22.32,0,0,1,8.46-1.55,21.93,21.93,0,0,1,8.45,1.57A19,19,0,0,1,337.74,343,21.16,21.16,0,0,1,339.23,351Zm-9.45,0a17.24,17.24,0,0,0-.76-5.31,11.21,11.21,0,0,0-2.2-4,9.38,9.38,0,0,0-3.51-2.51,12.08,12.08,0,0,0-4.72-.87,12.28,12.28,0,0,0-4.76.87,9.45,9.45,0,0,0-3.53,2.51,11.36,11.36,0,0,0-2.2,4,19,19,0,0,0,0,10.65,11.36,11.36,0,0,0,2.2,4,9.43,9.43,0,0,0,3.53,2.5,12.47,12.47,0,0,0,4.76.86,12.26,12.26,0,0,0,4.72-.86,9.35,9.35,0,0,0,3.51-2.5,11.21,11.21,0,0,0,2.2-4A17.26,17.26,0,0,0,329.78,351Z"/><path class="cls-139" d="M366.41,354.9c.34.74.66,1.51,1,2.29.31-.8.64-1.58,1-2.33s.7-1.49,1.07-2.2l10.21-20.12a3.25,3.25,0,0,1,.56-.81,1.87,1.87,0,0,1,.64-.42,2.29,2.29,0,0,1,.81-.14h8.09v39.76h-8.13V348.05c0-1.11.05-2.32.16-3.61l-10.54,20.45a3.52,3.52,0,0,1-1.32,1.45,3.66,3.66,0,0,1-1.9.49h-1.26a3.6,3.6,0,0,1-1.89-.49,3.47,3.47,0,0,1-1.33-1.45l-10.59-20.48c.07.64.12,1.27.16,1.9s.06,1.21.06,1.74v22.88H345V331.17h8.09a2.25,2.25,0,0,1,.81.14,1.78,1.78,0,0,1,.64.42,3.25,3.25,0,0,1,.56.81l10.24,20.2Q365.9,353.78,366.41,354.9Z"/><path class="cls-139" d="M419.05,354.9c.34.74.66,1.51,1,2.29.31-.8.64-1.58,1-2.33s.7-1.49,1.06-2.2l10.21-20.12a3.25,3.25,0,0,1,.56-.81,1.87,1.87,0,0,1,.64-.42,2.29,2.29,0,0,1,.81-.14h8.09v39.76h-8.13V348.05c0-1.11.05-2.32.16-3.61l-10.54,20.45a3.52,3.52,0,0,1-1.32,1.45,3.66,3.66,0,0,1-1.9.49h-1.26a3.6,3.6,0,0,1-1.89-.49,3.47,3.47,0,0,1-1.33-1.45l-10.59-20.48c.07.64.13,1.27.16,1.9s.06,1.21.06,1.74v22.88h-8.14V331.17h8.1a2.2,2.2,0,0,1,.8.14,1.78,1.78,0,0,1,.64.42,3.25,3.25,0,0,1,.56.81L418,352.74Q418.56,353.78,419.05,354.9Z"/><path class="cls-139" d="M466.85,363.64a8.51,8.51,0,0,0,3.32-.62,6.73,6.73,0,0,0,2.47-1.76,7.89,7.89,0,0,0,1.54-2.8,12.35,12.35,0,0,0,.53-3.75V331.14h9.23v23.57a18.37,18.37,0,0,1-1.19,6.71,14.87,14.87,0,0,1-8.78,8.71,21.34,21.34,0,0,1-14.28,0,15.07,15.07,0,0,1-5.37-3.44,14.76,14.76,0,0,1-3.39-5.27,18.58,18.58,0,0,1-1.17-6.71V331.14H459v23.54a12,12,0,0,0,.54,3.75,7.91,7.91,0,0,0,1.54,2.82,6.67,6.67,0,0,0,2.47,1.77A8.47,8.47,0,0,0,466.85,363.64Z"/><path class="cls-139" d="M497.18,331.2a2.67,2.67,0,0,1,.74.2,2.52,2.52,0,0,1,.63.43,7.29,7.29,0,0,1,.68.73l18.89,23.9c-.07-.77-.12-1.51-.16-2.23s-.05-1.4-.05-2V331.14H526v39.79h-4.8a4.39,4.39,0,0,1-1.8-.33,3.79,3.79,0,0,1-1.42-1.2l-18.76-23.7c.05.69.1,1.37.13,2s.06,1.29.06,1.87v21.33h-8.14V331.14h4.86A7.11,7.11,0,0,1,497.18,331.2Z"/><path class="cls-139" d="M544.06,370.93h-9.28V331.14h9.28Z"/><path class="cls-139" d="M581.69,331.14v7.32h-11.2v32.47h-9.23V338.46H550.07v-7.32Z"/><path class="cls-139" d="M606.7,355.8v15.13h-9.23V355.8l-14.42-24.66h8.14a3,3,0,0,1,1.91.56,4.31,4.31,0,0,1,1.15,1.44l5.62,11.57,1.26,2.57c.38.78.72,1.56,1,2.32a22.14,22.14,0,0,1,1-2.35l1.23-2.54,5.57-11.57a3.24,3.24,0,0,1,.45-.71,3.64,3.64,0,0,1,.66-.64,2.86,2.86,0,0,1,.84-.47,3,3,0,0,1,1-.18h8.19Z"/><path class="cls-139" d="M673.21,351a20.89,20.89,0,0,1-1.49,8,18.68,18.68,0,0,1-4.19,6.31,19,19,0,0,1-6.51,4.15,23.1,23.1,0,0,1-8.45,1.49H637.11V331.14h15.46a22.9,22.9,0,0,1,8.45,1.51,19.16,19.16,0,0,1,6.51,4.15,18.4,18.4,0,0,1,4.19,6.29A20.81,20.81,0,0,1,673.21,351Zm-9.45,0a17.31,17.31,0,0,0-.76-5.32,11.26,11.26,0,0,0-2.2-4,9.61,9.61,0,0,0-3.51-2.54,11.93,11.93,0,0,0-4.72-.89H646.4v25.59h6.17a11.93,11.93,0,0,0,4.72-.89,9.61,9.61,0,0,0,3.51-2.54,11.26,11.26,0,0,0,2.2-4A17.37,17.37,0,0,0,663.76,351Z"/><path class="cls-139" d="M714.38,370.93h-7.15a3.33,3.33,0,0,1-2-.56,2.9,2.9,0,0,1-1.08-1.44L701.82,362H686.7l-2.35,6.93a3.19,3.19,0,0,1-3,2h-7.21l15.4-39.79H699Zm-25.55-15.21h10.86L696,344.82c-.23-.69-.51-1.5-.83-2.44s-.63-1.95-.94-3c-.29,1.11-.59,2.13-.9,3.08s-.6,1.77-.87,2.46Z"/><path class="cls-139" d="M733.33,355.8v15.13H724.1V355.8l-14.41-24.66h8.13a3.06,3.06,0,0,1,1.92.56,4.29,4.29,0,0,1,1.14,1.44l5.63,11.57,1.25,2.57c.38.78.72,1.56,1,2.32a22.25,22.25,0,0,1,1-2.35c.38-.78.79-1.63,1.22-2.54l5.57-11.57a3.24,3.24,0,0,1,.45-.71,4,4,0,0,1,.66-.64,3,3,0,0,1,.85-.47,2.93,2.93,0,0,1,1-.18h8.19Z"/><path class="cls-140" d="M404.68,413.61V392.4h7.8a14.92,14.92,0,0,1,3.74.4,7.36,7.36,0,0,1,2.52,1.15,4.35,4.35,0,0,1,1.42,1.81,6,6,0,0,1,.45,2.37,4.52,4.52,0,0,1-.21,1.38,3.86,3.86,0,0,1-.64,1.24,4.75,4.75,0,0,1-1.12,1.06,7,7,0,0,1-1.64.82,5.88,5.88,0,0,1,3.1,1.65,4.31,4.31,0,0,1,1,2.94,6.08,6.08,0,0,1-.52,2.52,5.71,5.71,0,0,1-1.54,2,7.13,7.13,0,0,1-2.5,1.35,10.71,10.71,0,0,1-3.39.49Zm4.92-12.29h2.56a8.09,8.09,0,0,0,1.47-.12,3,3,0,0,0,1.12-.4,1.92,1.92,0,0,0,.69-.8,3,3,0,0,0,.25-1.28,3.71,3.71,0,0,0-.19-1.26,1.75,1.75,0,0,0-.59-.81,2.37,2.37,0,0,0-1-.44,6.74,6.74,0,0,0-1.44-.13H409.6Zm0,3.29v5.29h3.46a4.26,4.26,0,0,0,1.6-.25,2.57,2.57,0,0,0,1-.64,2.21,2.21,0,0,0,.48-.89,3.76,3.76,0,0,0,.13-1,3.41,3.41,0,0,0-.15-1.05,1.84,1.84,0,0,0-.53-.79,2.5,2.5,0,0,0-1-.49,5.56,5.56,0,0,0-1.54-.18Z"/><path class="cls-140" d="M444.26,413.61h-3.82a1.77,1.77,0,0,1-1.06-.3,1.59,1.59,0,0,1-.57-.76l-1.25-3.7h-8.07l-1.25,3.7a1.71,1.71,0,0,1-1.6,1.06h-3.85L431,392.4h5Zm-13.63-8.11h5.79l-1.95-5.81c-.13-.37-.27-.8-.44-1.3s-.34-1-.51-1.63c-.15.6-.31,1.14-.48,1.65s-.32.94-.46,1.31Z"/><path class="cls-140" d="M449.83,392.42a1.56,1.56,0,0,1,.4.11,1.65,1.65,0,0,1,.33.23,4.9,4.9,0,0,1,.37.39L461,405.89c0-.4-.07-.8-.09-1.18s0-.75,0-1.09V392.4h4.34v21.21h-2.57a2.46,2.46,0,0,1-1-.17,2.18,2.18,0,0,1-.76-.64l-10-12.64c0,.37.05.73.07,1.08s0,.69,0,1v11.37H446.7V392.4h2.59Z"/><path class="cls-140" d="M479.44,410.06a8.06,8.06,0,0,0,1.8-.18,8.63,8.63,0,0,0,1.49-.46V406.2h-2.1a1,1,0,0,1-.73-.25.82.82,0,0,1-.26-.62v-2.71h7.54v8.95a10.91,10.91,0,0,1-1.69,1,11.4,11.4,0,0,1-1.88.71,13.64,13.64,0,0,1-2.13.4,20.44,20.44,0,0,1-2.42.13,11.1,11.1,0,0,1-4.31-.82,10.29,10.29,0,0,1-5.7-5.71,11.11,11.11,0,0,1-.83-4.31,11.79,11.79,0,0,1,.79-4.36,9.79,9.79,0,0,1,2.25-3.43A10.41,10.41,0,0,1,474.8,393a12.87,12.87,0,0,1,4.64-.8,14.07,14.07,0,0,1,2.49.22,13.21,13.21,0,0,1,2.15.6,9.67,9.67,0,0,1,1.79.9,9.46,9.46,0,0,1,1.46,1.14l-1.43,2.17a1.69,1.69,0,0,1-.48.48,1.23,1.23,0,0,1-.62.17,1.76,1.76,0,0,1-.91-.29c-.39-.23-.75-.43-1.1-.6a6.33,6.33,0,0,0-2.19-.65,10.86,10.86,0,0,0-1.34-.07,6.21,6.21,0,0,0-2.49.48,5.4,5.4,0,0,0-1.88,1.38,6.15,6.15,0,0,0-1.2,2.13,8.4,8.4,0,0,0-.43,2.78,9,9,0,0,0,.47,3,6.41,6.41,0,0,0,1.29,2.21,5.59,5.59,0,0,0,2,1.38A6.39,6.39,0,0,0,479.44,410.06Z"/><path class="cls-140" d="M495.83,409.68h7.87v3.93H490.91V392.4h4.92Z"/><path class="cls-140" d="M526.5,413.61h-3.81a1.77,1.77,0,0,1-1.06-.3,1.47,1.47,0,0,1-.57-.76l-1.26-3.7h-8.06l-1.26,3.7a1.54,1.54,0,0,1-.56.73,1.66,1.66,0,0,1-1,.33H505l8.21-21.21h5Zm-13.63-8.11h5.8l-1.95-5.81-.45-1.3c-.17-.5-.34-1-.5-1.63-.16.6-.32,1.14-.48,1.65s-.32.94-.47,1.31Z"/><path class="cls-140" d="M548.2,403a11.27,11.27,0,0,1-.79,4.24,9.85,9.85,0,0,1-2.24,3.36,10.13,10.13,0,0,1-3.47,2.22,12.31,12.31,0,0,1-4.51.79H529V392.4h8.24a12.11,12.11,0,0,1,4.51.8,10.26,10.26,0,0,1,3.47,2.21,9.85,9.85,0,0,1,2.24,3.36A11.21,11.21,0,0,1,548.2,403Zm-5,0a9.27,9.27,0,0,0-.41-2.84,6,6,0,0,0-1.17-2.15,5.11,5.11,0,0,0-1.87-1.36,6.47,6.47,0,0,0-2.52-.47H533.9v13.65h3.29a6.29,6.29,0,0,0,2.52-.48,5,5,0,0,0,1.87-1.35,6,6,0,0,0,1.17-2.15A9.34,9.34,0,0,0,543.16,403Z"/><path class="cls-140" d="M564.94,392.4v3.78h-8.7v4.95h6.67v3.64h-6.67v5.06h8.7v3.78H551.29V392.4Z"/><path class="cls-140" d="M580.29,396.71a1.84,1.84,0,0,1-.46.52,1,1,0,0,1-.61.17,1.54,1.54,0,0,1-.73-.21l-.87-.47a7.72,7.72,0,0,0-1.11-.47,4.53,4.53,0,0,0-1.43-.21,3,3,0,0,0-2.06.59,2,2,0,0,0-.68,1.59,1.46,1.46,0,0,0,.41,1.06,3.47,3.47,0,0,0,1.07.73,10.9,10.9,0,0,0,1.51.56c.57.17,1.15.36,1.75.57a13.84,13.84,0,0,1,1.73.74,5.87,5.87,0,0,1,1.52,1.07,5,5,0,0,1,1.07,1.6,5.67,5.67,0,0,1,.41,2.26,7.35,7.35,0,0,1-.51,2.75,6.4,6.4,0,0,1-1.48,2.24,6.9,6.9,0,0,1-2.39,1.5,9,9,0,0,1-3.22.54,10,10,0,0,1-2-.2,12,12,0,0,1-2-.57,12.52,12.52,0,0,1-1.8-.88,7.18,7.18,0,0,1-1.47-1.14l1.45-2.3a1.14,1.14,0,0,1,.45-.42,1.28,1.28,0,0,1,.63-.16,1.7,1.7,0,0,1,.88.27l1,.61a8.61,8.61,0,0,0,1.29.62,5,5,0,0,0,1.72.27,3.22,3.22,0,0,0,2.08-.59,2.22,2.22,0,0,0,.75-1.87,1.79,1.79,0,0,0-.41-1.21,3.1,3.1,0,0,0-1.07-.77,11,11,0,0,0-1.51-.54c-.56-.15-1.14-.33-1.73-.51a13.61,13.61,0,0,1-1.73-.7,5.28,5.28,0,0,1-1.51-1.1,5,5,0,0,1-1.07-1.69,6.68,6.68,0,0,1-.41-2.49,5.89,5.89,0,0,1,.48-2.33,6.09,6.09,0,0,1,1.41-2,7.22,7.22,0,0,1,2.29-1.42,8.53,8.53,0,0,1,3.1-.53,10.75,10.75,0,0,1,1.9.16,9.86,9.86,0,0,1,1.76.45,9.53,9.53,0,0,1,1.55.71,7.37,7.37,0,0,1,1.29.94Z"/><path class="cls-140" d="M603.51,413.61h-5v-9h-8.62v9H585V392.4h4.95v8.86h8.62V392.4h5Z"/><path class="cls-139" d="M488.2,279a7.3,7.3,0,0,0,.27,2.16,12.6,12.6,0,0,0,.78,1.74,1.07,1.07,0,0,1,.16.56,1,1,0,0,1-.46.73l-1.52,1a1,1,0,0,1-1.36-.12,7,7,0,0,1-.87-1.14c-.24-.41-.48-.87-.75-1.43a9,9,0,0,1-7.12,3.35,6.6,6.6,0,0,1-4.84-1.75,6.84,6.84,0,0,1,.41-9.64,8.86,8.86,0,0,1,5.93-1.88,19.34,19.34,0,0,1,2.57.19c.9.12,1.82.31,2.78.53v-1.77c0-1.84-.38-3.12-1.13-3.87s-2.09-1.11-3.95-1.11a11,11,0,0,0-2.62.31,21.36,21.36,0,0,0-2.61.82,7.58,7.58,0,0,1-.85.32,1.4,1.4,0,0,1-.39.07c-.34,0-.51-.24-.51-.75v-1.19a1.53,1.53,0,0,1,.17-.84,1.89,1.89,0,0,1,.68-.51,13.86,13.86,0,0,1,3-1.09,14.5,14.5,0,0,1,3.78-.46c2.88,0,5,.65,6.35,2s2,3.29,2,6V279Zm-9.83,3.68a7.92,7.92,0,0,0,2.5-.43,5.5,5.5,0,0,0,2.3-1.55,3.87,3.87,0,0,0,.82-1.55,8.46,8.46,0,0,0,.24-2.11v-1c-.7-.16-1.45-.31-2.23-.41a19.48,19.48,0,0,0-2.27-.14,5.56,5.56,0,0,0-3.61,1,3.45,3.45,0,0,0,2.25,6.24Zm19.45,2.62a1.34,1.34,0,0,1-.92-.24,1.93,1.93,0,0,1-.51-.95l-5.69-18.72a4,4,0,0,1-.22-1,.53.53,0,0,1,.58-.61h2.37a1.36,1.36,0,0,1,.95.24,2,2,0,0,1,.48.95l4.07,16,3.78-16a1.73,1.73,0,0,1,.46-.95,1.7,1.7,0,0,1,1-.24h1.94a1.42,1.42,0,0,1,1,.24,1.59,1.59,0,0,1,.46.95l3.83,16.22L515.52,265a2.15,2.15,0,0,1,.48-.95,1.65,1.65,0,0,1,1-.24h2.25a.54.54,0,0,1,.61.61,2.84,2.84,0,0,1,0,.38,5.1,5.1,0,0,1-.17.61l-5.84,18.72a1.75,1.75,0,0,1-.51.94,1.51,1.51,0,0,1-.92.24h-2.08a1.47,1.47,0,0,1-1-.24,1.75,1.75,0,0,1-.46-1l-3.75-15.62-3.73,15.6a1.94,1.94,0,0,1-.46,1,1.49,1.49,0,0,1-1,.24Zm31.12.65a16,16,0,0,1-3.73-.43,11.18,11.18,0,0,1-2.79-1,1.75,1.75,0,0,1-.75-.68,1.66,1.66,0,0,1-.14-.68V282c0-.51.19-.75.55-.75a1.35,1.35,0,0,1,.44.07l.6.24a12.62,12.62,0,0,0,2.67.85,14.81,14.81,0,0,0,2.88.29,6.54,6.54,0,0,0,3.53-.8,2.59,2.59,0,0,0,1.26-2.3,2.32,2.32,0,0,0-.65-1.69,6,6,0,0,0-2.45-1.26l-3.51-1.09a7.42,7.42,0,0,1-3.87-2.47,5.8,5.8,0,0,1-1.21-3.52,5.43,5.43,0,0,1,.65-2.68,6.28,6.28,0,0,1,1.74-2,7.65,7.65,0,0,1,2.52-1.26,10.6,10.6,0,0,1,3.05-.41,11.15,11.15,0,0,1,1.63.1c.55.07,1.06.17,1.57.26s1,.25,1.38.39a5.13,5.13,0,0,1,1,.44,1.94,1.94,0,0,1,.72.6,1.29,1.29,0,0,1,.22.8v1.14c0,.51-.19.77-.55.77a2.36,2.36,0,0,1-.92-.29,11.07,11.07,0,0,0-4.65-.94,6.25,6.25,0,0,0-3.22.68,2.52,2.52,0,0,0-.42,3.87,7.24,7.24,0,0,0,2.67,1.33l3.44,1.09a7.41,7.41,0,0,1,3.75,2.33,5.47,5.47,0,0,1,1.11,3.39,6.15,6.15,0,0,1-.63,2.81,6.44,6.44,0,0,1-1.76,2.13,7.82,7.82,0,0,1-2.69,1.35A11.49,11.49,0,0,1,528.94,286Z"/><path class="cls-140" d="M533.51,297.72c-8,5.89-19.54,9-29.49,9A53.37,53.37,0,0,1,468,293c-.75-.68-.07-1.6.82-1.07a71.49,71.49,0,0,0,63.52,3.95C533.68,295.28,534.82,296.75,533.51,297.72Zm3.32-3.78c-1-1.3-6.73-.63-9.32-.31-.78.1-.9-.58-.2-1.09,4.56-3.2,12-2.28,12.91-1.21s-.24,8.57-4.5,12.16c-.66.55-1.29.26-1-.46C535.69,300.63,537.85,295.23,536.83,293.94Z"/><rect class="cls-140" x="621.91" y="401.79" width="125.84" height="2.43"/><rect class="cls-140" x="260.43" y="401.79" width="125.84" height="2.43"/><polygon class="cls-141" points="825.77 479.48 793.88 461.07 807.3 453.33 865.5 486.94 931.55 448.8 931.55 381.6 944.97 373.85 944.97 410.67 944.97 456.55 905.23 479.48 865.5 502.42 825.77 479.48"/><polygon class="cls-142" points="836.4 384.81 822.99 377.07 865.5 352.52 915.86 381.6 915.86 430.69 902.45 422.94 902.45 389.34 865.5 368.01 836.4 384.81"/><polygon class="cls-143" points="828.56 398.4 828.56 432 865.5 453.33 894.61 436.53 908.02 444.27 865.5 468.82 815.14 439.74 815.14 390.65 828.56 398.4"/><polygon class="cls-144" points="905.23 341.86 937.12 360.26 923.71 368.01 865.5 334.4 799.46 372.54 799.46 439.74 786.04 447.49 786.04 410.67 786.04 364.79 825.77 341.86 865.5 318.91 905.23 341.86"/><polygon class="cls-40" points="871.88 413.13 871.91 436.45 891.21 425.31 891.21 403.03 871.88 413.13"/><polygon class="cls-145" points="863.09 412.37 863.06 435.68 843.76 424.54 843.76 402.26 863.09 412.37"/><polygon class="cls-146" points="867.84 379.01 846.78 391.16 867.8 402.19 888.89 391.16 867.84 379.01"/><polygon class="cls-147" points="808.96 481.22 839.59 498.9 826.7 506.34 770.8 474.06 707.36 510.69 707.36 575.24 694.47 582.68 694.47 547.31 694.47 503.25 732.64 481.22 770.8 459.18 808.96 481.22"/><polygon class="cls-148" points="798.75 572.15 811.64 579.59 770.8 603.17 722.43 575.24 722.43 528.09 735.31 535.53 735.31 567.8 770.8 588.29 798.75 572.15"/><polygon class="cls-149" points="806.28 559.1 806.28 526.83 770.8 506.34 742.84 522.48 729.96 515.04 770.8 491.46 819.17 519.39 819.17 566.54 806.28 559.1"/><polygon class="cls-150" points="732.64 613.41 702.01 595.73 714.89 588.29 770.8 620.57 834.24 583.94 834.24 519.39 847.12 511.95 847.12 547.31 847.12 591.38 808.96 613.41 770.8 635.45 732.64 613.41"/><polygon class="cls-40" points="775.26 550.31 775.29 572.7 793.83 562 793.83 540.6 775.26 550.31"/><polygon class="cls-145" points="766.82 549.57 766.79 571.96 748.25 561.26 748.25 539.86 766.82 549.57"/><polygon class="cls-151" points="772.41 525.02 752.19 536.69 772.38 547.28 792.63 536.69 772.41 525.02"/></g></g></svg>