<svg xmlns="http://www.w3.org/2000/svg" xmlns:xlink="http://www.w3.org/1999/xlink" viewBox="0 0 922.97 691.36"><defs><style>.cls-1{opacity:0.88;}.cls-2{opacity:0.64;}.cls-3{fill:url(#linear-gradient);}.cls-4{fill:url(#linear-gradient-2);}.cls-5{fill:url(#linear-gradient-3);}.cls-6{fill:url(#linear-gradient-4);}.cls-7{fill:url(#linear-gradient-5);}.cls-8{fill:url(#linear-gradient-6);}.cls-9{fill:url(#linear-gradient-7);}.cls-10{fill:url(#linear-gradient-8);}.cls-11{fill:url(#linear-gradient-9);}.cls-12{fill:url(#linear-gradient-10);}.cls-13{fill:url(#linear-gradient-11);}.cls-14{fill:url(#linear-gradient-12);}.cls-15{fill:url(#linear-gradient-13);}.cls-16{fill:url(#linear-gradient-14);}.cls-17{fill:url(#linear-gradient-15);}.cls-18{fill:url(#linear-gradient-16);}.cls-19{fill:url(#linear-gradient-17);}.cls-20{fill:url(#linear-gradient-18);}.cls-21{fill:url(#linear-gradient-19);}.cls-22{fill:url(#linear-gradient-20);}.cls-23{fill:url(#linear-gradient-21);}.cls-24{fill:url(#linear-gradient-22);}.cls-25{fill:url(#linear-gradient-23);}.cls-26{fill:url(#linear-gradient-24);}.cls-27{fill:#9f21fa;}.cls-28{fill:url(#linear-gradient-25);}.cls-29{fill:url(#linear-gradient-26);}.cls-30{fill:url(#linear-gradient-27);}.cls-31{fill:url(#linear-gradient-28);}.cls-32{fill:url(#linear-gradient-29);}.cls-33{fill:url(#linear-gradient-30);}.cls-34{fill:url(#linear-gradient-31);}.cls-35{fill:url(#linear-gradient-32);}.cls-36{fill:url(#linear-gradient-33);}.cls-37{fill:url(#linear-gradient-34);}.cls-38{fill:url(#linear-gradient-35);}.cls-39{fill:url(#linear-gradient-36);}.cls-40{fill:#6286f9;}.cls-41{fill:url(#linear-gradient-37);}.cls-42{fill:url(#linear-gradient-38);}.cls-43{fill:url(#linear-gradient-39);}.cls-44{fill:url(#linear-gradient-40);}.cls-45{fill:url(#linear-gradient-41);}.cls-46{fill:url(#linear-gradient-42);}.cls-47{opacity:0.73;}.cls-48{fill:url(#linear-gradient-43);}.cls-49{fill:url(#linear-gradient-44);}.cls-50{fill:url(#linear-gradient-45);}.cls-51{fill:#4714f6;}.cls-52{fill:url(#linear-gradient-46);}.cls-53{fill:#4a84fa;}.cls-54{fill:url(#linear-gradient-47);}.cls-55{fill:url(#linear-gradient-48);}.cls-56{fill:#5e18ed;}.cls-57{fill:url(#linear-gradient-49);}.cls-58{fill:url(#linear-gradient-50);}.cls-59{fill:url(#linear-gradient-51);}.cls-60{fill:url(#linear-gradient-52);}.cls-61{fill:url(#linear-gradient-53);}.cls-62{fill:url(#linear-gradient-54);}.cls-63{fill:url(#linear-gradient-55);}.cls-64{fill:url(#linear-gradient-56);}.cls-65{fill:url(#linear-gradient-57);}.cls-66{fill:url(#linear-gradient-58);}.cls-67{fill:url(#linear-gradient-59);}.cls-68{fill:url(#linear-gradient-60);}.cls-69{fill:#252f3e;}.cls-70{fill:#f90;}.cls-71{fill:url(#linear-gradient-61);}.cls-72{fill:url(#linear-gradient-62);}.cls-73{fill:url(#linear-gradient-63);}.cls-74{fill:url(#linear-gradient-64);}.cls-75{fill:url(#linear-gradient-65);}.cls-76{fill:url(#linear-gradient-66);}.cls-77{fill:url(#linear-gradient-67);}.cls-78{fill:url(#linear-gradient-68);}.cls-79{fill:url(#linear-gradient-69);}.cls-80{fill:#4165ff;}.cls-81{fill:url(#linear-gradient-70);}.cls-82{fill:url(#linear-gradient-71);}.cls-83{fill:url(#linear-gradient-72);}.cls-84{fill:url(#linear-gradient-73);}.cls-85{fill:url(#linear-gradient-74);}.cls-86{stroke:#252f3e;stroke-miterlimit:10;stroke-width:0.75px;fill:url(#linear-gradient-75);}</style><linearGradient id="linear-gradient" x1="470.04" y1="470.66" x2="570.05" y2="470.66" gradientTransform="translate(801.01 1027.32) rotate(180)" gradientUnits="userSpaceOnUse"><stop offset="0" stop-color="#5e18ed"/><stop offset="1" stop-color="#4165ff"/></linearGradient><linearGradient id="linear-gradient-2" x1="464.85" y1="507.02" x2="564.86" y2="507.02" gradientTransform="translate(801.01 1027.32) rotate(180)" gradientUnits="userSpaceOnUse"><stop offset="0" stop-color="#5e18ed"/><stop offset="1" stop-color="#ff334c"/></linearGradient><linearGradient id="linear-gradient-3" x1="527.61" y1="570.37" x2="627.61" y2="570.37" gradientTransform="translate(801.01 1027.32) rotate(180)" gradientUnits="userSpaceOnUse"><stop offset="0" stop-color="#f9d238"/><stop offset="0.04" stop-color="#f7bd3b"/><stop offset="0.1" stop-color="#f4a040"/><stop offset="0.17" stop-color="#f28a44"/><stop offset="0.25" stop-color="#f07a46"/><stop offset="0.33" stop-color="#ef7148"/><stop offset="0.45" stop-color="#ef6e48"/><stop offset="1" stop-color="#e8416b"/></linearGradient><linearGradient id="linear-gradient-4" x1="555.75" y1="624.04" x2="555.75" y2="553.05" gradientTransform="translate(801.01 1027.32) rotate(180)" gradientUnits="userSpaceOnUse"><stop offset="0" stop-color="#4165ff"/><stop offset="1" stop-color="#e8416b"/></linearGradient><linearGradient id="linear-gradient-5" x1="594.28" y1="624.04" x2="594.28" y2="553.05" gradientTransform="translate(801.01 1027.32) rotate(180)" gradientUnits="userSpaceOnUse"><stop offset="0" stop-color="#4165ff"/><stop offset="1" stop-color="#f90"/></linearGradient><linearGradient id="linear-gradient-6" x1="572.42" y1="649.28" x2="572.42" y2="564.17" gradientTransform="translate(801.01 1027.32) rotate(180)" gradientUnits="userSpaceOnUse"><stop offset="0" stop-color="#5e18ed"/><stop offset="1" stop-color="#f15a24"/></linearGradient><linearGradient id="linear-gradient-7" x1="643.01" y1="570.7" x2="743.02" y2="570.7" xlink:href="#linear-gradient"/><linearGradient id="linear-gradient-8" x1="637.82" y1="607.06" x2="737.83" y2="607.06" xlink:href="#linear-gradient-2"/><linearGradient id="linear-gradient-9" x1="585.6" y1="670.81" x2="685.6" y2="670.81" xlink:href="#linear-gradient-2"/><linearGradient id="linear-gradient-10" x1="599.67" y1="688.99" x2="627.81" y2="688.99" xlink:href="#linear-gradient"/><linearGradient id="linear-gradient-11" x1="638.2" y1="688.99" x2="666.34" y2="688.99" xlink:href="#linear-gradient"/><linearGradient id="linear-gradient-12" x1="580.4" y1="707.17" x2="680.41" y2="707.17" gradientTransform="translate(801.01 1027.32) rotate(180)" gradientUnits="userSpaceOnUse"><stop offset="0" stop-color="#5e18ed"/><stop offset="1" stop-color="#f9d238"/></linearGradient><linearGradient id="linear-gradient-13" x1="701" y1="671.14" x2="801.01" y2="671.14" xlink:href="#linear-gradient"/><linearGradient id="linear-gradient-14" x1="695.81" y1="707.5" x2="795.82" y2="707.5" gradientTransform="translate(801.01 1027.32) rotate(180)" gradientUnits="userSpaceOnUse"><stop offset="0" stop-color="#5e18ed"/><stop offset="0.17" stop-color="#8749be"/><stop offset="0.37" stop-color="#af798e"/><stop offset="0.56" stop-color="#cfa069"/><stop offset="0.73" stop-color="#e6bb4e"/><stop offset="0.89" stop-color="#f4cc3e"/><stop offset="1" stop-color="#f9d238"/></linearGradient><linearGradient id="linear-gradient-15" x1="693.16" y1="813.07" x2="693.16" y2="727.96" xlink:href="#linear-gradient-3"/><linearGradient id="linear-gradient-16" x1="671.3" y1="824.19" x2="671.3" y2="753.2" gradientTransform="translate(801.01 1027.32) rotate(180)" gradientUnits="userSpaceOnUse"><stop offset="0" stop-color="#4165ff"/><stop offset="1" stop-color="#9fb5fb"/></linearGradient><linearGradient id="linear-gradient-17" x1="709.83" y1="824.19" x2="709.83" y2="753.2" xlink:href="#linear-gradient-16"/><linearGradient id="linear-gradient-18" x1="687.97" y1="849.43" x2="687.97" y2="764.32" gradientTransform="translate(801.01 1027.32) rotate(180)" gradientUnits="userSpaceOnUse"><stop offset="0" stop-color="#5e18ed"/><stop offset="1" stop-color="#ff334c"/></linearGradient><linearGradient id="linear-gradient-19" x1="635.02" y1="427.7" x2="635.02" y2="512.81" xlink:href="#linear-gradient-5"/><linearGradient id="linear-gradient-20" x1="629.83" y1="464.06" x2="629.83" y2="549.17" gradientTransform="translate(801.01 1027.32) rotate(180)" gradientUnits="userSpaceOnUse"><stop offset="0" stop-color="#4165ff"/><stop offset="1" stop-color="#ef6e48"/></linearGradient><linearGradient id="linear-gradient-21" x1="526.43" y1="770.59" x2="626.43" y2="770.59" xlink:href="#linear-gradient-2"/><linearGradient id="linear-gradient-22" x1="541.97" y1="809.49" x2="583.41" y2="768.05" xlink:href="#linear-gradient-16"/><linearGradient id="linear-gradient-23" x1="564.25" y1="809.49" x2="605.69" y2="768.05" xlink:href="#linear-gradient-16"/><linearGradient id="linear-gradient-24" x1="521.23" y1="806.95" x2="621.24" y2="806.95" xlink:href="#linear-gradient"/><linearGradient id="linear-gradient-25" x1="405.16" y1="518.07" x2="405.16" y2="432.96" xlink:href="#linear-gradient-3"/><linearGradient id="linear-gradient-26" x1="383.3" y1="529.19" x2="383.3" y2="458.2" xlink:href="#linear-gradient-16"/><linearGradient id="linear-gradient-27" x1="421.83" y1="529.19" x2="421.83" y2="458.2" xlink:href="#linear-gradient-16"/><linearGradient id="linear-gradient-28" x1="399.97" y1="554.43" x2="399.97" y2="469.32" xlink:href="#linear-gradient-18"/><linearGradient id="linear-gradient-29" x1="292.16" y1="521.07" x2="292.16" y2="435.96" xlink:href="#linear-gradient-3"/><linearGradient id="linear-gradient-30" x1="270.3" y1="532.19" x2="270.3" y2="461.2" xlink:href="#linear-gradient-16"/><linearGradient id="linear-gradient-31" x1="308.83" y1="532.19" x2="308.83" y2="461.2" xlink:href="#linear-gradient-16"/><linearGradient id="linear-gradient-32" x1="286.97" y1="557.43" x2="286.97" y2="472.32" xlink:href="#linear-gradient-18"/><linearGradient id="linear-gradient-33" x1="346.16" y1="421.07" x2="346.16" y2="335.96" xlink:href="#linear-gradient-3"/><linearGradient id="linear-gradient-34" x1="324.3" y1="432.19" x2="324.3" y2="361.2" xlink:href="#linear-gradient-16"/><linearGradient id="linear-gradient-35" x1="362.83" y1="432.19" x2="362.83" y2="361.2" xlink:href="#linear-gradient-16"/><linearGradient id="linear-gradient-36" x1="340.97" y1="457.43" x2="340.97" y2="372.32" xlink:href="#linear-gradient-18"/><linearGradient id="linear-gradient-37" x1="643.77" y1="709.12" x2="643.77" y2="682.26" xlink:href="#linear-gradient"/><linearGradient id="linear-gradient-38" x1="632.55" y1="684.95" x2="632.55" y2="667.87" xlink:href="#linear-gradient"/><linearGradient id="linear-gradient-39" x1="622.12" y1="709.4" x2="622.12" y2="682.54" xlink:href="#linear-gradient"/><linearGradient id="linear-gradient-40" x1="783.33" y1="302.4" x2="814.61" y2="271.12" gradientTransform="translate(-614.26 262.81)" xlink:href="#linear-gradient"/><linearGradient id="linear-gradient-41" x1="781.86" y1="245.07" x2="781.86" y2="270.28" gradientTransform="translate(-614.26 262.81)" gradientUnits="userSpaceOnUse"><stop offset="0" stop-color="#4165ff"/><stop offset="0.04" stop-color="#496cff"/><stop offset="0.2" stop-color="#6886fd"/><stop offset="0.38" stop-color="#809bfc"/><stop offset="0.56" stop-color="#92aafc"/><stop offset="0.76" stop-color="#9cb2fb"/><stop offset="1" stop-color="#9fb5fb"/></linearGradient><linearGradient id="linear-gradient-42" x1="756.55" y1="296.52" x2="775.25" y2="277.83" gradientTransform="translate(-614.26 262.81)" xlink:href="#linear-gradient"/><linearGradient id="linear-gradient-43" x1="724.48" y1="669.14" x2="770.28" y2="669.14" gradientTransform="translate(801.01 1027.32) rotate(180)" xlink:href="#linear-gradient-41"/><linearGradient id="linear-gradient-44" x1="615.32" y1="279.29" x2="640.33" y2="279.29" gradientTransform="translate(-362.69 238.99)" gradientUnits="userSpaceOnUse"><stop offset="0" stop-color="#4165ff"/><stop offset="1" stop-color="#5e18ed"/></linearGradient><linearGradient id="linear-gradient-45" x1="655.21" y1="334.26" x2="655.21" y2="312.6" gradientTransform="translate(-362.69 238.99)" xlink:href="#linear-gradient-16"/><linearGradient id="linear-gradient-46" x1="637.75" y1="333.76" x2="637.75" y2="312.1" gradientTransform="translate(-362.69 238.99)" xlink:href="#linear-gradient-16"/><linearGradient id="linear-gradient-47" x1="651.69" y1="279.29" x2="676.7" y2="279.29" xlink:href="#linear-gradient-44"/><linearGradient id="linear-gradient-48" x1="659.81" y1="569.15" x2="684.82" y2="569.15" gradientTransform="translate(801.01 1027.32) rotate(180)" xlink:href="#linear-gradient-41"/><linearGradient id="linear-gradient-49" x1="696.18" y1="569.15" x2="721.19" y2="569.15" gradientTransform="translate(801.01 1027.32) rotate(180)" xlink:href="#linear-gradient-41"/><linearGradient id="linear-gradient-50" x1="579.48" y1="507.3" x2="683.59" y2="507.3" gradientTransform="matrix(1, 0, 0, 1, 0, 0)" xlink:href="#linear-gradient-2"/><linearGradient id="linear-gradient-51" x1="594.13" y1="526.23" x2="623.43" y2="526.23" gradientTransform="matrix(1, 0, 0, 1, 0, 0)" xlink:href="#linear-gradient"/><linearGradient id="linear-gradient-52" x1="634.24" y1="526.23" x2="663.54" y2="526.23" gradientTransform="matrix(1, 0, 0, 1, 0, 0)" xlink:href="#linear-gradient"/><linearGradient id="linear-gradient-53" x1="574.07" y1="545.16" x2="678.19" y2="545.16" gradientTransform="matrix(1, 0, 0, 1, 0, 0)" xlink:href="#linear-gradient-12"/><linearGradient id="linear-gradient-54" x1="751.47" y1="546.41" x2="751.47" y2="457.8" gradientTransform="matrix(1, 0, 0, 1, 0, 0)" xlink:href="#linear-gradient-3"/><linearGradient id="linear-gradient-55" x1="728.71" y1="557.99" x2="728.71" y2="484.08" gradientTransform="matrix(1, 0, 0, 1, 0, 0)" xlink:href="#linear-gradient-16"/><linearGradient id="linear-gradient-56" x1="768.82" y1="557.99" x2="768.82" y2="484.08" gradientTransform="matrix(1, 0, 0, 1, 0, 0)" xlink:href="#linear-gradient-16"/><linearGradient id="linear-gradient-57" x1="746.06" y1="584.27" x2="746.06" y2="495.66" gradientTransform="matrix(1, 0, 0, 1, 0, 0)" xlink:href="#linear-gradient-18"/><linearGradient id="linear-gradient-58" x1="640.04" y1="547.19" x2="640.04" y2="519.22" gradientTransform="matrix(1, 0, 0, 1, 0, 0)" xlink:href="#linear-gradient"/><linearGradient id="linear-gradient-59" x1="628.36" y1="522.03" x2="628.36" y2="504.24" gradientTransform="matrix(1, 0, 0, 1, 0, 0)" xlink:href="#linear-gradient"/><linearGradient id="linear-gradient-60" x1="617.5" y1="547.48" x2="617.5" y2="519.51" gradientTransform="matrix(1, 0, 0, 1, 0, 0)" xlink:href="#linear-gradient"/><linearGradient id="linear-gradient-61" x1="705.15" y1="191.56" x2="809.26" y2="191.56" gradientTransform="matrix(1, 0, 0, 1, 0, 0)" xlink:href="#linear-gradient-3"/><linearGradient id="linear-gradient-62" x1="751.8" y1="273.72" x2="751.8" y2="185.11" gradientTransform="matrix(1, 0, 0, 1, 0, 0)" xlink:href="#linear-gradient-6"/><linearGradient id="linear-gradient-63" x1="723.2" y1="190.29" x2="749.23" y2="190.29" gradientTransform="matrix(1, 0, 0, 1, 0, 0)" xlink:href="#linear-gradient-41"/><linearGradient id="linear-gradient-64" x1="741.99" y1="219.48" x2="768.03" y2="219.48" gradientTransform="matrix(1, 0, 0, 1, 0, 0)" xlink:href="#linear-gradient-41"/><linearGradient id="linear-gradient-65" x1="761.06" y1="190.29" x2="787.1" y2="190.29" gradientTransform="matrix(1, 0, 0, 1, 0, 0)" xlink:href="#linear-gradient-41"/><linearGradient id="linear-gradient-66" x1="771.88" y1="120.95" x2="922.97" y2="120.95" gradientTransform="matrix(1, 0, 0, 1, 0, 0)" xlink:href="#linear-gradient-6"/><linearGradient id="linear-gradient-67" x1="847.42" y1="113.5" x2="847.42" y2="35.33" gradientUnits="userSpaceOnUse"><stop offset="0.01" stop-color="#5e18ed"/><stop offset="0.1" stop-color="#611ae9"/><stop offset="0.19" stop-color="#6921dc"/><stop offset="0.29" stop-color="#782dc7"/><stop offset="0.39" stop-color="#8c3daa"/><stop offset="0.49" stop-color="#a65184"/><stop offset="0.6" stop-color="#c56b55"/><stop offset="0.7" stop-color="#ea881f"/><stop offset="0.75" stop-color="#f90"/><stop offset="1" stop-color="#f9d238"/></linearGradient><linearGradient id="linear-gradient-68" x1="793.14" y1="112.55" x2="886.02" y2="112.55" gradientTransform="matrix(1, 0, 0, 1, 0, 0)" xlink:href="#linear-gradient-6"/><linearGradient id="linear-gradient-69" x1="764.04" y1="66.02" x2="915.12" y2="66.02" gradientUnits="userSpaceOnUse"><stop offset="0" stop-color="#5e18ed"/><stop offset="0.33" stop-color="#4165ff"/><stop offset="1" stop-color="#f15a24"/></linearGradient><linearGradient id="linear-gradient-70" x1="823.78" y1="76.41" x2="865.89" y2="76.41" gradientTransform="matrix(1, 0, 0, 1, 0, 0)" xlink:href="#linear-gradient-41"/><linearGradient id="linear-gradient-71" x1="56.42" y1="965.57" x2="201.53" y2="965.57" gradientTransform="translate(801.01 1027.32) rotate(180)" gradientUnits="userSpaceOnUse"><stop offset="0" stop-color="#5e18ed"/><stop offset="1" stop-color="#f15a24"/></linearGradient><linearGradient id="linear-gradient-72" x1="128.98" y1="958.42" x2="128.98" y2="883.34" gradientTransform="translate(801.01 1027.32) rotate(180)" xlink:href="#linear-gradient-67"/><linearGradient id="linear-gradient-73" x1="76.84" y1="957.5" x2="166.05" y2="957.5" xlink:href="#linear-gradient-6"/><linearGradient id="linear-gradient-74" x1="48.88" y1="912.81" x2="194" y2="912.81" gradientTransform="translate(801.01 1027.32) rotate(180)" xlink:href="#linear-gradient-69"/><linearGradient id="linear-gradient-75" x1="547.57" y1="241.43" x2="588.01" y2="241.43" gradientTransform="translate(107.62 -167.46)" xlink:href="#linear-gradient-41"/></defs><g id="Layer_2" data-name="Layer 2"><g id="Layer_1-2" data-name="Layer 1"><g class="cls-1"><g class="cls-2"><polygon class="cls-3" points="309.86 584.03 283.56 599.21 230.96 568.85 230.96 514.1 239.84 519.23 239.84 563.72 283.56 588.96 322.08 566.72 330.96 571.84 309.86 584.03"/><polygon class="cls-4" points="309.86 492.93 336.16 508.11 336.15 538.48 336.16 562.85 327.27 557.72 327.28 513.24 283.56 488 245.03 510.24 236.15 505.11 283.56 477.74 309.86 492.93"/></g><polygon class="cls-5" points="252.29 484.33 225.99 499.51 173.4 469.14 173.4 414.4 182.28 419.53 182.28 464.02 225.99 489.26 264.52 467.01 273.4 472.14 252.29 484.33"/><polygon class="cls-6" points="231.19 413.53 231.18 403.28 259.33 419.53 259.33 458.02 231.19 474.27 231.19 464.02 250.45 452.89 250.45 424.66 231.19 413.53"/><polygon class="cls-7" points="220.8 413.53 201.54 424.66 201.54 452.89 220.8 464.02 220.8 474.27 192.66 458.02 192.66 419.53 220.8 403.28 220.8 413.53"/><polygon class="cls-8" points="252.29 393.22 278.59 408.41 278.59 438.77 278.59 463.15 269.71 458.02 269.71 413.53 225.99 388.29 187.47 410.54 178.59 405.41 225.99 378.04 252.29 393.22"/><polygon class="cls-9" points="136.89 484 110.59 499.18 57.99 468.81 57.99 414.07 66.87 419.2 66.87 463.68 110.59 488.92 149.12 466.68 158 471.81 136.89 484"/><polygon class="cls-10" points="136.89 392.89 163.19 408.07 163.19 438.44 163.19 462.81 154.31 457.69 154.31 413.2 110.59 387.96 72.06 410.2 63.18 405.08 110.59 377.71 136.89 392.89"/><g class="cls-2"><polygon class="cls-11" points="194.3 383.88 168 399.07 115.41 368.7 115.41 313.96 124.28 319.09 124.28 363.57 168 388.81 206.53 366.57 215.41 371.7 194.3 383.88"/><polygon class="cls-12" points="173.19 313.09 173.19 302.84 201.34 319.09 201.34 357.58 173.19 373.83 173.19 363.57 192.46 352.45 192.46 324.21 173.19 313.09"/><polygon class="cls-13" points="162.81 313.09 143.55 324.21 143.55 352.45 162.81 363.57 162.81 373.83 134.67 357.58 134.67 319.09 162.81 302.84 162.81 313.09"/><polygon class="cls-14" points="194.3 292.78 220.6 307.96 220.6 338.33 220.6 362.71 211.72 357.58 211.72 313.09 168 287.85 129.48 310.09 120.6 304.97 168 277.6 194.3 292.78"/></g><polygon class="cls-15" points="78.9 383.55 52.6 398.74 0 368.37 0 313.63 8.88 318.75 8.88 363.24 52.6 388.48 91.13 366.24 100 371.37 78.9 383.55"/><polygon class="cls-16" points="78.9 292.45 105.2 307.63 105.2 338 105.2 362.37 96.32 357.25 96.32 312.76 52.6 287.52 14.07 309.76 5.19 304.63 52.6 277.26 78.9 292.45"/><polygon class="cls-17" points="136.74 284.18 110.44 299.37 57.84 269 57.84 214.25 66.72 219.38 66.72 263.87 110.44 289.11 148.97 266.87 157.85 272 136.74 284.18"/><polygon class="cls-18" points="115.63 213.39 115.63 203.13 143.77 219.38 143.78 257.88 115.63 274.12 115.63 263.87 134.89 252.75 134.89 224.51 115.63 213.39"/><polygon class="cls-19" points="105.25 213.39 85.98 224.51 85.98 252.75 105.25 263.87 105.25 274.12 77.11 257.88 77.11 219.38 105.25 203.13 105.25 213.39"/><polygon class="cls-20" points="136.74 193.08 163.04 208.26 163.04 238.63 163.04 263 154.16 257.88 154.16 213.39 110.44 188.15 71.91 210.39 63.03 205.26 110.44 177.89 136.74 193.08"/><polygon class="cls-21" points="194.88 584.44 168.58 599.62 115.98 569.25 115.98 514.51 124.86 519.64 124.86 564.13 168.58 589.37 207.11 567.12 215.99 572.25 194.88 584.44"/><polygon class="cls-22" points="194.88 493.33 221.18 508.52 221.18 538.88 221.18 563.26 212.3 558.13 212.3 513.64 168.58 488.4 130.05 510.64 121.17 505.52 168.58 478.15 194.88 493.33"/><g class="cls-2"><polygon class="cls-23" points="253.47 284.1 227.18 299.29 174.58 268.92 174.58 214.18 183.46 219.31 183.46 263.79 227.17 289.03 265.7 266.79 274.58 271.92 253.47 284.1"/><polygon class="cls-24" points="232.37 213.31 232.36 203.06 260.51 219.31 260.51 257.8 232.37 274.05 232.37 263.79 251.63 252.67 251.63 224.43 232.37 213.31"/><polygon class="cls-25" points="221.98 213.31 202.72 224.43 202.72 252.67 221.98 263.79 221.98 274.05 193.84 257.8 193.84 219.31 221.98 203.06 221.98 213.31"/><polyline class="cls-26" points="227.17 177.82 253.47 193 279.77 208.19 279.77 238.55 279.77 262.93 270.89 257.8 270.89 213.31 227.17 188.07 188.65 210.31 179.77 205.19"/></g><polygon class="cls-27" points="107.34 236.48 107.33 225.69 98.4 230.84 98.4 241.16 107.34 236.48"/><polygon class="cls-27" points="111.03 252 119.96 246.84 111.05 242.16 102.1 246.84 111.03 252"/><polygon class="cls-27" points="113.65 236.32 113.67 225.53 122.6 230.68 122.6 241 113.65 236.32"/><polygon class="cls-28" points="424.74 579.18 398.44 594.37 345.84 564 345.84 509.25 354.72 514.38 354.72 558.87 398.44 584.11 436.97 561.87 445.85 567 424.74 579.18"/><polygon class="cls-29" points="403.63 508.39 403.63 498.13 431.77 514.38 431.78 552.88 403.63 569.12 403.63 558.87 422.89 547.75 422.89 519.51 403.63 508.39"/><polygon class="cls-30" points="393.25 508.39 373.98 519.51 373.98 547.75 393.25 558.87 393.25 569.12 365.11 552.88 365.11 514.38 393.25 498.13 393.25 508.39"/><polygon class="cls-31" points="424.74 488.08 451.04 503.26 451.04 533.63 451.04 558 442.16 552.88 442.16 508.39 398.44 483.15 359.91 505.39 351.03 500.26 398.44 472.89 424.74 488.08"/><polygon class="cls-27" points="395.34 531.48 395.33 520.69 386.4 525.84 386.4 536.16 395.34 531.48"/><polygon class="cls-27" points="399.03 547 407.96 541.84 399.05 537.16 390.1 541.84 399.03 547"/><polygon class="cls-27" points="401.65 531.32 401.67 520.53 410.6 525.68 410.6 536 401.65 531.32"/><polygon class="cls-32" points="537.74 576.18 511.44 591.37 458.84 561 458.84 506.25 467.72 511.38 467.72 555.87 511.44 581.11 549.97 558.87 558.85 564 537.74 576.18"/><polygon class="cls-33" points="516.63 505.39 516.63 495.13 544.77 511.38 544.78 549.88 516.63 566.12 516.63 555.87 535.89 544.75 535.89 516.51 516.63 505.39"/><polygon class="cls-34" points="506.25 505.39 486.98 516.51 486.98 544.75 506.25 555.87 506.25 566.12 478.11 549.88 478.11 511.38 506.25 495.13 506.25 505.39"/><polygon class="cls-35" points="537.74 485.08 564.04 500.26 564.04 530.63 564.04 555 555.16 549.88 555.16 505.39 511.44 480.15 472.91 502.39 464.03 497.26 511.44 469.89 537.74 485.08"/><polygon class="cls-27" points="508.34 528.48 508.33 517.69 499.4 522.84 499.4 533.16 508.34 528.48"/><polygon class="cls-27" points="512.03 544 520.96 538.84 512.05 534.16 503.1 538.84 512.03 544"/><polygon class="cls-27" points="514.65 528.32 514.67 517.53 523.6 522.68 523.6 533 514.65 528.32"/><polygon class="cls-36" points="483.74 676.18 457.44 691.37 404.84 661 404.84 606.25 413.72 611.38 413.72 655.87 457.44 681.11 495.97 658.87 504.85 664 483.74 676.18"/><polygon class="cls-37" points="462.63 605.39 462.63 595.13 490.77 611.38 490.78 649.88 462.63 666.12 462.63 655.87 481.89 644.75 481.89 616.51 462.63 605.39"/><polygon class="cls-38" points="452.25 605.39 432.98 616.51 432.98 644.75 452.25 655.87 452.25 666.12 424.11 649.88 424.11 611.38 452.25 595.13 452.25 605.39"/><polygon class="cls-39" points="483.74 585.08 510.04 600.26 510.04 630.63 510.04 655 501.16 649.88 501.16 605.39 457.44 580.15 418.91 602.39 410.03 597.26 457.44 569.89 483.74 585.08"/><polygon class="cls-27" points="454.34 628.48 454.33 617.69 445.4 622.84 445.4 633.16 454.34 628.48"/><polygon class="cls-27" points="458.03 644 466.96 638.84 458.05 634.16 449.1 638.84 458.03 644"/><polygon class="cls-27" points="460.65 628.32 460.67 617.53 469.6 622.68 469.6 633 460.65 628.32"/><polygon class="cls-40" points="223.32 436.89 223.31 426.1 214.38 431.25 214.38 441.56 223.32 436.89"/><polygon class="cls-40" points="227.01 452.4 235.94 447.25 227.03 442.57 218.08 447.25 227.01 452.4"/><polygon class="cls-40" points="229.63 436.73 229.65 425.94 238.58 431.09 238.58 441.4 229.63 436.73"/><polygon class="cls-40" points="223.88 237.35 223.85 218.6 208.34 227.56 208.34 245.47 223.88 237.35"/><polygon class="cls-40" points="227.33 259.86 242.84 250.9 227.35 242.78 211.82 250.9 227.33 259.86"/><polygon class="cls-40" points="229.99 237.07 230.01 218.33 245.53 227.28 245.53 245.19 229.99 237.07"/><polygon class="cls-41" points="165 336.94 164.98 318.2 149.47 327.15 149.47 345.06 165 336.94"/><polygon class="cls-42" points="168.46 359.45 183.97 350.49 168.48 342.37 152.94 350.49 168.46 359.45"/><polygon class="cls-43" points="171.12 336.66 171.14 317.92 186.65 326.87 186.65 344.79 171.12 336.66"/><polygon class="cls-44" points="173.54 542.04 173.58 569.71 196.48 556.49 196.48 530.05 173.54 542.04"/><polygon class="cls-45" points="167.59 507.87 144.69 521.09 167.56 533.09 190.49 521.09 167.59 507.87"/><polygon class="cls-46" points="162.81 542.46 162.77 570.13 139.87 556.9 139.87 530.46 162.81 542.46"/><g class="cls-47"><polygon class="cls-40" points="47.68 336.62 47.65 308.95 24.75 322.17 24.75 348.61 47.68 336.62"/><polygon class="cls-48" points="53.63 370.79 76.53 357.57 53.66 345.57 30.73 357.57 53.63 370.79"/><polygon class="cls-40" points="58.41 336.21 58.45 308.54 81.35 321.76 81.35 348.2 58.41 336.21"/></g><polygon class="cls-49" points="264.09 511.93 252.63 518.1 265.12 524.65 277.64 518.1 264.09 511.93"/><polygon class="cls-50" points="286.26 558.15 286.28 573.26 298.79 566.04 298.79 551.6 286.26 558.15"/><polygon class="cls-51" points="303.73 549.04 303.75 564.15 316.25 556.93 316.25 542.49 303.73 549.04"/><polygon class="cls-52" points="281.33 557.65 281.31 572.76 268.81 565.54 268.81 551.1 281.33 557.65"/><polygon class="cls-51" points="283.19 539.44 270.69 546.66 283.17 553.21 295.7 546.66 283.19 539.44"/><polygon class="cls-53" points="268.04 527.78 268.06 542.89 280.57 535.67 280.57 521.23 268.04 527.78"/><polygon class="cls-53" points="263.2 528.04 263.18 543.15 250.68 535.93 250.68 521.49 263.2 528.04"/><polygon class="cls-51" points="263.2 547.78 263.18 562.89 250.68 555.67 250.68 541.23 263.2 547.78"/><polygon class="cls-53" points="303.73 528.54 303.75 543.65 316.25 536.43 316.25 521.99 303.73 528.54"/><polygon class="cls-53" points="298.7 528.04 298.68 543.15 286.18 535.93 286.18 521.49 298.7 528.04"/><polygon class="cls-54" points="301.51 511.93 289 518.1 301.49 524.65 314.01 518.1 301.51 511.93"/><polygon class="cls-51" points="281.94 501.62 269.44 508.84 281.93 515.39 294.45 508.84 281.94 501.62"/><polygon class="cls-55" points="129.75 464.53 141.2 458.36 128.71 451.81 116.19 458.36 129.75 464.53"/><polygon class="cls-40" points="107.57 418.31 107.55 403.2 95.04 410.42 95.04 424.86 107.57 418.31"/><polygon class="cls-56" points="90.11 427.42 90.09 412.31 77.58 419.53 77.58 433.97 90.11 427.42"/><polygon class="cls-40" points="112.5 418.81 112.52 403.7 125.02 410.92 125.02 425.36 112.5 418.81"/><polygon class="cls-56" points="110.64 437.01 123.14 429.8 110.66 423.25 98.13 429.8 110.64 437.01"/><polygon class="cls-40" points="125.79 448.68 125.77 433.57 113.27 440.79 113.27 455.23 125.79 448.68"/><polygon class="cls-40" points="130.63 448.42 130.65 433.31 143.15 440.53 143.15 454.97 130.63 448.42"/><polygon class="cls-56" points="130.63 428.68 130.65 413.57 143.15 420.79 143.15 435.23 130.63 428.68"/><polygon class="cls-40" points="90.11 447.92 90.09 432.81 77.58 440.03 77.58 454.47 90.11 447.92"/><polygon class="cls-40" points="95.13 448.42 95.15 433.31 107.66 440.53 107.66 454.97 95.13 448.42"/><polygon class="cls-57" points="92.32 464.53 104.83 458.36 92.34 451.81 79.82 458.36 92.32 464.53"/><polygon class="cls-56" points="111.89 474.83 124.39 467.61 111.91 461.06 99.38 467.61 111.89 474.83"/></g><g class="cls-1"><g class="cls-2"><polygon class="cls-58" points="601.45 478.8 628.83 463 683.59 494.61 683.59 551.61 674.35 546.27 674.35 499.95 628.83 473.67 588.72 496.83 579.48 491.49 601.45 478.8"/><polygon class="cls-59" points="623.43 552.51 623.43 563.18 594.13 546.26 594.13 506.19 623.43 489.28 623.43 499.95 603.37 511.53 603.37 540.93 623.43 552.51"/><polygon class="cls-60" points="634.24 552.51 654.29 540.93 654.29 511.53 634.24 499.95 634.24 489.28 663.54 506.19 663.54 546.27 634.24 563.18 634.24 552.51"/><polygon class="cls-61" points="601.45 573.65 574.07 557.85 574.07 526.23 574.07 500.85 583.32 506.19 583.32 552.51 628.83 578.79 668.94 555.63 678.19 560.97 628.83 589.46 601.45 573.65"/></g><polygon class="cls-62" points="721.38 473.61 748.76 457.8 803.52 489.42 803.52 546.41 794.28 541.07 794.28 494.75 748.76 468.48 708.65 491.63 699.41 486.3 721.38 473.61"/><polygon class="cls-63" points="743.36 547.31 743.36 557.99 714.06 541.07 714.06 500.99 743.36 484.08 743.36 494.75 723.3 506.33 723.3 535.73 743.36 547.31"/><polygon class="cls-64" points="754.17 547.31 774.22 535.73 774.22 506.33 754.17 494.75 754.17 484.08 783.47 501 783.47 541.07 754.17 557.99 754.17 547.31"/><polygon class="cls-65" points="721.38 568.46 694 552.65 694 521.03 694 495.66 703.25 501 703.25 547.31 748.76 573.59 788.87 550.43 798.12 555.77 748.76 584.27 721.38 568.46"/><polygon class="cls-27" points="751.99 523.27 752 534.5 761.3 529.14 761.3 518.4 751.99 523.27"/><polygon class="cls-27" points="748.14 507.11 738.85 512.48 748.13 517.35 757.44 512.48 748.14 507.11"/><polygon class="cls-27" points="745.42 523.44 745.4 534.67 736.11 529.3 736.11 518.57 745.42 523.44"/><polygon class="cls-66" points="631.96 527.68 631.98 547.19 648.13 537.87 648.13 519.22 631.96 527.68"/><polygon class="cls-67" points="628.36 504.24 612.21 513.57 628.34 522.03 644.51 513.57 628.36 504.24"/><polygon class="cls-68" points="625.59 527.97 625.57 547.48 609.42 538.16 609.42 519.51 625.59 527.97"/></g><path class="cls-69" d="M329.46,336.45a1.87,1.87,0,0,1,.65.12,1.74,1.74,0,0,1,.63.42l3.66,3.85a15.09,15.09,0,0,1-6,4.74,21,21,0,0,1-8.56,1.6,20.52,20.52,0,0,1-8.12-1.54,17.51,17.51,0,0,1-6.09-4.26,18.63,18.63,0,0,1-3.84-6.45,23.8,23.8,0,0,1-1.34-8.09,21.32,21.32,0,0,1,1.53-8.18A18.79,18.79,0,0,1,312.8,308a22.72,22.72,0,0,1,8.44-1.51,21.83,21.83,0,0,1,4.22.4,20.71,20.71,0,0,1,3.7,1.09,17.55,17.55,0,0,1,3.16,1.67,15.05,15.05,0,0,1,2.57,2.14L331.78,316a4.23,4.23,0,0,1-.71.69,1.87,1.87,0,0,1-1.15.32,2,2,0,0,1-.93-.22c-.29-.15-.6-.32-.93-.53l-1.07-.69a9.15,9.15,0,0,0-1.4-.68,11.61,11.61,0,0,0-1.88-.53,12.54,12.54,0,0,0-2.53-.22,11.55,11.55,0,0,0-4.58.89,10.09,10.09,0,0,0-3.57,2.54,11.83,11.83,0,0,0-2.32,4,15.79,15.79,0,0,0-.83,5.27,16.48,16.48,0,0,0,.83,5.43,12,12,0,0,0,2.27,4,9.57,9.57,0,0,0,3.34,2.47,9.94,9.94,0,0,0,4.1.85,20,20,0,0,0,2.29-.12,10.11,10.11,0,0,0,1.93-.43,8.91,8.91,0,0,0,1.69-.78,10.92,10.92,0,0,0,1.63-1.18,2.61,2.61,0,0,1,.7-.45A1.87,1.87,0,0,1,329.46,336.45Z"/><path class="cls-69" d="M379.23,326.84a21.19,21.19,0,0,1-1.49,8A19,19,0,0,1,367,345.62a23.69,23.69,0,0,1-16.91,0,19.34,19.34,0,0,1-6.54-4.3,19.07,19.07,0,0,1-4.21-6.46,22.36,22.36,0,0,1,0-16.05,18.88,18.88,0,0,1,4.21-6.44,19.46,19.46,0,0,1,6.54-4.29,23.62,23.62,0,0,1,16.91,0,19.51,19.51,0,0,1,6.51,4.3,19.18,19.18,0,0,1,4.19,6.45A21.12,21.12,0,0,1,379.23,326.84Zm-9.45,0a17.15,17.15,0,0,0-.76-5.31,11.12,11.12,0,0,0-2.2-4,9.4,9.4,0,0,0-3.51-2.52,12.08,12.08,0,0,0-4.72-.87,12.28,12.28,0,0,0-4.76.87,9.47,9.47,0,0,0-3.53,2.52,11.28,11.28,0,0,0-2.2,4,17.46,17.46,0,0,0-.76,5.31,17.66,17.66,0,0,0,.76,5.34,11.45,11.45,0,0,0,2.2,4,9.29,9.29,0,0,0,3.53,2.49,12.28,12.28,0,0,0,4.76.86,12.08,12.08,0,0,0,4.72-.86,9.22,9.22,0,0,0,3.51-2.49,11.3,11.3,0,0,0,2.2-4A17.35,17.35,0,0,0,369.78,326.84Z"/><path class="cls-69" d="M406.41,330.71c.34.75.66,1.51,1,2.3.31-.8.64-1.58,1-2.34s.7-1.49,1.07-2.2l10.21-20.12a3.36,3.36,0,0,1,.56-.8,2.06,2.06,0,0,1,.64-.43,2.3,2.3,0,0,1,.81-.13h8.09v39.75h-8.13V323.86c0-1.11.05-2.31.16-3.6l-10.54,20.45a3.49,3.49,0,0,1-1.32,1.44,3.67,3.67,0,0,1-1.9.5h-1.26a3.6,3.6,0,0,1-1.89-.5,3.45,3.45,0,0,1-1.33-1.44l-10.59-20.48c.07.64.12,1.27.16,1.9s.06,1.2.06,1.73v22.88H385V307h8.09a2.26,2.26,0,0,1,.81.13,2,2,0,0,1,.64.43,3.36,3.36,0,0,1,.56.8l10.24,20.2Q405.9,329.6,406.41,330.71Z"/><path class="cls-69" d="M459.05,330.71c.34.75.66,1.51,1,2.3q.47-1.2,1-2.34c.34-.75.7-1.49,1.06-2.2l10.21-20.12a3.36,3.36,0,0,1,.56-.8,2.06,2.06,0,0,1,.64-.43,2.3,2.3,0,0,1,.81-.13h8.09v39.75h-8.13V323.86c0-1.11.05-2.31.16-3.6l-10.54,20.45a3.49,3.49,0,0,1-1.32,1.44,3.67,3.67,0,0,1-1.9.5h-1.26a3.6,3.6,0,0,1-1.89-.5,3.45,3.45,0,0,1-1.33-1.44l-10.59-20.48c.07.64.13,1.27.16,1.9s.06,1.2.06,1.73v22.88h-8.14V307h8.1a2.2,2.2,0,0,1,.8.13,2,2,0,0,1,.64.43,3.36,3.36,0,0,1,.56.8L458,328.55Q458.56,329.6,459.05,330.71Z"/><path class="cls-69" d="M506.85,339.45a8.51,8.51,0,0,0,3.32-.61,6.85,6.85,0,0,0,2.47-1.76,8,8,0,0,0,1.54-2.8,12.37,12.37,0,0,0,.53-3.76V307h9.23v23.56a18.46,18.46,0,0,1-1.19,6.72,14.92,14.92,0,0,1-3.4,5.27A15.3,15.3,0,0,1,514,346a21.34,21.34,0,0,1-14.28,0,15.35,15.35,0,0,1-5.37-3.44,14.76,14.76,0,0,1-3.39-5.27,18.67,18.67,0,0,1-1.17-6.72V307H499V330.5a12,12,0,0,0,.54,3.75,7.87,7.87,0,0,0,1.54,2.81,6.59,6.59,0,0,0,2.47,1.78A8.47,8.47,0,0,0,506.85,339.45Z"/><path class="cls-69" d="M537.18,307a2.67,2.67,0,0,1,.74.21,2.47,2.47,0,0,1,.63.42,6.53,6.53,0,0,1,.68.74l18.89,23.89c-.07-.76-.12-1.51-.16-2.22s-.05-1.4-.05-2V307H566v39.78h-4.8a4.39,4.39,0,0,1-1.8-.33,3.61,3.61,0,0,1-1.42-1.2l-18.76-23.7c0,.7.1,1.37.13,2s.06,1.29.06,1.87v21.32h-8.14V307h4.86A9.29,9.29,0,0,1,537.18,307Z"/><path class="cls-69" d="M584.06,346.74h-9.28V307h9.28Z"/><path class="cls-69" d="M621.69,307v7.32h-11.2v32.46h-9.23V314.28H590.07V307Z"/><path class="cls-69" d="M646.7,331.62v15.12h-9.23V331.62L623.05,307h8.14a3,3,0,0,1,1.91.56,4.18,4.18,0,0,1,1.15,1.43l5.62,11.58c.46.93.88,1.78,1.26,2.57s.72,1.55,1,2.32a20.53,20.53,0,0,1,1-2.35l1.23-2.54L649.92,309a3.79,3.79,0,0,1,.45-.71,4,4,0,0,1,.66-.64,3.08,3.08,0,0,1,.84-.46,3,3,0,0,1,1-.18h8.19Z"/><path class="cls-69" d="M713.21,326.84a20.93,20.93,0,0,1-1.49,8,18.54,18.54,0,0,1-4.19,6.3,18.87,18.87,0,0,1-6.51,4.15,22.9,22.9,0,0,1-8.45,1.49H677.11V307h15.46a22.9,22.9,0,0,1,8.45,1.5,19.31,19.31,0,0,1,6.51,4.15,18.54,18.54,0,0,1,4.19,6.3A20.81,20.81,0,0,1,713.21,326.84Zm-9.45,0a17.37,17.37,0,0,0-.76-5.33,11.3,11.3,0,0,0-2.2-4,9.5,9.5,0,0,0-3.51-2.54,11.93,11.93,0,0,0-4.72-.89H686.4v25.58h6.17a11.93,11.93,0,0,0,4.72-.88,9.73,9.73,0,0,0,3.51-2.54,11.35,11.35,0,0,0,2.2-4A17.41,17.41,0,0,0,703.76,326.84Z"/><path class="cls-69" d="M754.38,346.74h-7.15a3.27,3.27,0,0,1-2-.56,2.87,2.87,0,0,1-1.08-1.43l-2.35-6.94H726.7l-2.35,6.94a3.06,3.06,0,0,1-1.07,1.38,3,3,0,0,1-1.93.61h-7.21L729.54,307H739Zm-25.55-15.21h10.86L736,320.64c-.23-.69-.51-1.51-.83-2.44s-.63-2-.94-3.05q-.43,1.67-.9,3.09c-.31.94-.6,1.76-.87,2.45Z"/><path class="cls-69" d="M773.33,331.62v15.12H764.1V331.62L749.69,307h8.13a3.06,3.06,0,0,1,1.92.56,4.15,4.15,0,0,1,1.14,1.43l5.63,11.58,1.25,2.57c.38.78.72,1.55,1,2.32a20.61,20.61,0,0,1,1-2.35c.38-.78.79-1.63,1.22-2.54L776.55,309a3.79,3.79,0,0,1,.45-.71,4.45,4.45,0,0,1,.66-.64,3.3,3.3,0,0,1,.85-.46,2.93,2.93,0,0,1,1-.18h8.19Z"/><path class="cls-70" d="M444.68,389.43V368.21h7.8a14.88,14.88,0,0,1,3.74.41,7,7,0,0,1,2.52,1.15,4.29,4.29,0,0,1,1.42,1.81,6,6,0,0,1,.45,2.37,4.51,4.51,0,0,1-.21,1.37,3.9,3.9,0,0,1-.64,1.25,4.53,4.53,0,0,1-1.12,1.05,7,7,0,0,1-1.64.83,5.88,5.88,0,0,1,3.1,1.65,4.27,4.27,0,0,1,1,2.93,6,6,0,0,1-.52,2.52,5.74,5.74,0,0,1-1.54,2,7.29,7.29,0,0,1-2.5,1.35,10.71,10.71,0,0,1-3.39.49Zm4.92-12.29h2.56a8.09,8.09,0,0,0,1.47-.12,3,3,0,0,0,1.12-.41,1.86,1.86,0,0,0,.69-.8,3,3,0,0,0,.25-1.28,3.8,3.8,0,0,0-.19-1.26,1.86,1.86,0,0,0-.59-.81,2.37,2.37,0,0,0-1-.43,6.74,6.74,0,0,0-1.44-.13H449.6Zm0,3.29v5.28h3.46a4.49,4.49,0,0,0,1.6-.24,2.69,2.69,0,0,0,1-.64,2.27,2.27,0,0,0,.48-.89,3.83,3.83,0,0,0,.13-1,3.51,3.51,0,0,0-.15-1.05,1.76,1.76,0,0,0-.53-.78,2.66,2.66,0,0,0-1-.5,6,6,0,0,0-1.54-.17Z"/><path class="cls-70" d="M484.26,389.43h-3.82a1.77,1.77,0,0,1-1.06-.3,1.59,1.59,0,0,1-.57-.76l-1.25-3.7h-8.07l-1.25,3.7a1.68,1.68,0,0,1-.57.73,1.63,1.63,0,0,1-1,.33h-3.85L471,368.21h5Zm-13.63-8.11h5.79l-1.95-5.81c-.13-.37-.27-.81-.44-1.31s-.34-1-.51-1.62q-.22.89-.48,1.65c-.16.5-.32.94-.46,1.31Z"/><path class="cls-70" d="M489.83,368.24a1.56,1.56,0,0,1,.4.11,1.58,1.58,0,0,1,.33.22,3.85,3.85,0,0,1,.37.4L501,381.71c0-.41-.07-.8-.09-1.19s0-.74,0-1.08V368.21h4.34v21.22h-2.57a2.28,2.28,0,0,1-1-.18,2.08,2.08,0,0,1-.76-.64l-10-12.64c0,.37.05.73.07,1.09s0,.68,0,1v11.37H486.7V368.21h2.59A4,4,0,0,1,489.83,368.24Z"/><path class="cls-70" d="M519.44,385.87a8.1,8.1,0,0,0,1.8-.17,8.64,8.64,0,0,0,1.49-.47V382h-2.1a1.06,1.06,0,0,1-.73-.25.86.86,0,0,1-.26-.63v-2.71h7.54v9a10.91,10.91,0,0,1-1.69,1,11.38,11.38,0,0,1-1.88.7,13.63,13.63,0,0,1-2.13.41,20.44,20.44,0,0,1-2.42.13,11.1,11.1,0,0,1-4.31-.82,10.53,10.53,0,0,1-3.43-2.27,10.42,10.42,0,0,1-2.27-3.44,11.16,11.16,0,0,1-.83-4.32,11.86,11.86,0,0,1,.79-4.36,9.88,9.88,0,0,1,2.25-3.43,10.24,10.24,0,0,1,3.54-2.24,12.87,12.87,0,0,1,4.64-.8,13.19,13.19,0,0,1,2.49.22,12.27,12.27,0,0,1,2.15.59,10.35,10.35,0,0,1,1.79.91,9.42,9.42,0,0,1,1.46,1.13L525.9,373a1.47,1.47,0,0,1-.48.48,1.15,1.15,0,0,1-.62.18,1.76,1.76,0,0,1-.91-.29c-.39-.24-.75-.44-1.1-.61a5.86,5.86,0,0,0-1-.41,6.77,6.77,0,0,0-1.14-.24,13.26,13.26,0,0,0-1.34-.07,6,6,0,0,0-2.49.49,5.16,5.16,0,0,0-1.88,1.38,6.15,6.15,0,0,0-1.2,2.13,8.34,8.34,0,0,0-.43,2.77,8.91,8.91,0,0,0,.47,3A6.46,6.46,0,0,0,515,384a5.44,5.44,0,0,0,2,1.37A6.21,6.21,0,0,0,519.44,385.87Z"/><path class="cls-70" d="M535.83,385.5h7.87v3.93H530.91V368.21h4.92Z"/><path class="cls-70" d="M566.5,389.43h-3.81a1.77,1.77,0,0,1-1.06-.3,1.47,1.47,0,0,1-.57-.76l-1.26-3.7h-8.06l-1.26,3.7a1.59,1.59,0,0,1-.56.73,1.66,1.66,0,0,1-1,.33H545l8.21-21.22h5Zm-13.63-8.11h5.8l-1.95-5.81-.45-1.31c-.17-.5-.34-1-.5-1.62q-.24.89-.48,1.65c-.17.5-.32.94-.47,1.31Z"/><path class="cls-70" d="M588.2,378.81a11.32,11.32,0,0,1-.79,4.25,9.88,9.88,0,0,1-5.71,5.57,12.31,12.31,0,0,1-4.51.8H569V368.21h8.24a12.31,12.31,0,0,1,4.51.8,10.28,10.28,0,0,1,3.47,2.22,9.91,9.91,0,0,1,2.24,3.35A11.29,11.29,0,0,1,588.2,378.81Zm-5,0a9.32,9.32,0,0,0-.41-2.84,6.1,6.1,0,0,0-1.17-2.15,5.2,5.2,0,0,0-1.87-1.35,6.29,6.29,0,0,0-2.52-.47H573.9v13.64h3.29a6.47,6.47,0,0,0,2.52-.47,5.11,5.11,0,0,0,1.87-1.36,6,6,0,0,0,1.17-2.14A9.4,9.4,0,0,0,583.16,378.81Z"/><path class="cls-70" d="M604.94,368.21V372h-8.7V377h6.67v3.64h-6.67v5.05h8.7v3.79H591.29V368.21Z"/><path class="cls-70" d="M620.29,372.52a1.89,1.89,0,0,1-.46.53,1,1,0,0,1-.61.17,1.54,1.54,0,0,1-.73-.21l-.87-.47a6.73,6.73,0,0,0-1.11-.48,4.53,4.53,0,0,0-1.43-.21,3.09,3.09,0,0,0-2.06.59,2,2,0,0,0-.68,1.6,1.48,1.48,0,0,0,.41,1.06,3.66,3.66,0,0,0,1.07.73,12.36,12.36,0,0,0,1.51.56c.57.17,1.15.36,1.75.57a13.78,13.78,0,0,1,1.73.73,5.67,5.67,0,0,1,1.52,1.08,5.11,5.11,0,0,1,1.07,1.59,5.72,5.72,0,0,1,.41,2.27,7.35,7.35,0,0,1-.51,2.75,6.49,6.49,0,0,1-1.48,2.24,6.88,6.88,0,0,1-2.39,1.49,8.77,8.77,0,0,1-3.22.55,10.8,10.8,0,0,1-2-.2,12,12,0,0,1-2-.58,11.56,11.56,0,0,1-1.8-.88,7.18,7.18,0,0,1-1.47-1.14l1.45-2.3a1.3,1.3,0,0,1,.45-.42,1.4,1.4,0,0,1,.63-.16,1.63,1.63,0,0,1,.88.28l1,.61a8.6,8.6,0,0,0,1.29.61,4.74,4.74,0,0,0,1.72.28,3.28,3.28,0,0,0,2.08-.59,2.23,2.23,0,0,0,.75-1.87,1.77,1.77,0,0,0-.41-1.21,3.1,3.1,0,0,0-1.07-.77,8.85,8.85,0,0,0-1.51-.54c-.56-.16-1.14-.33-1.73-.52a12.28,12.28,0,0,1-1.73-.7,5.25,5.25,0,0,1-1.51-1.09,5,5,0,0,1-1.07-1.69,6.74,6.74,0,0,1-.41-2.5,6,6,0,0,1,.48-2.33,6.05,6.05,0,0,1,1.41-2,7,7,0,0,1,2.29-1.42A8.53,8.53,0,0,1,615,368a11.79,11.79,0,0,1,1.9.15,9.86,9.86,0,0,1,1.76.45,9.56,9.56,0,0,1,1.55.72,7.33,7.33,0,0,1,1.29.93Z"/><path class="cls-70" d="M643.51,389.43h-5v-9h-8.62v9H625V368.21h4.95v8.87h8.62v-8.87h5Z"/><path class="cls-69" d="M528.2,254.82a7.22,7.22,0,0,0,.27,2.15,12.17,12.17,0,0,0,.78,1.75,1,1,0,0,1,.16.55.93.93,0,0,1-.46.73l-1.52,1a1.23,1.23,0,0,1-.63.22,1.13,1.13,0,0,1-.73-.34,7.49,7.49,0,0,1-.87-1.14c-.24-.41-.48-.87-.75-1.43a8.94,8.94,0,0,1-7.12,3.34,6.63,6.63,0,0,1-4.84-1.74,6.84,6.84,0,0,1,.41-9.64,8.81,8.81,0,0,1,5.93-1.89,17.85,17.85,0,0,1,2.57.2c.9.12,1.82.31,2.78.53v-1.77c0-1.84-.38-3.12-1.13-3.87a5.6,5.6,0,0,0-3.95-1.12,11,11,0,0,0-2.62.32,18.37,18.37,0,0,0-2.61.82,7.58,7.58,0,0,1-.85.32,1.9,1.9,0,0,1-.39.07c-.34,0-.51-.24-.51-.75V242a1.55,1.55,0,0,1,.17-.85,1.89,1.89,0,0,1,.68-.51,15.89,15.89,0,0,1,6.83-1.55c2.88,0,5,.66,6.35,2s2,3.29,2,5.95v7.85Zm-9.83,3.68a7.94,7.94,0,0,0,2.5-.44,5.41,5.41,0,0,0,2.3-1.55A3.81,3.81,0,0,0,524,255a8.43,8.43,0,0,0,.24-2.1v-1a20.58,20.58,0,0,0-2.23-.41,17.54,17.54,0,0,0-2.27-.15,5.62,5.62,0,0,0-3.61,1,3.39,3.39,0,0,0-1.19,2.79,3.13,3.13,0,0,0,3.44,3.46Zm19.45,2.62a1.33,1.33,0,0,1-.92-.25,1.84,1.84,0,0,1-.51-.94l-5.69-18.72a4,4,0,0,1-.22-1,.52.52,0,0,1,.58-.6h2.37a1.36,1.36,0,0,1,1,.24,1.92,1.92,0,0,1,.48.94l4.07,16,3.78-16a1.7,1.7,0,0,1,.46-.94,1.62,1.62,0,0,1,1-.24h1.94a1.42,1.42,0,0,1,1,.24,1.53,1.53,0,0,1,.46.94l3.83,16.23,4.19-16.23a2.09,2.09,0,0,1,.48-.94,1.57,1.57,0,0,1,1-.24h2.25a.54.54,0,0,1,.61.6,3.21,3.21,0,0,1,0,.39,5.06,5.06,0,0,1-.17.6L553.75,260a1.79,1.79,0,0,1-.51.95,1.58,1.58,0,0,1-.92.24h-2.08a1.47,1.47,0,0,1-1-.24,1.79,1.79,0,0,1-.46-1l-3.75-15.62-3.73,15.59a1.89,1.89,0,0,1-.46,1,1.48,1.48,0,0,1-1,.25Zm31.12.65a16.06,16.06,0,0,1-3.73-.44,10.79,10.79,0,0,1-2.79-1,1.74,1.74,0,0,1-.75-.67,1.66,1.66,0,0,1-.14-.68v-1.24c0-.51.19-.75.55-.75a1.36,1.36,0,0,1,.44.08c.14,0,.36.14.6.24a13.89,13.89,0,0,0,2.67.85,14.81,14.81,0,0,0,2.88.29,6.54,6.54,0,0,0,3.53-.8,2.61,2.61,0,0,0,1.26-2.3,2.35,2.35,0,0,0-.65-1.7,6.14,6.14,0,0,0-2.45-1.26l-3.51-1.09a7.36,7.36,0,0,1-3.87-2.47,5.75,5.75,0,0,1-1.21-3.51,5.46,5.46,0,0,1,.65-2.69,6.35,6.35,0,0,1,1.74-2,7.65,7.65,0,0,1,2.52-1.26,10.6,10.6,0,0,1,3.05-.41,12.72,12.72,0,0,1,1.63.09c.55.08,1.06.17,1.57.27s1,.24,1.38.39a5.19,5.19,0,0,1,1,.43,2.06,2.06,0,0,1,.72.61,1.27,1.27,0,0,1,.22.8v1.14c0,.5-.19.77-.55.77a2.55,2.55,0,0,1-.92-.29,11.07,11.07,0,0,0-4.65-.94,6.25,6.25,0,0,0-3.22.67,2.33,2.33,0,0,0-1.14,2.16,2.29,2.29,0,0,0,.72,1.72,7.24,7.24,0,0,0,2.67,1.33l3.44,1.09a7.4,7.4,0,0,1,3.75,2.32,5.51,5.51,0,0,1,1.11,3.39,6.09,6.09,0,0,1-.63,2.81,6.35,6.35,0,0,1-1.76,2.13,7.67,7.67,0,0,1-2.69,1.36A11.49,11.49,0,0,1,568.94,261.77Z"/><path class="cls-70" d="M573.51,273.54c-8,5.88-19.54,9-29.49,9a53.37,53.37,0,0,1-36-13.73c-.75-.68-.07-1.6.82-1.07a71.49,71.49,0,0,0,63.52,3.95C573.68,271.09,574.82,272.57,573.51,273.54Zm3.32-3.78c-1-1.31-6.73-.63-9.32-.31-.78.09-.9-.59-.2-1.09,4.56-3.2,12-2.28,12.91-1.22s-.24,8.58-4.5,12.16c-.66.56-1.29.27-1-.46C575.69,276.44,577.85,271,576.83,269.76Z"/><rect class="cls-70" x="661.91" y="377.61" width="125.84" height="2.43"/><rect class="cls-70" x="300.43" y="377.61" width="125.84" height="2.43"/><polygon class="cls-71" points="727.12 163.06 754.5 147.25 809.26 178.87 809.26 235.86 800.02 230.52 800.02 184.21 754.5 157.93 714.39 181.08 705.15 175.75 727.12 163.06"/><polygon class="cls-72" points="727.12 257.91 699.74 242.1 699.74 210.48 699.74 185.11 708.99 190.45 708.99 236.76 754.5 263.04 794.61 239.88 803.86 245.22 754.5 273.72 727.12 257.91"/><polygon class="cls-73" points="735.12 183.67 723.2 190.1 736.19 196.92 749.23 190.1 735.12 183.67"/><polygon class="cls-40" points="758.21 231.79 758.23 247.52 771.25 240.01 771.25 224.97 758.21 231.79"/><polygon class="cls-56" points="776.39 222.31 776.41 238.04 789.43 230.52 789.43 215.49 776.39 222.31"/><polygon class="cls-40" points="753.07 231.27 753.05 247 740.04 239.49 740.04 224.45 753.07 231.27"/><polygon class="cls-74" points="755.01 212.32 742 219.83 754.99 226.65 768.03 219.83 755.01 212.32"/><polygon class="cls-40" points="739.24 200.18 739.26 215.91 752.28 208.39 752.28 193.36 739.24 200.18"/><polygon class="cls-40" points="734.2 200.44 734.18 216.18 721.16 208.66 721.16 193.63 734.2 200.44"/><polygon class="cls-56" points="734.2 221 734.18 236.73 721.16 229.21 721.16 214.18 734.2 221"/><polygon class="cls-40" points="776.39 200.97 776.41 216.69 789.43 209.18 789.43 194.15 776.39 200.97"/><polygon class="cls-40" points="771.16 200.44 771.14 216.18 758.12 208.66 758.12 193.63 771.16 200.44"/><polygon class="cls-75" points="774.08 183.67 761.06 190.1 774.06 196.92 787.1 190.1 774.08 183.67"/><polygon class="cls-56" points="753.71 172.94 740.7 180.46 753.69 187.28 766.73 180.46 753.71 172.94"/><polygon class="cls-76" points="803.77 162.3 771.88 143.89 785.3 136.15 843.5 169.75 909.55 131.62 909.55 64.41 922.97 56.66 922.97 93.49 922.97 139.36 883.23 162.3 843.5 185.24 803.77 162.3"/><polygon class="cls-77" points="814.4 67.63 800.99 59.88 843.5 35.34 893.86 64.41 893.86 113.5 880.45 105.76 880.45 72.15 843.5 50.83 814.4 67.63"/><polygon class="cls-78" points="806.56 81.21 806.56 114.81 843.5 136.15 872.61 119.34 886.02 127.09 843.5 151.64 793.14 122.56 793.14 73.47 806.56 81.21"/><polygon class="cls-79" points="883.23 24.67 915.12 43.08 901.71 50.83 843.5 17.22 777.46 55.35 777.46 122.56 764.04 130.31 764.04 93.49 764.04 47.61 803.77 24.67 843.5 1.73 883.23 24.67"/><polygon class="cls-40" points="849.88 95.95 849.91 119.26 869.21 108.12 869.21 85.84 849.88 95.95"/><polygon class="cls-80" points="841.09 95.18 841.06 118.49 821.76 107.35 821.76 85.07 841.09 95.18"/><polygon class="cls-81" points="844.84 64.82 823.78 76.98 844.8 88 865.89 76.98 844.84 64.82"/><polygon class="cls-82" points="713.96 22.03 744.59 39.72 731.7 47.15 675.8 14.88 612.36 51.51 612.36 116.06 599.47 123.5 599.47 88.13 599.47 44.06 637.64 22.03 675.8 0 713.96 22.03"/><polygon class="cls-83" points="703.75 112.97 716.64 120.4 675.8 143.98 627.43 116.06 627.43 68.9 640.31 76.34 640.31 108.62 675.8 129.1 703.75 112.97"/><polygon class="cls-84" points="711.28 99.92 711.28 67.64 675.8 47.15 647.84 63.29 634.96 55.85 675.8 32.28 724.17 60.21 724.17 107.36 711.28 99.92"/><polygon class="cls-85" points="637.64 154.23 607.01 136.55 619.89 129.1 675.8 161.38 739.24 124.75 739.24 60.21 752.12 52.76 752.12 88.13 752.12 132.2 713.96 154.23 675.8 176.26 637.64 154.23"/><polygon class="cls-40" points="680.26 91.12 680.29 113.51 698.83 102.81 698.83 81.42 680.26 91.12"/><polygon class="cls-80" points="671.82 90.38 671.79 112.77 653.25 102.07 653.25 80.67 671.82 90.38"/><polygon class="cls-86" points="675.41 62.83 655.19 74.51 675.38 85.1 695.63 74.51 675.41 62.83"/></g></g></svg>