<svg xmlns="http://www.w3.org/2000/svg" viewBox="0 0 466.54 192.23"><defs><style>.cls-1{fill:#c69eaf;}.cls-16,.cls-2,.cls-5{fill:#1d1b12;}.cls-15,.cls-2{opacity:0.2;}.cls-3{fill:#e0bf7e;}.cls-4{fill:#cead72;}.cls-5{opacity:0.1;}.cls-6{fill:#b26b1d;}.cls-7{fill:#ff9400;}.cls-8{fill:#d38424;}.cls-12,.cls-15,.cls-9{fill:#fff3d7;}.cls-10{fill:#c9b997;}.cls-11{fill:#e2cfb3;}.cls-12{opacity:0.4;}.cls-13{fill:#d3c09f;opacity:0.5;}.cls-14{fill:#ffad4a;}.cls-17{fill:#a0923d;}.cls-18{fill:#252f3e;}.cls-19{fill:#f90;}</style></defs><g id="Layer_2" data-name="Layer 2"><g id="Layer_1-2" data-name="Layer 1"><g id="Tiger"><path class="cls-1" d="M83.57,138.83s-17.83,7.13-23.2,21S82.83,153.29,83.57,138.83Z"/><path class="cls-2" d="M66,151a15.09,15.09,0,0,0,8.6-2.16c2.75-1.68,6.19-3.93,8.41-6.71-4.13,14-27.57,30.52-22.6,17.68A28.49,28.49,0,0,1,66,151Z"/><path class="cls-3" d="M46.68,134.19s3.76,8.76,7.23,13.37S45,148,41.32,139.5,46.68,134.19,46.68,134.19Z"/><path class="cls-4" d="M35.63,133.79s3.76,8.76,7.23,13.37-8.88.43-12.59-8.06S35.63,133.79,35.63,133.79Z"/><path class="cls-5" d="M42.92,142.25a14.51,14.51,0,0,1-1.6-2.75c-3.71-8.49,5.36-5.31,5.36-5.31s.87,2,2.17,4.66C46.9,140.08,44.92,141.22,42.92,142.25Z"/><path class="cls-5" d="M34.56,144.84a17.17,17.17,0,0,1-4.29-5.74c-3.71-8.49,5.36-5.31,5.36-5.31a105.17,105.17,0,0,0,4.82,9.66l-.07,0C38.44,143.9,36.5,144.37,34.56,144.84Z"/><path class="cls-4" d="M61.16,167.42s-4.12-8.59-5.31-14.24-6.17,6.41-2.21,14.79S61.16,167.42,61.16,167.42Z"/><path class="cls-4" d="M53,166s-4.12-8.59-5.31-14.24-6.17,6.41-2.21,14.79S53,166,53,166Z"/><path class="cls-6" d="M107.18,21s-1-11.72-7.66-16.12c0,0,4.89,3.09,5.38,4.88,0,0-4.24-11.88-13.35-7.81,0,0,4.88-2.28,6.67-1.3A13.71,13.71,0,0,0,87.15,1.82C81.61,5.07,83.4,16,75.75,25.1S107.18,21,107.18,21Z"/><path class="cls-2" d="M92.16,25.3C96,18.18,98.43,9.6,97.36,1.46c4.5,1.37,6.92,6.78,7.43,8.06-.85-1.81-5.27-4.61-5.27-4.61C106.2,9.31,107.18,21,107.18,21S99.74,23.54,92,25.61h0Z"/><path class="cls-7" d="M12.58,94.3S24.3,75.74,28.7,61.57,44.82,45,60.94,31.29s43.47-13.68,58.12-9.77,33.22-9.77,43-8.8L154.72,21s16.61-3.91,38.1,9.77c0,0-13.68,1.95-19,6.35A37.93,37.93,0,0,1,197.7,71.83s-3.41-5.37-6.35-6.84c0,0,8.8,15.63,1,27.35l-1.46-4.88s3.42,33.7-10.75,54.22l.49-5.37s-17.1,22.46-14.66,46.4c0,0-24.91-10.75-27.35-44.45,0,0-4.69,10-.79,16.83,0,0-9.05-5.74-9-16.83,0,0-1.71,9.86,2.2,14.74,0,0-7.08-6.44-6.11-15.23l-5.37,5.86.49-4.39s-11.24-4.89-21.49,5.86S92.2,164.64,79,171l9.77-.49s-15.14,8.79-19.54,1c0,0,4.88,6.84,10.26,6.35,0,0-33.22,6.35-37.61-16.6,0,0-5.87-4.89,0-7.33,0,0,23.93,12.21,32.72-3.91s-11.23-22.47-21-17.09S21.86,149,9.65,121.65c0,0-11.28-4.73-8.31-14.65C2.81,102.11,12.58,94.3,12.58,94.3Z"/><path class="cls-8" d="M156.67,168.54c-2.44-23.93,14.66-46.4,14.66-46.4l-.49,5.37C185,107,181.59,73.29,181.59,73.29l1.46,4.89c7.82-11.72-1-27.36-1-27.36,2.93,1.47,6.35,6.84,6.35,6.84a41.13,41.13,0,0,0-2.36-12.61c5.63,5.36,11.18,13.87,11.64,26.78,0,0-3.41-5.37-6.35-6.84,0,0,8.8,15.63,1,27.35l-1.46-4.88s3.42,33.7-10.75,54.22l.49-5.37s-17.1,22.46-14.66,46.4c0,0-14.5-6.26-22.46-24.21A43.63,43.63,0,0,0,156.67,168.54Z"/><path class="cls-8" d="M102,34.22c1.38-1.9,2.7-3.66,4-5.3,2.37-4.36,5.93-10.4,9.23-14l-2.44,5.38s9.93-15,16.94-12.13c3.8,1.54-3.48,9.82-10.92,17.06l-9.27,16.48Z"/><path class="cls-9" d="M129.65,8.17s10.66,2.11,10.17,20.19l-1.46-3.67s1.22,12.21-3.91,17.1l.46-4.44C131.4,45,125.15,49,112.71,46.92l-7.49-9.77S121.5,6.21,129.65,8.17Z"/><path class="cls-2" d="M123.73,13.84a3.77,3.77,0,0,1,2.89.13,8.2,8.2,0,0,1,2.74,2.63,17.78,17.78,0,0,1,2.23,4.75c2.34,8.33,1.39,14.45-5.32,20.8-3.71,3.51-9.41,5.46-13.56,4.77l-7.49-9.77a168.91,168.91,0,0,1,11.71-18.82C117.57,18.24,121.73,14.28,123.73,13.84Z"/><path class="cls-2" d="M116.82,31.2c.29,8.76-7,10.23-7.65,11.08l-4-5.13S107.94,32,111.7,26C112.22,25.06,116.57,23.63,116.82,31.2Z"/><path class="cls-10" d="M138.11,131.42s-.49,32.24,14.66,46.89l-3.67-10.25s9.53,16.85,24.43,24.17c0,0-10.75-24.66.48-45.18,0,0-6.83,5.62-7.32,10.26s-.25,1-.25,1-3.9-14.9,3.18-25.89S165.71,105,165.71,105s7.33,19.79-3.66,28.82A33.79,33.79,0,0,0,164,121.65s-2.69,9.28-9,9.28-2.19-18.56-14.16-14.65S138.11,131.42,138.11,131.42Z"/><path class="cls-11" d="M41.89,153.89s23.63,12.05,32.55-3.61c.45-.23,2-5.93,4.2-10.43a2.23,2.23,0,0,1,.12-.86c6-17.5,22.7-20.55,32.54-22.64,3.61-1.73,5.55-4.18,3.63-8.47-.3-.66-.24-1.41-.69-2a9.49,9.49,0,0,0-.41-1.42h0c-5.85-12.59-7.41-34.38,3.48-39.93,13-6.59-1.38-15.63-1.38-15.63s16.93,4.89,22.47,30.29l-4.89-7.49s3.26,15,13,22.47l-6.51-2.61s16.28,13.68,12.37,33.22a36.71,36.71,0,0,0-4.23-14.33s4.88,13.67,0,28c0,0,.65-9.77-1.31-14.65,0,0,2.94,8.47-3.9,24.1,0,0-2.93-8.15-2.93-14.66,0,0-4.56,16.12-1,23.45,0,0-8.76-1.83-10.15-15.93,0,0-1.74,7.62,3.47,13.49,0,0-8-3.1-8.14-15.47,0,0-3.42,6.51-.81,11.4,0,0-7.61-2.55-6.24-11.7a19.15,19.15,0,0,0-11.37,1.37,26.7,26.7,0,0,0-6.08,4.55h-.51l-.71.72C88.29,155.84,92.2,164.64,79,171l9.77-.49s-12.51,7.26-18.09,2.71c1.84,2,5.21,4.94,8.81,4.61,0,0-33.22,6.35-37.61-16.6C41.89,161.22,36,156.33,41.89,153.89Z"/><path class="cls-10" d="M133.81,72.68a48.1,48.1,0,0,1-2.21-6.88l4.88,7.49c-.24-1.1-.5-2.16-.78-3.19a57.9,57.9,0,0,1,2.74,9.06l-4.89-7.49S133.63,72,133.81,72.68Z"/><path class="cls-10" d="M150.25,105.67a31.68,31.68,0,0,1,2.19,19.08,35.13,35.13,0,0,0-1.6-8.08A30.63,30.63,0,0,0,150.25,105.67Z"/><path class="cls-10" d="M129.2,148C126,142.47,127,134,127,134c.22,3.51,1,3.28,1.81,5.48C128.81,140.54,129,146.67,129.2,148Z"/><path class="cls-10" d="M147.73,126.82a47.85,47.85,0,0,0-1.48-22.26,36.16,36.16,0,0,1,3.31,8.65c-.4-.92-.84-1.86-1.35-2.79,0,0,4.88,13.67,0,28A57.4,57.4,0,0,0,147.73,126.82Z"/><path class="cls-10" d="M39.93,155.36c4.4,22.95,37.61,16.6,37.61,16.6-3.59.33-7-2.62-8.8-4.61,5.57,4.55,18.08-2.71,18.08-2.71l-9.77.48c13.19-6.35,9.29-15.14,19.54-25.88l.72-.73h.5A13.71,13.71,0,0,1,108,134.38c3.39.52,8.8,2.75,9.31,4.26-2.57-.26-7.68-.5-11.43,1.18a26.7,26.7,0,0,0-6.08,4.55h-.51l-.71.72C88.29,155.84,92.2,164.64,79,171l9.77-.49s-12.51,7.26-18.09,2.71c1.84,2,5.21,4.94,8.81,4.61,0,0-33.22,6.35-37.61-16.6,0,0-4.06-3.39-2-5.93Z"/><path class="cls-10" d="M120.59,146.21c-2.61-4.88,2.69-13.31,2.69-13.31,0,3,0,4,.79,6-.84,2.24-2.42,7.85-.61,11.25,0,0-7.14-2.11-6.18-11.51C117.54,144.91,120.59,146.21,120.59,146.21Z"/><path class="cls-10" d="M145,117.91c2,4.88,1.3,14.65,1.3,14.65a39.53,39.53,0,0,0,1.26-4.6c.15,4-.48,10.69-4.51,19.91a64.17,64.17,0,0,1-1.8-6.24C147.83,126.24,145,117.91,145,117.91Z"/><path class="cls-10" d="M129.15,147.64a14.64,14.64,0,0,0,3.26,6.58s-6.27-2.44-7.8-11.62A14,14,0,0,0,129.15,147.64Z"/><path class="cls-10" d="M137.14,150.8c-3.59-7.33,1-23.45,1-23.45a39.25,39.25,0,0,0,1.23,8.81c-1.12,5-2.88,15.12-.25,20.5,0,0-7.27-.79-9.52-12.22C132.58,150.3,137.14,150.8,137.14,150.8Z"/><path class="cls-12" d="M59.71,74.64s2.69,2,.13,6.71S50.8,84.28,47,90c0,0-2.19-1.34-.24-7.69S59.71,74.64,59.71,74.64Z"/><path class="cls-12" d="M42.37,83.8s-5-4.28-3.54-7.45,5-1.83,3.18-5.62-3.42-8.43,7.45-15.39,16-7.69,17.09-13.92c0,0,14.29,10.63,6.23,23.08s-10.87,8.06-17,8.67S42.37,83.8,42.37,83.8Z"/><path class="cls-12" d="M50.35,104.89A21.66,21.66,0,0,0,64.84,94.3C70.7,83.8,86.58,67.43,99.77,78.91s14.9,43-8.79,39.08-11.73-2.44-28.33,5.13C51.9,128,48,124.83,46.59,122,50.38,117,51.15,111.19,50.35,104.89Z"/><path class="cls-12" d="M54.75,91.69S35,107.81,35.94,80c0,0-8.06,16.36-7.57,26.62,0,0,2-8.06,10.75-5.86S53.28,102.44,54.75,91.69Z"/><path class="cls-9" d="M10.62,124s5.05,18,21.5,18.32l-3.75-1.79s5.86,2.6,14.66.16L39,140.21s8.31,1.79,14.82-6.35a13.57,13.57,0,0,1,6.35-2.6c7-.77,16.12,2.44,16.45,13.35,0,0,12.53-26.38-32.4-28a30.39,30.39,0,0,1,11.56,2.28s-9.12-6.83-18.73-3.25c0,0,6.35-2.77,9.12-2.28,0,0-6.68-3.58-15.31,2.28,0,0,5.7-5.38,9-4.4,0,0-11.72-5.7-17.42,2.61S10.62,124,10.62,124Z"/><path class="cls-13" d="M30.07,138.32l-4.4-1.68s6.87,2.42,16.81-.77l-3.37-.19a19,19,0,0,0,15.28-7.84,16.19,16.19,0,0,1,7.12-3.21c3.93-.62,8.54-.57,12.32,1.19,7.77,8.18,2.74,18.79,2.74,18.79-.82-10.18-9.44-14.12-16.45-13.35a13.57,13.57,0,0,0-6.35,2.6c-5,6.31-11.16,6.66-13.66,6.49l2.92.35c-8.8,2.44-14.66-.16-14.66-.16l3.75,1.79a20.45,20.45,0,0,1-15.26-7.24A23.89,23.89,0,0,0,30.07,138.32Z"/><path class="cls-14" d="M22.1,114.81S36,80.38,28.57,62.43c0,0-7.2,18.07-13.18,27.11s-17.16,15.75-15,22.34C3.23,120.71,22.1,114.81,22.1,114.81Z"/><path class="cls-15" d="M15.39,89.54c5.7-8.62,12.51-25.44,13.13-27,.67,6.8,1,21.74-7.48,31.42-6.95,8-15.31,15-21,16.2C.23,103.81,9.45,98.5,15.39,89.54Z"/><path class="cls-1" d="M24,111.07s.4,7.16-13,12.78c0,0-12-7.45-10.77-13.68,0,0,4.64,5.33,12.72,2C17.3,110.42,24.31,108.12,24,111.07Z"/><path class="cls-2" d="M9,117a29.09,29.09,0,0,0,10.3-.86c1-.27,2.1-.52,3.19-.8C21,117.82,17.69,121,11,123.85c0,0-7.39-4.57-10-9.54A22.75,22.75,0,0,0,9,117Z"/><path class="cls-16" d="M10.62,124a27.91,27.91,0,0,0,8.88-5.45c3.5-3.5,1.79-4.08-1.3-2.65-5,2.32-9.61-2.4-10.26,0s3.74,5.78,3.74,5.78S13,123,10.62,124Z"/><path class="cls-9" d="M76.57,144.61s.61,11.23-14,17.1c-12.05,4.82-22.16,1.84-23.44-4.4-1-4.76,3.78-4.52,8.06-2.08,3.22,1.85,16.48,3.91,21.12.37C74.88,150.55,76.57,144.61,76.57,144.61Z"/><path class="cls-16" d="M63.5,73.42a74.77,74.77,0,0,1-12-2.81c-6.35-2.08-4.64,5-4.88,6.59s-3.54.73-4,4.28S42,89.41,38,89.17a5.69,5.69,0,0,0,6.71-1c3.06-3,2.08-7.32,4.89-6.35s6.18,2.24,10.13-6.23C60.57,73.78,63.5,73.42,63.5,73.42Z"/><path class="cls-17" d="M58.86,74.27S52,70.61,51,73.05c0,0-1.69,5.28,2.69,6.84C57.52,81.23,58.86,74.27,58.86,74.27Z"/><path class="cls-16" d="M54.24,76.49c.24,1.31-.14,2.49-.84,2.61s-1.48-.83-1.71-2.15.14-2.49.84-2.62S54,75.17,54.24,76.49Z"/><path class="cls-9" d="M55.37,75.28A1.33,1.33,0,1,1,54,74,1.34,1.34,0,0,1,55.37,75.28Z"/><path class="cls-8" d="M146.9,40.08s43,21.82,26.38,68.38c0,0,2.93-20.19-5.86-36.47,0,0,5.21,16,2.28,23.45,0,0,.65-15.31-11.07-30.61S146.9,40.08,146.9,40.08Z"/><path class="cls-8" d="M139.09,46.92S146.9,62.87,157,71l-14-6.83s22.47,18.56,12.7,44c0,0-.33-10.1-3.59-16.61S133.23,71.67,139.09,46.92Z"/><path class="cls-8" d="M175.24,54.41S164.16,28,145.6,33.57Z"/><path class="cls-8" d="M144.3,29.33S156,21.52,169.7,26.4C169.7,26.4,156,33.24,144.3,29.33Z"/><path class="cls-16" d="M44.82,104.23A11.89,11.89,0,0,0,52,115.46s-2.6-1.95-2.44-4.39S44.82,104.23,44.82,104.23Z"/><path class="cls-16" d="M50,105.37s.65,5.54,3.09,7.49,6.35,1.79,8.3,5.21a31.93,31.93,0,0,0,15.8-2.77s-8,.49-12.38-1.46-6.35.65-8.79-2.77S55.89,108.14,50,105.37Z"/><path class="cls-16" d="M53.28,101.79s.82,4.39,9,5,6.51-3.42,14,1c0,0,3.58,1.47,5.37-.65,0,0-1.46.49-3.42-2.44s-3.58-4.4-14.16-.65C64,104.07,57.84,105.86,53.28,101.79Z"/><path class="cls-16" d="M53.61,98.69s3.91,5.21,11.56,3.26C65.17,102,58.33,97.23,53.61,98.69Z"/><path class="cls-16" d="M55.89,95.93s1.3,2.28,6.51,1.3C62.4,97.23,57.52,94.14,55.89,95.93Z"/><path class="cls-16" d="M57.68,89.41s-.81,4.24,1.3,5,6.84-3.26,10.26-.81c0,0,1-3.26-2.28-6.35s.33-6.68.33-6.68-5.38.82-5.38,6.35C61.91,89.74,58.82,94.14,57.68,89.41Z"/><path class="cls-16" d="M61.42,78.67s0-3.91,3.75-3.91,5.37-4.89,6.19-6.68c0,0,2.6,6.84-5,11.24C66.31,79.32,65.17,75.09,61.42,78.67Z"/><path class="cls-16" d="M68.91,55.87s3.1,11.89-2.6,12.7-3.26-.49-6.68,1.79-4.72-2.6-9.6-1c0,0,2.11-2.77,8.3-2,0,0,2.93-4.56,6.51-4.56S68.91,55.87,68.91,55.87Z"/><path class="cls-16" d="M50.35,68.08S53.61,65.32,57,65c0,0-.49-4.23,2.28-5.37,0,0-3.75-14.49-10.1-.33,0,0,4.07-5,5.38-.65S51.17,60.76,50.35,68.08Z"/><path class="cls-16" d="M46.77,69.71s2.12-6.67,3.91-7.65S43.68,63,46.77,69.71Z"/><path class="cls-16" d="M88.61,71.18S78,67.76,77.38,75.9,93.17,106.84,79.5,113c0,0,0,3.42,4.88,5.54,0,0-4.56-9.12,10.1-9.77,0,0-14.82-23.77-9.61-30s11.07-2.28,11.07-2.28S91.71,72.32,88.61,71.18Z"/><path class="cls-16" d="M109.94,71.67S99.69,70.36,99.2,76.88s14,30.44,3.09,39.56c0,0,1.47,10.26,13.19,12.05,0,0-10.55-9.52-3.58-11.89C128.18,111.07,93.66,76.39,109.94,71.67Z"/><path class="cls-16" d="M102.62,123.77s-10.1-9.45-14.17-5.21,9.28,7,3.58,12.86,1.63,7.82,1.63,7.82-3.09-4.24.65-6.35,4.24-5.54,2-10.42Z"/><path class="cls-16" d="M73.8,73.13s-1.71-17.58,7.33-14.41c0,0,4.15,3.18,5.61,7.08,0,0-5.37-3.9-8.06-1.22S80.15,67.51,73.8,73.13Z"/><path class="cls-16" d="M88,57s-8.06-6.35-7.81-9.28c0,0-3.91,6.11,0,8.31A10.73,10.73,0,0,0,88,57Z"/><path class="cls-16" d="M68.43,49.69s-7.58,0-4.89-9.53c0,0-7.81,4.15-5.13,8.55S68.43,49.69,68.43,49.69Z"/><path class="cls-16" d="M115.81,96.09s10.5,3.91,8.3,16.85c-1.52,8.94,4.64,7.57.49,17.34a7.72,7.72,0,0,0-2-6.84c-2.93-3.17-4.39-6.59-2.44-13.67S115.81,96.09,115.81,96.09Z"/><path class="cls-16" d="M120.2,124.18s5.13,6.1,2.2,10.74C122.4,134.92,117.52,131.75,120.2,124.18Z"/><path class="cls-16" d="M50.68,47.73s-13.6,15.06-8.67,23c0,0-6.47-3.62-4.19-9.81S50.68,47.73,50.68,47.73Z"/><path class="cls-16" d="M54.91,46.43s-.14,5.3-7,8.63C47.91,55.06,47.49,49.51,54.91,46.43Z"/><path class="cls-16" d="M60.28,41.38s-4.39,4.07-6.83,3.75-.66-6.35-9.94-1.14c0,0,7-6.19,9.94-4.56S54.75,42.2,60.28,41.38Z"/><path class="cls-16" d="M59,35.52s5.37,3.91,13.68-.16c0,0-3.26,7.81,1.79,10.91,0,0-2.12-2.45,1-5.87s3.25-13-.65-11.07S69.56,37,59,35.52Z"/><path class="cls-16" d="M59.31,32.75a22.78,22.78,0,0,1,9.93-1.46L67,29.5s5.37-4.24,14.33-1.8C81.29,27.7,75.43,16.8,59.31,32.75Z"/><path class="cls-16" d="M79.33,29.33s-1.62,8.31,5.54,9.28,7.65,5.86,15.47-1.14c0,0-5.21,2-7.49,1s-1-4.88-6.35-4.07S79.33,29.33,79.33,29.33Z"/><path class="cls-16" d="M91.71,31.45s-8.31,3.74-11.07-1.63C80.64,29.82,81.29,27.22,91.71,31.45Z"/><path class="cls-16" d="M81.61,39.92s2.2,21.49,25.65,23.2A28.36,28.36,0,0,1,91.87,51.88C85.77,42.85,81.61,39.92,81.61,39.92Z"/><path class="cls-16" d="M64.27,119.78s15.88,3.42,13.92,15.14Z"/><path class="cls-16" d="M70.38,120.27s2.44,3.91,9.77.49C80.15,120.76,74.29,118.31,70.38,120.27Z"/><path class="cls-16" d="M143.4,29.66s20,2.44,23.21,13.43,4.39,23.2,24.17,25.65c0,0-9.76-2.45-9.52-6.84S184,32.1,143.4,29.66Z"/><path class="cls-16" d="M148,34.54s11.24,1,17.34,20.52C165.38,55.06,147.07,46.27,148,34.54Z"/><path class="cls-16" d="M175.15,70.44s3.91,5.38.25,9.77-12.7,16.86-9.28,26.38S171,133,157.81,140.05c0,0,6.11-8.06,3.18-20.27s-2.58-27,8.06-37.61C174.91,76.31,175.15,70.44,175.15,70.44Z"/><path class="cls-16" d="M157.81,87.3s-4.39,11.72-1.46,20,1.46,21,1.46,21S156.59,110,151.22,101s-19.29-17.09-20.76-45.42c0,0,7.33,25.15,19,28.82,0,0,6.84-1.47,4.88-16.12C154.39,68.25,162.94,76.55,157.81,87.3Z"/><path class="cls-16" d="M148.78,69.22s2.93,8.31-1.22,9.77C147.56,79,144.14,75.57,148.78,69.22Z"/><path class="cls-16" d="M128,69s-6.6,5.37-3.42,12,13.92,19.54,9.28,31.26c0,0,10-3.18,5.13-16.85S121.91,79.73,128,69Z"/><path class="cls-16" d="M109.21,24.29S82.1,29.41,86.74,24s3.91-.49,7.33-.49S105.55,20.62,109.21,24.29Z"/><path class="cls-7" d="M30.16,66.29s-6-9.28,6-20c0,0-4.89,6.18-4.4,12,0,0-1.14-7.81,8.3-13C40.09,45.29,35.54,62.06,30.16,66.29Z"/><path class="cls-16" d="M40.75,73s-7-3.75-6.52-11.07c0,0-3.42,7.81,2.12,11.23a3.66,3.66,0,0,1-3.75-.81S35.21,77.2,40.75,73Z"/></g><g id="aws"><path class="cls-18" d="M287,79.88a25.23,25.23,0,0,0,.91,7.4,45.53,45.53,0,0,0,2.66,6,3.6,3.6,0,0,1,.59,1.91,3.28,3.28,0,0,1-1.59,2.5l-5.23,3.49a4,4,0,0,1-2.17.75,3.85,3.85,0,0,1-2.49-1.16,26.12,26.12,0,0,1-3-3.91c-.83-1.42-1.66-3-2.57-4.91q-9.74,11.48-24.46,11.48c-7,0-12.55-2-16.63-6s-6.15-9.32-6.15-16c0-7.07,2.49-12.81,7.56-17.13s11.81-6.49,20.38-6.49a65.26,65.26,0,0,1,8.82.67c3.07.41,6.23,1.08,9.56,1.83V54.26c0-6.32-1.33-10.72-3.91-13.3s-7.15-3.83-13.55-3.83a37.79,37.79,0,0,0-9,1.08,67.37,67.37,0,0,0-9,2.83,23.19,23.19,0,0,1-2.91,1.08,5,5,0,0,1-1.33.25c-1.17,0-1.75-.83-1.75-2.58V35.72a5.31,5.31,0,0,1,.58-2.91,6.2,6.2,0,0,1,2.33-1.75,47.92,47.92,0,0,1,10.48-3.74,50.51,50.51,0,0,1,13-1.58c9.89,0,17.13,2.24,21.79,6.73s6.9,11.32,6.9,20.46V79.88ZM253.18,92.52A27.23,27.23,0,0,0,261.75,91a18.57,18.57,0,0,0,7.9-5.33,13.19,13.19,0,0,0,2.83-5.32,30.37,30.37,0,0,0,.83-7.24V69.65a69.74,69.74,0,0,0-7.65-1.41,61.42,61.42,0,0,0-7.82-.5c-5.57,0-9.65,1.08-12.39,3.32s-4.08,5.41-4.08,9.57c0,3.91,1,6.82,3.08,8.82S249.35,92.52,253.18,92.52Zm66.78,9a4.62,4.62,0,0,1-3.16-.83,6.82,6.82,0,0,1-1.74-3.24L295.51,33.14a14.44,14.44,0,0,1-.75-3.33,1.83,1.83,0,0,1,2-2.08h8.15c1.58,0,2.66.25,3.24.84a6.71,6.71,0,0,1,1.67,3.24l14,55.06,13-55.06c.42-1.66.92-2.75,1.59-3.24a5.67,5.67,0,0,1,3.32-.84h6.66a4.93,4.93,0,0,1,3.32.84,5.52,5.52,0,0,1,1.58,3.24l13.14,55.72,14.39-55.72a7.12,7.12,0,0,1,1.66-3.24,5.44,5.44,0,0,1,3.25-.84h7.73a1.85,1.85,0,0,1,2.08,2.08,8.55,8.55,0,0,1-.16,1.33,11.83,11.83,0,0,1-.59,2.08l-20,64.29a6.35,6.35,0,0,1-1.75,3.25,5.29,5.29,0,0,1-3.16.83h-7.15a5,5,0,0,1-3.33-.83,6,6,0,0,1-1.58-3.33L344.83,43.79,332,97.35a6.39,6.39,0,0,1-1.58,3.32,5.09,5.09,0,0,1-3.32.83Zm106.88,2.25a54.93,54.93,0,0,1-12.81-1.5,38,38,0,0,1-9.57-3.32,6,6,0,0,1-2.57-2.33,5.75,5.75,0,0,1-.5-2.33V90c0-1.75.66-2.58,1.91-2.58a4.63,4.63,0,0,1,1.5.25c.5.17,1.24.5,2.08.83A44.49,44.49,0,0,0,416,91.44a49.53,49.53,0,0,0,9.89,1c5.24,0,9.32-.92,12.14-2.75a8.94,8.94,0,0,0,4.33-7.9A8.08,8.08,0,0,0,440.14,76c-1.49-1.58-4.32-3-8.4-4.32L419.68,67.9c-6.07-1.91-10.56-4.74-13.3-8.48a19.77,19.77,0,0,1-4.16-12.06,18.58,18.58,0,0,1,2.24-9.23,21.51,21.51,0,0,1,6-6.82A26.41,26.41,0,0,1,419.1,27a36.2,36.2,0,0,1,10.48-1.42,41.63,41.63,0,0,1,5.57.33c1.92.25,3.66.59,5.41.92s3.24.83,4.74,1.33a18,18,0,0,1,3.49,1.5,7.1,7.1,0,0,1,2.5,2.08,4.46,4.46,0,0,1,.75,2.74v3.91c0,1.75-.67,2.66-1.92,2.66A8.63,8.63,0,0,1,447,40a38.06,38.06,0,0,0-16-3.24c-4.75,0-8.49.75-11.07,2.33a8,8,0,0,0-3.9,7.4,7.85,7.85,0,0,0,2.49,5.9c1.66,1.59,4.74,3.17,9.15,4.58l11.81,3.74c6,1.91,10.31,4.58,12.89,8a18.81,18.81,0,0,1,3.83,11.64A21.31,21.31,0,0,1,454,90,22.28,22.28,0,0,1,448,97.35a26.74,26.74,0,0,1-9.23,4.65A39.35,39.35,0,0,1,426.84,103.75Z"/><path class="cls-19" d="M442.56,144.17c-27.37,20.21-67.12,30.94-101.3,30.94-47.91,0-91.07-17.72-123.68-47.16-2.57-2.33-.25-5.49,2.83-3.66,35.27,20.46,78.76,32.85,123.76,32.85a247,247,0,0,0,94.39-19.29C443.14,135.77,447.05,140.84,442.56,144.17Zm11.39-13c-3.49-4.5-23.12-2.17-32-1.09-2.66.34-3.08-2-.67-3.74,15.64-11,41.34-7.82,44.33-4.16s-.83,29.45-15.47,41.75c-2.24,1.92-4.4.92-3.41-1.58C450,154.15,457.44,135.6,454,131.2Z"/></g></g></g></svg>