<svg width="691" height="507" viewBox="0 0 691 507" fill="none" xmlns="http://www.w3.org/2000/svg">
<g clip-path="url(#clip0)">
<g opacity="0.88">
<g opacity="0.64">
<path opacity="0.64" d="M219.181 426.776L200.572 437.498L163.355 416.047V377.382L169.638 381.006V412.423L200.572 430.251L227.827 414.542L234.111 418.166L219.181 426.776Z" fill="url(#paint0_linear)"/>
<path opacity="0.64" d="M219.181 362.422L237.79 373.144L237.783 394.595L237.79 411.816L231.5 408.192L231.507 376.768L200.572 358.94L173.31 374.649L167.027 371.032L200.572 351.7L219.181 362.422Z" fill="url(#paint1_linear)"/>
</g>
<path opacity="0.88" d="M137.826 427.058L119.217 437.78L82 416.336V377.672L88.2831 381.288V412.713L119.217 430.54L146.48 414.832L152.763 418.448L137.826 427.058Z" fill="url(#paint2_linear)"/>
<path opacity="0.88" d="M137.826 362.712L156.435 373.434V394.885V412.098L150.152 408.475V377.057L119.217 359.23L91.9553 374.938L85.6722 371.315L119.217 351.983L137.826 362.712Z" fill="url(#paint3_linear)"/>
<path opacity="0.88" d="M300.465 423.35L281.857 434.072L244.639 412.621V373.957L250.922 377.58V408.997L281.857 426.825L309.119 411.116L315.402 414.74L300.465 423.35Z" fill="url(#paint4_linear)"/>
<path opacity="0.88" d="M285.529 373.342V366.102L305.439 377.58L305.446 404.767L285.529 416.244V408.997L299.156 401.143V381.204L285.529 373.342Z" fill="url(#paint5_linear)"/>
<path opacity="0.88" d="M278.184 373.342L264.55 381.204V401.143L278.184 408.997V416.244L258.274 404.767V377.58L278.184 366.102V373.342Z" fill="url(#paint6_linear)"/>
<path opacity="0.88" d="M300.465 358.997L319.074 369.726V391.17V408.39L312.791 404.767V373.342L281.856 355.514L254.594 371.223L248.311 367.607L281.856 348.275L300.465 358.997Z" fill="url(#paint7_linear)"/>
<path opacity="0.88" d="M279.663 389.651L279.656 382.03L273.338 385.675V392.957L279.663 389.651Z" fill="#9F21FA"/>
<path opacity="0.88" d="M282.274 400.613L288.592 396.969L282.288 393.67L275.956 396.969L282.274 400.613Z" fill="#9F21FA"/>
<path opacity="0.88" d="M284.128 389.538L284.142 381.917L290.46 385.562V392.844L284.128 389.538Z" fill="#9F21FA"/>
<path opacity="0.88" d="M380.419 421.231L361.81 431.953L324.593 410.502V371.838L330.876 375.461V406.878L361.81 424.706L389.073 408.997L395.356 412.621L380.419 421.231Z" fill="url(#paint8_linear)"/>
<path opacity="0.88" d="M365.483 371.223V363.983L385.393 375.461L385.4 402.648L365.483 414.125V406.878L379.11 399.024V379.085L365.483 371.223Z" fill="url(#paint9_linear)"/>
<path opacity="0.88" d="M358.138 371.223L344.504 379.085V399.024L358.138 406.878V414.125L338.228 402.648V375.461L358.138 363.983V371.223Z" fill="url(#paint10_linear)"/>
<path opacity="0.88" d="M380.419 356.878L399.028 367.607V389.051V406.271L392.745 402.648V371.223L361.81 353.396L334.548 369.104L328.265 365.488L361.81 346.156L380.419 356.878Z" fill="url(#paint11_linear)"/>
<path opacity="0.88" d="M359.617 387.532L359.61 379.911L353.291 383.556V390.838L359.617 387.532Z" fill="#9F21FA"/>
<path opacity="0.88" d="M362.228 398.494L368.546 394.85L362.242 391.551L355.909 394.85L362.228 398.494Z" fill="#9F21FA"/>
<path opacity="0.88" d="M364.082 387.419L364.096 379.798L370.414 383.443V390.725L364.082 387.419Z" fill="#9F21FA"/>
<path opacity="0.88" d="M342.211 491.863L323.602 502.586L286.385 481.134V442.47L292.668 446.094V477.511L323.602 495.339L350.865 479.63L357.148 483.253L342.211 491.863Z" fill="url(#paint12_linear)"/>
<path opacity="0.88" d="M327.275 441.856V434.616L347.185 446.094L347.192 473.28L327.275 484.758V477.511L340.902 469.657V449.717L327.275 441.856Z" fill="url(#paint13_linear)"/>
<path opacity="0.88" d="M319.93 441.856L306.296 449.717V469.657L319.93 477.511V484.758L300.02 473.28V446.094L319.93 434.616V441.856Z" fill="url(#paint14_linear)"/>
<path opacity="0.88" d="M342.211 427.51L360.82 438.239V459.683V476.903L354.537 473.28V441.856L323.602 424.028L296.34 439.737L290.057 436.12L323.602 416.788L342.211 427.51Z" fill="url(#paint15_linear)"/>
<path opacity="0.88" d="M321.409 458.165L321.402 450.543L315.083 454.188V461.47L321.409 458.165Z" fill="#9F21FA"/>
<path opacity="0.88" d="M324.02 469.127L330.338 465.482L324.034 462.184L317.701 465.482L324.02 469.127Z" fill="#9F21FA"/>
<path opacity="0.88" d="M325.874 458.052L325.888 450.43L332.206 454.075V461.357L325.874 458.052Z" fill="#9F21FA"/>
<path opacity="0.88" d="M122.727 397.117L122.755 416.661L138.958 407.323V388.641L122.727 397.117Z" fill="url(#paint16_linear)"/>
<path opacity="0.88" d="M118.517 372.982L102.314 382.32L118.496 390.788L134.72 382.32L118.517 372.982Z" fill="url(#paint17_linear)"/>
<path opacity="0.88" d="M115.135 397.407L115.107 416.951L98.9035 407.613V388.938L115.135 397.407Z" fill="url(#paint18_linear)"/>
<path opacity="0.88" d="M260.941 496.278L242.332 507L205.115 485.556V446.892L211.398 450.508V481.933L242.332 499.76L269.595 484.052L275.878 487.668L260.941 496.278Z" fill="url(#paint19_linear)"/>
<path opacity="0.88" d="M260.941 431.932L279.55 442.654V464.105V481.318L273.267 477.695V446.277L242.332 428.45L215.07 444.158L208.787 440.535L242.332 421.203L260.941 431.932Z" fill="url(#paint20_linear)"/>
<path opacity="0.88" d="M245.842 466.337L245.87 485.881L262.073 476.543V457.861L245.842 466.337Z" fill="url(#paint21_linear)"/>
<path opacity="0.88" d="M241.632 442.202L225.429 451.539L241.611 460.008L257.835 451.539L241.632 442.202Z" fill="url(#paint22_linear)"/>
<path opacity="0.88" d="M238.25 466.626L238.221 486.17L222.018 476.833V458.158L238.25 466.626Z" fill="url(#paint23_linear)"/>
<path opacity="0.88" d="M186.796 375.843L178.688 380.201L187.525 384.827L196.384 380.201L186.796 375.843Z" fill="url(#paint24_linear)"/>
<path opacity="0.88" d="M202.483 408.489L202.497 419.161L211.348 414.062V403.862L202.483 408.489Z" fill="url(#paint25_linear)"/>
<path opacity="0.88" d="M214.844 402.054L214.858 412.727L223.702 407.627V397.428L214.844 402.054Z" fill="#4714F6"/>
<path opacity="0.88" d="M198.995 408.136L198.98 418.808L190.136 413.709V403.509L198.995 408.136Z" fill="url(#paint26_linear)"/>
<path opacity="0.88" d="M200.311 395.281L191.466 400.38L200.296 405L209.162 400.38L200.311 395.281Z" fill="#4714F6"/>
<path opacity="0.88" d="M189.591 387.038L189.605 397.71L198.457 392.611V382.411L189.591 387.038Z" fill="#4A84FA"/>
<path opacity="0.88" d="M186.167 387.221L186.152 397.894L177.308 392.794V382.595L186.167 387.221Z" fill="#4A84FA"/>
<path opacity="0.88" d="M186.167 401.164L186.152 411.837L177.308 406.737V396.538L186.167 401.164Z" fill="#4714F6"/>
<path opacity="0.88" d="M214.844 387.575L214.858 398.247L223.702 393.147V382.948L214.844 387.575Z" fill="#4A84FA"/>
<path opacity="0.88" d="M211.285 387.221L211.271 397.894L202.426 392.794V382.595L211.285 387.221Z" fill="#4A84FA"/>
<path opacity="0.88" d="M213.273 375.843L204.421 380.201L213.259 384.827L222.117 380.201L213.273 375.843Z" fill="url(#paint27_linear)"/>
<path opacity="0.88" d="M199.426 368.567L190.582 373.667L199.419 378.293L208.278 373.667L199.426 368.567Z" fill="#4714F6"/>
</g>
<g opacity="0.88">
<g opacity="0.64">
<path opacity="0.64" d="M425.498 352.449L444.871 341.282L483.616 363.616V403.869L477.079 400.098V367.381L444.871 348.826L416.49 365.177L409.953 361.412L425.498 352.449Z" fill="url(#paint28_linear)"/>
<path opacity="0.64" d="M441.05 404.505V412.049L420.318 400.098V371.795L441.05 359.844V367.381L426.856 375.56V396.326L441.05 404.505Z" fill="url(#paint29_linear)"/>
<path opacity="0.64" d="M448.698 404.505L462.885 396.326V375.56L448.698 367.381V359.844L469.43 371.795V400.098L448.698 412.049V404.505Z" fill="url(#paint30_linear)"/>
<path opacity="0.64" d="M425.498 419.444L406.125 408.277V385.943V368.023L412.67 371.795V404.505L444.871 423.067L473.251 406.709L479.796 410.481L444.871 430.611L425.498 419.444Z" fill="url(#paint31_linear)"/>
</g>
<path opacity="0.88" d="M447.085 386.967L447.099 400.755L458.526 394.165V380.992L447.085 386.967Z" fill="url(#paint32_linear)"/>
<path opacity="0.88" d="M444.538 370.418L433.111 377.001L444.524 382.976L455.965 377.001L444.538 370.418Z" fill="url(#paint33_linear)"/>
<path opacity="0.88" d="M442.578 387.172L442.564 400.959L431.137 394.369V381.204L442.578 387.172Z" fill="url(#paint34_linear)"/>
</g>
<g opacity="0.88">
<g opacity="0.64">
<path opacity="0.64" d="M217.766 77.9288L199.157 67.2068L161.94 88.6579V127.322L168.223 123.699V92.2813L199.157 74.4466L226.412 90.1624L232.695 86.5389L217.766 77.9288Z" fill="url(#paint35_linear)"/>
<path opacity="0.64" d="M217.766 142.282L236.375 131.553L236.368 110.109L236.375 92.8888L230.085 96.5122L230.092 127.937L199.157 145.764L171.895 130.056L165.612 133.672L199.157 153.004L217.766 142.282Z" fill="url(#paint36_linear)"/>
</g>
<path opacity="0.88" d="M506.753 19.099L488.145 8.36995L450.927 29.821V68.4853L457.21 64.8618L457.217 33.4445L488.145 15.6168L515.407 31.3255L521.69 27.7021L506.753 19.099Z" fill="url(#paint37_linear)"/>
<path opacity="0.88" d="M491.817 69.0998V76.3396L511.735 64.8618V37.6754L491.824 26.2047V33.4445L505.452 41.2988V61.2454L491.817 69.0998Z" fill="url(#paint38_linear)"/>
<path opacity="0.88" d="M484.473 69.0998L470.845 61.2454V41.2988L484.473 33.4445V26.2047L464.562 37.6754V64.8689L484.473 76.3396V69.0998Z" fill="url(#paint39_linear)"/>
<path opacity="0.88" d="M506.753 83.4452L525.362 72.7232V51.2721V34.059L519.079 37.6754V69.0998L488.145 86.9274L460.89 71.2187L454.607 74.8422L488.145 94.1743L506.753 83.4452Z" fill="url(#paint40_linear)"/>
<path opacity="0.88" d="M631.708 94.2025L613.099 83.4805L575.882 104.925V143.596L582.165 139.972V108.548L613.099 90.7204L640.361 106.429L646.645 102.813L631.708 94.2025Z" fill="url(#paint41_linear)"/>
<path opacity="0.88" d="M631.708 158.549L650.317 147.827V126.376V109.163L644.034 112.786V144.203L613.099 162.031L585.837 146.322L579.554 149.946L613.099 169.278L631.708 158.549Z" fill="url(#paint42_linear)"/>
<g opacity="0.64">
<path opacity="0.64" d="M672.329 164.913L653.72 154.191L616.503 175.635V214.306L622.786 210.683V179.258L653.72 161.431L680.982 177.139L687.265 173.523L672.329 164.913Z" fill="url(#paint43_linear)"/>
<path opacity="0.64" d="M657.399 214.913L657.392 222.16L677.31 210.683V183.496L657.399 172.018V179.258L671.027 187.113V207.059L657.399 214.913Z" fill="url(#paint44_linear)"/>
<path opacity="0.64" d="M650.048 214.913L636.42 207.059V187.113L650.048 179.258V172.018L630.137 183.496V210.683L650.048 222.16V214.913Z" fill="url(#paint45_linear)"/>
<path opacity="0.64" d="M672.329 229.259L690.938 218.537V197.086V179.873L684.654 183.496V214.913L653.72 232.741L626.465 217.032L620.182 220.656L653.72 239.988L672.329 229.259Z" fill="url(#paint46_linear)"/>
</g>
<path opacity="0.88" d="M590.677 165.146L572.068 154.424L534.85 175.875V214.539L541.134 210.916V179.491L572.068 161.664L599.33 177.379L605.606 173.756L590.677 165.146Z" fill="url(#paint47_linear)"/>
<path opacity="0.88" d="M590.677 229.499L609.286 218.77V197.326V180.106L603.002 183.729V215.154L572.068 232.981L544.806 217.266L538.523 220.889L572.068 240.221L590.677 229.499Z" fill="url(#paint48_linear)"/>
<g opacity="0.64">
<path opacity="0.64" d="M422.682 14.3101L404.073 3.58813L366.862 25.0322V63.7034L373.146 60.08V28.6556L404.073 10.828L431.335 26.5366L437.618 22.9202L422.682 14.3101Z" fill="url(#paint49_linear)"/>
<path opacity="0.64" d="M407.752 64.3109L407.745 71.5578L427.663 60.08V32.8936L407.752 21.4158V28.6556L421.38 36.5099V56.4566L407.752 64.3109Z" fill="url(#paint50_linear)"/>
<path opacity="0.64" d="M400.401 64.3179L386.773 56.4566V36.5099L400.401 28.6556V21.4158L380.49 32.8936V60.08L400.401 71.5578V64.3179Z" fill="url(#paint51_linear)"/>
<path opacity="0.64" d="M404.073 89.3854L422.682 78.6563L441.29 67.9343V46.4832V29.2701L435.007 32.8936V64.3109L404.073 82.1385L376.818 66.4299L370.535 70.0533" fill="url(#paint52_linear)"/>
</g>
<path opacity="0.88" d="M299.05 81.3545L280.441 70.6325L243.224 92.0836V130.748L249.507 127.124V95.707L280.441 77.8723L307.704 93.5881L313.987 89.9646L299.05 81.3545Z" fill="url(#paint53_linear)"/>
<path opacity="0.88" d="M284.114 131.362V138.602L304.024 127.124L304.031 99.9379L284.114 88.4601V95.7L297.741 103.561V123.501L284.114 131.362Z" fill="url(#paint54_linear)"/>
<path opacity="0.88" d="M276.769 131.362L263.135 123.501V103.561L276.769 95.7V88.4601L256.858 99.9379V127.124L276.769 138.602V131.362Z" fill="url(#paint55_linear)"/>
<path opacity="0.88" d="M299.05 145.708L317.659 134.979V113.535V96.3145L311.376 99.9379V131.362L280.441 149.19L253.179 133.474L246.896 137.098L280.441 156.43L299.05 145.708Z" fill="url(#paint56_linear)"/>
<path opacity="0.88" d="M278.248 115.053L278.241 122.675L271.922 119.03V111.748L278.248 115.053Z" fill="#9F21FA"/>
<path opacity="0.88" d="M280.859 104.091L287.177 107.729L280.873 111.034L274.54 107.729L280.859 104.091Z" fill="#9F21FA"/>
<path opacity="0.88" d="M282.713 115.166L282.727 122.788L289.045 119.143V111.861L282.713 115.166Z" fill="#9F21FA"/>
<path opacity="0.88" d="M379.004 83.4735L360.395 72.7515L323.178 94.2026V132.867L329.461 129.243V97.826L360.395 79.9913L387.657 95.707L393.941 92.0836L379.004 83.4735Z" fill="url(#paint57_linear)"/>
<path opacity="0.88" d="M364.068 133.481V140.721L383.978 129.243L383.985 102.057L364.068 90.5791V97.8189L377.695 105.68V125.62L364.068 133.481Z" fill="url(#paint58_linear)"/>
<path opacity="0.88" d="M356.723 133.481L343.088 125.62V105.68L356.723 97.8189V90.5791L336.812 102.057V129.243L356.723 140.721V133.481Z" fill="url(#paint59_linear)"/>
<path opacity="0.88" d="M379.004 147.827L397.613 137.098V115.654V98.4334L391.33 102.057V133.481L360.395 151.309L333.133 135.593L326.85 139.217L360.395 158.549L379.004 147.827Z" fill="url(#paint60_linear)"/>
<path opacity="0.88" d="M358.202 117.172L358.195 124.793L351.876 121.149V113.867L358.202 117.172Z" fill="#9F21FA"/>
<path opacity="0.88" d="M360.813 106.21L367.131 109.848L360.827 113.153L354.494 109.848L360.813 106.21Z" fill="#9F21FA"/>
<path opacity="0.88" d="M362.667 117.285L362.681 124.906L368.999 121.262V113.98L362.667 117.285Z" fill="#9F21FA"/>
<path opacity="0.88" d="M340.796 12.841L322.187 2.11897L284.97 23.5701V62.2343L291.253 58.6108V27.1864L322.187 9.3588L349.449 25.0745L355.733 21.4511L340.796 12.841Z" fill="url(#paint61_linear)"/>
<path opacity="0.88" d="M325.859 62.8488V70.0886L345.77 58.6108L345.777 31.4244L325.859 19.9466V27.1864L339.487 35.0478V54.9874L325.859 62.8488Z" fill="url(#paint62_linear)"/>
<path opacity="0.88" d="M318.515 62.8488L304.88 54.9874V35.0478L318.515 27.1864V19.9466L298.604 31.4244V58.6108L318.515 70.0886V62.8488Z" fill="url(#paint63_linear)"/>
<path opacity="0.88" d="M340.796 77.1943L359.405 66.4652V45.0212V27.8009L353.122 31.4244V62.8488L322.187 80.6764L294.925 64.9607L288.642 68.5842L322.187 87.9163L340.796 77.1943Z" fill="url(#paint64_linear)"/>
<path opacity="0.88" d="M319.994 46.5397L319.987 54.161L313.668 50.5164V43.2341L319.994 46.5397Z" fill="#9F21FA"/>
<path opacity="0.88" d="M322.605 35.5776L328.923 39.2152L322.619 42.5208L316.286 39.2152L322.605 35.5776Z" fill="#9F21FA"/>
<path opacity="0.88" d="M324.458 46.6528L324.473 54.274L330.791 50.6294V43.3472L324.458 46.6528Z" fill="#9F21FA"/>
<path opacity="0.88" d="M486.256 52.6071L486.248 60.2283L479.93 56.5837V49.3015L486.256 52.6071Z" fill="#6286F9"/>
<path opacity="0.88" d="M488.866 41.6449L495.185 45.2896L488.881 48.5881L482.548 45.2896L488.866 41.6449Z" fill="#6286F9"/>
<path opacity="0.88" d="M490.72 52.7201L490.734 60.3413L497.053 56.6967V49.4145L490.72 52.7201Z" fill="#6286F9"/>
<path opacity="0.88" d="M421.847 427.355L403.238 416.626L366.02 438.077V476.741L372.304 473.125L372.311 441.7L403.238 423.873L430.5 439.581L436.783 435.958L421.847 427.355Z" fill="url(#paint65_linear)"/>
<path opacity="0.88" d="M406.91 477.356V484.602L426.828 473.125V445.931L406.917 434.46V441.7L420.545 449.555V469.501L406.91 477.356Z" fill="url(#paint66_linear)"/>
<path opacity="0.88" d="M399.566 477.356L385.938 469.501V449.555L399.566 441.7V434.46L379.655 445.931V473.125L399.566 484.602V477.356Z" fill="url(#paint67_linear)"/>
<path opacity="0.88" d="M421.847 491.701L440.455 480.979V459.528V442.315L434.172 445.931V477.356L403.238 495.183L375.983 479.475L369.7 483.098L403.238 502.43L421.847 491.701Z" fill="url(#paint68_linear)"/>
<path opacity="0.88" d="M401.349 460.863L401.342 468.484L395.023 464.839V457.557L401.349 460.863Z" fill="#6286F9"/>
<path opacity="0.88" d="M403.96 449.901L410.278 453.545L403.974 456.844L397.641 453.545L403.96 449.901Z" fill="#6286F9"/>
<path opacity="0.88" d="M405.813 460.976L405.828 468.597L412.146 464.953V457.67L405.813 460.976Z" fill="#6286F9"/>
<path opacity="0.88" d="M401.745 47.3379L401.724 60.5744L390.749 54.2458V41.5955L401.745 47.3379Z" fill="#6286F9"/>
<path opacity="0.88" d="M404.186 31.4385L415.16 37.7601L404.2 43.5025L393.212 37.7601L404.186 31.4385Z" fill="#6286F9"/>
<path opacity="0.88" d="M406.068 47.5357L406.082 60.7722L417.056 54.4435V41.7932L406.068 47.5357Z" fill="#6286F9"/>
<path opacity="0.88" d="M651.597 198.075L651.583 211.311L640.609 204.983V192.332L651.597 198.075Z" fill="url(#paint69_linear)"/>
<path opacity="0.88" d="M654.046 182.175L665.02 188.497L654.06 194.239L643.064 188.497L654.046 182.175Z" fill="url(#paint70_linear)"/>
<path opacity="0.88" d="M655.928 198.265L655.942 211.509L666.916 205.18V192.53L655.928 198.265Z" fill="url(#paint71_linear)"/>
<path opacity="0.88" d="M502.218 430.102L483.609 419.38L446.392 440.824V479.489L452.675 475.872V444.448L483.609 426.62L510.871 442.329L517.155 438.705L502.218 430.102Z" fill="url(#paint72_linear)"/>
<path opacity="0.88" d="M502.218 494.449L520.827 483.727V462.276V445.062L514.544 448.679V480.103L483.609 497.931L456.347 482.222L450.064 485.846L483.609 505.178L502.218 494.449Z" fill="url(#paint73_linear)"/>
<path opacity="0.88" d="M487.119 460.044L487.147 440.5L503.35 449.837V468.519L487.119 460.044Z" fill="url(#paint74_linear)"/>
<path opacity="0.88" d="M482.909 484.179L466.706 474.841L482.888 466.372L499.112 474.841L482.909 484.179Z" fill="url(#paint75_linear)"/>
<path opacity="0.88" d="M479.527 459.754L479.498 440.21L463.295 449.548V468.223L479.527 459.754Z" fill="url(#paint76_linear)"/>
<g opacity="0.73">
<path opacity="0.73" d="M568.587 198.301L568.566 217.845L552.363 208.5V189.825L568.587 198.301Z" fill="#6286F9"/>
<path opacity="0.73" d="M572.797 174.159L589 183.496L572.818 191.972L556.594 183.496L572.797 174.159Z" fill="url(#paint77_linear)"/>
<path opacity="0.73" d="M576.179 198.59L576.207 218.134L592.41 208.797V190.114L576.179 198.59Z" fill="#6286F9"/>
</g>
<path opacity="0.88" d="M185.381 128.862L177.273 124.504L186.11 119.877L194.969 124.504L185.381 128.862Z" fill="url(#paint78_linear)"/>
<path opacity="0.88" d="M201.068 96.2156L201.082 85.543L209.933 90.6427V100.842L201.068 96.2156Z" fill="url(#paint79_linear)"/>
<path opacity="0.88" d="M213.429 102.65L213.443 91.9776L222.287 97.0773V107.277L213.429 102.65Z" fill="#4714F6"/>
<path opacity="0.88" d="M197.579 96.5687L197.565 85.8962L188.721 90.9958V101.195L197.579 96.5687Z" fill="url(#paint80_linear)"/>
<path opacity="0.88" d="M198.895 109.424L190.051 104.324L198.881 99.6978L207.747 104.324L198.895 109.424Z" fill="#4714F6"/>
<path opacity="0.88" d="M188.176 117.667L188.19 106.994L197.042 112.094V122.293L188.176 117.667Z" fill="#4A84FA"/>
<path opacity="0.88" d="M184.751 117.483L184.737 106.81L175.893 111.91V122.109L184.751 117.483Z" fill="#4A84FA"/>
<path opacity="0.88" d="M184.751 103.54L184.737 92.8676L175.893 97.9673V108.167L184.751 103.54Z" fill="#4714F6"/>
<path opacity="0.88" d="M213.429 117.13L213.443 106.457L222.287 111.557V121.756L213.429 117.13Z" fill="#4A84FA"/>
<path opacity="0.88" d="M209.87 117.483L209.856 106.81L201.011 111.91V122.109L209.87 117.483Z" fill="#4A84FA"/>
<path opacity="0.88" d="M211.858 128.862L203.006 124.504L211.844 119.877L220.702 124.504L211.858 128.862Z" fill="url(#paint81_linear)"/>
<path opacity="0.88" d="M198.011 136.137L189.167 131.037L198.004 126.411L206.863 131.037L198.011 136.137Z" fill="#4714F6"/>
<path opacity="0.88" d="M626.656 107.955L634.758 112.313L625.92 116.939L617.062 112.313L626.656 107.955Z" fill="url(#paint82_linear)"/>
<path opacity="0.88" d="M610.962 140.601L610.948 151.274L602.097 146.174V135.975L610.962 140.601Z" fill="#6286F9"/>
<path opacity="0.88" d="M598.608 134.166L598.594 144.839L589.743 139.739V129.54L598.608 134.166Z" fill="#5E18ED"/>
<path opacity="0.88" d="M614.451 140.248L614.465 150.92L623.309 145.821V135.621L614.451 140.248Z" fill="#6286F9"/>
<path opacity="0.88" d="M613.135 127.386L621.979 132.485L613.149 137.112L604.283 132.485L613.135 127.386Z" fill="#5E18ED"/>
<path opacity="0.88" d="M623.854 119.15L623.84 129.823L614.988 124.723V114.524L623.854 119.15Z" fill="#6286F9"/>
<path opacity="0.88" d="M627.279 119.334L627.293 130.006L636.137 124.906V114.707L627.279 119.334Z" fill="#6286F9"/>
<path opacity="0.88" d="M627.279 133.276L627.293 143.949L636.137 138.849V128.65L627.279 133.276Z" fill="#5E18ED"/>
<path opacity="0.88" d="M598.608 119.687L598.594 130.359L589.743 125.26V115.06L598.608 119.687Z" fill="#6286F9"/>
<path opacity="0.88" d="M602.16 119.334L602.175 130.006L611.019 124.906V114.707L602.16 119.334Z" fill="#6286F9"/>
<path opacity="0.88" d="M600.172 107.955L609.024 112.313L600.186 116.939L591.328 112.313L600.172 107.955Z" fill="url(#paint83_linear)"/>
<path opacity="0.88" d="M614.019 100.672L622.864 105.772L614.026 110.399L605.167 105.772L614.019 100.672Z" fill="#5E18ED"/>
</g>
<g opacity="0.88">
<g opacity="0.64">
<path opacity="0.64" d="M424.082 153.668L443.455 164.835L482.201 142.501V102.248L475.663 106.019V138.729L443.455 157.291L415.075 140.933L408.537 144.705L424.082 153.668Z" fill="url(#paint84_linear)"/>
<path opacity="0.64" d="M439.635 101.612V94.0683L418.903 106.019V134.322L439.635 146.273V138.729L425.441 130.557V109.791L439.635 101.612Z" fill="url(#paint85_linear)"/>
<path opacity="0.64" d="M447.283 101.605L461.47 109.791V130.557L447.283 138.729V146.273L468.015 134.322V106.019L447.283 94.0683V101.605Z" fill="url(#paint86_linear)"/>
<path opacity="0.64" d="M424.083 86.6731L404.71 97.8401V120.167V138.094L411.254 134.322V101.612L443.455 83.0497L471.836 99.4082L478.38 95.6364L443.455 75.5061L424.083 86.6731Z" fill="url(#paint87_linear)"/>
</g>
<path opacity="0.88" d="M508.94 157.341L528.313 168.501L567.059 146.174V105.92L560.521 109.685V142.402L528.313 160.964L499.933 144.606L493.395 148.378L508.94 157.341Z" fill="url(#paint88_linear)"/>
<path opacity="0.88" d="M524.492 105.278V97.7412L503.76 109.692V137.995L524.492 149.939V142.402L510.298 134.223V113.457L524.492 105.278Z" fill="url(#paint89_linear)"/>
<path opacity="0.88" d="M532.141 105.278L546.327 113.457V134.223L532.141 142.402V149.939L552.872 137.995V109.685L532.141 97.7412V105.278Z" fill="url(#paint90_linear)"/>
<path opacity="0.88" d="M508.94 90.346L489.567 101.513V123.84V141.766L496.112 137.995V105.278L528.313 86.7226L556.693 103.074L563.238 99.3022L528.313 79.179L508.94 90.346Z" fill="url(#paint91_linear)"/>
<path opacity="0.88" d="M530.598 122.258L530.605 114.326L537.185 118.119V125.698L530.598 122.258Z" fill="#9F21FA"/>
<path opacity="0.88" d="M527.874 133.672L521.301 129.879L527.867 126.439L534.454 129.879L527.874 133.672Z" fill="#9F21FA"/>
<path opacity="0.88" d="M525.949 122.145L525.935 114.206L519.362 117.999V125.585L525.949 122.145Z" fill="#9F21FA"/>
<path opacity="0.88" d="M445.67 119.15L445.684 105.362L457.111 111.952V125.118L445.67 119.15Z" fill="url(#paint92_linear)"/>
<path opacity="0.88" d="M443.123 135.699L431.696 129.116L443.109 123.141L454.55 129.116L443.123 135.699Z" fill="url(#paint93_linear)"/>
<path opacity="0.88" d="M441.163 118.938L441.149 105.158L429.722 111.748V124.914L441.163 118.938Z" fill="url(#paint94_linear)"/>
</g>
<path d="M584.217 338.669L561.653 325.665L571.148 320.198L612.328 343.938L659.062 316.999V269.534L668.557 264.06V290.066V322.473L640.439 338.669L612.328 354.872L584.217 338.669Z" fill="url(#paint95_linear)"/>
<path d="M591.738 271.801L582.25 266.334L612.328 248.994L647.961 269.534V304.207L638.472 298.733V275.001L612.328 259.935L591.738 271.801Z" fill="url(#paint96_linear)"/>
<path d="M586.191 281.4V305.132L612.328 320.198L632.925 308.332L642.413 313.799L612.328 331.139L576.695 310.599V275.926L586.191 281.4Z" fill="url(#paint97_linear)"/>
<path d="M640.439 241.464L663.003 254.461L653.515 259.935L612.328 236.195L565.601 263.134V310.599L556.106 316.073V290.066V257.66L584.217 241.464L612.328 225.254L640.439 241.464Z" fill="url(#paint98_linear)"/>
<path d="M616.842 291.804L616.863 308.275L630.519 300.407V284.67L616.842 291.804Z" fill="#6286F9"/>
<path d="M610.623 291.267L610.602 307.732L596.946 299.863V284.126L610.623 291.267Z" fill="#4165FF"/>
<path d="M613.984 267.704L599.083 276.286L613.955 284.077L628.878 276.286L613.984 267.704Z" fill="url(#paint99_linear)"/>
<path d="M572.323 339.898L593.995 352.385L584.875 357.641L545.322 334.84L500.435 360.713V406.306L491.314 411.561V386.579V355.458L518.322 339.898L545.322 324.33L572.323 339.898Z" fill="url(#paint100_linear)"/>
<path d="M565.099 404.124L574.219 409.379L545.322 426.034L511.098 406.306V373.003L520.211 378.258V401.051L545.322 415.524L565.099 404.124Z" fill="url(#paint101_linear)"/>
<path d="M570.426 394.906V372.113L545.322 357.641L525.539 369.041L516.426 363.786L545.322 347.13L579.547 366.858V400.161L570.426 394.906Z" fill="url(#paint102_linear)"/>
<path d="M518.322 433.267L496.65 420.779L505.763 415.524L545.322 438.324L590.21 412.451V366.858L599.323 361.603V386.579V417.706L572.323 433.267L545.322 448.834L518.322 433.267Z" fill="url(#paint103_linear)"/>
<path d="M548.478 388.698L548.499 404.512L561.617 396.955V381.839L548.478 388.698Z" fill="#6286F9"/>
<path d="M542.506 388.175L542.485 403.99L529.367 396.432V381.317L542.506 388.175Z" fill="#4165FF"/>
<path d="M546.461 370.835L532.155 379.078L546.44 386.558L560.768 379.078L546.461 370.835Z" fill="url(#paint104_linear)" stroke="#252F3E" stroke-width="0.75" stroke-miterlimit="10"/>
<path d="M145.615 258.147C145.789 258.148 145.96 258.18 146.123 258.241C146.309 258.313 146.477 258.425 146.615 258.569L149.474 261.576C148.255 263.192 146.641 264.467 144.787 265.278C142.67 266.157 140.392 266.583 138.1 266.528C135.926 266.561 133.768 266.152 131.757 265.325C129.951 264.569 128.329 263.434 127 261.998C125.668 260.539 124.648 258.825 124 256.96C123.288 254.93 122.934 252.792 122.953 250.641C122.928 248.453 123.334 246.282 124.148 244.252C124.9 242.352 126.04 240.63 127.496 239.197C128.951 237.763 130.69 236.649 132.601 235.926C134.704 235.118 136.941 234.717 139.194 234.746C140.3 234.743 141.404 234.848 142.49 235.059C143.478 235.252 144.446 235.537 145.381 235.91C146.246 236.26 147.073 236.697 147.849 237.214C148.578 237.695 149.252 238.256 149.857 238.886L147.427 242.174C147.264 242.375 147.078 242.556 146.873 242.713C146.609 242.892 146.293 242.98 145.974 242.963C145.722 242.965 145.473 242.906 145.248 242.791C145.021 242.674 144.779 242.541 144.521 242.377L143.686 241.838C143.337 241.631 142.971 241.453 142.592 241.307C142.115 241.128 141.624 240.99 141.123 240.893C140.472 240.769 139.81 240.712 139.147 240.721C137.919 240.707 136.702 240.944 135.569 241.417C134.505 241.866 133.553 242.543 132.78 243.4C131.977 244.313 131.361 245.374 130.968 246.525C130.52 247.85 130.301 249.242 130.32 250.641C130.297 252.081 130.516 253.515 130.968 254.882C131.352 256.028 131.954 257.089 132.741 258.006C133.459 258.833 134.35 259.491 135.35 259.936C136.359 260.382 137.451 260.608 138.553 260.6C139.151 260.603 139.748 260.571 140.342 260.506C140.854 260.443 141.359 260.331 141.85 260.17C142.31 260.014 142.752 259.809 143.17 259.561C143.622 259.293 144.048 258.985 144.443 258.639C144.606 258.493 144.79 258.375 144.99 258.288C145.185 258.195 145.399 258.147 145.615 258.147V258.147Z" fill="#252F3E"/>
<path d="M184.494 250.641C184.513 252.779 184.118 254.901 183.33 256.89C182.587 258.795 181.459 260.527 180.015 261.976C178.571 263.425 176.844 264.56 174.94 265.309C170.687 266.934 165.984 266.934 161.731 265.309C159.817 264.55 158.078 263.407 156.622 261.951C155.193 260.51 154.074 258.793 153.333 256.905C151.781 252.87 151.781 248.404 153.333 244.369C154.072 242.484 155.192 240.772 156.622 239.339C158.08 237.888 159.818 236.748 161.731 235.988C165.983 234.358 170.688 234.358 174.94 235.988C176.844 236.754 178.574 237.896 180.026 239.347C181.446 240.788 182.559 242.502 183.299 244.385C184.1 246.373 184.506 248.498 184.494 250.641V250.641ZM177.112 250.641C177.133 249.236 176.933 247.836 176.518 246.493C176.168 245.344 175.582 244.281 174.8 243.369C174.051 242.509 173.112 241.835 172.058 241.401C170.887 240.93 169.633 240.699 168.371 240.721C167.098 240.699 165.834 240.93 164.652 241.401C163.593 241.835 162.649 242.509 161.895 243.369C161.115 244.283 160.53 245.346 160.176 246.493C159.766 247.837 159.565 249.236 159.582 250.641C159.566 252.053 159.766 253.46 160.176 254.812C160.533 255.958 161.118 257.021 161.895 257.936C162.648 258.792 163.593 259.458 164.652 259.881C165.835 260.349 167.099 260.578 168.371 260.553C169.632 260.578 170.886 260.349 172.058 259.881C173.112 259.458 174.052 258.792 174.8 257.936C175.579 257.022 176.164 255.959 176.518 254.812C176.932 253.461 177.133 252.054 177.112 250.641V250.641Z" fill="#252F3E"/>
<path d="M205.726 253.664C205.992 254.249 206.242 254.843 206.508 255.46C206.75 254.835 207.008 254.226 207.289 253.632C207.57 253.039 207.836 252.469 208.125 251.914L216.1 236.199C216.215 235.971 216.362 235.76 216.538 235.574C216.682 235.432 216.851 235.318 217.038 235.238C217.241 235.167 217.455 235.132 217.671 235.137H223.99V266.184H217.639V248.313C217.639 247.446 217.678 246.509 217.764 245.502L209.531 261.474C209.301 261.94 208.943 262.33 208.5 262.599C208.049 262.862 207.536 262.997 207.015 262.99H206.031C205.512 262.998 205.001 262.863 204.555 262.599C204.107 262.333 203.746 261.942 203.516 261.474L195.243 245.478C195.298 245.978 195.337 246.47 195.368 246.962C195.399 247.454 195.415 247.899 195.415 248.313V266.184H189.001V235.145H195.321C195.536 235.14 195.751 235.174 195.954 235.246C196.141 235.325 196.311 235.439 196.454 235.582C196.629 235.768 196.777 235.978 196.891 236.207L204.891 251.984C205.182 252.526 205.461 253.086 205.726 253.664Z" fill="#252F3E"/>
<path d="M246.847 253.664C247.113 254.249 247.363 254.843 247.629 255.46C247.873 254.835 248.134 254.226 248.41 253.632C248.675 253.047 248.957 252.469 249.238 251.914L257.214 236.199C257.328 235.971 257.476 235.76 257.651 235.574C257.795 235.432 257.965 235.318 258.151 235.238C258.354 235.167 258.568 235.132 258.784 235.137H265.103V266.184H258.752V248.313C258.752 247.446 258.792 246.509 258.877 245.502L250.644 261.474C250.414 261.94 250.057 262.33 249.613 262.599C249.163 262.862 248.65 262.997 248.128 262.99H247.144C246.625 262.998 246.114 262.863 245.668 262.599C245.22 262.333 244.859 261.942 244.629 261.474L236.356 245.478C236.411 245.978 236.458 246.47 236.481 246.962C236.505 247.454 236.528 247.899 236.528 248.313V266.184H230.169V235.145H236.497C236.71 235.139 236.922 235.174 237.122 235.246C237.309 235.325 237.478 235.439 237.622 235.582C237.797 235.768 237.945 235.978 238.059 236.207L246.027 251.977C246.319 252.523 246.592 253.086 246.847 253.664Z" fill="#252F3E"/>
<path d="M284.188 260.49C285.075 260.506 285.957 260.344 286.781 260.014C287.519 259.705 288.178 259.236 288.711 258.639C289.255 257.998 289.664 257.255 289.913 256.452C290.202 255.5 290.342 254.51 290.328 253.515V235.145H297.538V253.547C297.557 255.339 297.242 257.119 296.608 258.795C296.024 260.34 295.119 261.743 293.952 262.912C292.763 264.093 291.34 265.011 289.773 265.606C286.165 266.887 282.226 266.887 278.618 265.606C277.047 265.014 275.618 264.099 274.423 262.919C273.256 261.753 272.353 260.349 271.775 258.803C271.15 257.124 270.84 255.345 270.861 253.554V235.145H278.055V253.5C278.04 254.492 278.182 255.481 278.477 256.429C278.723 257.235 279.133 257.982 279.68 258.623C280.206 259.231 280.867 259.707 281.61 260.014C282.429 260.343 283.305 260.505 284.188 260.49V260.49Z" fill="#252F3E"/>
<path d="M307.88 235.145C308.08 235.171 308.275 235.226 308.459 235.309C308.638 235.392 308.804 235.503 308.951 235.637C309.142 235.815 309.32 236.009 309.482 236.215L324.238 254.874C324.184 254.281 324.145 253.695 324.113 253.14C324.082 252.586 324.074 252.047 324.074 251.578V235.145H330.394V266.215H326.644C326.163 266.229 325.684 266.141 325.238 265.958C324.793 265.748 324.41 265.424 324.129 265.02L309.474 246.509C309.474 247.056 309.552 247.579 309.576 248.071C309.599 248.563 309.622 249.079 309.622 249.532V266.184H303.264V235.145H307.06C307.333 235.129 307.607 235.129 307.88 235.145V235.145Z" fill="#252F3E"/>
<path d="M344.502 266.184H337.253V235.145H344.502V266.184Z" fill="#252F3E"/>
<path d="M373.897 235.145V240.862H365.148V266.215H357.938V240.831H349.197V235.145H373.897Z" fill="#252F3E"/>
<path d="M393.435 254.374V266.184H386.224V254.374L374.96 235.145H381.319C381.851 235.116 382.378 235.271 382.811 235.582C383.189 235.883 383.496 236.265 383.709 236.699L388.099 245.744C388.459 246.47 388.787 247.134 389.083 247.751C389.38 248.368 389.646 248.962 389.865 249.563C390.087 248.936 390.348 248.323 390.646 247.728L391.607 245.744L395.95 236.707C396.046 236.509 396.164 236.323 396.302 236.152C396.454 235.966 396.627 235.798 396.817 235.652C397.016 235.499 397.237 235.378 397.473 235.293C397.724 235.202 397.988 235.154 398.254 235.152H404.652L393.435 254.374Z" fill="#252F3E"/>
<path d="M445.391 250.641C445.415 252.78 445.02 254.903 444.227 256.889C443.485 258.737 442.371 260.412 440.953 261.81C439.5 263.23 437.768 264.333 435.868 265.052C433.761 265.852 431.521 266.247 429.267 266.215H417.19V235.145H429.267C431.522 235.116 433.761 235.513 435.868 236.316C437.764 237.043 439.494 238.146 440.953 239.558C442.371 240.955 443.485 242.631 444.227 244.478C445.011 246.438 445.406 248.531 445.391 250.641V250.641ZM438.008 250.641C438.028 249.231 437.828 247.826 437.415 246.478C437.06 245.33 436.476 244.267 435.696 243.354C434.947 242.49 434.009 241.811 432.954 241.37C431.785 240.89 430.531 240.654 429.267 240.674H424.447V260.654H429.267C430.53 260.677 431.784 260.443 432.954 259.967C434.006 259.52 434.943 258.842 435.696 257.983C436.475 257.069 437.059 256.006 437.415 254.859C437.833 253.493 438.033 252.069 438.008 250.641Z" fill="#252F3E"/>
<path d="M477.551 266.184H471.966C471.412 266.212 470.863 266.059 470.404 265.747C470.01 265.474 469.715 265.083 469.56 264.63L467.724 259.209H455.929L454.093 264.63C453.925 265.063 453.634 265.437 453.257 265.708C452.825 266.036 452.292 266.205 451.749 266.184H446.117L458.147 235.145H465.537L477.551 266.184ZM457.592 254.304H466.076L463.193 245.798C463.014 245.259 462.795 244.619 462.545 243.893C462.295 243.166 462.053 242.33 461.811 241.51C461.587 242.38 461.353 243.184 461.108 243.924C460.866 244.658 460.639 245.298 460.428 245.837L457.592 254.304Z" fill="#252F3E"/>
<path d="M492.355 254.374V266.184H485.144V254.374L473.888 235.145H480.239C480.774 235.118 481.302 235.272 481.739 235.582C482.115 235.883 482.419 236.265 482.629 236.699L487.027 245.744L488.004 247.751C488.3 248.36 488.566 248.962 488.785 249.563C489.007 248.936 489.268 248.323 489.566 247.728C489.863 247.118 490.183 246.454 490.519 245.744L494.87 236.707C494.966 236.509 495.084 236.323 495.222 236.152C495.376 235.968 495.549 235.801 495.737 235.652C495.94 235.501 496.163 235.379 496.401 235.293C496.651 235.201 496.916 235.153 497.182 235.152H503.58L492.355 254.374Z" fill="#252F3E"/>
<path d="M235.622 299.528V282.954H241.715C242.699 282.937 243.68 283.044 244.637 283.274C245.346 283.439 246.015 283.745 246.605 284.172C247.097 284.534 247.48 285.023 247.714 285.586C247.956 286.173 248.075 286.803 248.066 287.437C248.067 287.8 248.011 288.161 247.902 288.507C247.796 288.86 247.626 289.191 247.402 289.484C247.159 289.805 246.863 290.082 246.527 290.304C246.13 290.575 245.7 290.793 245.246 290.952C246.166 291.125 247.011 291.575 247.668 292.241C248.205 292.879 248.484 293.696 248.449 294.529C248.457 295.207 248.319 295.879 248.043 296.498C247.762 297.101 247.352 297.635 246.84 298.06C246.264 298.536 245.6 298.894 244.887 299.114C244.03 299.383 243.136 299.512 242.238 299.497L235.622 299.528ZM239.465 289.929H241.465C241.85 289.933 242.234 289.901 242.613 289.835C242.924 289.788 243.221 289.679 243.488 289.515C243.725 289.363 243.912 289.146 244.027 288.89C244.165 288.575 244.232 288.234 244.223 287.89C244.229 287.556 244.179 287.223 244.074 286.906C243.981 286.657 243.822 286.438 243.613 286.273C243.383 286.102 243.115 285.987 242.832 285.938C242.462 285.863 242.085 285.829 241.707 285.836H239.465V289.929ZM239.465 292.498V296.623H242.168C242.593 296.636 243.016 296.573 243.418 296.435C243.712 296.329 243.979 296.158 244.199 295.935C244.375 295.735 244.503 295.497 244.574 295.24C244.642 294.985 244.676 294.723 244.676 294.459C244.678 294.181 244.639 293.905 244.559 293.639C244.479 293.402 244.335 293.191 244.145 293.03C243.915 292.846 243.648 292.712 243.363 292.639C242.97 292.543 242.565 292.498 242.16 292.506L239.465 292.498Z" fill="#FF9900"/>
<path d="M266.541 299.528H263.557C263.263 299.54 262.973 299.458 262.729 299.294C262.523 299.146 262.368 298.939 262.283 298.7L261.307 295.81H255.003L254.026 298.7C253.934 298.928 253.78 299.126 253.581 299.27C253.356 299.44 253.082 299.531 252.8 299.528H249.792L256.182 282.954H260.088L266.541 299.528ZM255.893 293.194H260.416L258.893 288.656C258.791 288.367 258.682 288.023 258.549 287.632C258.417 287.242 258.284 286.851 258.151 286.367C258.036 286.831 257.911 287.26 257.776 287.656C257.651 288.046 257.526 288.39 257.417 288.679L255.893 293.194Z" fill="#FF9900"/>
<path d="M270.892 282.977C270.999 282.992 271.104 283.021 271.204 283.063C271.297 283.109 271.384 283.167 271.462 283.235C271.566 283.332 271.662 283.437 271.751 283.547L279.618 293.498C279.618 293.178 279.563 292.873 279.547 292.569C279.532 292.264 279.547 291.991 279.547 291.725V282.954H282.938V299.528H280.93C280.662 299.541 280.395 299.492 280.149 299.387C279.913 299.271 279.71 299.1 279.555 298.888L271.743 289.015C271.743 289.304 271.782 289.585 271.798 289.866C271.814 290.147 271.798 290.397 271.798 290.647V299.528H268.447V282.954H270.47C270.611 282.952 270.752 282.96 270.892 282.977V282.977Z" fill="#FF9900"/>
<path d="M294.022 296.747C294.495 296.756 294.966 296.711 295.429 296.615C295.827 296.528 296.216 296.405 296.592 296.248V293.725H294.952C294.744 293.734 294.541 293.664 294.382 293.529C294.316 293.466 294.264 293.389 294.229 293.304C294.194 293.22 294.177 293.129 294.179 293.037V290.921H300.069V297.95C299.653 298.25 299.211 298.511 298.749 298.731C298.276 298.956 297.785 299.139 297.28 299.278C296.735 299.429 296.178 299.536 295.616 299.598C294.988 299.67 294.357 299.703 293.726 299.7C292.572 299.712 291.427 299.495 290.359 299.059C289.358 298.65 288.447 298.048 287.679 297.286C286.915 296.518 286.312 295.604 285.906 294.6C285.468 293.529 285.248 292.382 285.258 291.225C285.248 290.061 285.457 288.906 285.875 287.82C286.267 286.814 286.866 285.901 287.632 285.141C288.424 284.373 289.365 283.778 290.398 283.391C291.557 282.962 292.786 282.75 294.022 282.766C294.675 282.762 295.326 282.819 295.968 282.938C296.54 283.041 297.102 283.195 297.647 283.399C298.135 283.59 298.603 283.828 299.045 284.11C299.454 284.366 299.836 284.662 300.186 284.992L299.069 286.695C298.975 286.848 298.846 286.976 298.694 287.07C298.549 287.162 298.381 287.211 298.21 287.211C297.956 287.202 297.71 287.124 297.499 286.984C297.194 286.797 296.913 286.64 296.639 286.508C296.389 286.377 296.128 286.27 295.858 286.187C295.567 286.099 295.269 286.037 294.968 286C294.62 285.964 294.271 285.946 293.921 285.945C293.253 285.933 292.589 286.063 291.976 286.328C291.41 286.571 290.908 286.939 290.507 287.406C290.086 287.892 289.768 288.458 289.57 289.07C289.336 289.767 289.223 290.498 289.234 291.233C289.221 292.029 289.345 292.822 289.601 293.576C289.804 294.203 290.128 294.784 290.554 295.287C290.988 295.757 291.522 296.122 292.116 296.357C292.719 296.614 293.367 296.747 294.022 296.747Z" fill="#FF9900"/>
<path d="M306.826 296.458H312.974V299.528H302.982V282.954H306.826V296.458Z" fill="#FF9900"/>
<path d="M330.784 299.528H327.808C327.514 299.54 327.224 299.458 326.98 299.294C326.77 299.151 326.614 298.942 326.535 298.7L325.551 295.81H319.254L318.27 298.7C318.184 298.929 318.031 299.128 317.833 299.27C317.607 299.439 317.333 299.529 317.051 299.528H313.989L320.403 282.954H324.309L330.784 299.528ZM320.137 293.194H324.668L323.145 288.656L322.793 287.632C322.66 287.242 322.527 286.851 322.403 286.367C322.278 286.831 322.153 287.26 322.028 287.656C321.895 288.046 321.778 288.39 321.66 288.679L320.137 293.194Z" fill="#FF9900"/>
<path d="M347.736 291.233C347.745 292.369 347.536 293.496 347.119 294.553C346.719 295.548 346.115 296.449 345.347 297.198C344.579 297.947 343.663 298.528 342.658 298.903C341.533 299.33 340.338 299.542 339.135 299.528H332.737V282.954H339.174C340.377 282.94 341.572 283.152 342.697 283.579C343.709 283.968 344.631 284.558 345.408 285.313C346.164 286.056 346.76 286.946 347.158 287.929C347.56 288.983 347.756 290.105 347.736 291.233V291.233ZM343.83 291.233C343.839 290.482 343.73 289.733 343.51 289.015C343.322 288.399 343.011 287.828 342.596 287.336C342.194 286.879 341.695 286.519 341.135 286.281C340.511 286.025 339.841 285.9 339.166 285.914H336.565V296.568H339.135C339.809 296.578 340.479 296.453 341.104 296.201C341.666 295.963 342.165 295.599 342.565 295.138C342.981 294.65 343.292 294.081 343.479 293.467C343.7 292.743 343.808 291.99 343.799 291.233H343.83Z" fill="#FF9900"/>
<path d="M360.813 282.954V285.914H354.017V289.819H359.227V292.662H354.017V296.607H360.813V299.567H350.15V282.954H360.813Z" fill="#FF9900"/>
<path d="M372.804 286.32C372.711 286.479 372.589 286.62 372.445 286.734C372.304 286.829 372.137 286.875 371.968 286.867C371.767 286.861 371.571 286.804 371.398 286.703L370.718 286.336C370.441 286.185 370.151 286.06 369.851 285.961C369.49 285.847 369.113 285.791 368.734 285.797C368.16 285.754 367.589 285.917 367.125 286.258C366.948 286.413 366.808 286.605 366.716 286.822C366.624 287.038 366.582 287.273 366.594 287.507C366.59 287.66 366.616 287.811 366.671 287.953C366.726 288.095 366.808 288.225 366.914 288.335C367.156 288.574 367.439 288.767 367.75 288.906C368.133 289.077 368.527 289.223 368.929 289.343C369.375 289.476 369.828 289.624 370.296 289.788C370.759 289.947 371.211 290.138 371.648 290.358C372.087 290.572 372.489 290.857 372.835 291.202C373.19 291.559 373.473 291.981 373.671 292.444C373.897 293.007 374.006 293.61 373.991 294.217C373.997 294.952 373.862 295.681 373.593 296.365C373.334 297.022 372.94 297.618 372.437 298.114C371.901 298.627 371.266 299.023 370.57 299.278C369.766 299.578 368.912 299.723 368.054 299.708C367.53 299.704 367.007 299.652 366.492 299.552C365.959 299.446 365.436 299.294 364.93 299.098C364.442 298.911 363.971 298.681 363.523 298.411C363.104 298.165 362.718 297.866 362.375 297.521L363.508 295.724C363.597 295.588 363.718 295.476 363.859 295.396C364.011 295.317 364.18 295.274 364.352 295.271C364.597 295.276 364.836 295.352 365.039 295.49L365.82 295.966C366.142 296.153 366.479 296.312 366.828 296.443C367.258 296.598 367.714 296.672 368.171 296.662C368.75 296.696 369.322 296.534 369.796 296.201C370.002 296.02 370.162 295.794 370.264 295.54C370.365 295.287 370.406 295.012 370.382 294.74C370.397 294.396 370.283 294.059 370.062 293.795C369.83 293.537 369.545 293.332 369.226 293.194C368.846 293.018 368.452 292.876 368.047 292.772C367.609 292.647 367.156 292.514 366.695 292.366C366.231 292.218 365.78 292.035 365.344 291.819C364.903 291.608 364.503 291.319 364.164 290.968C363.799 290.588 363.515 290.139 363.328 289.648C363.099 289.023 362.99 288.36 363.008 287.695C363.01 287.069 363.138 286.451 363.383 285.875C363.64 285.285 364.015 284.753 364.484 284.313C365.003 283.831 365.611 283.454 366.273 283.204C367.04 282.92 367.853 282.779 368.671 282.79C369.169 282.789 369.665 282.828 370.156 282.907C370.624 282.982 371.084 283.099 371.531 283.258C371.95 283.409 372.355 283.598 372.741 283.821C373.103 284.026 373.441 284.269 373.749 284.547L372.804 286.32Z" fill="#FF9900"/>
<path d="M390.943 299.528H387.037V292.498H380.303V299.528H376.483V282.954H380.35V289.882H387.084V282.954H390.99L390.943 299.528Z" fill="#FF9900"/>
<path d="M300.866 194.388C300.851 194.956 300.922 195.522 301.076 196.068C301.243 196.539 301.447 196.996 301.686 197.435C301.768 197.562 301.812 197.712 301.811 197.864C301.801 197.981 301.764 198.094 301.701 198.193C301.639 198.293 301.553 198.375 301.451 198.434L300.264 199.215C300.119 199.317 299.949 199.376 299.772 199.387C299.556 199.372 299.353 199.277 299.202 199.122C298.947 198.847 298.72 198.549 298.522 198.231C298.335 197.911 298.147 197.552 297.936 197.114C297.269 197.944 296.421 198.611 295.457 199.063C294.493 199.515 293.439 199.741 292.374 199.723C291.685 199.76 290.996 199.658 290.347 199.425C289.697 199.192 289.101 198.831 288.593 198.364C287.641 197.321 287.139 195.944 287.199 194.533C287.259 193.122 287.876 191.792 288.914 190.834C290.227 189.795 291.874 189.27 293.546 189.358C294.218 189.362 294.889 189.414 295.554 189.514C296.257 189.608 296.975 189.757 297.725 189.928V188.546C297.725 187.109 297.428 186.109 296.842 185.523C295.962 184.852 294.859 184.539 293.757 184.648C293.067 184.649 292.38 184.733 291.71 184.898C291.016 185.061 290.334 185.275 289.671 185.539C289.455 185.635 289.233 185.719 289.007 185.789C288.908 185.818 288.806 185.836 288.703 185.843C288.437 185.843 288.304 185.656 288.304 185.258V184.375C288.284 184.146 288.331 183.915 288.437 183.711C288.582 183.54 288.763 183.404 288.968 183.313C290.635 182.517 292.457 182.104 294.304 182.102C296.553 182.102 298.21 182.618 299.264 183.664C300.319 184.711 300.826 186.234 300.826 188.312V194.443L300.866 194.388ZM293.187 197.263C293.852 197.254 294.511 197.138 295.14 196.919C295.833 196.678 296.453 196.261 296.936 195.708C297.24 195.37 297.461 194.966 297.585 194.529C297.716 193.992 297.779 193.441 297.772 192.889V192.108C297.198 191.969 296.616 191.862 296.03 191.787C295.442 191.71 294.85 191.671 294.257 191.67C293.255 191.6 292.26 191.876 291.437 192.451C291.123 192.717 290.876 193.053 290.715 193.431C290.553 193.809 290.482 194.22 290.507 194.63C290.467 194.994 290.508 195.362 290.629 195.707C290.749 196.052 290.945 196.366 291.203 196.625C291.461 196.885 291.774 197.083 292.118 197.205C292.463 197.328 292.831 197.371 293.194 197.333L293.187 197.263ZM308.38 199.309C308.125 199.335 307.869 199.265 307.662 199.114C307.459 198.914 307.321 198.658 307.263 198.38L302.818 183.758C302.728 183.506 302.67 183.244 302.647 182.977C302.636 182.914 302.641 182.85 302.66 182.79C302.679 182.73 302.711 182.674 302.755 182.629C302.799 182.583 302.853 182.549 302.913 182.528C302.973 182.507 303.037 182.5 303.1 182.508H304.951C305.226 182.466 305.506 182.533 305.732 182.696C305.923 182.901 306.053 183.155 306.107 183.43L309.287 195.927L312.239 183.43C312.279 183.154 312.405 182.897 312.599 182.696C312.832 182.55 313.106 182.484 313.38 182.508H314.895C315.17 182.471 315.449 182.538 315.677 182.696C315.879 182.891 316.006 183.151 316.036 183.43L319.028 196.107L322.301 183.43C322.361 183.157 322.49 182.904 322.676 182.696C322.908 182.547 323.183 182.481 323.457 182.508H325.215C325.279 182.499 325.344 182.505 325.405 182.526C325.466 182.546 325.522 182.58 325.568 182.625C325.614 182.671 325.649 182.726 325.671 182.787C325.692 182.848 325.699 182.913 325.691 182.977C325.697 183.078 325.697 183.18 325.691 183.282C325.657 183.44 325.612 183.597 325.558 183.75L320.825 198.434C320.771 198.717 320.632 198.976 320.426 199.176C320.211 199.311 319.961 199.377 319.707 199.364H318.083C317.808 199.397 317.531 199.331 317.301 199.176C317.103 198.96 316.977 198.687 316.942 198.395L314.013 186.195L311.099 198.372C311.059 198.662 310.934 198.934 310.74 199.153C310.511 199.309 310.234 199.379 309.958 199.348L308.38 199.309ZM332.691 199.817C331.709 199.817 330.731 199.701 329.777 199.473C329.018 199.314 328.284 199.051 327.597 198.692C327.355 198.579 327.151 198.397 327.011 198.169C326.938 198.001 326.901 197.82 326.902 197.638V196.669C326.902 196.271 327.05 196.083 327.332 196.083C327.449 196.085 327.565 196.106 327.675 196.146C327.785 196.146 327.957 196.255 328.144 196.333C328.815 196.624 329.514 196.847 330.23 196.997C330.971 197.146 331.724 197.222 332.48 197.224C333.439 197.279 334.395 197.062 335.237 196.599C335.545 196.413 335.798 196.149 335.971 195.833C336.144 195.518 336.231 195.162 336.221 194.802C336.229 194.558 336.189 194.315 336.101 194.087C336.014 193.859 335.882 193.651 335.714 193.474C335.159 193.006 334.504 192.669 333.8 192.49L331.058 191.639C329.87 191.335 328.811 190.659 328.035 189.71C327.425 188.926 327.093 187.961 327.09 186.968C327.076 186.236 327.25 185.512 327.597 184.867C327.935 184.257 328.399 183.724 328.956 183.305C329.546 182.858 330.214 182.524 330.925 182.321C331.699 182.099 332.502 181.991 333.308 182.001C333.733 181.997 334.158 182.02 334.581 182.071C335.011 182.133 335.409 182.204 335.807 182.282C336.206 182.36 336.589 182.469 336.885 182.586C337.157 182.671 337.419 182.783 337.667 182.922C337.888 183.035 338.081 183.199 338.229 183.399C338.355 183.582 338.415 183.802 338.401 184.024V184.914C338.401 185.305 338.252 185.515 337.971 185.515C337.719 185.486 337.476 185.409 337.253 185.289C336.109 184.785 334.87 184.534 333.62 184.555C332.75 184.501 331.881 184.682 331.105 185.078C330.815 185.249 330.578 185.498 330.421 185.796C330.263 186.093 330.192 186.429 330.214 186.765C330.208 187.016 330.256 187.265 330.352 187.497C330.449 187.728 330.594 187.937 330.777 188.109C331.392 188.596 332.103 188.95 332.862 189.147L335.55 189.999C336.688 190.291 337.709 190.923 338.479 191.811C339.054 192.573 339.359 193.504 339.346 194.459C339.36 195.219 339.191 195.972 338.854 196.653C338.523 197.302 338.054 197.87 337.479 198.317C336.856 198.807 336.142 199.168 335.378 199.379C334.509 199.661 333.603 199.808 332.691 199.817Z" fill="#252F3E"/>
<path d="M336.261 209.01C330.011 213.603 320.996 216.04 313.224 216.04C302.841 216.091 292.813 212.267 285.101 205.316C284.516 204.784 285.047 204.066 285.742 204.48C293.213 208.791 301.581 211.313 310.19 211.848C318.799 212.383 327.415 210.917 335.362 207.565C336.393 207.096 337.284 208.252 336.261 209.01ZM338.854 206.058C338.073 205.034 333.597 205.565 331.574 205.815C330.964 205.886 330.87 205.355 331.417 204.964C334.979 202.465 340.791 203.183 341.502 204.011C342.213 204.839 341.315 210.713 337.987 213.509C337.471 213.946 336.979 213.72 337.206 213.15C337.963 211.275 339.651 207.026 338.854 206.058V206.058Z" fill="#FF9900"/>
<path d="M503.619 290.296H405.316V292.194H503.619V290.296Z" fill="#FF9900"/>
<path d="M221.24 290.296H122.938V292.194H221.24V290.296Z" fill="#FF9900"/>
<g opacity="0.88">
<g opacity="0.64">
<path opacity="0.64" d="M222.651 12.7508L241.302 2L278.604 23.5017V62.255L272.31 58.6238V27.1261L241.302 9.26242L213.979 25.0045L207.685 21.3801L222.651 12.7508Z" fill="url(#paint105_linear)"/>
<path opacity="0.64" d="M237.624 62.8671V70.1295L217.665 58.6238V31.3761L237.624 19.8705V27.1261L223.959 35.0005V54.9926L237.624 62.8671Z" fill="url(#paint106_linear)"/>
<path opacity="0.64" d="M244.987 62.8671L258.645 54.9926V35.0005L244.987 27.1261V19.8705L264.946 31.3761V58.6238L244.987 70.1295V62.8671Z" fill="url(#paint107_linear)"/>
<path opacity="0.64" d="M222.651 77.2491L204 66.4983V44.9966V27.7449L210.301 31.3761V62.8671L241.302 80.7375L268.624 64.9887L274.925 68.6199L241.302 88L222.651 77.2491Z" fill="url(#paint108_linear)"/>
</g>
<path opacity="0.88" d="M243.434 45.9826L243.448 59.2563L254.449 52.9118V40.2298L243.434 45.9826Z" fill="url(#paint109_linear)"/>
<path opacity="0.88" d="M240.982 30.0501L229.981 36.3877L240.968 42.1406L251.983 36.3877L240.982 30.0501Z" fill="url(#paint110_linear)"/>
<path opacity="0.88" d="M239.095 46.1798L239.081 59.4534L228.08 53.109V40.4338L239.095 46.1798Z" fill="url(#paint111_linear)"/>
</g>
</g>
<defs>
<linearGradient id="paint0_linear" x1="234.118" y1="407.436" x2="163.355" y2="407.436" gradientUnits="userSpaceOnUse">
<stop stop-color="#5E18ED"/>
<stop offset="1" stop-color="#4165FF"/>
</linearGradient>
<linearGradient id="paint1_linear" x1="237.79" y1="381.754" x2="167.027" y2="381.754" gradientUnits="userSpaceOnUse">
<stop stop-color="#5E18ED"/>
<stop offset="1" stop-color="#FF334C"/>
</linearGradient>
<linearGradient id="paint2_linear" x1="50961.8" y1="27780.4" x2="50961.8" y2="32895.6" gradientUnits="userSpaceOnUse">
<stop stop-color="#4165FF"/>
<stop offset="1" stop-color="#FF9900"/>
</linearGradient>
<linearGradient id="paint3_linear" x1="121.057" y1="412.098" x2="121.057" y2="351.983" gradientUnits="userSpaceOnUse">
<stop stop-color="#4165FF"/>
<stop offset="1" stop-color="#EF6E48"/>
</linearGradient>
<linearGradient id="paint4_linear" x1="34859" y1="33211.9" x2="34859" y2="28095.5" gradientUnits="userSpaceOnUse">
<stop stop-color="#F9D238"/>
<stop offset="0.04" stop-color="#F7BD3B"/>
<stop offset="0.1" stop-color="#F4A040"/>
<stop offset="0.17" stop-color="#F28A44"/>
<stop offset="0.25" stop-color="#F07A46"/>
<stop offset="0.33" stop-color="#EF7148"/>
<stop offset="0.45" stop-color="#EF6E48"/>
<stop offset="1" stop-color="#6C88FF"/>
</linearGradient>
<linearGradient id="paint5_linear" x1="9593.08" y1="28313.7" x2="9593.08" y2="24754.2" gradientUnits="userSpaceOnUse">
<stop stop-color="#4165FF"/>
<stop offset="1" stop-color="#9FB5FB"/>
</linearGradient>
<linearGradient id="paint6_linear" x1="10329.7" y1="28313.7" x2="10329.7" y2="24754.2" gradientUnits="userSpaceOnUse">
<stop stop-color="#4165FF"/>
<stop offset="1" stop-color="#9FB5FB"/>
</linearGradient>
<linearGradient id="paint7_linear" x1="34495.4" y1="35372.1" x2="34495.4" y2="30255.6" gradientUnits="userSpaceOnUse">
<stop stop-color="#9F21FA"/>
<stop offset="1" stop-color="#6749BE"/>
</linearGradient>
<linearGradient id="paint8_linear" x1="26942.7" y1="33390.2" x2="26942.7" y2="28273.8" gradientUnits="userSpaceOnUse">
<stop stop-color="#F9D238"/>
<stop offset="0.04" stop-color="#F7BD3B"/>
<stop offset="0.1" stop-color="#F4A040"/>
<stop offset="0.17" stop-color="#F28A44"/>
<stop offset="0.25" stop-color="#F07A46"/>
<stop offset="0.33" stop-color="#EF7148"/>
<stop offset="0.45" stop-color="#EF6E48"/>
<stop offset="1" stop-color="#FF3E46"/>
</linearGradient>
<linearGradient id="paint9_linear" x1="7422.34" y1="28462" x2="7422.34" y2="24902.5" gradientUnits="userSpaceOnUse">
<stop stop-color="#4165FF"/>
<stop offset="1" stop-color="#9FB5FB"/>
</linearGradient>
<linearGradient id="paint10_linear" x1="8159.73" y1="28462" x2="8159.73" y2="24902.5" gradientUnits="userSpaceOnUse">
<stop stop-color="#4165FF"/>
<stop offset="1" stop-color="#9FB5FB"/>
</linearGradient>
<linearGradient id="paint11_linear" x1="26579.1" y1="35550.3" x2="26579.1" y2="30433.9" gradientUnits="userSpaceOnUse">
<stop stop-color="#BE2DE5"/>
<stop offset="0.927083" stop-color="#FA3357"/>
<stop offset="1" stop-color="#F98E15"/>
</linearGradient>
<linearGradient id="paint12_linear" x1="30725.7" y1="27449.3" x2="30725.7" y2="22332.9" gradientUnits="userSpaceOnUse">
<stop stop-color="#FE3FBD"/>
<stop offset="0.04" stop-color="#F7BD3B"/>
<stop offset="0.1" stop-color="#F4A040"/>
<stop offset="0.17" stop-color="#F28A44"/>
<stop offset="0.317708" stop-color="#F07A46"/>
<stop offset="0.567708" stop-color="#EF7148"/>
<stop offset="0.75" stop-color="#484FEF"/>
<stop offset="1" stop-color="#4152E8"/>
</linearGradient>
<linearGradient id="paint13_linear" x1="8459.67" y1="23518.5" x2="8459.67" y2="19958.9" gradientUnits="userSpaceOnUse">
<stop stop-color="#4165FF"/>
<stop offset="1" stop-color="#9FB5FB"/>
</linearGradient>
<linearGradient id="paint14_linear" x1="9196.69" y1="23518.5" x2="9196.69" y2="19958.9" gradientUnits="userSpaceOnUse">
<stop stop-color="#4165FF"/>
<stop offset="1" stop-color="#9FB5FB"/>
</linearGradient>
<linearGradient id="paint15_linear" x1="30362.1" y1="29609.4" x2="30362.1" y2="24493" gradientUnits="userSpaceOnUse">
<stop stop-color="#FF334C"/>
<stop offset="0.234375" stop-color="#FF334C"/>
<stop offset="0.5625" stop-color="#3065ED" stop-opacity="0.99"/>
<stop offset="1" stop-color="#18A0ED"/>
</linearGradient>
<linearGradient id="paint16_linear" x1="12402.6" y1="9613.23" x2="13163" y2="9172.59" gradientUnits="userSpaceOnUse">
<stop stop-color="#5E18ED"/>
<stop offset="1" stop-color="#4165FF"/>
</linearGradient>
<linearGradient id="paint17_linear" x1="118.524" y1="372.982" x2="118.524" y2="390.795" gradientUnits="userSpaceOnUse">
<stop stop-color="#4165FF"/>
<stop offset="0.04" stop-color="#496CFF"/>
<stop offset="0.2" stop-color="#6886FD"/>
<stop offset="0.38" stop-color="#809BFC"/>
<stop offset="0.56" stop-color="#92AAFC"/>
<stop offset="0.76" stop-color="#9CB2FB"/>
<stop offset="1" stop-color="#9FB5FB"/>
</linearGradient>
<linearGradient id="paint18_linear" x1="11944.1" y1="9446.24" x2="12398.5" y2="9183.11" gradientUnits="userSpaceOnUse">
<stop stop-color="#5E18ED"/>
<stop offset="1" stop-color="#4165FF"/>
</linearGradient>
<linearGradient id="paint19_linear" x1="38772.2" y1="21959" x2="38772.2" y2="27074.2" gradientUnits="userSpaceOnUse">
<stop stop-color="#4165FF"/>
<stop offset="1" stop-color="#FF9900"/>
</linearGradient>
<linearGradient id="paint20_linear" x1="38408.6" y1="24121.7" x2="38408.6" y2="29238.1" gradientUnits="userSpaceOnUse">
<stop stop-color="#4165FF"/>
<stop offset="1" stop-color="#EF6E48"/>
</linearGradient>
<linearGradient id="paint21_linear" x1="15350" y1="12428.4" x2="16110.4" y2="11987.8" gradientUnits="userSpaceOnUse">
<stop stop-color="#5E18ED"/>
<stop offset="1" stop-color="#4165FF"/>
</linearGradient>
<linearGradient id="paint22_linear" x1="31201.1" y1="6910.41" x2="31201.1" y2="7359.49" gradientUnits="userSpaceOnUse">
<stop stop-color="#4165FF"/>
<stop offset="0.04" stop-color="#496CFF"/>
<stop offset="0.2" stop-color="#6886FD"/>
<stop offset="0.38" stop-color="#809BFC"/>
<stop offset="0.56" stop-color="#92AAFC"/>
<stop offset="0.76" stop-color="#9CB2FB"/>
<stop offset="1" stop-color="#9FB5FB"/>
</linearGradient>
<linearGradient id="paint23_linear" x1="14891.5" y1="12260.7" x2="15345.8" y2="11997.6" gradientUnits="userSpaceOnUse">
<stop stop-color="#5E18ED"/>
<stop offset="1" stop-color="#4165FF"/>
</linearGradient>
<linearGradient id="paint24_linear" x1="178.688" y1="380.335" x2="196.384" y2="380.335" gradientUnits="userSpaceOnUse">
<stop stop-color="#4165FF"/>
<stop offset="1" stop-color="#5E18ED"/>
</linearGradient>
<linearGradient id="paint25_linear" x1="5754.74" y1="5995.4" x2="5754.74" y2="5664.03" gradientUnits="userSpaceOnUse">
<stop stop-color="#4165FF"/>
<stop offset="1" stop-color="#9FB5FB"/>
</linearGradient>
<linearGradient id="paint26_linear" x1="5583.08" y1="5987.39" x2="5583.08" y2="5656.01" gradientUnits="userSpaceOnUse">
<stop stop-color="#4165FF"/>
<stop offset="1" stop-color="#9FB5FB"/>
</linearGradient>
<linearGradient id="paint27_linear" x1="11736.7" y1="3066.51" x2="12179.3" y2="3066.51" gradientUnits="userSpaceOnUse">
<stop stop-color="#4165FF"/>
<stop offset="1" stop-color="#5E18ED"/>
</linearGradient>
<linearGradient id="paint28_linear" x1="43096.7" y1="33355.5" x2="50765.8" y2="33355.5" gradientUnits="userSpaceOnUse">
<stop stop-color="#5E18ED"/>
<stop offset="1" stop-color="#FF334C"/>
</linearGradient>
<linearGradient id="paint29_linear" x1="12737.5" y1="28884.9" x2="13344.9" y2="28884.9" gradientUnits="userSpaceOnUse">
<stop stop-color="#5E18ED"/>
<stop offset="1" stop-color="#4165FF"/>
</linearGradient>
<linearGradient id="paint30_linear" x1="13597.4" y1="28884.9" x2="14204.8" y2="28884.9" gradientUnits="userSpaceOnUse">
<stop stop-color="#5E18ED"/>
<stop offset="1" stop-color="#4165FF"/>
</linearGradient>
<linearGradient id="paint31_linear" x1="42698.3" y1="35751.2" x2="50368.9" y2="35751.2" gradientUnits="userSpaceOnUse">
<stop stop-color="#5E18ED"/>
<stop offset="1" stop-color="#F9D238"/>
</linearGradient>
<linearGradient id="paint32_linear" x1="7769.89" y1="11594.1" x2="7769.89" y2="11041.3" gradientUnits="userSpaceOnUse">
<stop stop-color="#5E18ED"/>
<stop offset="1" stop-color="#4165FF"/>
</linearGradient>
<linearGradient id="paint33_linear" x1="14793.7" y1="7179.76" x2="14793.7" y2="6956.47" gradientUnits="userSpaceOnUse">
<stop stop-color="#5E18ED"/>
<stop offset="1" stop-color="#4165FF"/>
</linearGradient>
<linearGradient id="paint34_linear" x1="7496.09" y1="11596" x2="7496.09" y2="11043.5" gradientUnits="userSpaceOnUse">
<stop stop-color="#5E18ED"/>
<stop offset="1" stop-color="#4165FF"/>
</linearGradient>
<linearGradient id="paint35_linear" x1="-39859.5" y1="74654.4" x2="-46935.8" y2="74654.4" gradientUnits="userSpaceOnUse">
<stop stop-color="#5E18ED"/>
<stop offset="1" stop-color="#4165FF"/>
</linearGradient>
<linearGradient id="paint36_linear" x1="-39500" y1="76865.9" x2="-46577" y2="76865.9" gradientUnits="userSpaceOnUse">
<stop stop-color="#5E18ED"/>
<stop offset="1" stop-color="#FF334C"/>
</linearGradient>
<linearGradient id="paint37_linear" x1="-11250.9" y1="69588" x2="-18327.2" y2="69588" gradientUnits="userSpaceOnUse">
<stop stop-color="#F9D238"/>
<stop offset="0.04" stop-color="#F7BD3B"/>
<stop offset="0.1" stop-color="#F4A040"/>
<stop offset="0.17" stop-color="#F28A44"/>
<stop offset="0.25" stop-color="#F07A46"/>
<stop offset="0.33" stop-color="#EF7148"/>
<stop offset="0.45" stop-color="#EF6E48"/>
<stop offset="1" stop-color="#E8416B"/>
</linearGradient>
<linearGradient id="paint38_linear" x1="-3635.25" y1="60614.5" x2="-3635.25" y2="57055.5" gradientUnits="userSpaceOnUse">
<stop stop-color="#4165FF"/>
<stop offset="1" stop-color="#E8416B"/>
</linearGradient>
<linearGradient id="paint39_linear" x1="-4373.8" y1="60614.5" x2="-4373.8" y2="57055.5" gradientUnits="userSpaceOnUse">
<stop stop-color="#4165FF"/>
<stop offset="1" stop-color="#FF9900"/>
</linearGradient>
<linearGradient id="paint40_linear" x1="-14424" y1="74358" x2="-14424" y2="69241.6" gradientUnits="userSpaceOnUse">
<stop stop-color="#5E18ED"/>
<stop offset="1" stop-color="#F15A24"/>
</linearGradient>
<linearGradient id="paint41_linear" x1="1120.83" y1="76055.2" x2="-5956.16" y2="76055.2" gradientUnits="userSpaceOnUse">
<stop stop-color="#5E18ED"/>
<stop offset="1" stop-color="#4165FF"/>
</linearGradient>
<linearGradient id="paint42_linear" x1="1484.41" y1="78266.6" x2="-5592.57" y2="78266.6" gradientUnits="userSpaceOnUse">
<stop stop-color="#5E18ED"/>
<stop offset="1" stop-color="#FF334C"/>
</linearGradient>
<linearGradient id="paint43_linear" x1="5142.7" y1="82144" x2="-1933.58" y2="82144" gradientUnits="userSpaceOnUse">
<stop stop-color="#5E18ED"/>
<stop offset="1" stop-color="#FF334C"/>
</linearGradient>
<linearGradient id="paint44_linear" x1="1140.38" y1="69340.3" x2="579.9" y2="69340.3" gradientUnits="userSpaceOnUse">
<stop stop-color="#5E18ED"/>
<stop offset="1" stop-color="#4165FF"/>
</linearGradient>
<linearGradient id="paint45_linear" x1="400.069" y1="69340.3" x2="-160.216" y2="69340.3" gradientUnits="userSpaceOnUse">
<stop stop-color="#5E18ED"/>
<stop offset="1" stop-color="#4165FF"/>
</linearGradient>
<linearGradient id="paint46_linear" x1="5506.43" y1="84355.5" x2="-1569.84" y2="84355.5" gradientUnits="userSpaceOnUse">
<stop stop-color="#5E18ED"/>
<stop offset="1" stop-color="#F9D238"/>
</linearGradient>
<linearGradient id="paint47_linear" x1="-2941.37" y1="82164.1" x2="-10017.7" y2="82164.1" gradientUnits="userSpaceOnUse">
<stop stop-color="#5E18ED"/>
<stop offset="1" stop-color="#4165FF"/>
</linearGradient>
<linearGradient id="paint48_linear" x1="-2578.09" y1="84376.1" x2="-9655.08" y2="84376.1" gradientUnits="userSpaceOnUse">
<stop stop-color="#5E18ED"/>
<stop offset="0.17" stop-color="#8749BE"/>
<stop offset="0.37" stop-color="#AF798E"/>
<stop offset="0.56" stop-color="#CFA069"/>
<stop offset="0.73" stop-color="#E6BB4E"/>
<stop offset="0.89" stop-color="#F4CC3E"/>
<stop offset="1" stop-color="#F9D238"/>
</linearGradient>
<linearGradient id="paint49_linear" x1="-19572.9" y1="69175.6" x2="-26648.5" y2="69175.6" gradientUnits="userSpaceOnUse">
<stop stop-color="#5E18ED"/>
<stop offset="1" stop-color="#FF334C"/>
</linearGradient>
<linearGradient id="paint50_linear" x1="-5666.83" y1="59537.3" x2="-7092.63" y2="58971" gradientUnits="userSpaceOnUse">
<stop stop-color="#4165FF"/>
<stop offset="1" stop-color="#9FB5FB"/>
</linearGradient>
<linearGradient id="paint51_linear" x1="-6081.07" y1="59537.3" x2="-7506.5" y2="58971.3" gradientUnits="userSpaceOnUse">
<stop stop-color="#4165FF"/>
<stop offset="1" stop-color="#9FB5FB"/>
</linearGradient>
<linearGradient id="paint52_linear" x1="-19208.7" y1="71387.1" x2="-26284.9" y2="71387.1" gradientUnits="userSpaceOnUse">
<stop stop-color="#5E18ED"/>
<stop offset="1" stop-color="#4165FF"/>
</linearGradient>
<linearGradient id="paint53_linear" x1="-35353.8" y1="77507.3" x2="-35353.8" y2="72390.9" gradientUnits="userSpaceOnUse">
<stop stop-color="#F9D238"/>
<stop offset="0.04" stop-color="#F7BD3B"/>
<stop offset="0.1" stop-color="#F4A040"/>
<stop offset="0.17" stop-color="#F28A44"/>
<stop offset="0.25" stop-color="#F07A46"/>
<stop offset="0.33" stop-color="#EF7148"/>
<stop offset="0.45" stop-color="#EF6E48"/>
<stop offset="1" stop-color="#E8416B"/>
</linearGradient>
<linearGradient id="paint54_linear" x1="-9274.39" y1="65105" x2="-9274.39" y2="61545.4" gradientUnits="userSpaceOnUse">
<stop stop-color="#4165FF"/>
<stop offset="1" stop-color="#9FB5FB"/>
</linearGradient>
<linearGradient id="paint55_linear" x1="-10010.9" y1="65105" x2="-10010.9" y2="61545.4" gradientUnits="userSpaceOnUse">
<stop stop-color="#4165FF"/>
<stop offset="1" stop-color="#9FB5FB"/>
</linearGradient>
<linearGradient id="paint56_linear" x1="-34990.2" y1="79718.8" x2="-34990.2" y2="74602.4" gradientUnits="userSpaceOnUse">
<stop stop-color="#5E18ED"/>
<stop offset="1" stop-color="#FF334C"/>
</linearGradient>
<linearGradient id="paint57_linear" x1="-27437.5" y1="77689.8" x2="-27437.5" y2="72573.4" gradientUnits="userSpaceOnUse">
<stop stop-color="#F9D238"/>
<stop offset="0.04" stop-color="#F7BD3B"/>
<stop offset="0.1" stop-color="#F4A040"/>
<stop offset="0.17" stop-color="#F28A44"/>
<stop offset="0.25" stop-color="#F07A46"/>
<stop offset="0.33" stop-color="#EF7148"/>
<stop offset="0.45" stop-color="#EF6E48"/>
<stop offset="1" stop-color="#E8416B"/>
</linearGradient>
<linearGradient id="paint58_linear" x1="-7103.64" y1="65257.5" x2="-7103.64" y2="61697.9" gradientUnits="userSpaceOnUse">
<stop stop-color="#4165FF"/>
<stop offset="1" stop-color="#9FB5FB"/>
</linearGradient>
<linearGradient id="paint59_linear" x1="-7840.91" y1="65257.5" x2="-7840.91" y2="61697.9" gradientUnits="userSpaceOnUse">
<stop stop-color="#4165FF"/>
<stop offset="1" stop-color="#9FB5FB"/>
</linearGradient>
<linearGradient id="paint60_linear" x1="-27073.9" y1="79901.3" x2="-27073.9" y2="74784.8" gradientUnits="userSpaceOnUse">
<stop stop-color="#5E18ED"/>
<stop offset="1" stop-color="#FF334C"/>
</linearGradient>
<linearGradient id="paint61_linear" x1="-31220.5" y1="71607.6" x2="-31220.5" y2="66491.2" gradientUnits="userSpaceOnUse">
<stop stop-color="#F9D238"/>
<stop offset="0.04" stop-color="#F7BD3B"/>
<stop offset="0.1" stop-color="#F4A040"/>
<stop offset="0.17" stop-color="#F28A44"/>
<stop offset="0.25" stop-color="#F07A46"/>
<stop offset="0.33" stop-color="#EF7148"/>
<stop offset="0.45" stop-color="#EF6E48"/>
<stop offset="1" stop-color="#E8416B"/>
</linearGradient>
<linearGradient id="paint62_linear" x1="-8140.97" y1="60172.7" x2="-8140.97" y2="56613.1" gradientUnits="userSpaceOnUse">
<stop stop-color="#4165FF"/>
<stop offset="1" stop-color="#9FB5FB"/>
</linearGradient>
<linearGradient id="paint63_linear" x1="-8877.87" y1="60172.7" x2="-8877.87" y2="56613.1" gradientUnits="userSpaceOnUse">
<stop stop-color="#4165FF"/>
<stop offset="1" stop-color="#9FB5FB"/>
</linearGradient>
<linearGradient id="paint64_linear" x1="-30856.9" y1="73819.1" x2="-30856.9" y2="68702.7" gradientUnits="userSpaceOnUse">
<stop stop-color="#5E18ED"/>
<stop offset="1" stop-color="#FF334C"/>
</linearGradient>
<linearGradient id="paint65_linear" x1="-19657.6" y1="104743" x2="-26733.8" y2="104743" gradientUnits="userSpaceOnUse">
<stop stop-color="#F9D238"/>
<stop offset="0.04" stop-color="#F7BD3B"/>
<stop offset="0.1" stop-color="#F4A040"/>
<stop offset="0.17" stop-color="#F28A44"/>
<stop offset="0.25" stop-color="#F07A46"/>
<stop offset="0.33" stop-color="#EF7148"/>
<stop offset="0.45" stop-color="#EF6E48"/>
<stop offset="1" stop-color="#E8416B"/>
</linearGradient>
<linearGradient id="paint66_linear" x1="-5940.46" y1="90013.6" x2="-5940.46" y2="86454" gradientUnits="userSpaceOnUse">
<stop stop-color="#4165FF"/>
<stop offset="1" stop-color="#E8416B"/>
</linearGradient>
<linearGradient id="paint67_linear" x1="-6678.17" y1="90013.6" x2="-6678.17" y2="86454" gradientUnits="userSpaceOnUse">
<stop stop-color="#4165FF"/>
<stop offset="1" stop-color="#FF9900"/>
</linearGradient>
<linearGradient id="paint68_linear" x1="-22829.8" y1="109513" x2="-22829.8" y2="104397" gradientUnits="userSpaceOnUse">
<stop stop-color="#5E18ED"/>
<stop offset="1" stop-color="#F15A24"/>
</linearGradient>
<linearGradient id="paint69_linear" x1="151.729" y1="26265.1" x2="151.729" y2="25755.1" gradientUnits="userSpaceOnUse">
<stop stop-color="#5E18ED"/>
<stop offset="1" stop-color="#4165FF"/>
</linearGradient>
<linearGradient id="paint70_linear" x1="551.679" y1="16176.6" x2="551.679" y2="15970.5" gradientUnits="userSpaceOnUse">
<stop stop-color="#5E18ED"/>
<stop offset="1" stop-color="#4165FF"/>
</linearGradient>
<linearGradient id="paint71_linear" x1="374.309" y1="26270.6" x2="374.309" y2="25760.6" gradientUnits="userSpaceOnUse">
<stop stop-color="#5E18ED"/>
<stop offset="1" stop-color="#4165FF"/>
</linearGradient>
<linearGradient id="paint72_linear" x1="-15238.1" y1="102409" x2="-15238.1" y2="107525" gradientUnits="userSpaceOnUse">
<stop stop-color="#4165FF"/>
<stop offset="1" stop-color="#FF9900"/>
</linearGradient>
<linearGradient id="paint73_linear" x1="-14874.5" y1="104633" x2="-14874.5" y2="109749" gradientUnits="userSpaceOnUse">
<stop stop-color="#4165FF"/>
<stop offset="1" stop-color="#EF6E48"/>
</linearGradient>
<linearGradient id="paint74_linear" x1="20908.7" y1="25443.3" x2="21669.2" y2="25883.9" gradientUnits="userSpaceOnUse">
<stop stop-color="#5E18ED"/>
<stop offset="1" stop-color="#4165FF"/>
</linearGradient>
<linearGradient id="paint75_linear" x1="41614.5" y1="16925.5" x2="41614.5" y2="16476.5" gradientUnits="userSpaceOnUse">
<stop stop-color="#4165FF"/>
<stop offset="0.04" stop-color="#496CFF"/>
<stop offset="0.2" stop-color="#6886FD"/>
<stop offset="0.38" stop-color="#809BFC"/>
<stop offset="0.56" stop-color="#92AAFC"/>
<stop offset="0.76" stop-color="#9CB2FB"/>
<stop offset="1" stop-color="#9FB5FB"/>
</linearGradient>
<linearGradient id="paint76_linear" x1="20450.3" y1="25602" x2="20904.6" y2="25865.2" gradientUnits="userSpaceOnUse">
<stop stop-color="#5E18ED"/>
<stop offset="1" stop-color="#4165FF"/>
</linearGradient>
<linearGradient id="paint77_linear" x1="-2074.98" y1="23885.1" x2="-3559.18" y2="23885.1" gradientUnits="userSpaceOnUse">
<stop stop-color="#4165FF"/>
<stop offset="0.04" stop-color="#496CFF"/>
<stop offset="0.2" stop-color="#6886FD"/>
<stop offset="0.38" stop-color="#809BFC"/>
<stop offset="0.56" stop-color="#92AAFC"/>
<stop offset="0.76" stop-color="#9CB2FB"/>
<stop offset="1" stop-color="#9FB5FB"/>
</linearGradient>
<linearGradient id="paint78_linear" x1="10536.1" y1="3775.34" x2="10978.7" y2="3775.34" gradientUnits="userSpaceOnUse">
<stop stop-color="#4165FF"/>
<stop offset="1" stop-color="#5E18ED"/>
</linearGradient>
<linearGradient id="paint79_linear" x1="5621.38" y1="5845.08" x2="5621.38" y2="6176.46" gradientUnits="userSpaceOnUse">
<stop stop-color="#4165FF"/>
<stop offset="1" stop-color="#9FB5FB"/>
</linearGradient>
<linearGradient id="paint80_linear" x1="5449.84" y1="5852.39" x2="5449.84" y2="6183.76" gradientUnits="userSpaceOnUse">
<stop stop-color="#4165FF"/>
<stop offset="1" stop-color="#9FB5FB"/>
</linearGradient>
<linearGradient id="paint81_linear" x1="11205.4" y1="3775.34" x2="11648" y2="3775.34" gradientUnits="userSpaceOnUse">
<stop stop-color="#4165FF"/>
<stop offset="1" stop-color="#5E18ED"/>
</linearGradient>
<linearGradient id="paint82_linear" x1="-13.1173" y1="10777.8" x2="-455.695" y2="10777.8" gradientUnits="userSpaceOnUse">
<stop stop-color="#4165FF"/>
<stop offset="0.04" stop-color="#496CFF"/>
<stop offset="0.2" stop-color="#6886FD"/>
<stop offset="0.38" stop-color="#809BFC"/>
<stop offset="0.56" stop-color="#92AAFC"/>
<stop offset="0.76" stop-color="#9CB2FB"/>
<stop offset="1" stop-color="#9FB5FB"/>
</linearGradient>
<linearGradient id="paint83_linear" x1="-630.984" y1="10777.8" x2="-1073.56" y2="10777.8" gradientUnits="userSpaceOnUse">
<stop stop-color="#4165FF"/>
<stop offset="0.04" stop-color="#496CFF"/>
<stop offset="0.2" stop-color="#6886FD"/>
<stop offset="0.38" stop-color="#809BFC"/>
<stop offset="0.56" stop-color="#92AAFC"/>
<stop offset="0.76" stop-color="#9CB2FB"/>
<stop offset="1" stop-color="#9FB5FB"/>
</linearGradient>
<linearGradient id="paint84_linear" x1="41926.5" y1="14233.6" x2="49595.6" y2="14233.6" gradientUnits="userSpaceOnUse">
<stop stop-color="#5E18ED"/>
<stop offset="1" stop-color="#FF334C"/>
</linearGradient>
<linearGradient id="paint85_linear" x1="12414.2" y1="10871.1" x2="13021.7" y2="10871.1" gradientUnits="userSpaceOnUse">
<stop stop-color="#5E18ED"/>
<stop offset="1" stop-color="#4165FF"/>
</linearGradient>
<linearGradient id="paint86_linear" x1="13274.2" y1="10871.1" x2="13881.6" y2="10871.1" gradientUnits="userSpaceOnUse">
<stop stop-color="#5E18ED"/>
<stop offset="1" stop-color="#4165FF"/>
</linearGradient>
<linearGradient id="paint87_linear" x1="41528.1" y1="11891.4" x2="49198.7" y2="11891.4" gradientUnits="userSpaceOnUse">
<stop stop-color="#5E18ED"/>
<stop offset="1" stop-color="#F9D238"/>
</linearGradient>
<linearGradient id="paint88_linear" x1="54680.8" y1="11781.4" x2="54680.8" y2="17326.7" gradientUnits="userSpaceOnUse">
<stop stop-color="#F9D238"/>
<stop offset="0.04" stop-color="#F7BD3B"/>
<stop offset="0.1" stop-color="#F4A040"/>
<stop offset="0.17" stop-color="#F28A44"/>
<stop offset="0.25" stop-color="#F07A46"/>
<stop offset="0.33" stop-color="#EF7148"/>
<stop offset="0.45" stop-color="#EF6E48"/>
<stop offset="1" stop-color="#E8416B"/>
</linearGradient>
<linearGradient id="paint89_linear" x1="15289.2" y1="9208.15" x2="15289.2" y2="13066.1" gradientUnits="userSpaceOnUse">
<stop stop-color="#4165FF"/>
<stop offset="1" stop-color="#9FB5FB"/>
</linearGradient>
<linearGradient id="paint90_linear" x1="16149.1" y1="9208.15" x2="16149.1" y2="13066.1" gradientUnits="userSpaceOnUse">
<stop stop-color="#4165FF"/>
<stop offset="1" stop-color="#9FB5FB"/>
</linearGradient>
<linearGradient id="paint91_linear" x1="54283.6" y1="9439.97" x2="54283.6" y2="14985.8" gradientUnits="userSpaceOnUse">
<stop stop-color="#5E18ED"/>
<stop offset="1" stop-color="#FF334C"/>
</linearGradient>
<linearGradient id="paint92_linear" x1="7595.34" y1="3612.18" x2="7595.34" y2="4164.76" gradientUnits="userSpaceOnUse">
<stop stop-color="#5E18ED"/>
<stop offset="1" stop-color="#4165FF"/>
</linearGradient>
<linearGradient id="paint93_linear" x1="14436.5" y1="2545.72" x2="14436.5" y2="2769.01" gradientUnits="userSpaceOnUse">
<stop stop-color="#5E18ED"/>
<stop offset="1" stop-color="#4165FF"/>
</linearGradient>
<linearGradient id="paint94_linear" x1="7321.54" y1="3606.66" x2="7321.54" y2="4159.23" gradientUnits="userSpaceOnUse">
<stop stop-color="#5E18ED"/>
<stop offset="1" stop-color="#4165FF"/>
</linearGradient>
<linearGradient id="paint95_linear" x1="85431.2" y1="40052.5" x2="101583" y2="40052.5" gradientUnits="userSpaceOnUse">
<stop stop-color="#5E18ED"/>
<stop offset="1" stop-color="#F15A24"/>
</linearGradient>
<linearGradient id="paint96_linear" x1="615.102" y1="304.207" x2="615.102" y2="248.994" gradientUnits="userSpaceOnUse">
<stop offset="0.01" stop-color="#5E18ED"/>
<stop offset="0.1" stop-color="#611AE9"/>
<stop offset="0.19" stop-color="#6921DC"/>
<stop offset="0.29" stop-color="#782DC7"/>
<stop offset="0.39" stop-color="#8C3DAA"/>
<stop offset="0.49" stop-color="#A65184"/>
<stop offset="0.6" stop-color="#C56B55"/>
<stop offset="0.7" stop-color="#EA881F"/>
<stop offset="0.75" stop-color="#FF9900"/>
<stop offset="1" stop-color="#F9D238"/>
</linearGradient>
<linearGradient id="paint97_linear" x1="54146" y1="24003.3" x2="60249.9" y2="24003.3" gradientUnits="userSpaceOnUse">
<stop stop-color="#5E18ED"/>
<stop offset="1" stop-color="#F15A24"/>
</linearGradient>
<linearGradient id="paint98_linear" x1="556.106" y1="270.664" x2="663.003" y2="270.664" gradientUnits="userSpaceOnUse">
<stop stop-color="#5E18ED"/>
<stop offset="0.33" stop-color="#4165FF"/>
<stop offset="1" stop-color="#F15A24"/>
</linearGradient>
<linearGradient id="paint99_linear" x1="25829.1" y1="6662.85" x2="27083.8" y2="6662.85" gradientUnits="userSpaceOnUse">
<stop stop-color="#4165FF"/>
<stop offset="0.04" stop-color="#496CFF"/>
<stop offset="0.2" stop-color="#6886FD"/>
<stop offset="0.38" stop-color="#809BFC"/>
<stop offset="0.56" stop-color="#92AAFC"/>
<stop offset="0.76" stop-color="#9CB2FB"/>
<stop offset="1" stop-color="#9FB5FB"/>
</linearGradient>
<linearGradient id="paint100_linear" x1="593.995" y1="367.946" x2="491.322" y2="367.946" gradientUnits="userSpaceOnUse">
<stop stop-color="#5E18ED"/>
<stop offset="1" stop-color="#F15A24"/>
</linearGradient>
<linearGradient id="paint101_linear" x1="-7332.05" y1="-28652.9" x2="-7332.05" y2="-24671.4" gradientUnits="userSpaceOnUse">
<stop offset="0.01" stop-color="#5E18ED"/>
<stop offset="0.1" stop-color="#611AE9"/>
<stop offset="0.19" stop-color="#6921DC"/>
<stop offset="0.29" stop-color="#782DC7"/>
<stop offset="0.39" stop-color="#8C3DAA"/>
<stop offset="0.49" stop-color="#A65184"/>
<stop offset="0.6" stop-color="#C56B55"/>
<stop offset="0.7" stop-color="#EA881F"/>
<stop offset="0.75" stop-color="#FF9900"/>
<stop offset="1" stop-color="#F9D238"/>
</linearGradient>
<linearGradient id="paint102_linear" x1="4672.32" y1="29338.6" x2="10303.4" y2="29338.6" gradientUnits="userSpaceOnUse">
<stop stop-color="#5E18ED"/>
<stop offset="1" stop-color="#F15A24"/>
</linearGradient>
<linearGradient id="paint103_linear" x1="-3759.85" y1="-43391" x2="-18659.8" y2="-43391" gradientUnits="userSpaceOnUse">
<stop stop-color="#5E18ED"/>
<stop offset="0.33" stop-color="#4165FF"/>
<stop offset="1" stop-color="#F15A24"/>
</linearGradient>
<linearGradient id="paint104_linear" x1="19051.8" y1="11315.3" x2="20208.9" y2="11315.3" gradientUnits="userSpaceOnUse">
<stop stop-color="#4165FF"/>
<stop offset="0.04" stop-color="#496CFF"/>
<stop offset="0.2" stop-color="#6886FD"/>
<stop offset="0.38" stop-color="#809BFC"/>
<stop offset="0.56" stop-color="#92AAFC"/>
<stop offset="0.76" stop-color="#9CB2FB"/>
<stop offset="1" stop-color="#9FB5FB"/>
</linearGradient>
<linearGradient id="paint105_linear" x1="41303.6" y1="31785.9" x2="48687" y2="31785.9" gradientUnits="userSpaceOnUse">
<stop stop-color="#5E18ED"/>
<stop offset="1" stop-color="#FF334C"/>
</linearGradient>
<linearGradient id="paint106_linear" x1="12075.8" y1="27481.9" x2="12660.6" y2="27481.9" gradientUnits="userSpaceOnUse">
<stop stop-color="#5E18ED"/>
<stop offset="1" stop-color="#4165FF"/>
</linearGradient>
<linearGradient id="paint107_linear" x1="12903.7" y1="27481.9" x2="13488.5" y2="27481.9" gradientUnits="userSpaceOnUse">
<stop stop-color="#5E18ED"/>
<stop offset="1" stop-color="#4165FF"/>
</linearGradient>
<linearGradient id="paint108_linear" x1="40920.1" y1="34092.4" x2="48304.9" y2="34092.4" gradientUnits="userSpaceOnUse">
<stop stop-color="#5E18ED"/>
<stop offset="1" stop-color="#F9D238"/>
</linearGradient>
<linearGradient id="paint109_linear" x1="7293.35" y1="10835.5" x2="7293.35" y2="10303.3" gradientUnits="userSpaceOnUse">
<stop stop-color="#5E18ED"/>
<stop offset="1" stop-color="#4165FF"/>
</linearGradient>
<linearGradient id="paint110_linear" x1="14055.4" y1="6585.64" x2="14055.4" y2="6370.67" gradientUnits="userSpaceOnUse">
<stop stop-color="#5E18ED"/>
<stop offset="1" stop-color="#4165FF"/>
</linearGradient>
<linearGradient id="paint111_linear" x1="7029.75" y1="10837.3" x2="7029.75" y2="10305.4" gradientUnits="userSpaceOnUse">
<stop stop-color="#5E18ED"/>
<stop offset="1" stop-color="#4165FF"/>
</linearGradient>
<clipPath id="clip0">
<rect width="691" height="507" fill="white"/>
</clipPath>
</defs>
</svg>
