<svg xmlns="http://www.w3.org/2000/svg" xmlns:xlink="http://www.w3.org/1999/xlink" viewBox="0 0 524.96 707.43"><defs><style>.cls-1,.cls-2{fill:blue;}.cls-1{stroke:blue;stroke-miterlimit:10;}.cls-3{fill:#580074;}.cls-4{fill:url(#New_Gradient_Swatch_copy);}.cls-5{fill:url(#linear-gradient);}.cls-6{fill:url(#New_Gradient_Swatch);}.cls-7{fill:url(#linear-gradient-2);}</style><linearGradient id="New_Gradient_Swatch_copy" x1="-14.37" y1="482.58" x2="185.33" y2="622.41" gradientUnits="userSpaceOnUse"><stop offset="0" stop-color="#1b1464"/><stop offset="0.2" stop-color="#1e166d"/><stop offset="0.53" stop-color="#241b87"/><stop offset="0.95" stop-color="#3023b0"/><stop offset="0.99" stop-color="#3124b5"/></linearGradient><linearGradient id="linear-gradient" x1="41.74" y1="368.73" x2="524.96" y2="368.73" gradientUnits="userSpaceOnUse"><stop offset="0" stop-color="#fff"/><stop offset="0.02" stop-color="#fffef6"/><stop offset="0.17" stop-color="#fefabe"/><stop offset="0.32" stop-color="#fdf68e"/><stop offset="0.46" stop-color="#fdf367"/><stop offset="0.6" stop-color="#fdf148"/><stop offset="0.74" stop-color="#fcef33"/><stop offset="0.88" stop-color="#fcee25"/><stop offset="1" stop-color="#fcee21"/></linearGradient><linearGradient id="New_Gradient_Swatch" x1="388.54" y1="644.12" x2="468.74" y2="644.12" gradientUnits="userSpaceOnUse"><stop offset="0" stop-color="#f0f"/><stop offset="0.12" stop-color="#f603f8"/><stop offset="0.33" stop-color="#dc0ae6"/><stop offset="0.59" stop-color="#b316c8"/><stop offset="0.9" stop-color="#7a279f"/><stop offset="0.99" stop-color="#662d91"/></linearGradient><linearGradient id="linear-gradient-2" x1="222.43" y1="74.23" x2="271.87" y2="136.82" gradientUnits="userSpaceOnUse"><stop offset="0" stop-color="#f0f"/><stop offset="0.09" stop-color="#f900ff"/><stop offset="0.22" stop-color="#e900ff"/><stop offset="0.36" stop-color="#cd00ff"/><stop offset="0.51" stop-color="#a700ff"/><stop offset="0.67" stop-color="#7600ff"/><stop offset="0.84" stop-color="#3b00ff"/><stop offset="0.99" stop-color="blue"/></linearGradient></defs><g id="Layer_2" data-name="Layer 2"><g id="Layer_1-2" data-name="Layer 1"><path class="cls-1" d="M467.63,674.52H366.55L148.68,349.69l-62.8,72.62V674.52H.5V13.09H85.88V332h2.94c17.67-25.52,35.33-49.07,52-70.66l2.45-3a47.46,47.46,0,0,0,10.23,4.72c9.81,3.11,21.63,1.9,28.8-5.48,7.48-7.7,8.5-20.27,16.54-27.38,4.85-4.3,11.58-5.95,16.46-10.21,9.81-8.58,9.78-25.39,20.65-32.58,7.3-4.84,18.21-4.22,23.19-11.41,4.66-6.75,1.24-16.63,5.36-23.72,5.61-9.68,21.76-8.94,26.87-18.88,3.3-6.43.48-14.95,4.47-21,4.19-6.34,13.9-6.84,18.45-12.93,3.59-4.8,3-11.8,6.66-16.56,4.2-5.45,12.79-6.38,16.29-12.3,2.09-3.54,1.83-8.08,3.78-11.7,2.07-3.84,6.25-6,10.05-8.13A103.72,103.72,0,0,0,381,25.35a53.31,53.31,0,0,0,7.58-12.26H449L383.16,90.24,360.24,117.1l-1.92.45c-10.4,2.43-21.85,5.57-27.58,14.59-3,4.74-4.23,10.85-8.68,14.27-3.28,2.51-7.72,3.05-11.1,5.43-6.74,4.73-7.17,14.95-13.23,20.51-2.65,2.45-6.12,3.74-9.22,5.57C276,185.26,270.43,201.12,272,215.5c.16,1.44.38,2.85.65,4.26h0l-63.12,74Z"/><path class="cls-2" d="M450.05,14.44,362.46,117.1c-.28-1.41-.49-2.82-.65-4.26-1.57-14.38,4-30.24,16.51-37.58,3.1-1.83,6.56-3.13,9.22-5.57,6-5.57,6.49-15.78,13.22-20.51,3.38-2.38,7.82-2.92,11.11-5.43,4.45-3.42,5.67-9.53,8.68-14.27,5.73-9,17.17-12.16,27.57-14.59Z"/><path class="cls-2" d="M371.77,122.9,284.18,225.56c-.27-1.41-.49-2.83-.64-4.26-1.58-14.39,4-30.25,16.5-37.59,3.11-1.82,6.57-3.12,9.22-5.56,6.06-5.57,6.49-15.79,13.23-20.52,3.38-2.38,7.82-2.92,11.1-5.42,4.45-3.42,5.67-9.53,8.68-14.27,5.74-9,17.18-12.16,27.58-14.6Z"/><path class="cls-3" d="M274.15,219.77h0a1.08,1.08,0,0,0-.13-.58,1.14,1.14,0,0,0-.31-.48,1.11,1.11,0,0,0-.48-.31,1.15,1.15,0,0,0-.58-.13l-.4.06a1.57,1.57,0,0,0-.66.38l-.23.31a1.42,1.42,0,0,0-.21.75h0a1.15,1.15,0,0,0,.13.58,1,1,0,0,0,.31.48,1.14,1.14,0,0,0,.48.31,1.06,1.06,0,0,0,.58.13l.4-.05a1.49,1.49,0,0,0,.66-.39l.24-.3a1.54,1.54,0,0,0,.2-.76Z"/><path class="cls-3" d="M394.16,12.88a1.5,1.5,0,0,0,0-3,1.5,1.5,0,0,0,0,3Z"/><path class="cls-4" d="M44.75,613.45a32.44,32.44,0,0,0,1-5.71,107.39,107.39,0,0,0-2.09-22.58A237.46,237.46,0,0,0,37.69,561c-4.77-19.13-7-25.45-5.7-37.57,1.12-10.43,10.35-12.61,16.49-8.37,7.87,5.44,9.83,12.64,10.31,21.18,1.5,26.81,2.19,35.22,7.12,52.31,1.6,5.5,6.6,11.82,12.86,10.73a9.22,9.22,0,0,0,7.44-9.16c0-4.73-.06-9.46-.24-14.18v0c-1.83-46.61-13.36-92.54-19.38-138.79-2.52-19.37-4.08-38.8-3.55-58.36,0-1.38.11-2.8.25-4.22,1.28-13.53,20.94-15.56,24.06-2.34,7,29.75,5.05,36.64,17.18,60.18,12.75,24.74,19.28,25.93,21.4,35.34l-.13,239.66H42.18V613.14Z"/><path class="cls-2" d="M85.88,68.28V100.9C80,96.05,74.83,90,70,83.45c-7.84-10.53-15-22.2-23.64-31.74C42.82,47.82,38,44,32.9,45.06c-6.49,1.39-8.73,9.45-9,16.08a106.22,106.22,0,0,0,3.66,31.12v0c10.64,41,41,78.29,48.25,121,1.65,9.75.4,22.41-8.93,25.65-5.21,1.8-11-.31-15.6-3.36a42.35,42.35,0,0,1-5.53-4.37c-12-11.2-17.45-28.62-22-44.83L11.64,143.29c-.77-2.72-5.14-10.5-11.14-20.44V13.09H42.61C48.69,28.36,57.28,44.41,69.1,55.15a81.1,81.1,0,0,0,7.73,6.74C79.75,64.12,82.82,66.2,85.88,68.28Z"/><path class="cls-5" d="M524.88,704.67a.46.46,0,0,1-.38.71H392.56l-.44-.67-207-308.57a.45.45,0,0,0-.72,0l-57.93,67a.46.46,0,0,0-.11.3V704.92a.46.46,0,0,1-.45.46H42.19a.46.46,0,0,1-.45-.46V70.17a.46.46,0,0,1,.45-.46H126a.46.46,0,0,1,.45.46l.13,306a.46.46,0,0,1-.13.32l-2.21,2.31a.46.46,0,0,1-.79-.32V73.17a.46.46,0,0,0-.45-.46H45.19a.46.46,0,0,0-.45.46V701.92a.46.46,0,0,0,.45.46H123a.46.46,0,0,0,.45-.46V462.08l.37-.42,61-70.5a.45.45,0,0,1,.72,0L394,702.18a.46.46,0,0,0,.38.2H518.84a.46.46,0,0,0,.38-.71L248.13,302l.74-.87L475.14,35.88a.47.47,0,0,0-.36-.76c-28.85.15-43.14.31-57,.45-14.37.16-29.22.32-60.35.47a.47.47,0,0,0-.35.17L180.6,251.82a2.54,2.54,0,0,1-3.58.36h0a.47.47,0,0,1-.06-.65L355.82,33.05h.7c31.75-.16,46.75-.32,61.25-.48s29.52-.31,61.27-.47h2.28a.46.46,0,0,1,.35.75l-1.48,1.73L252.12,301.9a.47.47,0,0,0,0,.55Z"/><path class="cls-6" d="M468.74,675.1l-43.81-62A83.61,83.61,0,0,0,401,637.87c-9.28,14.61-11.71,29.71-12.46,37.23"/><path class="cls-7" d="M383.29,0a53.28,53.28,0,0,1-7.57,12.26,103.72,103.72,0,0,1-29.89,25.47c-3.81,2.16-8,4.28-10.05,8.13-2,3.62-1.69,8.16-3.78,11.7-3.5,5.92-12.09,6.85-16.29,12.3-3.64,4.76-3.07,11.76-6.66,16.56-4.56,6.09-14.27,6.58-18.45,12.93-4,6-1.17,14.55-4.48,21-5.1,9.94-21.25,9.2-26.86,18.87-4.12,7.1-.7,17-5.37,23.73-5,7.19-15.89,6.57-23.19,11.4-10.86,7.2-10.83,24-20.65,32.59-4.87,4.26-11.61,5.91-16.45,10.2-8,7.12-9.06,19.69-16.54,27.39-7.17,7.38-19,8.58-28.8,5.48A47.49,47.49,0,0,1,138,245.26L337.74,0Z"/></g></g></svg>