<svg xmlns="http://www.w3.org/2000/svg" xmlns:xlink="http://www.w3.org/1999/xlink" viewBox="0 0 319.94 171.54"><defs><style>.cls-1{fill:url(#linear-gradient);}.cls-2{fill:#383838;fill-rule:evenodd;}</style><linearGradient id="linear-gradient" x1="-550.13" y1="654.75" x2="-337.26" y2="720.32" gradientTransform="matrix(1, 0, 0, -1, 564, 785.52)" gradientUnits="userSpaceOnUse"><stop offset="0" stop-color="#f8cb39"/><stop offset="1" stop-color="#ff4045"/></linearGradient></defs><g id="Layer_2" data-name="Layer 2"><g id="Layer_1-2" data-name="Layer 1"><path class="cls-1" d="M257.18,0H0V171.54H319.94v-.12H257.18c-82.56,3.09-77.7-57.28,0-57.28s76.82-55.53,0-55.53S175.06,0,257.18,0Z"/><path class="cls-2" d="M139.49,68.64c.45.9.89,1.8,1.33,2.7l0,0c.23.48.46,1,.68,1.45l0-.1.69,1.39,0-.07.65,1.47v-.06L144,78.15h0c.22.49.44,1,.65,1.47v-.07l.3.7c.31.71.61,1.43.92,2.14l0,0c.22.51.43,1,.64,1.53l0-.1c.21.51.43,1,.64,1.52l0-.08c.15.35.29.71.43,1.06l.19.48,0-.06.05.11c.18.47.37.94.55,1.42.1.24.19.49.29.74l.28.73,1.85,5.54v0l3.18,12.35h0c.13.66.26,1.32.38,2l1,4.93,0-.07c.08.53.16,1,.25,1.56l.24,1.51a.74.74,0,0,1,.08.75c.19,1.35.38,2.69.56,4l.12.83,0,.43,1.61,9.36.06.16c3.09-1.36,3.59-7.28,3.69-12.5.1-4.92-.16-9.87-.41-14.82-.1-2.13-.21-4.25-.29-6.37V99l-1.35-7.48.06.07-.47-1.87-.07-.5-.6-2.14v.08c-.26-.73-.52-1.46-.77-2.18s-.52-1.46-.77-2.2l-.29-.8c-.21-.61-.43-1.21-.64-1.81v0h0l-.17-.34q-3.33-6.75-6.65-13.51h0a81.93,81.93,0,0,1-11.72-26.2l-.39-1.33-.15-.5v0c-.24-.87-.48-1.74-.73-2.62l0,.06-.73-2.8-.36-1.49-.16-.63-.58-2.28a1.28,1.28,0,0,1-.33-1c-.17-.7-.35-1.39-.52-2.09-.39-1.5-.78-3-1.09-4.59q-1.49-7.47-2.95-15c-.37-1.92-.75-3.83-1.13-5.75h22q2.28,5.69,4.54,11.44h0l3.21,8.12v.1l.33.68c.21.43.42.87.62,1.3l.1.23c.28.71.57,1.42.86,2.14l-.06-.1.66,1.47,0-.07c.2.51.41,1,.62,1.52l0-.06.32.66.36.73v-.08l1.25,2.76h0l.67,1.46,0-.09.33.74.34.75-.05-.09.33.76.32.76L165,35c.25.53.5,1.07.74,1.6l3,7.6,3,7.62,1.05,3.1a1,1,0,0,1,.21.8l.6,1.88v0c.25.88.51,1.76.76,2.63l-.05-.1.5,1.72,2.55,11.09.52,2.86a220.13,220.13,0,0,1-.35,75.52v.07c-.23.88-.46,1.76-.68,2.64h0l-.78,2.57h0L174.11,162l0,.05-2.8,5.28-.21.4h0l-1.49,2.07-1.28,1.78H141.08q0-3.49,0-7h0c0-11.61,0-23.23-.39-34.76A110.82,110.82,0,0,0,138.6,114h0c-.43-2.36-.87-4.72-1.23-7.09l.23-.38-.24.34c-.4-1.37-.81-2.75-1.21-4.13l.12-.3-.14.24-1.28-3.78-.09-.29-2.5-7.47-3.41-6.43-3-6-.67-1.46,0,.1L124.51,76l0,.13c-.21-.42-.43-.84-.65-1.25l-.08-.14.07.15-.53-.94c-.18-.31-.36-.62-.53-.94l0-.07-4.44-8.18-.18-.34-.09-.16h0l-.29-.52-.29-.58L117,62.06l-1-1.69-.31-.62-.31-.61,0,0c-.22-.43-.43-.87-.65-1.31l0,0-.17-.37-.48-1-.67-1.36,0,.11c-.11-.23-.22-.47-.32-.7l-.18-.39-.15-.31c-.2-.47-.41-.93-.62-1.4l-.34-.69L111.5,51v.07c-.8-1.9-1.6-3.81-2.41-5.71h0l-1.34-3.89c-.45-1.3-.89-2.6-1.34-3.89l0-.22-.52-1.75v.06l-.54-3.44,0-.23q-.9-5.72-1.81-11.43V10.37l0-10.23V0h16.17c.12,3.51.28,7,.45,10.53l.06,1.29c.1,1.54.19,3.07.29,4.61.07.38.15.77.22,1.15s.15.78.23,1.17a1.23,1.23,0,0,1,.11.91l.27,1.64.27,1.64.14.24,0,.38c.24,1.13.49,2.25.73,3.38q2.94,8.61,5.87,17.24l2.08,6.08,0,.18c.23.48.45,1,.68,1.45h0l-.06-.13.69,1.47,0-.07c.49,1,1,2,1.45,2.93s1,2,1.45,2.93h0l.69,1.36,0-.11c.22.49.45,1,.67,1.46v0l0-.13c.24.46.49.92.74,1.38l-.06-.16c.23.49.47,1,.7,1.45l-.05-.13,1.06,1.88ZM79,171.54H29.7a189,189,0,0,0-2.29-24.61,532.09,532.09,0,0,1-7-80.07c-.1-7.73-.56-15.44-1-23.15h0c-.21-3.5-.42-7-.59-10.51-.24-1.49-.48-3-.73-4.48l0,.07-.14-.73C17.55,26,17.17,24,16.78,21.9l0-.07-.09-.49h0c-.2-1.11-.41-2.22-.61-3.32l0-.28Q15.53,13.35,14.92,9L15,8.5A55.09,55.09,0,0,1,14.38,0H50.54a136.23,136.23,0,0,1-.95,20.56c-.65,5.63-1.46,11.16-2.28,16.69h0c-.36,2.48-.73,5-1.08,7.47l0,.49c-1.16,13-1.44,26,.58,38.77l0-.1,0,.13,0,.07c.18.92.36,1.85.55,2.77l0-.09,0,.1c.21.93.41,1.85.62,2.77l0-.08.71,2.79,0-.12L49.34,95l.06.16v.06l1.74,5.36v0l3.23,8.1h0c.42.89.83,1.79,1.24,2.68q2.76,5.58,5.51,11.17l.64,1.38,1.33,2.62.54,1.06.43.85.22.45h0l.21.44.21.43.67,1.3.44.89.86,1.73c.22.44.43.89.65,1.33l4.21,9.84,0,.09.71,2.05.51,1.47,0,.09L74.06,152c.42,1.38.85,2.76,1.27,4.15q.66,2.52,1.34,5l.51,1.92.91,4.17c.3,1.41.61,2.82.92,4.22ZM0,7.14,2,0H0Zm0,164.4v-108C.26,64.65.52,65.82.79,67L1,68.27l1.21,4.64h0l.28,2.14.29,2.13L5.6,86.74l2.82,9.55.91,2.25.9,2.24h0v0q.72,2.59,1.43,5.18h0c.15.59.3,1.17.46,1.76v0c.44,1.82.87,3.65,1.31,5.47l0,0,.11.51.75,3.32-.24.19.25-.14v0l1.11,5.67,0,0c2.81,12.39,3.17,25.65,2.73,39.19L18,164.07l-.1,2.11-.33,5.36ZM222.61,0h17.77l.22.89a98.14,98.14,0,0,0-17,3.36C223.28,2.84,222.94,1.43,222.61,0Zm16,57.34a125,125,0,0,0,14.67,1.22,330.05,330.05,0,0,1,3.13,50.91c0,1.55-.05,3.11-.1,4.67a131,131,0,0,0-14.21.82q.52-6.73,1-13.5C244.26,85.42,242,70.93,238.63,57.34Zm31.83,48.45q-.58,3.94-1,7.85c13.4-1.14,23.84-4.13,31.33-8.17-1.17-13.57-2.45-27-4.15-40.08-6.92-3-15.78-5.23-26.55-6.22C273,73.52,273,89.19,270.46,105.79Zm-33.15,65.05a137.58,137.58,0,0,0,18.28.64v.06H237.25Zm35.09.58v.12h28v-.12ZM252.29,0V.07c1.59,0,3.22-.07,4.88-.07ZM95.83,171.54l-.39-1.06-.26-.62-.25-.62-.32-.81c-.1-.26-.2-.53-.31-.8l0,0-1.17-2.91,0,0-1.5-3.47.12-.34-.15.28L88.85,155l0-.09-.47-1-.26-.56-.22-.46,0,.06-1-2.06-.62-1.3-.68-1.43-.29-.6L85,147l-.34-.78-.32-.75,0,.07-2.74-5.59-2.8-5.7-.61-1.32-.62-1.33L77,130.08l-.19-.44c-.13-.28-.25-.57-.38-.86l-.63-1.4-.34-.74-.33-.73-.54-1.19,0,0L71.8,118.2v-.1l-.62-1.43,0-.4-.07.38-1.64-4.6,0,0-3.66-11.28-3.81-16.6,0,.08-.71-4.2,0,.12c-2.94-14.13-2.63-29-2.12-44,.09-2.34.17-4.68.26-7h0c.35-9.72.71-19.46.72-29.17H93.82c.15,2.71.23,5.41.2,8.11-.16,17.16-.33,34.2,1.66,51l0,.51.43,2.31a1.21,1.21,0,0,1,.14.9l2.46,10.08,6,12.26v0l.14.28.67,1.36,0,0,.81,1,0-.1,2.64,3.09.16-.07.09.3,15.5,15.33q1.06,2.44,2.15,4.87l2.16,4.9h0c.31,2.92.67,5.83,1,8.74h0c.79,6.39,1.59,12.78,1.78,19.26.28,9.13.47,18.27.62,27.41ZM174.72,0h34c.21,3.52.47,7,.74,10.54-18.47,11.87-15.06,30.82,8.09,41,1.57,4.65,3.14,9.3,4.78,13.83,5.76,16,8.32,33.3,8.88,51.4-43,9.72-46.33,43.22-4.19,52.4-.21.78-.42,1.56-.61,2.35H185.11c4.07-12,5.42-26.74,4.57-43.46-.06-1.24-.1-2.48-.15-3.73h0l-.06-1.73a90.44,90.44,0,0,1-.05-31v-1.8l2.16-25.07c.05-1.07.11-2.14.16-3.22.83-11.88-1.24-22.18-3.51-32.37l-1-3.43-.12-.34v0l-.11-.35-.14-.42c-1.8-3.57-3.57-7.22-5.34-10.86h0C179.24,9.05,177,4.45,174.72,0Zm137,96.41c-1.07-6.33-2-12.77-2.9-19.24-.2-1.47-.36-3-.49-4.44C316.06,79.93,317.22,88.76,311.69,96.41Zm3.94,75,0,.12h4.33v-.12Z"/></g></g></svg>