<svg xmlns="http://www.w3.org/2000/svg" xmlns:xlink="http://www.w3.org/1999/xlink" viewBox="0 0 241.75 171.54"><defs><style>.cls-1{fill:url(#linear-gradient);}.cls-2{fill:#383838;fill-rule:evenodd;}</style><linearGradient id="linear-gradient" x1="-548.12" y1="279.4" x2="-308.03" y2="365.34" gradientTransform="matrix(1, 0, 0, -1, 564, 409.52)" gradientUnits="userSpaceOnUse"><stop offset="0" stop-color="#f8cb39"/><stop offset="1" stop-color="#ff4045"/></linearGradient></defs><g id="Layer_2" data-name="Layer 2"><g id="Layer_1-2" data-name="Layer 1"><path class="cls-1" d="M60.11,0H241.75V171.42H60.11c-82.56,3.09-77.7-57.28,0-57.28s76.82-55.53,0-55.53S-22,0,60.11,0Z"/><path class="cls-2" d="M148.79,171.09l-36.46.14q-3-26.37-3.38-53.94c-.06-4.94-.27-9.86-.54-14.79,14-10.26,12.72-25-3.74-34.53-.4-2.86-.79-5.72-1.19-8.58l.11-.46c-1.38-8.9-.38-17.21,1.25-25.37V33c.28-1.88.55-3.75.83-5.62h0c.61-4.2,1.23-8.41,1.86-12.6A120.44,120.44,0,0,0,108.88,0H130l1.11,5,0,0,1,4.46V9.5l0,.09,0,.08,0,.08,0,.1,0,.11,0,.12,0,.12,0,.15,1.32,5.82.26,1.17c.09.41.18.81.26,1.21.22,1.09.43,2.17.65,3.25l0-.12.63,2.91,0-.09.52,2.62,0,.09,0,.27.13.23-.06.35,1,5,.63,4.22c2.14,11.09,1.81,22.46.52,33.73-.65,5.63-1.46,11.16-2.27,16.7h0c-.36,2.49-.73,5-1.08,7.47l0,.49c-1.16,13-1.44,26,.58,38.77l0-.1,0,.19.36,1.85.19.93,0-.08,0,.06v.06c.2.91.41,1.83.61,2.75l.69,2.7,0-.12.68,2.77,1.81,5.59h0l3.23,8.1h0l.8,1.72.45,1ZM87.66,60.89l-.12.59a113.27,113.27,0,0,0-21.07-2.74l1.23-5.15,0,.14L68.38,51l.52-1.72-.08.1.79-2.66,0,.05,3.78-12.43h0l.58-1.63-.07.16.74-2.79.38-1.4L76,25l0-.06L77.7,19v0l1.85-7,0,0,.06-.23.06-.25L82.46,0H103.4c-.18,1.08-.35,2.17-.53,3.25h0c-.33,2-.67,4.09-1,6.13l-.27,1.43-.26,1.43L100.11,18l0-.1c-.42,1.76-.85,3.51-1.28,5.27v0l0,.22,0-.06-.21.76v0l-1,3.55,0,0-2,6.66,0,.08L95.09,36l0-.09L95,36.2c-.16.44-.32.88-.49,1.31l.06,0-.25.77,0,0c-.35,1.07-.71,2.14-1.06,3.21l0,0-.2.58c-.55,1.68-1.11,3.36-1.66,5h0l-.13.47,0,.14q-1.82,6.61-3.61,13.22Zm1.69,56.52c-.47-2.06-.93-4.13-1.4-6.19a121.42,121.42,0,0,1-27.84,2.92c-.88,0-1.75,0-2.61,0a51.33,51.33,0,0,1-3.69,8.51c-2.14,3.88-4.46,7.28-6.77,10.68-1,1.51-2.07,3-3.09,4.59V138l-4.68,6,0-.08-5.65,7-.17.21L31.29,154v0l-2.58,3.89,0,0-.62.84-.62.84c-.23,0-.4.28-.5.74l-.62,1.08-.62,1.08,0,0-.69,1.28,0-.08-.7,1.4,0-.11c-.23.44-.47.88-.71,1.31l0-.1-.52.95-.18.32c9.39,3,21.72,4.64,37.06,4.06l43.44-.16-.72-3.67,0-.1-.25.13.14-.11.1-.08-.75-3.32h0l-.11-.5,0,0-.61-2.56-.69-2.88-.24-.94-.22-.83,0,0-1.44-5.17v0h0l-.9-2.25L97,146.72l-2.8-9.49-2.84-9.61-.2-1.46-.37-2.81h0l-1.21-4.63ZM25.05,4.72c-27.63,9-31.47,28.62-13.9,41.56C16.78,34.1,21,19.52,25.05,4.72Zm5.62,50.4a111.08,111.08,0,0,0,26.24,3.46q7.31-18,7.32-43.66,0-3.36,0-6.73h0c0-2.71,0-5.43,0-8.14H60.11A140.24,140.24,0,0,0,39.9,1.36l0,.57C38.2,21.05,35.84,39.66,30.67,55.12ZM161.38,171l-1-2.41v-.09l-.62-1.44,0-.4-.06.38-1.65-4.59,0,0-3.66-11.27-3.8-16.61,0,.09-.71-4.21,0,.13c-2.93-14.14-2.63-29-2.11-44,.08-2.34.16-4.69.25-7h0c.41-11.18.82-22.39.69-33.54a117.67,117.67,0,0,0-1.55-15.64h0c-.33-2.34-.67-4.69-.94-7L141.23,0h26.66q4,8.16,7.94,16.31l0,.11.08.15.09.18.11.24.13.26.2.51c.14.32.27.64.4,1l.44,1,.17.38c.18.51.36,1,.53,1.54h0l.46,1.43.14.41c.5,1.55,1,3.1,1.51,4.65.14.58.28,1.16.43,1.73l.46,2.43.09.44c.16,2.66.37,5.33.58,8h0c.47,5.92.93,11.84.88,17.73-.17,17.16-.34,34.2,1.65,51l0,.51.43,2.31a1.22,1.22,0,0,1,.14.9l2.46,10.08,6.25,12.84.54,1.1,0,0,.81,1,0-.1,2.64,3.1.16-.08.09.31,15.5,15.33,2.13,4.83q1.09,2.46,2.18,4.93h0c.14,1.43.31,2.85.48,4.27Zm-136-46.91h0c.58-1.81,1.15-3.62,1.74-5.42-29.35,9.36-35.38,31-15.58,43.46,5.3-11.37,9.57-24.7,13.83-38ZM190.52,0h39.77c.44,4.92.66,10,.75,15.15.18,10.88,1.71,20.16,5,28.14,1.65,4,3.27,8,4.87,12V123q-1.55-3.14-3.1-6.29h0a81.73,81.73,0,0,1-11.72-26.2l-.39-1.32-.15-.5v0L224.85,86l0,.06-.74-2.81c-.12-.5-.24-1-.37-1.51l-.15-.61L223,78.88a1.35,1.35,0,0,1-.33-1c-.17-.7-.35-1.39-.52-2.08-.39-1.51-.77-3-1.09-4.59q-1.49-7.48-3-15c-1.67-8.53-3.34-17.06-5.07-25.54a68.46,68.46,0,0,0-1.88-6.85c-.32-1-.64-2-.93-3.07l-.94.76c-1.9,13-1.27,26.22-.64,39.48l.06,1.29c.1,1.54.19,3.08.29,4.61.07.39.15.78.22,1.16s.15.78.23,1.16a1.25,1.25,0,0,1,.11.92c.09.57.19,1.14.28,1.72s.17,1,.26,1.55l.14.24-.05.39c.25,1.12.49,2.24.73,3.37q2.93,8.56,5.84,17.12l2.11,6.2v.18c.11.26.23.52.35.77s.22.46.32.69l-.06-.13c.23.49.46,1,.7,1.47l0-.06q1.44,2.92,2.9,5.86h0l.69,1.35,0-.11.68,1.49,0-.13.74,1.38-.06-.15.15.31.55,1.14-.05-.14,1.06,1.89q1.29,2.64,2.59,5.28l0,0v0c.23.47.45,1,.68,1.43l-.05-.11c.23.47.46.93.7,1.4l0-.08.65,1.47v-.06l1.26,2.71h0l.66,1.47V130l1.21,2.83,0,0,.21.51.42,1,0-.09c.21.5.43,1,.64,1.52l0-.09.61,1.54,0-.06,0,.09c.19.48.38,1,.56,1.44l.57,1.48,1.85,5.53,0,.05,1.75,6.83v18.17l-12.68,0c-.34-2.12-.72-4.22-1.11-6.33h0c-.43-2.36-.86-4.72-1.22-7.09l.22-.38-.24.35-.73-2.5-.48-1.63.13-.31-.15.25-1.28-3.78-.09-.3-2.5-7.46-3.41-6.44-3-6-.67-1.46,0,.1-.72-1.38.06.13-.26-.48-.39-.76-.08-.15.06.16-.18-.32-.35-.62-.07-.12-.21-.38-.25-.44,0-.08-4.45-8.17-.57-1-.38-.76-.45-.9-1-1.69-.29-.57-.33-.66,0,0-.65-1.32,0,0-.65-1.4-.67-1.35,0,.1c-.1-.22-.21-.44-.31-.67l0-.06,0,0-.19-.41-.1-.21c-.2-.47-.41-.93-.62-1.39s-.45-.92-.68-1.38v.08l-2.4-5.72h0L196.34,92l0-.06-.12-.34L195,88l0-.21-.51-1.76v.07l-.58-3.64-.06-.38,0-.16Q193,76.49,192.1,71l0-10.22,0-10.23.1-2.24q.12-4.17.25-8.34h0c.2-6.21.39-12.42.46-18.63A79.8,79.8,0,0,0,190.52,0Z"/></g></g></svg>